<svg width="39" height="24" viewBox="0 0 39 24" fill="none" xmlns="http://www.w3.org/2000/svg">
<rect width="39" height="24" rx="4" fill="white"/>
<path d="M23.0171 5.7121H15.9888V18.2841H23.0171V5.7121Z" fill="#FF5F00"/>
<path d="M16.4351 11.9981C16.4351 9.55483 17.573 7.22258 19.4919 5.71217C16.0112 2.9801 10.9463 3.57982 8.20191 7.0671C5.47982 10.5322 6.08225 15.5521 9.58527 18.2841C12.5082 20.572 16.5913 20.572 19.5142 18.2841C17.573 16.7737 16.4351 14.4415 16.4351 11.9981Z" fill="#EB001B"/>
<path d="M32.5 11.9981C32.5 16.4183 28.9077 19.9944 24.4676 19.9944C22.6603 19.9944 20.9199 19.3947 19.5142 18.2841C22.9949 15.5521 23.5974 10.5322 20.853 7.04488C20.4514 6.55622 20.0052 6.08977 19.5143 5.71217C22.995 2.9801 28.0599 3.57982 30.782 7.0671C31.8976 8.46645 32.5 10.199 32.5 11.9981Z" fill="#F79E1B"/>
</svg>
