<svg width="1012" height="638" viewBox="0 0 1012 638" fill="none" xmlns="http://www.w3.org/2000/svg">
<g clip-path="url(#clip0_495_653)">
<rect width="1012" height="638" rx="50" fill="#FFC253"/>
<rect x="-150.482" y="-163.055" width="719.431" height="466.929" rx="137.095" transform="rotate(-19.5232 -150.482 -163.055)" fill="#FF5E00"/>
<rect x="440.401" y="460.344" width="577.245" height="374.646" rx="110" transform="rotate(-10.0066 440.401 460.344)" fill="#FF5E00"/>
<path d="M112.93 291.843C112.93 294.933 112.246 297.72 110.878 300.203C109.51 302.635 107.559 304.56 105.026 305.979C102.543 307.397 99.5283 308.107 95.9816 308.107C90.3576 308.107 85.975 306.207 82.8336 302.407C79.6923 298.607 78.1216 293.388 78.1216 286.751V276.035C78.1216 268.941 79.7936 263.647 83.1376 260.151C86.4816 256.655 91.1936 254.907 97.2736 254.907C99.4016 254.907 101.606 255.16 103.886 255.667C106.216 256.173 108.775 257.085 111.562 258.403L108.294 266.231C106.014 265.167 104.012 264.432 102.29 264.027C100.567 263.571 98.971 263.343 97.5016 263.343C94.3096 263.343 91.7256 264.305 89.7496 266.231C87.8243 268.105 86.8616 271.373 86.8616 276.035V278.771C88.635 277.2 90.459 276.035 92.3336 275.275C94.259 274.515 96.159 274.135 98.0336 274.135C101.074 274.135 103.708 274.819 105.938 276.187C108.167 277.555 109.89 279.455 111.106 281.887C112.322 284.319 112.93 287.131 112.93 290.323V291.843ZM86.8616 286.751C86.8616 291.108 87.6723 294.351 89.2936 296.479C90.915 298.607 93.195 299.671 96.1336 299.671C98.667 299.671 100.618 298.961 101.986 297.543C103.354 296.073 104.038 294.173 104.038 291.843V290.323C104.038 287.941 103.404 286.016 102.138 284.547C100.871 283.077 99.047 282.343 96.6656 282.343C93.0683 282.343 89.8003 283.711 86.8616 286.447V286.751ZM149.967 263.495C146.522 270.791 143.583 278.112 141.151 285.459C138.77 292.755 136.87 300.051 135.451 307.347H125.875C127.294 300.152 129.169 292.957 131.499 285.763C133.83 278.568 136.693 271.399 140.087 264.255H117.895V255.667H149.967V263.495ZM190.389 293.287C190.389 296.073 189.73 298.581 188.413 300.811C187.146 303.04 185.196 304.813 182.561 306.131C179.926 307.448 176.582 308.107 172.529 308.107C168.526 308.107 165.284 307.499 162.801 306.283C160.318 305.016 158.494 303.369 157.329 301.343C156.164 299.316 155.581 297.061 155.581 294.579C155.581 292.096 156.164 289.816 157.329 287.739C158.494 285.611 160.42 283.66 163.105 281.887C160.977 280.468 159.33 278.72 158.165 276.643C157.05 274.565 156.493 272.133 156.493 269.347C156.493 266.661 157.126 264.229 158.393 262.051C159.66 259.872 161.509 258.149 163.941 256.883C166.373 255.565 169.286 254.907 172.681 254.907C176.329 254.907 179.394 255.515 181.877 256.731C184.36 257.947 186.209 259.593 187.425 261.671C188.692 263.697 189.325 265.977 189.325 268.511C189.325 270.74 188.793 272.843 187.729 274.819C186.716 276.744 184.993 278.543 182.561 280.215C187.78 283.153 190.389 287.511 190.389 293.287ZM171.997 276.339L175.721 277.479C177.444 276.009 178.634 274.667 179.293 273.451C180.002 272.184 180.357 270.892 180.357 269.575C180.357 267.548 179.698 265.952 178.381 264.787C177.114 263.571 175.29 262.963 172.909 262.963C170.528 262.963 168.678 263.545 167.361 264.711C166.094 265.876 165.461 267.472 165.461 269.499C165.461 272.691 167.64 274.971 171.997 276.339ZM164.549 293.287C164.549 295.313 165.284 296.96 166.753 298.227C168.222 299.443 170.3 300.051 172.985 300.051C175.62 300.051 177.672 299.443 179.141 298.227C180.661 297.011 181.421 295.389 181.421 293.363C181.421 291.843 180.864 290.475 179.749 289.259C178.685 287.992 176.836 286.953 174.201 286.143L170.097 284.851C168.222 286.371 166.829 287.789 165.917 289.107C165.005 290.424 164.549 291.817 164.549 293.287ZM232.536 286.979C232.536 294.072 230.864 299.367 227.52 302.863C224.176 306.359 219.464 308.107 213.384 308.107C211.256 308.107 209.052 307.853 206.772 307.347C204.492 306.84 201.934 305.928 199.096 304.611L202.364 296.783C204.644 297.847 206.646 298.607 208.368 299.063C210.142 299.468 211.738 299.671 213.156 299.671C216.348 299.671 218.907 298.708 220.832 296.783C222.808 294.857 223.796 291.589 223.796 286.979V284.243C222.074 285.813 220.25 286.979 218.324 287.739C216.45 288.499 214.55 288.879 212.624 288.879C209.635 288.879 207 288.195 204.72 286.827C202.491 285.459 200.768 283.559 199.552 281.127C198.336 278.695 197.728 275.883 197.728 272.691V271.171C197.728 268.333 198.412 265.673 199.78 263.191C201.148 260.708 203.099 258.707 205.632 257.187C208.166 255.667 211.18 254.907 214.676 254.907C220.3 254.907 224.683 256.807 227.824 260.607C230.966 264.407 232.536 269.625 232.536 276.263V286.979ZM206.62 272.691C206.62 275.021 207.254 276.947 208.52 278.467C209.838 279.936 211.662 280.671 213.992 280.671C217.59 280.671 220.858 279.303 223.796 276.567V276.263C223.796 271.905 222.986 268.663 221.364 266.535C219.794 264.407 217.514 263.343 214.524 263.343C212.042 263.343 210.091 264.153 208.672 265.775C207.304 267.396 206.62 269.195 206.62 271.171V272.691ZM291.097 295.643H285.701V307.347H276.885V295.643H254.693V288.271C256.973 284.724 259.227 281.127 261.457 277.479C263.737 273.78 265.865 270.107 267.841 266.459C269.817 262.76 271.438 259.163 272.705 255.667H282.661C280.786 260.835 278.253 266.155 275.061 271.627C271.869 277.048 268.575 282.343 265.181 287.511H276.885V279.683H285.701V287.511H291.097V295.643ZM297.887 280.671L299.407 255.667H325.855V264.255H307.463L306.779 275.655C308.552 275.199 310.452 274.971 312.479 274.971C317.495 274.971 321.422 276.288 324.259 278.923C327.096 281.507 328.515 285.332 328.515 290.399V292.451C328.515 295.288 327.932 297.897 326.767 300.279C325.602 302.66 323.727 304.56 321.143 305.979C318.61 307.397 315.24 308.107 311.035 308.107C308.704 308.107 306.272 307.828 303.739 307.271C301.256 306.713 298.52 305.776 295.531 304.459L298.343 296.631C301.028 297.695 303.283 298.48 305.107 298.987C306.982 299.443 308.856 299.671 310.731 299.671C313.568 299.671 315.696 299.088 317.115 297.923C318.584 296.757 319.319 294.933 319.319 292.451V290.399C319.319 288.169 318.66 286.396 317.343 285.079C316.076 283.761 314.024 283.103 311.187 283.103C309.92 283.103 308.603 283.28 307.235 283.635C305.867 283.939 304.398 284.395 302.827 285.003L297.887 280.671ZM371.953 291.843C371.953 294.933 371.269 297.72 369.901 300.203C368.533 302.635 366.582 304.56 364.049 305.979C361.566 307.397 358.552 308.107 355.005 308.107C349.381 308.107 344.998 306.207 341.857 302.407C338.716 298.607 337.145 293.388 337.145 286.751V276.035C337.145 268.941 338.817 263.647 342.161 260.151C345.505 256.655 350.217 254.907 356.297 254.907C358.425 254.907 360.629 255.16 362.909 255.667C365.24 256.173 367.798 257.085 370.585 258.403L367.317 266.231C365.037 265.167 363.036 264.432 361.313 264.027C359.59 263.571 357.994 263.343 356.525 263.343C353.333 263.343 350.749 264.305 348.773 266.231C346.848 268.105 345.885 271.373 345.885 276.035V278.771C347.658 277.2 349.482 276.035 351.357 275.275C353.282 274.515 355.182 274.135 357.057 274.135C360.097 274.135 362.732 274.819 364.961 276.187C367.19 277.555 368.913 279.455 370.129 281.887C371.345 284.319 371.953 287.131 371.953 290.323V291.843ZM345.885 286.751C345.885 291.108 346.696 294.351 348.317 296.479C349.938 298.607 352.218 299.671 355.157 299.671C357.69 299.671 359.641 298.961 361.009 297.543C362.377 296.073 363.061 294.173 363.061 291.843V290.323C363.061 287.941 362.428 286.016 361.161 284.547C359.894 283.077 358.07 282.343 355.689 282.343C352.092 282.343 348.824 283.711 345.885 286.447V286.751ZM408.991 263.495C405.545 270.791 402.607 278.112 400.175 285.459C397.793 292.755 395.893 300.051 394.475 307.347H384.899C386.317 300.152 388.192 292.957 390.523 285.763C392.853 278.568 395.716 271.399 399.111 264.255H376.919V255.667H408.991V263.495ZM431.035 280.671L432.555 255.667H459.003V264.255H440.611L439.927 275.655C441.701 275.199 443.601 274.971 445.627 274.971C450.643 274.971 454.57 276.288 457.407 278.923C460.245 281.507 461.663 285.332 461.663 290.399V292.451C461.663 295.288 461.081 297.897 459.915 300.279C458.75 302.66 456.875 304.56 454.291 305.979C451.758 307.397 448.389 308.107 444.183 308.107C441.853 308.107 439.421 307.828 436.887 307.271C434.405 306.713 431.669 305.776 428.679 304.459L431.491 296.631C434.177 297.695 436.431 298.48 438.255 298.987C440.13 299.443 442.005 299.671 443.879 299.671C446.717 299.671 448.845 299.088 450.263 297.923C451.733 296.757 452.467 294.933 452.467 292.451V290.399C452.467 288.169 451.809 286.396 450.491 285.079C449.225 283.761 447.173 283.103 444.335 283.103C443.069 283.103 441.751 283.28 440.383 283.635C439.015 283.939 437.546 284.395 435.975 285.003L431.035 280.671ZM503.734 295.643H498.338V307.347H489.522V295.643H467.33V288.271C469.61 284.724 471.864 281.127 474.094 277.479C476.374 273.78 478.502 270.107 480.478 266.459C482.454 262.76 484.075 259.163 485.342 255.667H495.298C493.423 260.835 490.89 266.155 487.698 271.627C484.506 277.048 481.212 282.343 477.818 287.511H489.522V279.683H498.338V287.511H503.734V295.643ZM539.328 293.287C539.328 295.972 538.77 298.455 537.656 300.735C536.541 302.964 534.742 304.763 532.26 306.131C529.828 307.448 526.56 308.107 522.456 308.107C520.125 308.107 517.693 307.828 515.16 307.271C512.677 306.713 509.941 305.776 506.952 304.459L509.764 296.631C512.449 297.593 514.704 298.353 516.528 298.911C518.402 299.417 520.277 299.671 522.152 299.671C524.837 299.671 526.864 299.139 528.232 298.075C529.65 296.96 530.36 295.237 530.36 292.907V291.843C530.36 289.917 529.752 288.372 528.536 287.207C527.37 285.991 525.546 285.383 523.064 285.383H515.008V277.175H523.064C525.445 277.175 527.193 276.617 528.308 275.503C529.422 274.337 529.98 272.843 529.98 271.019V269.955C529.98 267.624 529.321 265.952 528.004 264.939C526.737 263.875 524.862 263.343 522.38 263.343C520.606 263.343 518.808 263.596 516.984 264.103C515.21 264.559 513.057 265.268 510.524 266.231L507.712 258.403C510.549 257.085 513.184 256.173 515.616 255.667C518.048 255.16 520.404 254.907 522.684 254.907C526.585 254.907 529.726 255.565 532.108 256.883C534.489 258.2 536.212 259.973 537.276 262.203C538.39 264.432 538.948 266.889 538.948 269.575V270.639C538.948 273.02 538.34 275.123 537.124 276.947C535.958 278.72 534.413 280.139 532.488 281.203C534.565 282.317 536.212 283.812 537.428 285.687C538.694 287.511 539.328 289.689 539.328 292.223V293.287ZM577.858 307.347H546.546V300.127C546.546 296.479 547.027 293.439 547.99 291.007C548.953 288.524 550.245 286.497 551.866 284.927C553.487 283.305 555.261 282.013 557.186 281.051L562.354 278.467C564.33 277.453 565.926 276.389 567.142 275.275C568.409 274.109 569.042 272.615 569.042 270.791V269.423C569.042 267.548 568.383 266.079 567.066 265.015C565.799 263.9 563.747 263.343 560.91 263.343C559.187 263.343 557.439 263.596 555.666 264.103C553.943 264.609 551.841 265.319 549.358 266.231L546.546 258.403C549.383 257.136 551.967 256.249 554.298 255.743C556.679 255.185 558.985 254.907 561.214 254.907C565.318 254.907 568.586 255.565 571.018 256.883C573.501 258.2 575.274 259.973 576.338 262.203C577.453 264.381 578.01 266.788 578.01 269.423V270.791C578.01 273.527 577.453 275.857 576.338 277.783C575.274 279.708 573.855 281.329 572.082 282.647C570.309 283.964 568.383 285.129 566.306 286.143L561.138 288.727C559.263 289.639 557.87 290.905 556.958 292.527C556.097 294.148 555.615 296.225 555.514 298.759H577.858V307.347ZM635.776 293.287C635.776 296.073 635.117 298.581 633.8 300.811C632.533 303.04 630.582 304.813 627.948 306.131C625.313 307.448 621.969 308.107 617.916 308.107C613.913 308.107 610.67 307.499 608.188 306.283C605.705 305.016 603.881 303.369 602.716 301.343C601.55 299.316 600.968 297.061 600.968 294.579C600.968 292.096 601.55 289.816 602.716 287.739C603.881 285.611 605.806 283.66 608.492 281.887C606.364 280.468 604.717 278.72 603.552 276.643C602.437 274.565 601.88 272.133 601.88 269.347C601.88 266.661 602.513 264.229 603.78 262.051C605.046 259.872 606.896 258.149 609.328 256.883C611.76 255.565 614.673 254.907 618.068 254.907C621.716 254.907 624.781 255.515 627.264 256.731C629.746 257.947 631.596 259.593 632.812 261.671C634.078 263.697 634.712 265.977 634.712 268.511C634.712 270.74 634.18 272.843 633.116 274.819C632.102 276.744 630.38 278.543 627.948 280.215C633.166 283.153 635.776 287.511 635.776 293.287ZM617.384 276.339L621.108 277.479C622.83 276.009 624.021 274.667 624.68 273.451C625.389 272.184 625.744 270.892 625.744 269.575C625.744 267.548 625.085 265.952 623.768 264.787C622.501 263.571 620.677 262.963 618.296 262.963C615.914 262.963 614.065 263.545 612.748 264.711C611.481 265.876 610.848 267.472 610.848 269.499C610.848 272.691 613.026 274.971 617.384 276.339ZM609.936 293.287C609.936 295.313 610.67 296.96 612.14 298.227C613.609 299.443 615.686 300.051 618.372 300.051C621.006 300.051 623.058 299.443 624.528 298.227C626.048 297.011 626.808 295.389 626.808 293.363C626.808 291.843 626.25 290.475 625.136 289.259C624.072 287.992 622.222 286.953 619.588 286.143L615.484 284.851C613.609 286.371 612.216 287.789 611.304 289.107C610.392 290.424 609.936 291.817 609.936 293.287ZM677.923 286.979C677.923 294.072 676.251 299.367 672.907 302.863C669.563 306.359 664.851 308.107 658.771 308.107C656.643 308.107 654.439 307.853 652.159 307.347C649.879 306.84 647.32 305.928 644.483 304.611L647.751 296.783C650.031 297.847 652.032 298.607 653.755 299.063C655.528 299.468 657.124 299.671 658.543 299.671C661.735 299.671 664.294 298.708 666.219 296.783C668.195 294.857 669.183 291.589 669.183 286.979V284.243C667.46 285.813 665.636 286.979 663.711 287.739C661.836 288.499 659.936 288.879 658.011 288.879C655.022 288.879 652.387 288.195 650.107 286.827C647.878 285.459 646.155 283.559 644.939 281.127C643.723 278.695 643.115 275.883 643.115 272.691V271.171C643.115 268.333 643.799 265.673 645.167 263.191C646.535 260.708 648.486 258.707 651.019 257.187C653.552 255.667 656.567 254.907 660.063 254.907C665.687 254.907 670.07 256.807 673.211 260.607C676.352 264.407 677.923 269.625 677.923 276.263V286.979ZM652.007 272.691C652.007 275.021 652.64 276.947 653.907 278.467C655.224 279.936 657.048 280.671 659.379 280.671C662.976 280.671 666.244 279.303 669.183 276.567V276.263C669.183 271.905 668.372 268.663 666.751 266.535C665.18 264.407 662.9 263.343 659.911 263.343C657.428 263.343 655.478 264.153 654.059 265.775C652.691 267.396 652.007 269.195 652.007 271.171V272.691ZM724.309 276.035V286.903C724.309 293.489 722.763 298.683 719.673 302.483C716.582 306.232 712.047 308.107 706.069 308.107C700.09 308.107 695.555 306.232 692.465 302.483C689.374 298.683 687.829 293.489 687.829 286.903V276.035C687.829 269.448 689.374 264.28 692.465 260.531C695.555 256.781 700.09 254.907 706.069 254.907C712.047 254.907 716.582 256.781 719.673 260.531C722.763 264.28 724.309 269.448 724.309 276.035ZM715.113 276.035C715.113 267.573 712.098 263.343 706.069 263.343C702.978 263.343 700.698 264.407 699.229 266.535C697.759 268.663 697.025 271.829 697.025 276.035V286.903C697.025 291.108 697.759 294.3 699.229 296.479C700.698 298.607 702.978 299.671 706.069 299.671C712.098 299.671 715.113 295.415 715.113 286.903V276.035ZM763.171 293.287C763.171 295.972 762.614 298.455 761.499 300.735C760.385 302.964 758.586 304.763 756.103 306.131C753.671 307.448 750.403 308.107 746.299 308.107C743.969 308.107 741.537 307.828 739.003 307.271C736.521 306.713 733.785 305.776 730.795 304.459L733.607 296.631C736.293 297.593 738.547 298.353 740.371 298.911C742.246 299.417 744.121 299.671 745.995 299.671C748.681 299.671 750.707 299.139 752.075 298.075C753.494 296.96 754.203 295.237 754.203 292.907V291.843C754.203 289.917 753.595 288.372 752.379 287.207C751.214 285.991 749.39 285.383 746.907 285.383H738.851V277.175H746.907C749.289 277.175 751.037 276.617 752.151 275.503C753.266 274.337 753.823 272.843 753.823 271.019V269.955C753.823 267.624 753.165 265.952 751.847 264.939C750.581 263.875 748.706 263.343 746.223 263.343C744.45 263.343 742.651 263.596 740.827 264.103C739.054 264.559 736.901 265.268 734.367 266.231L731.555 258.403C734.393 257.085 737.027 256.173 739.459 255.667C741.891 255.16 744.247 254.907 746.527 254.907C750.429 254.907 753.57 255.565 755.951 256.883C758.333 258.2 760.055 259.973 761.119 262.203C762.234 264.432 762.791 266.889 762.791 269.575V270.639C762.791 273.02 762.183 275.123 760.967 276.947C759.802 278.72 758.257 280.139 756.331 281.203C758.409 282.317 760.055 283.812 761.271 285.687C762.538 287.511 763.171 289.689 763.171 292.223V293.287Z" fill="white"/>
<path d="M78.0176 448.805C78.0176 450.07 78.295 451.11 78.8496 451.925C79.4043 452.722 80.3143 453.121 81.5796 453.121C82.0996 453.121 82.637 453.051 83.1916 452.913C83.7636 452.774 84.4656 452.54 85.2976 452.211L86.2596 454.915C85.3236 455.331 84.457 455.625 83.6596 455.799C82.8796 455.972 82.1256 456.059 81.3976 456.059C79.9416 456.059 78.7196 455.747 77.7316 455.123C76.761 454.499 76.033 453.641 75.5476 452.549C75.0623 451.457 74.8196 450.209 74.8196 448.805V445.087C74.8196 443.683 75.0623 442.435 75.5476 441.343C76.033 440.251 76.761 439.401 77.7316 438.795C78.7196 438.171 79.9416 437.859 81.3976 437.859C82.1083 437.859 82.845 437.945 83.6076 438.119C84.3703 438.275 85.2023 438.552 86.1036 438.951L85.1416 441.707C84.3443 441.377 83.677 441.143 83.1396 441.005C82.6023 440.866 82.0823 440.797 81.5796 440.797C80.3143 440.797 79.4043 441.195 78.8496 441.993C78.295 442.79 78.0176 443.821 78.0176 445.087V448.805ZM96.4685 455.799V454.057C95.6712 454.75 94.9258 455.261 94.2325 455.591C93.5392 455.903 92.8372 456.059 92.1265 456.059C90.9478 456.059 90.0378 455.66 89.3965 454.863C88.7552 454.048 88.4345 452.913 88.4345 451.457V442.617H91.4245V451.093C91.4245 452.549 91.9618 453.277 93.0365 453.277C93.4698 453.277 93.9378 453.173 94.4405 452.965C94.9605 452.757 95.5845 452.358 96.3125 451.769V442.617H99.3025V455.799H96.4685ZM110.855 445.347C110.041 445.347 109.261 445.477 108.515 445.737C107.787 445.979 107.085 446.378 106.409 446.933V455.799H103.419V442.617H106.253V444.645C107.137 443.813 107.926 443.223 108.619 442.877C109.313 442.53 110.058 442.357 110.855 442.357V445.347ZM120.91 445.347C120.095 445.347 119.315 445.477 118.57 445.737C117.842 445.979 117.14 446.378 116.464 446.933V455.799H113.474V442.617H116.308V444.645C117.192 443.813 117.981 443.223 118.674 442.877C119.367 442.53 120.113 442.357 120.91 442.357V445.347ZM133.539 455.045C132.637 455.409 131.788 455.669 130.991 455.825C130.193 455.981 129.439 456.059 128.729 456.059C126.77 456.059 125.288 455.504 124.283 454.395C123.277 453.285 122.775 451.812 122.775 449.975V448.415C122.775 447.184 123 446.118 123.451 445.217C123.901 444.315 124.543 443.613 125.375 443.111C126.207 442.608 127.186 442.357 128.313 442.357C129.231 442.357 130.089 442.547 130.887 442.929C131.701 443.293 132.36 443.873 132.863 444.671C133.383 445.451 133.643 446.456 133.643 447.687C133.643 448.051 133.617 448.441 133.565 448.857C133.513 449.255 133.426 449.68 133.305 450.131H125.661C125.695 451.205 125.964 452.011 126.467 452.549C126.969 453.086 127.775 453.355 128.885 453.355C129.474 453.355 130.081 453.285 130.705 453.147C131.346 453.008 132.005 452.8 132.681 452.523L133.539 455.045ZM128.313 444.879C127.515 444.879 126.891 445.139 126.441 445.659C126.007 446.161 125.756 446.889 125.687 447.843H130.679C130.696 447.756 130.705 447.678 130.705 447.609C130.705 447.522 130.705 447.444 130.705 447.375C130.705 446.543 130.471 445.919 130.003 445.503C129.535 445.087 128.971 444.879 128.313 444.879ZM143.535 445.139C143.102 445.139 142.608 445.243 142.053 445.451C141.499 445.659 140.84 446.066 140.077 446.673V455.799H137.087V442.617H139.921V444.385C140.736 443.674 141.507 443.163 142.235 442.851C142.963 442.521 143.7 442.357 144.445 442.357C145.711 442.357 146.673 442.764 147.331 443.579C147.99 444.376 148.319 445.503 148.319 446.959V455.799H145.329V447.323C145.329 445.867 144.731 445.139 143.535 445.139ZM160.201 455.357C159.75 455.565 159.23 455.729 158.641 455.851C158.051 455.989 157.453 456.059 156.847 456.059C155.841 456.059 155.035 455.851 154.429 455.435C153.822 455.019 153.38 454.438 153.103 453.693C152.843 452.947 152.713 452.098 152.713 451.145V445.217H150.581V442.617H152.713V439.185H155.703V442.617H159.811V445.217H155.703V451.145C155.703 451.942 155.85 452.497 156.145 452.809C156.457 453.103 156.899 453.251 157.471 453.251C157.748 453.251 158.043 453.225 158.355 453.173C158.684 453.103 159.048 452.991 159.447 452.835L160.201 455.357ZM178.912 449.897C178.912 451.786 178.444 453.285 177.508 454.395C176.572 455.504 175.203 456.059 173.4 456.059C171.528 456.059 169.63 455.539 167.706 454.499V436.559H170.696V444.359C171.493 443.561 172.178 443.033 172.75 442.773C173.322 442.495 173.911 442.357 174.518 442.357C175.905 442.357 176.979 442.894 177.742 443.969C178.522 445.043 178.912 446.551 178.912 448.493V449.897ZM173.712 445.139C173.296 445.139 172.854 445.26 172.386 445.503C171.935 445.745 171.372 446.222 170.696 446.933V452.835C171.164 453.025 171.589 453.164 171.97 453.251C172.369 453.337 172.759 453.381 173.14 453.381C174.111 453.381 174.804 453.069 175.22 452.445C175.636 451.821 175.844 450.971 175.844 449.897V448.493C175.844 447.331 175.653 446.482 175.272 445.945C174.908 445.407 174.388 445.139 173.712 445.139ZM192.343 455.929C191.459 455.929 190.748 455.747 190.211 455.383C189.691 455.019 189.309 454.568 189.067 454.031C188.321 454.724 187.602 455.235 186.909 455.565C186.215 455.894 185.47 456.059 184.673 456.059C183.511 456.059 182.653 455.686 182.099 454.941C181.561 454.195 181.293 453.251 181.293 452.107C181.293 451.344 181.431 450.677 181.709 450.105C182.003 449.515 182.48 449.056 183.139 448.727C183.797 448.397 184.699 448.233 185.843 448.233C186.293 448.233 186.761 448.267 187.247 448.337C187.732 448.389 188.217 448.458 188.703 448.545V447.011C188.703 446.283 188.503 445.789 188.105 445.529C187.706 445.251 187.169 445.113 186.493 445.113C185.973 445.113 185.401 445.182 184.777 445.321C184.17 445.459 183.511 445.676 182.801 445.971L181.943 443.423C183.693 442.712 185.279 442.357 186.701 442.357C187.983 442.357 188.971 442.573 189.665 443.007C190.375 443.44 190.869 444.012 191.147 444.723C191.424 445.433 191.563 446.196 191.563 447.011V452.081C191.563 452.341 191.632 452.592 191.771 452.835C191.927 453.06 192.221 453.173 192.655 453.173H192.941V455.929H192.343ZM184.179 452.055C184.179 452.523 184.283 452.895 184.491 453.173C184.699 453.433 185.002 453.563 185.401 453.563C185.799 453.563 186.25 453.459 186.753 453.251C187.255 453.043 187.905 452.557 188.703 451.795V450.677C187.801 450.521 186.917 450.443 186.051 450.443C185.375 450.443 184.889 450.581 184.595 450.859C184.317 451.136 184.179 451.535 184.179 452.055ZM195.458 452.081V436.559H198.448V452.081C198.448 452.341 198.509 452.592 198.63 452.835C198.769 453.06 199.029 453.173 199.41 453.173H199.826V455.929H199.098C198.11 455.929 197.356 455.738 196.836 455.357C196.316 454.975 195.952 454.49 195.744 453.901C195.554 453.311 195.458 452.705 195.458 452.081ZM212.706 455.929C211.822 455.929 211.111 455.747 210.574 455.383C210.054 455.019 209.673 454.568 209.43 454.031C208.685 454.724 207.965 455.235 207.272 455.565C206.579 455.894 205.833 456.059 205.036 456.059C203.875 456.059 203.017 455.686 202.462 454.941C201.925 454.195 201.656 453.251 201.656 452.107C201.656 451.344 201.795 450.677 202.072 450.105C202.367 449.515 202.843 449.056 203.502 448.727C204.161 448.397 205.062 448.233 206.206 448.233C206.657 448.233 207.125 448.267 207.61 448.337C208.095 448.389 208.581 448.458 209.066 448.545V447.011C209.066 446.283 208.867 445.789 208.468 445.529C208.069 445.251 207.532 445.113 206.856 445.113C206.336 445.113 205.764 445.182 205.14 445.321C204.533 445.459 203.875 445.676 203.164 445.971L202.306 443.423C204.057 442.712 205.643 442.357 207.064 442.357C208.347 442.357 209.335 442.573 210.028 443.007C210.739 443.44 211.233 444.012 211.51 444.723C211.787 445.433 211.926 446.196 211.926 447.011V452.081C211.926 452.341 211.995 452.592 212.134 452.835C212.29 453.06 212.585 453.173 213.018 453.173H213.304V455.929H212.706ZM204.542 452.055C204.542 452.523 204.646 452.895 204.854 453.173C205.062 453.433 205.365 453.563 205.764 453.563C206.163 453.563 206.613 453.459 207.116 453.251C207.619 453.043 208.269 452.557 209.066 451.795V450.677C208.165 450.521 207.281 450.443 206.414 450.443C205.738 450.443 205.253 450.581 204.958 450.859C204.681 451.136 204.542 451.535 204.542 452.055ZM222.348 445.139C221.914 445.139 221.42 445.243 220.866 445.451C220.311 445.659 219.652 446.066 218.89 446.673V455.799H215.9V442.617H218.734V444.385C219.548 443.674 220.32 443.163 221.048 442.851C221.776 442.521 222.512 442.357 223.258 442.357C224.523 442.357 225.485 442.764 226.144 443.579C226.802 444.376 227.132 445.503 227.132 446.959V455.799H224.142V447.323C224.142 445.867 223.544 445.139 222.348 445.139ZM233.371 448.441V449.975C233.371 451.084 233.571 451.916 233.969 452.471C234.368 453.025 235.009 453.303 235.893 453.303C236.327 453.303 236.812 453.251 237.349 453.147C237.904 453.025 238.502 452.843 239.143 452.601L240.001 455.123C239.221 455.435 238.485 455.669 237.791 455.825C237.098 455.981 236.413 456.059 235.737 456.059C234.004 456.059 232.678 455.504 231.759 454.395C230.841 453.285 230.381 451.812 230.381 449.975V448.441C230.381 446.586 230.841 445.113 231.759 444.021C232.678 442.911 234.004 442.357 235.737 442.357C236.396 442.357 237.063 442.435 237.739 442.591C238.415 442.747 239.126 442.972 239.871 443.267L239.013 445.841C237.765 445.355 236.725 445.113 235.893 445.113C235.009 445.113 234.368 445.39 233.969 445.945C233.571 446.482 233.371 447.314 233.371 448.441ZM252.748 455.045C251.846 455.409 250.997 455.669 250.2 455.825C249.402 455.981 248.648 456.059 247.938 456.059C245.979 456.059 244.497 455.504 243.492 454.395C242.486 453.285 241.984 451.812 241.984 449.975V448.415C241.984 447.184 242.209 446.118 242.66 445.217C243.11 444.315 243.752 443.613 244.584 443.111C245.416 442.608 246.395 442.357 247.522 442.357C248.44 442.357 249.298 442.547 250.096 442.929C250.91 443.293 251.569 443.873 252.072 444.671C252.592 445.451 252.852 446.456 252.852 447.687C252.852 448.051 252.826 448.441 252.774 448.857C252.722 449.255 252.635 449.68 252.514 450.131H244.87C244.904 451.205 245.173 452.011 245.676 452.549C246.178 453.086 246.984 453.355 248.094 453.355C248.683 453.355 249.29 453.285 249.914 453.147C250.555 453.008 251.214 452.8 251.89 452.523L252.748 455.045ZM247.522 444.879C246.724 444.879 246.1 445.139 245.65 445.659C245.216 446.161 244.965 446.889 244.896 447.843H249.888C249.905 447.756 249.914 447.678 249.914 447.609C249.914 447.522 249.914 447.444 249.914 447.375C249.914 446.543 249.68 445.919 249.212 445.503C248.744 445.087 248.18 444.879 247.522 444.879Z" fill="white" fill-opacity="0.6"/>
<path d="M88.5416 510.986C88.5416 512.607 88.1043 513.972 87.2296 515.082C86.355 516.191 85.0003 516.906 83.1656 517.226V521.738H79.6456V517.354C78.8136 517.268 77.9496 517.108 77.0536 516.874C76.179 516.618 75.2296 516.255 74.2056 515.786L75.3896 512.49C76.5843 513.002 77.5976 513.364 78.4296 513.578C79.283 513.77 80.115 513.866 80.9256 513.866C83.4003 513.866 84.6376 512.948 84.6376 511.114C84.6376 510.367 84.4456 509.78 84.0616 509.354C83.699 508.927 83.0163 508.554 82.0136 508.234L79.3896 507.37C76.2536 506.346 74.6856 504.287 74.6856 501.194C74.6856 499.679 75.091 498.378 75.9016 497.29C76.7123 496.202 77.9603 495.498 79.6456 495.178V490.698H83.1656V495.114C83.9123 495.199 84.659 495.348 85.4056 495.562C86.1523 495.775 86.931 496.063 87.7416 496.426L86.5576 499.722C85.5336 499.316 84.659 499.028 83.9336 498.858C83.2296 498.666 82.5043 498.57 81.7576 498.57C80.7763 498.57 79.9976 498.751 79.4216 499.114C78.867 499.455 78.5896 500.084 78.5896 501.002C78.5896 501.684 78.7816 502.25 79.1656 502.698C79.571 503.124 80.2323 503.487 81.1496 503.786L83.7736 504.65C85.3523 505.183 86.5363 505.962 87.3256 506.986C88.1363 507.988 88.5416 509.322 88.5416 510.986Z" fill="white"/>
<path d="M95.6036 514.633L96.9236 492.919H119.892V500.377H103.92L103.326 510.277C104.866 509.881 106.516 509.683 108.276 509.683C112.632 509.683 116.042 510.827 118.506 513.115C120.97 515.359 122.202 518.681 122.202 523.081V524.863C122.202 527.327 121.696 529.593 120.684 531.661C119.672 533.729 118.044 535.379 115.8 536.611C113.6 537.843 110.674 538.459 107.022 538.459C104.998 538.459 102.886 538.217 100.686 537.733C98.5296 537.249 96.1536 536.435 93.5576 535.291L95.9996 528.493C98.3316 529.417 100.29 530.099 101.874 530.539C103.502 530.935 105.13 531.133 106.758 531.133C109.222 531.133 111.07 530.627 112.302 529.615C113.578 528.603 114.216 527.019 114.216 524.863V523.081C114.216 521.145 113.644 519.605 112.5 518.461C111.4 517.317 109.618 516.745 107.154 516.745C106.054 516.745 104.91 516.899 103.722 517.207C102.534 517.471 101.258 517.867 99.8936 518.395L95.6036 514.633ZM136.032 529.945V531.199C136.032 534.895 135.614 538.415 134.778 541.759C133.942 545.147 132.336 548.733 129.96 552.517L125.208 549.943C126.176 548.139 126.902 546.291 127.386 544.399C127.87 542.551 128.2 540.461 128.376 538.129C128.552 535.797 128.64 533.069 128.64 529.945H136.032ZM174.654 510.607V520.045C174.654 525.765 173.312 530.275 170.628 533.575C167.944 536.831 164.006 538.459 158.814 538.459C153.622 538.459 149.684 536.831 147 533.575C144.316 530.275 142.974 525.765 142.974 520.045V510.607C142.974 504.887 144.316 500.399 147 497.143C149.684 493.887 153.622 492.259 158.814 492.259C164.006 492.259 167.944 493.887 170.628 497.143C173.312 500.399 174.654 504.887 174.654 510.607ZM166.668 510.607C166.668 503.259 164.05 499.585 158.814 499.585C156.13 499.585 154.15 500.509 152.874 502.357C151.598 504.205 150.96 506.955 150.96 510.607V520.045C150.96 523.697 151.598 526.469 152.874 528.361C154.15 530.209 156.13 531.133 158.814 531.133C164.05 531.133 166.668 527.437 166.668 520.045V510.607ZM214.937 510.607V520.045C214.937 525.765 213.595 530.275 210.911 533.575C208.227 536.831 204.289 538.459 199.097 538.459C193.905 538.459 189.967 536.831 187.283 533.575C184.599 530.275 183.257 525.765 183.257 520.045V510.607C183.257 504.887 184.599 500.399 187.283 497.143C189.967 493.887 193.905 492.259 199.097 492.259C204.289 492.259 208.227 493.887 210.911 497.143C213.595 500.399 214.937 504.887 214.937 510.607ZM206.951 510.607C206.951 503.259 204.333 499.585 199.097 499.585C196.413 499.585 194.433 500.509 193.157 502.357C191.881 504.205 191.243 506.955 191.243 510.607V520.045C191.243 523.697 191.881 526.469 193.157 528.361C194.433 530.209 196.413 531.133 199.097 531.133C204.333 531.133 206.951 527.437 206.951 520.045V510.607ZM255.22 510.607V520.045C255.22 525.765 253.878 530.275 251.194 533.575C248.51 536.831 244.572 538.459 239.38 538.459C234.188 538.459 230.25 536.831 227.566 533.575C224.882 530.275 223.54 525.765 223.54 520.045V510.607C223.54 504.887 224.882 500.399 227.566 497.143C230.25 493.887 234.188 492.259 239.38 492.259C244.572 492.259 248.51 493.887 251.194 497.143C253.878 500.399 255.22 504.887 255.22 510.607ZM247.234 510.607C247.234 503.259 244.616 499.585 239.38 499.585C236.696 499.585 234.716 500.509 233.44 502.357C232.164 504.205 231.526 506.955 231.526 510.607V520.045C231.526 523.697 232.164 526.469 233.44 528.361C234.716 530.209 236.696 531.133 239.38 531.133C244.616 531.133 247.234 527.437 247.234 520.045V510.607ZM269.845 537.799H261.859V529.945H269.845V537.799ZM273.211 514.479L280.131 510.599H284.131V537.799H279.411V515.879L275.331 518.119L273.211 514.479ZM308.089 531.639H305.249V537.799H300.609V531.639H288.929V527.759C290.129 525.892 291.315 523.999 292.489 522.079C293.689 520.132 294.809 518.199 295.849 516.279C296.889 514.332 297.742 512.439 298.409 510.599H303.649C302.662 513.319 301.329 516.119 299.649 518.999C297.969 521.852 296.235 524.639 294.449 527.359H300.609V523.239H305.249V527.359H308.089V531.639Z" fill="white"/>
<path d="M853.688 452.309V455.299H843.444V437.619H853.428V440.609H846.564V444.847H852.648V447.837H846.564V452.309H853.688ZM863.961 455.299L861.231 450.879L858.553 455.299H855.433L859.697 448.539L855.719 442.117H858.943L861.387 446.043L863.753 442.117H866.873L862.895 448.409L867.185 455.299H863.961ZM875.382 455.559C874.948 455.559 874.506 455.515 874.056 455.429C873.622 455.342 873.18 455.221 872.73 455.065V460.837H869.74V442.117H872.574V443.911C873.388 443.096 874.082 442.55 874.654 442.273C875.226 441.995 875.824 441.857 876.448 441.857C877.886 441.857 878.996 442.394 879.776 443.469C880.556 444.543 880.946 446.051 880.946 447.993V449.397C880.946 451.286 880.469 452.785 879.516 453.895C878.562 455.004 877.184 455.559 875.382 455.559ZM875.642 444.639C875.243 444.639 874.818 444.76 874.368 445.003C873.934 445.228 873.388 445.67 872.73 446.329V452.361C873.579 452.707 874.359 452.881 875.07 452.881C876.075 452.881 876.794 452.569 877.228 451.945C877.661 451.321 877.878 450.471 877.878 449.397V447.993C877.878 446.831 877.678 445.982 877.28 445.445C876.898 444.907 876.352 444.639 875.642 444.639ZM887.483 439.621H884.337V436.527H887.483V439.621ZM887.405 455.299H884.415V442.117H887.405V455.299ZM898.961 444.847C898.146 444.847 897.366 444.977 896.621 445.237C895.893 445.479 895.191 445.878 894.515 446.433V455.299H891.525V442.117H894.359V444.145C895.243 443.313 896.031 442.723 896.725 442.377C897.418 442.03 898.163 441.857 898.961 441.857V444.847ZM906.909 456.599C906.337 458.193 905.609 459.337 904.725 460.031C903.841 460.741 902.628 461.097 901.085 461.097V458.107C902.004 458.072 902.723 457.864 903.243 457.483C903.781 457.119 904.179 456.607 904.439 455.949L904.673 455.351L899.967 442.117H902.931L905.193 448.695L906.077 451.477L906.935 448.695L909.093 442.117H912.057L906.909 456.599Z" fill="white" fill-opacity="0.6"/>
<path d="M817.42 503.813L824.686 499.739H828.886V528.299H823.93V505.283L819.646 507.635L817.42 503.813ZM851.816 528.299H834.512V524.309C834.512 522.293 834.778 520.613 835.31 519.269C835.842 517.897 836.556 516.777 837.452 515.909C838.348 515.013 839.328 514.299 840.392 513.767L843.248 512.339C844.34 511.779 845.222 511.191 845.894 510.575C846.594 509.931 846.944 509.105 846.944 508.097V507.341C846.944 506.305 846.58 505.493 845.852 504.905C845.152 504.289 844.018 503.981 842.45 503.981C841.498 503.981 840.532 504.121 839.552 504.401C838.6 504.681 837.438 505.073 836.066 505.577L834.512 501.251C836.08 500.551 837.508 500.061 838.796 499.781C840.112 499.473 841.386 499.319 842.618 499.319C844.886 499.319 846.692 499.683 848.036 500.411C849.408 501.139 850.388 502.119 850.976 503.351C851.592 504.555 851.9 505.885 851.9 507.341V508.097C851.9 509.609 851.592 510.897 850.976 511.961C850.388 513.025 849.604 513.921 848.624 514.649C847.644 515.377 846.58 516.021 845.432 516.581L842.576 518.009C841.54 518.513 840.77 519.213 840.266 520.109C839.79 521.005 839.524 522.153 839.468 523.553H851.816V528.299ZM866.007 497.219H870.963L857.355 534.305H852.399L866.007 497.219ZM889.55 528.299H872.246V524.309C872.246 522.293 872.512 520.613 873.044 519.269C873.576 517.897 874.29 516.777 875.186 515.909C876.082 515.013 877.062 514.299 878.126 513.767L880.982 512.339C882.074 511.779 882.956 511.191 883.628 510.575C884.328 509.931 884.678 509.105 884.678 508.097V507.341C884.678 506.305 884.314 505.493 883.586 504.905C882.886 504.289 881.752 503.981 880.184 503.981C879.232 503.981 878.266 504.121 877.286 504.401C876.334 504.681 875.172 505.073 873.8 505.577L872.246 501.251C873.814 500.551 875.242 500.061 876.53 499.781C877.846 499.473 879.12 499.319 880.352 499.319C882.62 499.319 884.426 499.683 885.77 500.411C887.142 501.139 888.122 502.119 888.71 503.351C889.326 504.555 889.634 505.885 889.634 507.341V508.097C889.634 509.609 889.326 510.897 888.71 511.961C888.122 513.025 887.338 513.921 886.358 514.649C885.378 515.377 884.314 516.021 883.166 516.581L880.31 518.009C879.274 518.513 878.504 519.213 878 520.109C877.524 521.005 877.258 522.153 877.202 523.553H889.55V528.299ZM910.755 528.299H893.451V524.309C893.451 522.293 893.717 520.613 894.249 519.269C894.781 517.897 895.495 516.777 896.391 515.909C897.287 515.013 898.267 514.299 899.331 513.767L902.187 512.339C903.279 511.779 904.161 511.191 904.833 510.575C905.533 509.931 905.883 509.105 905.883 508.097V507.341C905.883 506.305 905.519 505.493 904.791 504.905C904.091 504.289 902.957 503.981 901.389 503.981C900.437 503.981 899.471 504.121 898.491 504.401C897.539 504.681 896.377 505.073 895.005 505.577L893.451 501.251C895.019 500.551 896.447 500.061 897.735 499.781C899.051 499.473 900.325 499.319 901.557 499.319C903.825 499.319 905.631 499.683 906.975 500.411C908.347 501.139 909.327 502.119 909.915 503.351C910.531 504.555 910.839 505.885 910.839 507.341V508.097C910.839 509.609 910.531 510.897 909.915 511.961C909.327 513.025 908.543 513.921 907.563 514.649C906.583 515.377 905.519 516.021 904.371 516.581L901.515 518.009C900.479 518.513 899.709 519.213 899.205 520.109C898.729 521.005 898.463 522.153 898.407 523.553H910.755V528.299Z" fill="white"/>
<path d="M870.777 59.2866C894.043 59.2866 912.903 78.3452 912.903 101.855C912.903 125.365 894.043 144.423 870.777 144.423C860.349 144.423 850.808 140.592 843.451 134.25C836.095 140.592 826.554 144.423 816.126 144.423C792.86 144.423 774 125.365 774 101.855C774 78.3453 792.86 59.2867 816.126 59.2866C826.554 59.2866 836.095 63.1168 843.451 69.4585C850.808 63.1164 860.349 59.2866 870.777 59.2866Z" fill="#ED0006"/>
<path d="M870.775 59.2866C894.041 59.2868 912.901 78.3453 912.901 101.855C912.901 125.365 894.041 144.423 870.775 144.423C860.348 144.423 850.807 140.592 843.45 134.25C852.507 126.443 858.251 114.828 858.251 101.855C858.251 88.8822 852.507 77.2663 843.45 69.4585C850.806 63.1168 860.348 59.2866 870.775 59.2866Z" fill="#F9A000"/>
<path d="M843.451 69.4585C852.508 77.2662 858.252 88.8817 858.252 101.854C858.252 114.826 852.507 126.442 843.451 134.25C834.395 126.442 828.65 114.826 828.65 101.854C828.65 88.8815 834.395 77.2662 843.451 69.4585Z" fill="#FF5E00"/>
</g>
<defs>
<clipPath id="clip0_495_653">
<rect width="1012" height="638" rx="50" fill="white"/>
</clipPath>
</defs>
</svg>
