<svg width="36" height="36" viewBox="0 0 36 36" fill="none" xmlns="http://www.w3.org/2000/svg">
<path d="M10.5 16.5V22.5C10.5 23.2956 10.8161 24.0587 11.3787 24.6213C11.9413 25.1839 12.7044 25.5 13.5 25.5H19.5M7.5 4.5H13.5C15.1569 4.5 16.5 5.84315 16.5 7.5V13.5C16.5 15.1569 15.1569 16.5 13.5 16.5H7.5C5.84315 16.5 4.5 15.1569 4.5 13.5V7.5C4.5 5.84315 5.84315 4.5 7.5 4.5ZM22.5 19.5H28.5C30.1569 19.5 31.5 20.8431 31.5 22.5V28.5C31.5 30.1569 30.1569 31.5 28.5 31.5H22.5C20.8431 31.5 19.5 30.1569 19.5 28.5V22.5C19.5 20.8431 20.8431 19.5 22.5 19.5Z" stroke="#1876F4" stroke-width="2.5" stroke-linecap="round" stroke-linejoin="round"/>
</svg>
