<svg width="36" height="36" viewBox="0 0 36 36" fill="none" xmlns="http://www.w3.org/2000/svg">
<path d="M3 31.5002C2.99987 29.1907 3.6662 26.9302 4.91902 24.99C6.17183 23.0498 7.95791 21.5124 10.0629 20.5622C12.1679 19.612 14.5024 19.2894 16.7861 19.6332C19.0699 19.977 21.206 20.9724 22.938 22.5002" stroke="#1876F4" stroke-width="2.5" stroke-linecap="round" stroke-linejoin="round"/>
<path d="M15 19.5C19.1421 19.5 22.5 16.1421 22.5 12C22.5 7.85786 19.1421 4.5 15 4.5C10.8579 4.5 7.5 7.85786 7.5 12C7.5 16.1421 10.8579 19.5 15 19.5Z" stroke="#1876F4" stroke-width="2.5" stroke-linecap="round" stroke-linejoin="round"/>
<path d="M24 28.5L27 31.5L33 25.5" stroke="#1876F4" stroke-width="2.5" stroke-linecap="round" stroke-linejoin="round"/>
</svg>
