<svg width="36" height="36" viewBox="0 0 36 36" fill="none" xmlns="http://www.w3.org/2000/svg">
<path d="M29.2925 20.9158L31.3161 22.0556C31.5237 22.1733 31.6964 22.3439 31.8166 22.5501C31.9367 22.7562 32 22.9906 32 23.2292C32 23.4678 31.9367 23.7022 31.8166 23.9083C31.6964 24.1145 31.5237 24.2851 31.3161 24.4028L19.8491 30.972C19.4389 31.2088 18.9736 31.3335 18.5 31.3335C18.0264 31.3335 17.5611 31.2088 17.1509 30.972L5.6839 24.4028C5.47629 24.2851 5.3036 24.1145 5.18345 23.9083C5.0633 23.7022 5 23.4678 5 23.2292C5 22.9906 5.0633 22.7562 5.18345 22.5501C5.3036 22.3439 5.47629 22.1733 5.6839 22.0556L7.7075 20.9158M19.8491 20.1806C19.4389 20.4174 18.9736 20.5421 18.5 20.5421C18.0264 20.5421 17.5611 20.4174 17.1509 20.1806L5.6839 13.6114C5.47629 13.4937 5.3036 13.3231 5.18345 13.1169C5.0633 12.9107 5 12.6764 5 12.4378C5 12.1992 5.0633 11.9648 5.18345 11.7587C5.3036 11.5525 5.47629 11.3819 5.6839 11.2642L17.1509 4.69494C17.5611 4.45815 18.0264 4.3335 18.5 4.3335C18.9736 4.3335 19.4389 4.45815 19.8491 4.69494L31.3161 11.2642C31.5237 11.3819 31.6964 11.5525 31.8166 11.7587C31.9367 11.9648 32 12.1992 32 12.4378C32 12.6764 31.9367 12.9107 31.8166 13.1169C31.6964 13.3231 31.5237 13.4937 31.3161 13.6114L19.8491 20.1806Z" stroke="#1876F4" stroke-width="2.5" stroke-linecap="round" stroke-linejoin="round"/>
</svg>
