<svg width="36" height="36" viewBox="0 0 36 36" fill="none" xmlns="http://www.w3.org/2000/svg">
<path d="M19.485 10.11L22.38 15.27M28.704 18C27.3077 19.4221 25.6421 20.5516 23.8044 21.3227C21.9666 22.0938 19.9937 22.4909 18.0007 22.4909C16.0078 22.4909 14.0349 22.0938 12.1971 21.3227C10.3594 20.5516 8.69376 19.4221 7.2975 18M31.5 31.5L28.26 25.74M4.5 31.5L16.53 10.11M21 7.5C21 9.15685 19.6569 10.5 18 10.5C16.3431 10.5 15 9.15685 15 7.5C15 5.84315 16.3431 4.5 18 4.5C19.6569 4.5 21 5.84315 21 7.5Z" stroke="#1876F4" stroke-width="2.5" stroke-linecap="round" stroke-linejoin="round"/>
</svg>
