<svg width="56" height="56" viewBox="0 0 56 56" fill="none" xmlns="http://www.w3.org/2000/svg">
<path d="M3.76137 23.9707C3.11926 24.6931 3.18433 25.7992 3.9067 26.4413C4.62907 27.0834 5.7352 27.0183 6.3773 26.296L5.06934 25.1333L3.76137 23.9707ZM11.5051 17.8931L10.1971 16.7305L10.1971 16.7305L11.5051 17.8931ZM18.8277 16.5646C19.7942 16.5646 20.5777 15.7811 20.5777 14.8146C20.5777 13.8481 19.7942 13.0646 18.8277 13.0646V14.8146V16.5646ZM5.06924 42.875C4.10274 42.8751 3.31928 43.6586 3.31934 44.6251C3.31939 45.5916 4.10293 46.3751 5.06943 46.375L5.06934 44.625L5.06924 42.875ZM17.6811 44.6243L17.6812 46.3743C18.0598 46.3743 18.4282 46.2515 18.7311 46.0244L17.6811 44.6243ZM26.8534 37.7458L25.8726 36.2965C25.8492 36.3123 25.8261 36.3288 25.8034 36.3458L26.8534 37.7458ZM31.4395 34.3058L30.3463 32.9392L30.3463 32.9393L31.4395 34.3058ZM25.7068 26.2792L26.6773 27.7354L26.6774 27.7354L25.7068 26.2792ZM15.6539 30.5009C14.8187 30.9873 14.536 32.0587 15.0224 32.8939C15.5087 33.7291 16.5801 34.0118 17.4153 33.5254L16.5346 32.0132L15.6539 30.5009ZM46.3443 34.3056V32.5556H46.3443L46.3443 34.3056ZM40.6713 26.873C40.3657 27.7899 40.8612 28.781 41.7781 29.0866C42.695 29.3922 43.6861 28.8967 43.9917 27.9798L42.3315 27.4264L40.6713 26.873ZM43.9917 17.7008C43.6861 16.7839 42.695 16.2883 41.7781 16.594C40.8612 16.8996 40.3657 17.8907 40.6713 18.8076L42.3315 18.2542L43.9917 17.7008ZM38.7661 19.8248C38.3671 18.9445 37.3301 18.5543 36.4497 18.9533C35.5694 19.3522 35.1792 20.3893 35.5782 21.2696L37.1721 20.5472L38.7661 19.8248ZM35.5782 24.411C35.1792 25.2913 35.5694 26.3283 36.4497 26.7273C37.3301 27.1262 38.3671 26.736 38.7661 25.8557L37.1721 25.1333L35.5782 24.411ZM5.06934 25.1333L6.3773 26.296L12.813 19.0558L11.5051 17.8931L10.1971 16.7305L3.76137 23.9707L5.06934 25.1333ZM11.5051 17.8931L12.813 19.0558C14.2216 17.4712 16.2404 16.5646 18.3605 16.5646V14.8146V13.0646C15.2407 13.0646 12.2698 14.3987 10.1971 16.7305L11.5051 17.8931ZM18.3605 14.8146V16.5646H18.8277V14.8146V13.0646H18.3605V14.8146ZM5.06934 44.625L5.06943 46.375L17.6812 46.3743L17.6811 44.6243L17.681 42.8743L5.06924 42.875L5.06934 44.625ZM17.6811 44.6243L18.7311 46.0244L27.9033 39.1459L26.8534 37.7458L25.8034 36.3458L16.6312 43.2243L17.6811 44.6243ZM26.8534 37.7458C27.8341 39.1952 27.8342 39.1951 27.8343 39.1951C27.8344 39.195 27.8345 39.195 27.8346 39.1949C27.8347 39.1948 27.8349 39.1946 27.8352 39.1945C27.8356 39.1942 27.8362 39.1938 27.8369 39.1933C27.8383 39.1924 27.8401 39.1911 27.8424 39.1896C27.8469 39.1865 27.8532 39.1822 27.8613 39.1767C27.8775 39.1656 27.9007 39.1497 27.9307 39.1291C27.9907 39.0878 28.078 39.0274 28.1904 38.9485C28.4153 38.7909 28.7414 38.5594 29.1532 38.2592C29.9767 37.6589 31.1443 36.783 32.5327 35.6723L31.4395 34.3058L30.3463 32.9393C29.0039 34.0132 27.8784 34.8573 27.0915 35.4309C26.6982 35.7176 26.3897 35.9365 26.1814 36.0825C26.0773 36.1555 25.9982 36.2103 25.9461 36.2462C25.92 36.2641 25.9007 36.2773 25.8884 36.2857C25.8822 36.2899 25.8778 36.2929 25.8752 36.2947C25.8739 36.2956 25.873 36.2962 25.8726 36.2965C25.8723 36.2967 25.8722 36.2967 25.8723 36.2967C25.8723 36.2967 25.8723 36.2967 25.8724 36.2967C25.8724 36.2966 25.8724 36.2966 25.8725 36.2966C25.8725 36.2965 25.8726 36.2965 26.8534 37.7458ZM31.4395 34.3058L32.5327 35.6723C34.2631 34.2881 35.2509 32.5932 35.5011 30.8249C35.7492 29.0717 35.2495 27.3926 34.2727 26.0901C32.2826 23.4365 28.3759 22.3973 24.7363 24.823L25.7068 26.2792L26.6774 27.7354C28.7704 26.3404 30.5963 27.0215 31.4726 28.19C31.9289 28.7985 32.1458 29.5557 32.0356 30.3345C31.9276 31.0981 31.4822 32.0306 30.3463 32.9392L31.4395 34.3058ZM25.7068 26.2792L24.7363 24.8229C22.4274 26.3617 20.155 27.7824 18.4576 28.8196C17.6096 29.3378 16.9068 29.7592 16.4167 30.0507C16.1717 30.1964 15.98 30.3095 15.8501 30.386C15.7851 30.4242 15.7355 30.4532 15.7025 30.4726C15.686 30.4822 15.6736 30.4895 15.6654 30.4942C15.6614 30.4966 15.6584 30.4984 15.6565 30.4995C15.6555 30.5 15.6548 30.5004 15.6544 30.5007C15.6542 30.5008 15.654 30.5009 15.654 30.5009C15.6539 30.501 15.6539 30.501 15.6539 30.501C15.6539 30.501 15.6539 30.5009 16.5346 32.0132C17.4153 33.5254 17.4154 33.5254 17.4154 33.5254C17.4155 33.5253 17.4156 33.5253 17.4157 33.5252C17.4159 33.5251 17.4162 33.5249 17.4165 33.5247C17.4172 33.5244 17.4181 33.5238 17.4193 33.5231C17.4218 33.5217 17.4253 33.5196 17.4299 33.5169C17.4391 33.5116 17.4526 33.5037 17.4702 33.4934C17.5054 33.4728 17.5572 33.4424 17.6244 33.4029C17.759 33.3237 17.9556 33.2077 18.2058 33.0589C18.7061 32.7613 19.421 32.3326 20.2825 31.8062C22.0041 30.7542 24.3179 29.3078 26.6773 27.7354L25.7068 26.2792ZM18.8277 30.866H20.5777V15.9611H18.8277H17.0777V30.866H18.8277ZM18.8277 15.9611H20.5777C20.5777 14.3948 21.8474 13.125 23.4138 13.125V11.375V9.625C19.9144 9.625 17.0777 12.4618 17.0777 15.9611H18.8277ZM23.4138 11.375V13.125H46.3443V11.375V9.625H23.4138V11.375ZM46.3443 11.375V13.125C47.9107 13.125 49.1805 14.3948 49.1805 15.9611H50.9305H52.6805C52.6805 12.4618 49.8438 9.625 46.3443 9.625V11.375ZM50.9305 15.9611H49.1805V29.7194H50.9305H52.6805V15.9611H50.9305ZM50.9305 29.7194H49.1805C49.1805 31.2859 47.9108 32.5556 46.3443 32.5556V34.3056V36.0556C49.8437 36.0556 52.6805 33.2189 52.6805 29.7194H50.9305ZM46.3443 34.3056L46.3443 32.5556L31.4394 32.5558L31.4395 34.3058L31.4395 36.0558L46.3444 36.0556L46.3443 34.3056ZM42.3315 27.4264L43.9917 27.9798C44.6023 26.148 44.9414 24.5207 44.9414 22.8403C44.9414 21.1598 44.6023 19.5325 43.9917 17.7008L42.3315 18.2542L40.6713 18.8076C41.2072 20.4154 41.4414 21.6544 41.4414 22.8403C41.4414 24.0262 41.2072 25.2652 40.6713 26.873L42.3315 27.4264ZM37.1721 20.5472L35.5782 21.2696C35.692 21.5208 35.8118 22.0981 35.8118 22.8403C35.8118 23.5824 35.692 24.1598 35.5782 24.411L37.1721 25.1333L38.7661 25.8557C39.1718 24.9604 39.3118 23.8179 39.3118 22.8403C39.3118 21.8627 39.1718 20.7202 38.7661 19.8248L37.1721 20.5472Z" fill="white"/>
</svg>
