<svg width="56" height="56" viewBox="0 0 56 56" fill="none" xmlns="http://www.w3.org/2000/svg">
<path d="M19.3528 22.5956H36.6469M17.191 31.2426H19.3528M36.6469 31.2426H38.8087M8.54395 39.8897V25.6448C8.54395 25.0594 8.66289 24.4798 8.89352 23.9417L13.9062 12.2454C14.5875 10.6557 16.1506 9.625 17.8802 9.625H38.1195C39.8491 9.625 41.4121 10.6557 42.0935 12.2454L47.1062 23.9417C47.3368 24.4798 47.4557 25.0594 47.4557 25.6448V39.8897M8.54395 39.8897V45.0779C8.54395 45.7943 9.12466 46.375 9.841 46.375H15.8939C16.6103 46.375 17.191 45.7943 17.191 45.0779V39.8897M8.54395 39.8897H17.191M47.4557 39.8897V45.0779C47.4557 45.7943 46.8751 46.375 46.1587 46.375H40.1057C39.3893 46.375 38.8087 45.7943 38.8087 45.0779V39.8897M47.4557 39.8897H38.8087M17.191 39.8897H38.8087" stroke="white" stroke-width="3.5" stroke-linecap="round"/>
</svg>
