<svg width="56" height="56" viewBox="0 0 56 56" fill="none" xmlns="http://www.w3.org/2000/svg">
<path d="M23.9574 13.0426H19.9149C19.4696 13.0426 19.1064 13.4058 19.1064 13.8511C19.1064 14.2964 19.4696 14.6596 19.9149 14.6596H23.9574C24.4028 14.6596 24.766 14.2964 24.766 13.8511C24.766 13.4058 24.4028 13.0426 23.9574 13.0426Z" fill="white"/>
<path d="M36.0851 15.0638C35.6761 15.0638 35.2719 15.0875 34.8723 15.1333V13.0426C34.8723 10.8144 33.0579 9 30.8298 9H13.0426C10.8144 9 9 10.8144 9 13.0426V42.9574C9 45.1856 10.8144 47 13.0426 47H30.8298C33.0579 47 34.8723 45.1856 34.8723 42.9574V36.8241C35.2719 36.8683 35.6761 36.8936 36.0851 36.8936C42.1049 36.8936 47 31.9984 47 25.9787C47 19.9589 42.1049 15.0638 36.0851 15.0638ZM30.8298 45.383H13.0426C11.705 45.383 10.617 44.295 10.617 42.9575V40.9362H33.2553V42.9575C33.2553 44.295 32.1673 45.383 30.8298 45.383ZM33.2553 39.3192H10.617V13.0426C10.617 11.705 11.705 10.617 13.0426 10.617H30.8298C32.1673 10.617 33.2553 11.705 33.2553 13.0426V15.4397C28.6064 16.6887 25.1702 20.9412 25.1702 25.9786C25.1702 31.016 28.6064 35.2684 33.2553 36.5175V39.3192ZM36.0851 35.2766C30.9592 35.2766 26.7872 31.1047 26.7872 25.9787C26.7872 20.8528 30.9592 16.6809 36.0851 16.6809C41.2111 16.6809 45.383 20.8528 45.383 25.9787C45.383 31.1047 41.2111 35.2766 36.0851 35.2766Z" fill="white"/>
<path d="M34.8029 23.2989C34.487 23.6147 34.487 24.1279 34.8029 24.4422C35.6524 25.2917 35.6524 26.6703 34.8029 27.5183C34.487 27.8341 34.487 28.3473 34.8029 28.6616C34.9608 28.8195 35.1661 28.9 35.3729 28.9C35.5798 28.9 35.7851 28.8195 35.943 28.6616C37.4227 27.1819 37.4227 24.7769 35.943 23.3003C35.6272 22.9845 35.114 22.9845 34.7997 23.3003L34.8029 23.2989Z" fill="white"/>
<path d="M31.5812 25.1339C31.117 25.5981 31.117 26.3545 31.5812 26.8204C32.0455 27.2846 32.8019 27.2846 33.2678 26.8204C33.732 26.3561 33.732 25.5997 33.2678 25.1339C32.8035 24.6696 32.0471 24.6696 31.5812 25.1339Z" fill="white"/>
<path d="M37.549 20.5577C37.2331 20.8735 37.2331 21.3868 37.549 21.701C39.9097 24.0618 39.9097 27.8974 37.549 30.2599C37.2331 30.5757 37.2331 31.0889 37.549 31.4032C37.7069 31.5611 37.9121 31.6416 38.119 31.6416C38.3259 31.6416 38.5312 31.5611 38.6891 31.4032C41.68 28.4123 41.68 23.5485 38.6891 20.5578C38.3733 20.242 37.8601 20.242 37.5458 20.5578L37.549 20.5577Z" fill="white"/>
<path d="M23.9574 13.0426H19.9149C19.4696 13.0426 19.1064 13.4058 19.1064 13.8511C19.1064 14.2964 19.4696 14.6596 19.9149 14.6596H23.9574C24.4028 14.6596 24.766 14.2964 24.766 13.8511C24.766 13.4058 24.4028 13.0426 23.9574 13.0426Z" stroke="white"/>
<path d="M36.0851 15.0638C35.6761 15.0638 35.2719 15.0875 34.8723 15.1333V13.0426C34.8723 10.8144 33.0579 9 30.8298 9H13.0426C10.8144 9 9 10.8144 9 13.0426V42.9574C9 45.1856 10.8144 47 13.0426 47H30.8298C33.0579 47 34.8723 45.1856 34.8723 42.9574V36.8241C35.2719 36.8683 35.6761 36.8936 36.0851 36.8936C42.1049 36.8936 47 31.9984 47 25.9787C47 19.9589 42.1049 15.0638 36.0851 15.0638ZM30.8298 45.383H13.0426C11.705 45.383 10.617 44.295 10.617 42.9575V40.9362H33.2553V42.9575C33.2553 44.295 32.1673 45.383 30.8298 45.383ZM33.2553 39.3192H10.617V13.0426C10.617 11.705 11.705 10.617 13.0426 10.617H30.8298C32.1673 10.617 33.2553 11.705 33.2553 13.0426V15.4397C28.6064 16.6887 25.1702 20.9412 25.1702 25.9786C25.1702 31.016 28.6064 35.2684 33.2553 36.5175V39.3192ZM36.0851 35.2766C30.9592 35.2766 26.7872 31.1047 26.7872 25.9787C26.7872 20.8528 30.9592 16.6809 36.0851 16.6809C41.2111 16.6809 45.383 20.8528 45.383 25.9787C45.383 31.1047 41.2111 35.2766 36.0851 35.2766Z" stroke="white"/>
<path d="M34.8029 23.2989C34.487 23.6147 34.487 24.1279 34.8029 24.4422C35.6524 25.2917 35.6524 26.6703 34.8029 27.5183C34.487 27.8341 34.487 28.3473 34.8029 28.6616C34.9608 28.8195 35.1661 28.9 35.3729 28.9C35.5798 28.9 35.7851 28.8195 35.943 28.6616C37.4227 27.1819 37.4227 24.7769 35.943 23.3003C35.6272 22.9845 35.114 22.9845 34.7997 23.3003L34.8029 23.2989Z" stroke="white"/>
<path d="M31.5812 25.1339C31.117 25.5981 31.117 26.3545 31.5812 26.8204C32.0455 27.2846 32.8019 27.2846 33.2678 26.8204C33.732 26.3561 33.732 25.5997 33.2678 25.1339C32.8035 24.6696 32.0471 24.6696 31.5812 25.1339Z" stroke="white"/>
<path d="M37.549 20.5577C37.2331 20.8735 37.2331 21.3868 37.549 21.701C39.9097 24.0618 39.9097 27.8974 37.549 30.2599C37.2331 30.5757 37.2331 31.0889 37.549 31.4032C37.7069 31.5611 37.9121 31.6416 38.119 31.6416C38.3259 31.6416 38.5312 31.5611 38.6891 31.4032C41.68 28.4123 41.68 23.5485 38.6891 20.5578C38.3733 20.242 37.8601 20.242 37.5458 20.5578L37.549 20.5577Z" stroke="white"/>
</svg>
