<svg width="39" height="24" viewBox="0 0 39 24" fill="none" xmlns="http://www.w3.org/2000/svg">
<rect width="39" height="24" rx="5" fill="white"/>
<path d="M0 1.8C0 0.805887 0.831471 0 1.85714 0H37.1429C38.1685 0 39 0.805888 39 1.8V22.2C39 23.1941 38.1685 24 37.1429 24H1.85714C0.831471 24 0 23.1941 0 22.2V1.8Z" fill="url(#paint0_linear_328_684)"/>
<path d="M0.619048 1.8C0.619048 1.13726 1.17336 0.6 1.85714 0.6H25.381C31.8769 0.6 37.1429 5.70395 37.1429 12C37.1429 18.296 31.8769 23.4 25.381 23.4H1.85714C1.17336 23.4 0.619048 22.8627 0.619048 22.2V1.8Z" fill="white"/>
<path d="M22.0381 12.3C22.0381 10.8088 20.777 9.6 19.2214 9.6C17.6658 9.6 16.4048 10.8088 16.4048 12.3C16.4048 13.7912 17.6658 15 19.2214 15C20.777 15 22.0381 13.7912 22.0381 12.3Z"/>
<path d="M22.0381 12.3C22.0381 10.8088 20.777 9.6 19.2214 9.6C17.6658 9.6 16.4048 10.8088 16.4048 12.3C16.4048 13.7912 17.6658 15 19.2214 15C20.777 15 22.0381 13.7912 22.0381 12.3Z" fill="#EB7822"/>
<path d="M3.36332 9.76142H1.85714V14.804H3.35601C4.15354 14.804 4.72825 14.6236 5.23355 14.2222C5.52939 13.9884 5.76843 13.6936 5.93348 13.359C6.09854 13.0243 6.18551 12.6582 6.18815 12.2869C6.18815 10.7991 5.02778 9.7626 3.36332 9.7626M4.56265 13.5502C4.23999 13.8292 3.82113 13.9515 3.15754 13.9515H2.88723V10.6151H3.16241C3.82601 10.6151 4.22781 10.7338 4.56752 11.0224C4.74728 11.181 4.89081 11.3747 4.98878 11.5909C5.08674 11.8071 5.13695 12.041 5.13614 12.2774C5.13675 12.5166 5.08605 12.7533 4.98729 12.9723C4.88852 13.1913 4.74388 13.3878 4.56265 13.549V13.5502Z" fill="#201D1C"/>
<path d="M7.68705 9.76142H6.66061V14.804H7.68705V9.76142Z" fill="#201D1C"/>
<path d="M10.1929 11.6957C9.57674 11.4772 9.39654 11.3335 9.39654 11.0605C9.39654 10.7434 9.7192 10.5012 10.1612 10.5012C10.4692 10.5012 10.7213 10.62 10.9892 10.9097L11.5261 10.2353C11.098 9.87089 10.548 9.67196 9.97977 9.67602C9.0483 9.67602 8.33844 10.2958 8.33844 11.121C8.33844 11.8156 8.66963 12.1718 9.63275 12.5043C9.87802 12.5783 10.1157 12.6745 10.3426 12.7916C10.4363 12.8445 10.5141 12.9205 10.5682 13.012C10.6223 13.1035 10.6507 13.2072 10.6507 13.3128C10.6507 13.7213 10.3122 14.0252 9.85314 14.0252C9.62004 14.0296 9.39056 13.9685 9.19199 13.8494C8.99341 13.7303 8.83409 13.558 8.73295 13.3532L8.06935 13.9647C8.54178 14.6296 9.1104 14.9252 9.89575 14.9252C10.9624 14.9252 11.7112 14.2461 11.7112 13.2701C11.7112 12.4686 11.3654 12.1065 10.1977 11.6969" fill="#201D1C"/>
<path d="M12.0339 12.2858C12.0339 13.7675 13.2515 14.9169 14.8112 14.9169C15.2578 14.9174 15.6985 14.8166 16.0982 14.6224V13.4648C15.6879 13.8578 15.3251 14.0169 14.8587 14.0169C13.825 14.0169 13.0907 13.3045 13.0907 12.2774C13.0849 12.0531 13.125 11.8298 13.2086 11.6208C13.2922 11.4117 13.4177 11.2209 13.5778 11.0597C13.7378 10.8984 13.9292 10.7698 14.1408 10.6815C14.3524 10.5931 14.5799 10.5468 14.81 10.5451C15.297 10.5451 15.6696 10.7125 16.097 11.1127V9.95502C15.709 9.75119 15.2751 9.64469 14.8344 9.64512C13.2795 9.64512 12.0339 10.8182 12.0339 12.2834" fill="#201D1C"/>
<path d="M24.2366 13.1477L22.834 9.76142H21.7126L23.9444 14.9334H24.4972L26.7705 9.76142H25.6576L24.2366 13.1477Z" fill="#201D1C"/>
<path d="M27.2344 14.804H30.1457V13.9503H28.2596V12.5885H30.0763V11.7348H28.2596V10.6163H30.1457V9.76142H27.2344V14.804Z" fill="#201D1C"/>
<path d="M34.2088 11.2492C34.2088 10.2993 33.5306 9.76026 32.3471 9.76026H30.8251V14.8029H31.8504V12.7773H31.9879L33.4089 14.8029H34.6667L33.0107 12.6787C33.7839 12.5279 34.2088 12.0209 34.2088 11.2539M32.1499 12.0851H31.8504V10.5581H32.1669C32.8062 10.5581 33.1532 10.8146 33.1532 11.305C33.1532 11.7953 32.805 12.0827 32.1499 12.0827V12.0851Z" fill="#201D1C"/>
<path d="M34.8214 9.6C34.7296 9.6 34.6398 9.62639 34.5635 9.67584C34.4871 9.72529 34.4276 9.79557 34.3925 9.87779C34.3573 9.96002 34.3482 10.0505 34.3661 10.1378C34.384 10.2251 34.4282 10.3053 34.4931 10.3682C34.5581 10.4311 34.6408 10.474 34.7309 10.4914C34.8209 10.5087 34.9143 10.4998 34.9991 10.4657C35.0839 10.4317 35.1565 10.374 35.2075 10.3C35.2585 10.226 35.2857 10.139 35.2857 10.05C35.2857 9.99091 35.2737 9.93239 35.2504 9.87779C35.227 9.8232 35.1928 9.77359 35.1497 9.7318C35.1066 9.69002 35.0554 9.65687 34.9991 9.63425C34.9428 9.61164 34.8824 9.6 34.8214 9.6ZM34.8214 10.41C34.748 10.41 34.6762 10.3889 34.6151 10.3493C34.554 10.3098 34.5064 10.2535 34.4783 10.1878C34.4502 10.122 34.4428 10.0496 34.4571 9.97977C34.4715 9.90993 34.5068 9.84579 34.5588 9.79544C34.6107 9.74509 34.6769 9.71081 34.749 9.69692C34.821 9.68303 34.8957 9.69016 34.9636 9.7174C35.0314 9.74465 35.0894 9.79079 35.1303 9.85C35.1711 9.9092 35.1929 9.9788 35.1929 10.05C35.1929 10.1455 35.1537 10.237 35.0841 10.3046C35.0144 10.3721 34.9199 10.41 34.8214 10.41ZM34.833 10.1072H34.7662V10.2525H34.6821V9.85695H34.8335C34.8732 9.85458 34.9126 9.86555 34.9449 9.888C34.9583 9.89896 34.9688 9.91282 34.9756 9.92846C34.9823 9.94411 34.9852 9.96108 34.9839 9.978C34.9848 10.0017 34.9785 10.0252 34.9658 10.0455C34.9527 10.0656 34.9336 10.0813 34.911 10.0905L34.9992 10.2521V10.2565H34.9092L34.833 10.1112M34.7662 10.0455H34.834C34.8517 10.0465 34.8691 10.0408 34.8827 10.0297C34.8889 10.024 34.8936 10.0169 34.8965 10.0091C34.8995 10.0013 34.9007 9.99302 34.8999 9.98475C34.9006 9.97656 34.8995 9.96833 34.8967 9.96057C34.8939 9.95282 34.8895 9.94572 34.8836 9.93975C34.8768 9.93395 34.8689 9.92955 34.8603 9.92685C34.8516 9.92414 34.8425 9.92317 34.8335 9.924H34.7662V10.0455Z" fill="black"/>
<defs>
<linearGradient id="paint0_linear_328_684" x1="-0.619048" y1="-0.599999" x2="39.1806" y2="25.7306" gradientUnits="userSpaceOnUse">
<stop stop-color="#E15927"/>
<stop offset="1" stop-color="#F49120"/>
</linearGradient>
</defs>
</svg>
