<svg width="39" height="24" viewBox="0 0 39 24" fill="none" xmlns="http://www.w3.org/2000/svg">
<g clip-path="url(#clip0_250_2642)">
<rect width="39" height="24" rx="4" fill="#F1F1F3"/>
<path d="M20.4615 9.96741C20.4615 11.1576 19.7505 11.8426 18.4979 11.8426H16.8526V8.09219H18.5047C19.7505 8.09219 20.4615 8.77031 20.4615 9.96741ZM23.6776 14.2991C23.6776 14.8734 24.1651 15.2471 24.9302 15.2471C25.9052 15.2471 26.6365 14.6174 26.6365 13.7317V13.1989L25.0453 13.3027C24.1448 13.365 23.6776 13.704 23.6776 14.2991ZM39 0.321428V24.6786C39 26.5123 37.5443 28 35.75 28H3.25C1.45573 28 0 26.5123 0 24.6786V0.321428C0 -1.51228 1.45573 -3 3.25 -3H35.75C37.5443 -3 39 -1.51228 39 0.321428ZM8.65313 8.50045C9.22188 8.54888 9.79062 8.20982 10.1495 7.7808C10.5016 7.33795 10.7318 6.74286 10.6708 6.14085C10.1698 6.16161 9.54688 6.47991 9.18802 6.92277C8.86302 7.30335 8.58542 7.9192 8.65313 8.50045ZM12.7563 13.6556C12.7427 13.6417 11.4292 13.1297 11.4156 11.5797C11.4021 10.2857 12.4516 9.66295 12.499 9.62835C11.9031 8.72879 10.9823 8.63192 10.6641 8.61116C9.83802 8.56272 9.13385 9.08862 8.74115 9.08862C8.34167 9.08862 7.74583 8.63192 7.09583 8.64576C6.24948 8.6596 5.45729 9.15089 5.03073 9.93281C4.14375 11.4967 4.80052 13.8078 5.66042 15.081C6.08021 15.7107 6.58802 16.4027 7.25156 16.375C7.88125 16.3473 8.13177 15.9598 8.8901 15.9598C9.65521 15.9598 9.87188 16.375 10.5354 16.3681C11.226 16.3542 11.6526 15.7384 12.0792 15.1087C12.5464 14.3891 12.7427 13.6971 12.7563 13.6556ZM21.924 9.96049C21.924 8.11987 20.6714 6.86049 18.8839 6.86049H15.4172V16.2989H16.8526V13.0743H18.8365C20.651 13.0743 21.924 11.8011 21.924 9.96049ZM28.0177 11.6004C28.0177 10.2373 26.9479 9.35848 25.3094 9.35848C23.7859 9.35848 22.662 10.2511 22.6214 11.469H23.9146C24.0229 10.8877 24.551 10.5071 25.2688 10.5071C26.149 10.5071 26.6365 10.9223 26.6365 11.6973V12.2163L24.849 12.327C23.1833 12.4308 22.2828 13.1297 22.2828 14.3406C22.2828 15.5654 23.2104 16.375 24.5443 16.375C25.4448 16.375 26.2776 15.9114 26.6568 15.171H26.6839V16.3058H28.0109V11.6004H28.0177ZM34.9375 9.44844H33.4818L31.7958 15.0257H31.7688L30.0828 9.44844H28.5729L31.0036 16.3196L30.875 16.7348C30.6583 17.4406 30.2995 17.7174 29.663 17.7174C29.5479 17.7174 29.3313 17.7036 29.2432 17.6967V18.8315C29.3245 18.8591 29.6833 18.8661 29.7917 18.8661C31.1932 18.8661 31.85 18.3194 32.4255 16.6656L34.9375 9.44844Z" fill="black"/>
</g>
<defs>
<clipPath id="clip0_250_2642">
<rect width="39" height="24" rx="4" fill="white"/>
</clipPath>
</defs>
</svg>
