<svg width="122" height="32" viewBox="0 0 122 32" fill="none" xmlns="http://www.w3.org/2000/svg">
<g clip-path="url(#clip0_190_128)">
<path d="M8.66786 0.746958C9.27845 0.262927 10.031 0 10.8057 0C11.5805 0 12.333 0.262927 12.9436 0.746958C13.2063 0.983073 13.4149 1.27464 13.5548 1.60122C13.6947 1.9278 13.7625 2.28148 13.7535 2.63748C13.76 2.98886 13.6908 3.33744 13.5509 3.65893C13.4111 3.98042 13.2038 4.2671 12.9436 4.49898C12.3337 4.98462 11.5809 5.24856 10.8057 5.24856C10.0305 5.24856 9.2778 4.98462 8.66786 4.49898C8.40814 4.26687 8.20133 3.98009 8.06184 3.65861C7.92242 3.33713 7.85366 2.98867 7.86038 2.63748C7.85157 2.28174 7.91923 1.92833 8.05871 1.60183C8.19813 1.27534 8.40605 0.983615 8.66786 0.746958Z" fill="#2BB088"/>
<path d="M4.91223 1.96686V23.6024H0V1.96686H4.91223Z" fill="black"/>
<path d="M13.2631 6.88391V23.6023H8.35083V6.88391H13.2631Z" fill="black"/>
<path d="M25.5437 19.3383V23.6023H23.3308C21.4544 23.6023 19.9942 23.1336 18.9501 22.1961C17.9061 21.2586 17.384 19.7066 17.384 17.5398V11.6065H15.228V7.41661H17.384V3.44196H22.2979V7.41661H25.5176V11.6065H22.2979V17.6379C22.2979 18.2756 22.4266 18.7204 22.6841 18.9724C22.9415 19.2243 23.3774 19.3503 23.9919 19.3503L25.5437 19.3383Z" fill="black"/>
<path d="M37.3328 19.3383V23.6023H35.1199C33.2435 23.6023 31.7825 23.1336 30.7369 22.1961C29.6912 21.2586 29.1692 19.7066 29.1707 17.5398V11.6065H27.0171V7.41661H29.1707V3.44196H34.0845V7.41661H37.3044V11.6065H34.0845V17.6379C34.0845 18.2756 34.2141 18.7204 34.4731 18.9724C34.7322 19.2243 35.1681 19.3503 35.7809 19.3503L37.3328 19.3383Z" fill="black"/>
<path d="M45.1925 1.96686V23.6024H39.7891V1.96686H45.1925Z" fill="black"/>
<path d="M63.7042 16.1589H52.4779C52.5352 17.3868 52.8445 18.2708 53.4058 18.8108C53.6946 19.0808 54.0333 19.2906 54.4027 19.4284C54.772 19.5662 55.1647 19.6291 55.5583 19.6136C56.2123 19.6386 56.856 19.4435 57.3879 19.0592C57.8618 18.7017 58.1995 18.1911 58.3446 17.6127H63.5942C63.3914 18.7418 62.9131 19.8023 62.2022 20.6986C61.4726 21.6161 60.5385 22.3471 59.4758 22.8321C58.2233 23.3782 56.8669 23.6396 55.5029 23.598C54.1389 23.5563 52.8007 23.2125 51.5833 22.5911C50.3612 21.9253 49.358 20.915 48.6966 19.6836C47.9764 18.3163 47.6165 16.7856 47.6515 15.238C47.6132 13.6871 47.968 12.152 48.6823 10.7779C49.3417 9.54866 50.3457 8.54242 51.569 7.88492C52.8837 7.22651 54.3318 6.88391 55.7998 6.88391C57.2678 6.88391 58.7159 7.22651 60.0306 7.88492C61.2217 8.52009 62.2045 9.48989 62.8599 10.6767C63.5433 11.9449 63.8871 13.3708 63.8573 14.8137C63.8498 15.266 63.7985 15.7166 63.7042 16.1589ZM57.9643 11.641C57.3659 11.1033 56.5868 10.8154 55.7855 10.8358C54.9547 10.8067 54.1443 11.0991 53.5206 11.6531C52.9227 12.2011 52.5847 13.0007 52.5065 14.0518H58.8348C58.8508 12.9814 58.5638 12.1778 57.9738 11.641H57.9643Z" fill="black"/>
<path d="M79.9132 8.18524C80.9734 8.88793 81.8182 9.88222 82.3513 11.0539C82.9756 12.4387 83.2816 13.9517 83.2438 15.4763C83.2783 16.9953 82.973 18.5022 82.3513 19.8821C81.8215 21.0603 80.976 22.0608 79.9132 22.7675C78.8635 23.4402 77.6455 23.7873 76.4072 23.7668C75.3105 23.798 74.2281 23.5068 73.2887 22.9276C72.436 22.3865 71.7712 21.5844 71.3889 20.6351V31.2778H66.5454V7.38915H71.3934V10.3175C71.7758 9.36826 72.4406 8.56617 73.2933 8.02504C74.2327 7.44597 75.3151 7.15477 76.4118 7.18599C77.6487 7.16633 78.8648 7.51337 79.9132 8.18524ZM72.342 12.5934C71.6922 13.2978 71.3667 14.2596 71.3654 15.4788C71.3634 16.698 71.689 17.6542 72.342 18.3474C73.0049 19.0296 73.9052 19.4156 74.846 19.421C75.7861 19.4263 76.6903 19.0507 77.3604 18.3761C77.9951 17.6812 78.3122 16.7155 78.3122 15.4788C78.3122 14.2421 77.9951 13.2755 77.3604 12.579C77.0387 12.231 76.6479 11.9576 76.2141 11.7774C75.7802 11.5972 75.3138 11.5143 74.8453 11.5344C74.3789 11.5198 73.9143 11.6068 73.4831 11.7893C73.0512 11.9718 72.6624 12.2459 72.342 12.5934Z" fill="#2BB088"/>
<path d="M95.4065 8.54645C96.2873 9.096 96.9801 9.90233 97.3905 10.8574V7.9054H102.351V24.2121H97.3905V21.2578C96.9801 22.2128 96.2873 23.0191 95.4065 23.5687C94.439 24.1521 93.3253 24.4455 92.1973 24.4145C90.9225 24.4352 89.6692 24.0854 88.5889 23.4072C87.4941 22.6956 86.6245 21.6869 86.0803 20.4987C85.4403 19.1077 85.1259 17.5887 85.1611 16.0576C85.1226 14.5206 85.4371 12.9955 86.0803 11.5996C86.6277 10.418 87.4974 9.41554 88.5889 8.70788C89.6692 8.02974 90.9225 7.67983 92.1973 7.7006C93.3253 7.66951 94.439 7.96307 95.4065 8.54645ZM91.2207 13.1249C90.5683 13.8253 90.2414 14.7997 90.2414 16.0479C90.2414 17.2962 90.5683 18.2697 91.2207 18.9685C91.9103 19.6484 92.8406 20.027 93.8075 20.0216C94.775 20.0162 95.7007 19.6271 96.3832 18.9396C97.0545 18.2183 97.3905 17.2544 97.3905 16.0479C97.3905 14.8414 97.0545 13.8719 96.3832 13.1394C96.053 12.7882 95.6518 12.5114 95.2069 12.3274C94.7619 12.1433 94.2831 12.0563 93.8016 12.0719C93.3208 12.0542 92.8412 12.1402 92.3956 12.3239C91.9507 12.5077 91.5501 12.7849 91.2207 13.1369V13.1249Z" fill="#2BB088"/>
<path d="M109.258 8.19006L113.068 17.9862L116.623 8.19006H122L112.102 31.7925H106.756L110.48 23.5715L103.825 8.19006H109.258Z" fill="#2BB088"/>
</g>
<defs>
<clipPath id="clip0_190_128">
<rect width="122" height="32" fill="white"/>
</clipPath>
</defs>
</svg>
