<svg width="103" height="32" viewBox="0 0 103 32" fill="none" xmlns="http://www.w3.org/2000/svg">
<path d="M87.2361 5.64772C86.628 5.1563 85.9858 4.69816 85.2416 4.41642C84.4515 4.11571 83.639 3.86625 82.8003 3.73511C81.9359 3.60231 81.0418 3.5707 80.145 3.65424C79.2127 3.7436 78.2673 3.95745 77.3374 4.31507C76.5922 4.60297 75.8726 4.95976 75.1863 5.38129C74.4659 5.82312 73.7855 6.33584 73.1511 6.92096C72.4843 7.53236 71.8739 8.22298 71.322 8.98516C70.7464 9.78562 70.2455 10.6661 69.8345 11.6173C69.4009 12.6155 69.0808 13.6586 68.8806 14.7306C68.6737 15.8504 68.6021 16.9915 68.6694 18.137C68.7384 19.3198 68.9581 20.4957 69.3312 21.6378C69.7126 22.8079 70.2525 23.9302 70.9466 24.9776C72.7417 27.6923 75.1669 29.6682 77.8962 30.8279C80.5261 31.9485 83.2869 32.2449 85.9063 31.8054C88.3154 31.4052 90.5116 30.3936 92.3493 28.9033C93.9995 27.5639 95.3288 25.8633 96.2691 23.8918C96.3261 23.7708 96.3603 23.6328 96.3756 23.489C96.3892 23.3459 96.3866 23.1943 96.3619 23.0462C96.3415 22.8964 96.3007 22.7498 96.2436 22.611C96.1832 22.4741 96.1098 22.3454 96.0231 22.2364C95.9311 22.1258 95.8341 22.0439 95.7354 21.9903C95.6365 21.9342 95.5344 21.9069 95.4398 21.9069C95.3393 21.9078 95.2449 21.935 95.1606 21.9921C95.0754 22.0492 94.9987 22.1336 94.9349 22.2467C94.0629 23.8485 92.8759 25.1924 91.4366 26.2099C89.8646 27.3255 88.0202 28.0315 86.0332 28.246C83.907 28.476 81.6912 28.137 79.5862 27.1773C77.419 26.1894 75.4799 24.5954 73.9981 22.4459C73.443 21.6428 73.0002 20.7828 72.6713 19.887C72.3478 19.0065 72.1365 18.0987 72.0361 17.1799C71.9416 16.2858 71.9492 15.3881 72.0601 14.5025C72.1689 13.6459 72.3726 12.8062 72.6688 11.9956C72.8554 11.4786 73.075 10.9848 73.3288 10.5163C73.5698 10.0599 73.8432 9.62636 74.1378 9.21848C74.4273 8.82075 74.739 8.44864 75.0728 8.10117C75.3964 7.76235 75.7387 7.44716 76.0981 7.1586C76.2853 7.00949 76.4736 6.86904 76.6634 6.73524C76.8558 6.60244 77.0508 6.47646 77.2467 6.35548C77.4418 6.23799 77.641 6.12649 77.847 6.02082C78.0438 5.91698 78.2499 5.81896 78.4551 5.72793C78.6859 5.62658 78.9157 5.53805 79.1517 5.45967C79.3817 5.38212 79.6131 5.31655 79.845 5.26047C80.0766 5.20589 80.3064 5.15996 80.5399 5.12501C80.767 5.09273 80.9979 5.0671 81.2244 5.05096C81.0268 5.11985 80.832 5.1974 80.6454 5.28327C80.4479 5.36931 80.2588 5.46466 80.0716 5.57034C79.8834 5.67501 79.6968 5.79084 79.5198 5.91698C79.3384 6.04295 79.1597 6.17925 78.9909 6.32652C78.8743 6.42704 78.7593 6.53171 78.6486 6.63988C78.5369 6.75071 78.4279 6.86554 78.3232 6.98653C78.2167 7.10751 78.1146 7.23182 78.0157 7.36295C77.9152 7.49592 77.8199 7.63122 77.728 7.7735C76.9913 8.90678 76.54 10.1978 76.3842 11.5638C76.2156 13.0149 76.3842 14.5213 76.8799 15.9714C77.3917 17.477 78.2409 18.8797 79.3818 20.0487C80.5297 21.224 81.934 22.1214 83.5171 22.6308C84.4327 22.9262 85.3506 23.0975 86.2472 23.1537C87.1209 23.2091 87.9725 23.1512 88.7831 22.9895C89.5752 22.8335 90.3192 22.5816 91.021 22.2417C91.6887 21.9114 92.3162 21.5042 92.8809 21.0233C93.4242 20.5608 93.8977 20.0464 94.3014 19.4913C94.6896 18.9574 95.0123 18.3876 95.2756 17.7882C95.5234 17.2134 95.7166 16.6113 95.847 15.9922C95.979 15.3945 96.0531 14.7779 96.0744 14.1495C96.1238 12.6446 95.9169 11.197 95.5184 9.85069C95.1409 8.57928 94.5875 7.36512 93.8978 6.25197C93.2283 5.17394 92.4144 4.16313 91.4777 3.26217C90.5477 2.36203 89.4774 1.54793 88.269 0.860805C88.194 0.814874 88.1098 0.783254 88.0357 0.763784C87.9563 0.743315 87.8849 0.737321 87.8169 0.743312C87.7471 0.748304 87.6917 0.764617 87.639 0.796901C87.5895 0.828353 87.5496 0.870952 87.5256 0.926201C87.5043 0.98245 87.4975 1.04369 87.5095 1.11092C87.517 1.17666 87.5416 1.24555 87.5826 1.31462C87.62 1.38018 87.6729 1.44824 87.7385 1.50865C87.7971 1.57172 87.8738 1.62531 87.9565 1.6739C89.0483 2.28365 90.0165 3.01437 90.8509 3.82664C91.6923 4.64074 92.4229 5.5537 93.0148 6.52955C93.6236 7.5327 94.1014 8.62271 94.4106 9.76215C94.7376 10.9587 94.8842 12.2369 94.7903 13.5501C94.7537 14.0755 94.6728 14.5865 94.5408 15.0803C94.4089 15.5895 94.2265 16.0793 93.9958 16.5432C93.7565 17.0227 93.467 17.474 93.1238 17.893C92.7672 18.3257 92.361 18.7199 91.8935 19.0674C91.4133 19.4277 90.8945 19.7274 90.3334 19.9599C89.7578 20.2 89.1445 20.3686 88.5077 20.4623C87.8485 20.5551 87.169 20.5696 86.4741 20.4981C85.7603 20.4255 85.0401 20.2629 84.3195 20.011C84.0324 19.9104 83.7559 19.7938 83.4858 19.6635C83.2142 19.5307 82.9493 19.3824 82.6965 19.2207C82.4419 19.0587 82.1957 18.8835 81.9634 18.6953C81.7258 18.5061 81.5024 18.3077 81.2896 18.094C81.7384 18.3189 82.1957 18.4994 82.6642 18.6339C83.1283 18.7702 83.5993 18.8639 84.0692 18.9141C84.5307 18.9627 84.994 18.9687 85.4513 18.9346C85.9001 18.8996 86.3446 18.8256 86.7773 18.7098C87.421 18.5395 88.0207 18.3044 88.5732 18.0088C89.1054 17.7236 89.5893 17.3873 90.0269 17.0057C90.4459 16.6361 90.8188 16.223 91.139 15.7777C91.4499 15.3434 91.7113 14.8784 91.9217 14.3853C92.1285 13.9094 92.2818 13.4204 92.3848 12.924C92.4846 12.4429 92.5346 11.955 92.5414 11.4662C92.5449 10.9901 92.5099 10.5107 92.4315 10.0304C92.3558 9.56362 92.2357 9.09533 92.0824 8.63037C91.6967 7.49193 91.144 6.44618 90.4679 5.51542C89.807 4.60347 89.0126 3.77655 88.1244 3.0638C87.2336 2.34672 86.2286 1.72765 85.1386 1.24405C84.0213 0.743312 82.7902 0.374539 81.4718 0.181165C79.7466 -0.0699546 78.0051 -0.0581383 76.2967 0.204963C74.4242 0.493526 72.5643 1.09145 70.811 1.99592C68.8584 3.00572 67.0189 4.40493 65.4842 6.18224C63.7547 8.17755 62.4144 10.6393 61.7545 13.4742C61.7084 13.6701 61.7237 13.8516 61.7866 14.0115C61.853 14.1725 61.9655 14.3129 62.1215 14.4244C62.2789 14.5351 62.4748 14.6186 62.6998 14.6654C62.9262 14.7105 63.1809 14.7225 63.4578 14.6919C63.7267 14.6604 63.9925 14.5922 64.2384 14.4952C64.4804 14.3981 64.7026 14.2738 64.8949 14.1315C65.0856 13.9894 65.2484 13.8293 65.3685 13.6564C65.4895 13.4887 65.5677 13.3071 65.5967 13.1242C65.9824 10.7901 66.9337 8.72423 68.2384 7.00999C69.4204 5.45584 70.8807 4.20407 72.4791 3.27232C73.9311 2.42677 75.503 1.84514 77.1134 1.53594C78.5968 1.24988 80.1279 1.1928 81.6574 1.37752C82.796 1.51797 83.8647 1.81869 84.8414 2.23921C85.7959 2.65059 86.6783 3.18278 87.4601 3.80784C88.2349 4.4279 88.9265 5.15247 89.4987 5.95392C90.0776 6.77052 90.5452 7.68264 90.8543 8.67297C90.9761 9.06055 91.0603 9.4463 91.1132 9.83288C91.1676 10.2246 91.1813 10.6164 91.1635 11.0056C91.144 11.3998 91.0843 11.7932 90.9889 12.179C90.8867 12.5691 90.7479 12.9548 90.563 13.3278C90.374 13.711 90.1475 14.0678 89.8802 14.3973C89.6093 14.7355 89.2968 15.042 88.9503 15.3136C88.5909 15.5938 88.1991 15.8346 87.7683 16.034C87.3288 16.2367 86.8503 16.3968 86.3463 16.5039C85.946 16.5883 85.5355 16.6283 85.1216 16.6233C84.7011 16.6198 84.2787 16.5678 83.8597 16.4725C83.4355 16.3755 83.0173 16.2307 82.6148 16.0433C82.206 15.8526 81.8151 15.6168 81.4412 15.3374C81.0734 15.0571 80.7241 14.7421 80.4142 14.4006C80.1052 14.0575 79.8335 13.6879 79.6061 13.2986C79.3822 12.9112 79.2051 12.5067 79.0859 12.0893C78.9649 11.6779 78.9403 11.0435 78.9538 10.6222C78.9615 10.3802 79.0688 9.87448 79.1385 9.68361C79.2101 9.49539 79.2901 9.31067 79.3772 9.13278C79.4624 8.95638 79.5542 8.78696 79.6438 8.62953C80.0312 7.95173 80.5406 7.40838 81.1272 6.99884C81.6918 6.60543 82.3244 6.33551 82.9835 6.18807C83.6231 6.04761 84.2839 6.01433 84.9489 6.11052C85.5586 6.19739 86.1198 6.39076 86.6426 6.6675C86.7312 6.71427 86.8181 6.75271 86.9068 6.77235C86.9935 6.79015 87.077 6.79365 87.1554 6.7825C87.2338 6.77052 87.306 6.74423 87.3682 6.70329C87.4311 6.66418 87.4805 6.61043 87.5155 6.54236C87.5523 6.4768 87.5709 6.40274 87.5776 6.32436C87.5776 6.24681 87.5691 6.16677 87.5436 6.08672C87.519 6.00667 87.4805 5.92829 87.4278 5.85424C87.3757 5.77802 87.3101 5.70896 87.2361 5.64772Z" fill="#091D32"/>
<path d="M11.752 30.8483L10.9251 25.2917C10.7517 24.1862 10.6487 23.3237 10.5632 22.5139H10.5274C10.3733 23.2564 10.1829 24.0654 9.88836 24.998L8.04132 30.8483H5.81702L4.03988 25.4468C3.72852 24.4981 3.43646 23.4438 3.29767 22.5139H3.26189C3.19416 23.5477 3.07202 24.4631 2.93489 25.4816L2.27838 30.8483H0L1.79478 19.1996H4.42014L6.36902 25.1878C6.64577 26.0164 6.85395 26.8102 7.00639 27.6386H7.043C7.21507 26.7412 7.40578 26.0855 7.69834 25.2226L9.69947 19.1996H12.3049L14.1161 30.8483H11.752Z" fill="#091D32"/>
<path d="M21.7176 26.5163C21.7176 28.2601 20.8894 29.1391 19.802 29.1391C18.5273 29.1391 17.8878 28.2408 17.8878 26.4813C17.8878 24.722 18.8535 23.9623 19.8388 23.9623C21.1309 23.9625 21.7176 24.86 21.7176 26.5163ZM23.9964 26.3955C23.9964 23.4439 22.4247 22.0993 19.9944 22.0993C17.389 22.0993 15.6084 24.0305 15.6084 26.7063C15.6084 29.7609 17.1787 31.0205 19.6142 31.0205C22.1851 31.0203 23.9964 29.0889 23.9964 26.3955Z" fill="#091D32"/>
<path d="M41.4928 25.4127H38.3364C38.4582 24.3771 39.0956 23.7036 40.0123 23.7036C40.9436 23.7036 41.5287 24.3423 41.4928 25.4127ZM43.6878 25.9134C43.6878 23.7905 42.5804 22.0822 40.0806 22.0822C37.5071 22.0822 36.0593 24.0153 36.0593 26.6381C36.0593 29.6579 37.5777 31.0203 40.3011 31.0203C41.3711 31.0203 42.4603 30.8305 43.3757 30.4668L43.1692 28.7594C42.4253 29.1052 41.5129 29.2943 40.6649 29.2943C39.0804 29.2943 38.2851 28.5176 38.3026 26.9141H43.6174C43.6703 26.5513 43.6878 26.2055 43.6878 25.9134Z" fill="#091D32"/>
<path d="M45.4965 23.8058C45.3577 23.6031 45.2764 23.3562 45.2764 23.0914C45.2764 22.83 45.3577 22.5863 45.4927 22.3836C46.5368 22.267 47.7689 22.2219 48.85 22.2533C48.85 22.703 48.7997 23.3928 48.6942 23.9974H48.7283C49.1422 22.9098 49.9724 21.9604 51.4558 22.0813L51.3512 24.2561C49.7656 23.9273 48.9701 24.9637 48.9701 27.344V30.8483H46.7789V23.9624C46.4243 23.9028 45.9402 23.8443 45.4965 23.8058Z" fill="#091D32"/>
<path d="M56.8402 19.8222C56.8402 19.0789 56.2186 18.4929 55.4589 18.4929C54.7181 18.4929 54.0972 19.0967 54.0972 19.8222C54.0972 20.5639 54.7179 21.1677 55.4589 21.1677C56.2186 21.1677 56.8402 20.5639 56.8402 19.8222Z" fill="#091D32"/>
<path d="M60.8783 31.0204C60.2568 31.0204 59.6367 30.9515 59.085 30.8646L59.1376 29.0542C59.6725 29.1913 60.3265 29.3131 60.9822 29.3131C61.8295 29.3131 62.382 28.9673 62.382 28.3977C62.382 26.8776 58.9111 27.7437 58.9111 24.8262C58.9111 23.324 60.1358 22.0824 62.5543 22.0824C63.0534 22.0824 63.605 22.1515 64.1229 22.2375L64.0557 23.9807C63.5729 23.8419 63.0023 23.7567 62.4674 23.7567C61.6039 23.7567 61.1892 24.1015 61.1892 24.6364C61.1892 26.0337 64.7097 25.413 64.7097 28.1908C64.7095 29.8818 63.2243 31.0204 60.8783 31.0204Z" fill="#091D32"/>
<path d="M28.5522 22.2534C28.5522 22.6681 28.5173 23.3416 28.4309 23.7895L28.4492 23.8065C28.9656 22.7899 29.9676 22.0813 31.3663 22.0813C33.2994 22.0813 33.9176 23.3237 33.9176 24.826V30.8475H31.7256V25.3608C31.7256 24.4634 31.4846 23.9277 30.6747 23.9277C29.5532 23.9277 28.6736 25.2051 28.6736 26.7055V30.8475H26.482V23.9633C26.1274 23.9027 25.6458 23.8441 25.1983 23.8057C25.0599 23.603 24.9795 23.3552 24.9795 23.0913C24.9795 22.8298 25.06 22.5862 25.194 22.3835C26.2389 22.266 27.4712 22.2226 28.5522 22.2534Z" fill="#091D32"/>
<path d="M56.5651 22.2534C55.4445 22.2228 54.1687 22.2662 53.0839 22.3837C52.9501 22.5864 52.8735 22.83 52.8735 23.0915C52.8735 23.3554 52.9501 23.6032 53.0882 23.8059C53.5344 23.8442 54.0171 23.9029 54.3706 23.9635V30.8475H56.5651V22.2534Z" fill="#091D32"/>
<path d="M96.067 2.35258C95.8634 2.55711 95.6172 2.65945 95.3283 2.65945C95.0396 2.65945 94.7938 2.55711 94.5911 2.35258C94.3893 2.14889 94.2886 1.9021 94.2886 1.61237C94.2886 1.32531 94.3903 1.08018 94.5939 0.876487C94.7966 0.673795 95.0414 0.572449 95.3283 0.572449C95.6172 0.572449 95.8635 0.673795 96.067 0.876487C96.2706 1.07918 96.3724 1.32447 96.3724 1.61237C96.3724 1.90127 96.2706 2.14806 96.067 2.35258ZM94.6948 0.978831C94.5204 1.15407 94.4334 1.36575 94.4334 1.61387C94.4334 1.86382 94.5201 2.077 94.6933 2.25323C94.8675 2.42946 95.0792 2.5175 95.3282 2.5175C95.5773 2.5175 95.7891 2.42946 95.9632 2.25323C96.1373 2.077 96.2245 1.86399 96.2245 1.61387C96.2245 1.36575 96.1374 1.15407 95.9632 0.978831C95.788 0.802764 95.5763 0.71473 95.3282 0.71473C95.081 0.714564 94.8699 0.802764 94.6948 0.978831ZM95.3084 1.03708C95.4505 1.03708 95.5545 1.05089 95.6209 1.07835C95.7394 1.1276 95.7985 1.22429 95.7985 1.36841C95.7985 1.47075 95.7612 1.54614 95.6866 1.5944C95.6472 1.62003 95.5919 1.6385 95.5212 1.64982C95.6107 1.66396 95.6763 1.7014 95.7177 1.76198C95.7593 1.82255 95.78 1.88163 95.78 1.93921V2.02292C95.78 2.04938 95.781 2.07783 95.783 2.10812C95.7848 2.13841 95.7881 2.15821 95.793 2.1677L95.8001 2.18184H95.6111C95.6101 2.17801 95.6091 2.17435 95.6081 2.17053C95.6072 2.16687 95.6062 2.16254 95.6052 2.15771L95.6011 2.12093V2.0304C95.6011 1.89827 95.565 1.8109 95.4931 1.76847C95.4505 1.744 95.3758 1.73169 95.2686 1.73169H95.1095V2.18201H94.9078V1.03691H95.3084V1.03708ZM95.5262 1.21747C95.4754 1.18901 95.3941 1.17487 95.2819 1.17487H95.1095V1.58974H95.2919C95.3774 1.58974 95.4415 1.58125 95.4843 1.56411C95.5631 1.53282 95.6026 1.47325 95.6026 1.38522C95.6026 1.30184 95.577 1.24592 95.5262 1.21747Z" fill="#091D32"/>
<path d="M97.4141 0.57251H97.6301L96.968 2.65951H96.752L97.4141 0.57251Z" fill="#091D32"/>
<path d="M98.0654 0.57251H98.4705L99.0706 2.337L99.6663 0.57251H100.069V2.65951H99.7986V1.42788C99.7986 1.38528 99.7995 1.31472 99.8015 1.2162C99.8035 1.11768 99.8045 1.01218 99.8045 0.899346L99.2085 2.65951H98.9285L98.3269 0.899346V0.96325C98.3269 1.01451 98.3284 1.09222 98.3312 1.19689C98.334 1.30157 98.3354 1.37845 98.3354 1.42771V2.65934H98.0654V0.57251Z" fill="#091D32"/>
<path d="M100.509 0.57251H101.343C101.626 0.57251 101.846 0.674354 102.002 0.877879C102.141 1.0616 102.211 1.29708 102.211 1.58398C102.211 1.80564 102.17 2.006 102.088 2.1849C101.943 2.50125 101.694 2.65934 101.34 2.65934H100.509L100.509 0.57251ZM101.288 2.41805C101.381 2.41805 101.458 2.40806 101.518 2.38826C101.626 2.35131 101.714 2.28025 101.782 2.17508C101.837 2.09087 101.876 1.98287 101.9 1.85124C101.914 1.77269 101.921 1.69963 101.921 1.63257C101.921 1.37396 101.871 1.17327 101.77 1.03015C101.67 0.887033 101.508 0.815641 101.285 0.815641H100.795V2.41805H101.288Z" fill="#091D32"/>
</svg>
