<svg width="1012" height="638" viewBox="0 0 1012 638" fill="none" xmlns="http://www.w3.org/2000/svg">
<g clip-path="url(#clip0_495_647)">
<rect width="1012" height="638" rx="50" fill="white"/>
<rect x="-150.482" y="-162.575" width="719.431" height="466.929" rx="137.095" transform="rotate(-19.5232 -150.482 -162.575)" fill="#4EB369"/>
<rect x="-395" y="613.928" width="719.431" height="466.928" rx="137.095" transform="rotate(-10 -395 613.928)" fill="#FBBC04"/>
<rect x="440.401" y="460.344" width="577.245" height="374.646" rx="110" transform="rotate(-10.0066 440.401 460.344)" fill="#4285F4"/>
<rect x="759" y="-178.697" width="577.245" height="374.646" rx="110" transform="rotate(-10.0066 759 -178.697)" fill="#EA4335"/>
<path d="M496.592 317.897V358.665H483.742V258.029H517.822C526.043 257.868 533.944 260.998 539.93 266.776C545.916 272.153 549.268 279.937 549.108 287.963C549.268 296.068 545.916 303.853 539.93 309.31C533.944 315.008 526.601 317.897 517.902 317.897H496.592ZM496.592 270.388V305.538H518.141C522.93 305.698 527.559 303.772 530.831 300.322C537.615 293.741 537.695 282.907 531.151 276.085L530.831 275.764C527.559 272.233 522.93 270.307 518.141 270.468L496.592 270.388ZM578.719 287.561C588.216 287.561 595.719 290.13 601.226 295.185C606.733 300.322 609.446 307.303 609.446 316.211V358.584H597.155V349.034H596.596C591.249 356.899 584.226 360.832 575.367 360.832C567.864 360.832 561.479 358.584 556.451 354.09C551.503 349.917 548.709 343.738 548.869 337.237C548.869 330.095 551.583 324.477 556.93 320.224C562.277 315.971 569.46 313.884 578.399 313.884C586.061 313.884 592.287 315.329 597.235 318.057V315.088C597.235 310.674 595.32 306.501 591.967 303.692C588.535 300.643 584.146 298.957 579.597 298.957C572.413 298.957 566.747 302.007 562.517 308.106L551.184 300.964C557.329 292.056 566.507 287.561 578.719 287.561ZM562.118 337.558C562.118 340.929 563.714 344.059 566.348 345.985C569.221 348.232 572.733 349.436 576.324 349.356C581.751 349.356 586.939 347.189 590.77 343.337C595 339.324 597.155 334.589 597.155 329.132C593.165 325.922 587.578 324.317 580.395 324.317C575.207 324.317 570.817 325.601 567.306 328.089C563.874 330.657 562.118 333.787 562.118 337.558ZM680 289.808L637.061 389H623.812L639.775 354.331L611.521 289.889H625.488L645.84 339.324H646.16L666.033 289.889L680 289.808Z" fill="#5F6368"/>
<path d="M444.635 309.069C444.635 305.137 444.315 301.204 443.677 297.352H389.484V319.582H420.531C419.254 326.724 415.104 333.145 409.038 337.157V351.603H427.555C438.409 341.571 444.635 326.724 444.635 309.069Z" fill="#4285F4"/>
<path d="M389.484 365.566C404.968 365.566 418.057 360.43 427.555 351.603L409.038 337.157C403.851 340.688 397.226 342.695 389.484 342.695C374.48 342.695 361.79 332.503 357.24 318.86H338.165V333.787C347.902 353.208 367.776 365.566 389.484 365.566Z" fill="#34A853"/>
<path d="M357.24 318.86C354.846 311.717 354.846 303.933 357.24 296.71V281.864H338.165C334.112 289.897 332 298.777 332 307.785C332 316.793 334.112 325.673 338.165 333.706L357.24 318.86Z" fill="#FBBC04"/>
<path d="M389.484 272.875C397.705 272.715 405.607 275.845 411.513 281.543L427.874 265.091C417.498 255.22 403.771 249.843 389.484 250.003C367.776 250.003 347.902 262.362 338.165 281.864L357.24 296.79C361.79 283.067 374.48 272.875 389.484 272.875Z" fill="#EA4335"/>
</g>
<defs>
<clipPath id="clip0_495_647">
<rect width="1012" height="638" rx="50" fill="white"/>
</clipPath>
</defs>
</svg>
