<svg width="39" height="24" viewBox="0 0 39 24" fill="none" xmlns="http://www.w3.org/2000/svg">
<rect width="39" height="24" rx="4" fill="white"/>
<path d="M19.2431 12.3731V15.5994H18.2093V7.63537H20.9513C21.6127 7.62267 22.2485 7.87035 22.7301 8.32761C23.2117 8.75312 23.4814 9.36916 23.4686 10.0042C23.4814 10.6457 23.2117 11.2617 22.7301 11.6936C22.2485 12.1445 21.6577 12.3731 20.9577 12.3731H19.2431ZM19.2431 8.6134V11.3951H20.977C21.3623 11.4078 21.7347 11.2554 21.998 10.9823C22.5438 10.4615 22.5503 9.60414 22.0237 9.06431L21.998 9.03891C21.7347 8.75947 21.3623 8.60705 20.977 8.61975L19.2431 8.6134ZM25.851 9.97249C26.6151 9.97249 27.2188 10.1757 27.6619 10.5758C28.105 10.9823 28.3233 11.5348 28.3233 12.2398V15.593H27.3344V14.8373H27.2894C26.8592 15.4597 26.2941 15.7708 25.5813 15.7708C24.9776 15.7708 24.4639 15.593 24.0593 15.2374C23.6612 14.9071 23.4365 14.4181 23.4493 13.9037C23.4493 13.3385 23.6676 12.8939 24.0979 12.5573C24.5281 12.2207 25.1061 12.0556 25.8253 12.0556C26.4418 12.0556 26.9426 12.1699 27.3408 12.3858V12.1508C27.3408 11.8015 27.1867 11.4713 26.917 11.249C26.6408 11.0077 26.2876 10.8743 25.9216 10.8743C25.3437 10.8743 24.8877 11.1156 24.5474 11.5983L23.6355 11.0331C24.13 10.3281 24.8685 9.97249 25.851 9.97249ZM24.5153 13.9291C24.5153 14.1958 24.6437 14.4435 24.8556 14.5959C25.0868 14.7738 25.3694 14.869 25.6583 14.8627C26.095 14.8627 26.5124 14.6912 26.8206 14.3864C27.161 14.0688 27.3344 13.6941 27.3344 13.2622C27.0133 13.0082 26.5638 12.8812 25.9858 12.8812C25.5684 12.8812 25.2152 12.9828 24.9327 13.1797C24.6566 13.3829 24.5153 13.6306 24.5153 13.9291ZM34 10.1503L30.5452 18H29.4792L30.7635 15.2564L28.4903 10.1567H29.614L31.2516 14.0688H31.2772L32.8762 10.1567L34 10.1503Z" fill="#5F6368"/>
<path d="M15.0623 11.6746C15.0623 11.3634 15.0366 11.0522 14.9853 10.7474H10.625V12.5066H13.123C13.0203 13.0718 12.6863 13.5799 12.1983 13.8974V15.0406H13.6881C14.5615 14.2467 15.0623 13.0718 15.0623 11.6746Z" fill="#4285F4"/>
<path d="M10.6251 16.1455C11.8709 16.1455 12.9239 15.7391 13.6881 15.0406L12.1983 13.8974C11.7809 14.1768 11.248 14.3355 10.6251 14.3355C9.41786 14.3355 8.39682 13.5289 8.03079 12.4493H6.49603V13.6305C7.27946 15.1674 8.87844 16.1455 10.6251 16.1455Z" fill="#34A853"/>
<path d="M8.03079 12.4493C7.83814 11.884 7.83818 11.2681 8.03083 10.6965V9.52162H6.49606C6.16995 10.1573 6 10.8601 6 11.573C6 12.2858 6.16995 12.9886 6.49606 13.6243L8.03079 12.4493Z" fill="#FBBC04"/>
<path d="M10.6251 8.81028C11.2865 8.79757 11.9223 9.04526 12.3975 9.49617L13.7139 8.19424C12.8791 7.41308 11.7746 6.98757 10.6251 7.00028C8.87844 7.00028 7.2795 7.97836 6.49606 9.52162L8.03079 10.7028C8.39682 9.61684 9.41786 8.81028 10.6251 8.81028Z" fill="#EA4335"/>
</svg>
