<svg width="39" height="24" viewBox="0 0 39 24" fill="none" xmlns="http://www.w3.org/2000/svg">
<rect width="39" height="24" rx="4" fill="#1347BB"/>
<path d="M24.1914 7C21.9903 7 20.0233 8.13586 20.0233 10.2345C20.0233 12.6411 23.5119 12.8073 23.5119 14.0164C23.5119 14.5255 22.9259 14.9812 21.925 14.9812C20.5047 14.9812 19.4431 14.3444 19.4431 14.3444L18.9888 16.4621C18.9888 16.4621 20.2118 17 21.8354 17C24.2419 17 26.1356 15.8083 26.1356 13.6739C26.1356 11.1308 22.6325 10.9695 22.6325 9.84735C22.6325 9.4485 23.1135 9.01156 24.1115 9.01156C25.2375 9.01156 26.1562 9.47467 26.1562 9.47467L26.6007 7.42934C26.6007 7.42934 25.6011 7 24.1914 7ZM4.05331 7.15438L4 7.46311C4 7.46311 4.92603 7.63182 5.76005 7.96841C6.83391 8.35435 6.91043 8.57904 7.09128 9.27688L9.06206 16.8408H11.704L15.774 7.15438H13.1382L10.5229 13.7402L9.45578 8.15773C9.35791 7.51884 8.86216 7.15438 8.25535 7.15438H4.05331ZM16.8339 7.15438L14.7662 16.8408H17.2797L19.3401 7.15435H16.8339V7.15438ZM30.8525 7.15438C30.2464 7.15438 29.9252 7.47744 29.6896 8.04197L26.0072 16.8408H28.643L29.153 15.3743H32.3642L32.6743 16.8408H35L32.971 7.15438H30.8525ZM31.1953 9.77135L31.9766 13.4062H29.8834L31.1953 9.77135Z" fill="#F1F1F3"/>
</svg>
