<svg width="1012" height="638" viewBox="0 0 1012 638" fill="none" xmlns="http://www.w3.org/2000/svg">
<g clip-path="url(#clip0_495_593)">
<rect width="1012" height="638" rx="50" fill="#172B85"/>
<rect opacity="0.2" x="-150.482" y="-163.055" width="719.431" height="466.929" rx="137.095" transform="rotate(-19.5232 -150.482 -163.055)" fill="white"/>
<rect opacity="0.2" x="440.401" y="460.344" width="577.245" height="374.646" rx="110" transform="rotate(-10.0066 440.401 460.344)" fill="white"/>
<path d="M112.93 291.843C112.93 294.933 112.246 297.72 110.878 300.203C109.51 302.635 107.559 304.56 105.026 305.979C102.543 307.397 99.5283 308.107 95.9816 308.107C90.3576 308.107 85.975 306.207 82.8336 302.407C79.6923 298.607 78.1216 293.388 78.1216 286.751V276.035C78.1216 268.941 79.7936 263.647 83.1376 260.151C86.4816 256.655 91.1936 254.907 97.2736 254.907C99.4016 254.907 101.606 255.16 103.886 255.667C106.216 256.173 108.775 257.085 111.562 258.403L108.294 266.231C106.014 265.167 104.012 264.432 102.29 264.027C100.567 263.571 98.971 263.343 97.5016 263.343C94.3096 263.343 91.7256 264.305 89.7496 266.231C87.8243 268.105 86.8616 271.373 86.8616 276.035V278.771C88.635 277.2 90.459 276.035 92.3336 275.275C94.259 274.515 96.159 274.135 98.0336 274.135C101.074 274.135 103.708 274.819 105.938 276.187C108.167 277.555 109.89 279.455 111.106 281.887C112.322 284.319 112.93 287.131 112.93 290.323V291.843ZM86.8616 286.751C86.8616 291.108 87.6723 294.351 89.2936 296.479C90.915 298.607 93.195 299.671 96.1336 299.671C98.667 299.671 100.618 298.961 101.986 297.543C103.354 296.073 104.038 294.173 104.038 291.843V290.323C104.038 287.941 103.404 286.016 102.138 284.547C100.871 283.077 99.047 282.343 96.6656 282.343C93.0683 282.343 89.8003 283.711 86.8616 286.447V286.751ZM149.967 263.495C146.522 270.791 143.583 278.112 141.151 285.459C138.77 292.755 136.87 300.051 135.451 307.347H125.875C127.294 300.152 129.169 292.957 131.499 285.763C133.83 278.568 136.693 271.399 140.087 264.255H117.895V255.667H149.967V263.495ZM190.389 293.287C190.389 296.073 189.73 298.581 188.413 300.811C187.146 303.04 185.196 304.813 182.561 306.131C179.926 307.448 176.582 308.107 172.529 308.107C168.526 308.107 165.284 307.499 162.801 306.283C160.318 305.016 158.494 303.369 157.329 301.343C156.164 299.316 155.581 297.061 155.581 294.579C155.581 292.096 156.164 289.816 157.329 287.739C158.494 285.611 160.42 283.66 163.105 281.887C160.977 280.468 159.33 278.72 158.165 276.643C157.05 274.565 156.493 272.133 156.493 269.347C156.493 266.661 157.126 264.229 158.393 262.051C159.66 259.872 161.509 258.149 163.941 256.883C166.373 255.565 169.286 254.907 172.681 254.907C176.329 254.907 179.394 255.515 181.877 256.731C184.36 257.947 186.209 259.593 187.425 261.671C188.692 263.697 189.325 265.977 189.325 268.511C189.325 270.74 188.793 272.843 187.729 274.819C186.716 276.744 184.993 278.543 182.561 280.215C187.78 283.153 190.389 287.511 190.389 293.287ZM171.997 276.339L175.721 277.479C177.444 276.009 178.634 274.667 179.293 273.451C180.002 272.184 180.357 270.892 180.357 269.575C180.357 267.548 179.698 265.952 178.381 264.787C177.114 263.571 175.29 262.963 172.909 262.963C170.528 262.963 168.678 263.545 167.361 264.711C166.094 265.876 165.461 267.472 165.461 269.499C165.461 272.691 167.64 274.971 171.997 276.339ZM164.549 293.287C164.549 295.313 165.284 296.96 166.753 298.227C168.222 299.443 170.3 300.051 172.985 300.051C175.62 300.051 177.672 299.443 179.141 298.227C180.661 297.011 181.421 295.389 181.421 293.363C181.421 291.843 180.864 290.475 179.749 289.259C178.685 287.992 176.836 286.953 174.201 286.143L170.097 284.851C168.222 286.371 166.829 287.789 165.917 289.107C165.005 290.424 164.549 291.817 164.549 293.287ZM232.536 286.979C232.536 294.072 230.864 299.367 227.52 302.863C224.176 306.359 219.464 308.107 213.384 308.107C211.256 308.107 209.052 307.853 206.772 307.347C204.492 306.84 201.934 305.928 199.096 304.611L202.364 296.783C204.644 297.847 206.646 298.607 208.368 299.063C210.142 299.468 211.738 299.671 213.156 299.671C216.348 299.671 218.907 298.708 220.832 296.783C222.808 294.857 223.796 291.589 223.796 286.979V284.243C222.074 285.813 220.25 286.979 218.324 287.739C216.45 288.499 214.55 288.879 212.624 288.879C209.635 288.879 207 288.195 204.72 286.827C202.491 285.459 200.768 283.559 199.552 281.127C198.336 278.695 197.728 275.883 197.728 272.691V271.171C197.728 268.333 198.412 265.673 199.78 263.191C201.148 260.708 203.099 258.707 205.632 257.187C208.166 255.667 211.18 254.907 214.676 254.907C220.3 254.907 224.683 256.807 227.824 260.607C230.966 264.407 232.536 269.625 232.536 276.263V286.979ZM206.62 272.691C206.62 275.021 207.254 276.947 208.52 278.467C209.838 279.936 211.662 280.671 213.992 280.671C217.59 280.671 220.858 279.303 223.796 276.567V276.263C223.796 271.905 222.986 268.663 221.364 266.535C219.794 264.407 217.514 263.343 214.524 263.343C212.042 263.343 210.091 264.153 208.672 265.775C207.304 267.396 206.62 269.195 206.62 271.171V272.691ZM291.097 295.643H285.701V307.347H276.885V295.643H254.693V288.271C256.973 284.724 259.227 281.127 261.457 277.479C263.737 273.78 265.865 270.107 267.841 266.459C269.817 262.76 271.438 259.163 272.705 255.667H282.661C280.786 260.835 278.253 266.155 275.061 271.627C271.869 277.048 268.575 282.343 265.181 287.511H276.885V279.683H285.701V287.511H291.097V295.643ZM297.887 280.671L299.407 255.667H325.855V264.255H307.463L306.779 275.655C308.552 275.199 310.452 274.971 312.479 274.971C317.495 274.971 321.422 276.288 324.259 278.923C327.096 281.507 328.515 285.332 328.515 290.399V292.451C328.515 295.288 327.932 297.897 326.767 300.279C325.602 302.66 323.727 304.56 321.143 305.979C318.61 307.397 315.24 308.107 311.035 308.107C308.704 308.107 306.272 307.828 303.739 307.271C301.256 306.713 298.52 305.776 295.531 304.459L298.343 296.631C301.028 297.695 303.283 298.48 305.107 298.987C306.982 299.443 308.856 299.671 310.731 299.671C313.568 299.671 315.696 299.088 317.115 297.923C318.584 296.757 319.319 294.933 319.319 292.451V290.399C319.319 288.169 318.66 286.396 317.343 285.079C316.076 283.761 314.024 283.103 311.187 283.103C309.92 283.103 308.603 283.28 307.235 283.635C305.867 283.939 304.398 284.395 302.827 285.003L297.887 280.671ZM371.953 291.843C371.953 294.933 371.269 297.72 369.901 300.203C368.533 302.635 366.582 304.56 364.049 305.979C361.566 307.397 358.552 308.107 355.005 308.107C349.381 308.107 344.998 306.207 341.857 302.407C338.716 298.607 337.145 293.388 337.145 286.751V276.035C337.145 268.941 338.817 263.647 342.161 260.151C345.505 256.655 350.217 254.907 356.297 254.907C358.425 254.907 360.629 255.16 362.909 255.667C365.24 256.173 367.798 257.085 370.585 258.403L367.317 266.231C365.037 265.167 363.036 264.432 361.313 264.027C359.59 263.571 357.994 263.343 356.525 263.343C353.333 263.343 350.749 264.305 348.773 266.231C346.848 268.105 345.885 271.373 345.885 276.035V278.771C347.658 277.2 349.482 276.035 351.357 275.275C353.282 274.515 355.182 274.135 357.057 274.135C360.097 274.135 362.732 274.819 364.961 276.187C367.19 277.555 368.913 279.455 370.129 281.887C371.345 284.319 371.953 287.131 371.953 290.323V291.843ZM345.885 286.751C345.885 291.108 346.696 294.351 348.317 296.479C349.938 298.607 352.218 299.671 355.157 299.671C357.69 299.671 359.641 298.961 361.009 297.543C362.377 296.073 363.061 294.173 363.061 291.843V290.323C363.061 287.941 362.428 286.016 361.161 284.547C359.894 283.077 358.07 282.343 355.689 282.343C352.092 282.343 348.824 283.711 345.885 286.447V286.751ZM408.991 263.495C405.545 270.791 402.607 278.112 400.175 285.459C397.793 292.755 395.893 300.051 394.475 307.347H384.899C386.317 300.152 388.192 292.957 390.523 285.763C392.853 278.568 395.716 271.399 399.111 264.255H376.919V255.667H408.991V263.495ZM431.035 280.671L432.555 255.667H459.003V264.255H440.611L439.927 275.655C441.701 275.199 443.601 274.971 445.627 274.971C450.643 274.971 454.57 276.288 457.407 278.923C460.245 281.507 461.663 285.332 461.663 290.399V292.451C461.663 295.288 461.081 297.897 459.915 300.279C458.75 302.66 456.875 304.56 454.291 305.979C451.758 307.397 448.389 308.107 444.183 308.107C441.853 308.107 439.421 307.828 436.887 307.271C434.405 306.713 431.669 305.776 428.679 304.459L431.491 296.631C434.177 297.695 436.431 298.48 438.255 298.987C440.13 299.443 442.005 299.671 443.879 299.671C446.717 299.671 448.845 299.088 450.263 297.923C451.733 296.757 452.467 294.933 452.467 292.451V290.399C452.467 288.169 451.809 286.396 450.491 285.079C449.225 283.761 447.173 283.103 444.335 283.103C443.069 283.103 441.751 283.28 440.383 283.635C439.015 283.939 437.546 284.395 435.975 285.003L431.035 280.671ZM503.734 295.643H498.338V307.347H489.522V295.643H467.33V288.271C469.61 284.724 471.864 281.127 474.094 277.479C476.374 273.78 478.502 270.107 480.478 266.459C482.454 262.76 484.075 259.163 485.342 255.667H495.298C493.423 260.835 490.89 266.155 487.698 271.627C484.506 277.048 481.212 282.343 477.818 287.511H489.522V279.683H498.338V287.511H503.734V295.643ZM539.328 293.287C539.328 295.972 538.77 298.455 537.656 300.735C536.541 302.964 534.742 304.763 532.26 306.131C529.828 307.448 526.56 308.107 522.456 308.107C520.125 308.107 517.693 307.828 515.16 307.271C512.677 306.713 509.941 305.776 506.952 304.459L509.764 296.631C512.449 297.593 514.704 298.353 516.528 298.911C518.402 299.417 520.277 299.671 522.152 299.671C524.837 299.671 526.864 299.139 528.232 298.075C529.65 296.96 530.36 295.237 530.36 292.907V291.843C530.36 289.917 529.752 288.372 528.536 287.207C527.37 285.991 525.546 285.383 523.064 285.383H515.008V277.175H523.064C525.445 277.175 527.193 276.617 528.308 275.503C529.422 274.337 529.98 272.843 529.98 271.019V269.955C529.98 267.624 529.321 265.952 528.004 264.939C526.737 263.875 524.862 263.343 522.38 263.343C520.606 263.343 518.808 263.596 516.984 264.103C515.21 264.559 513.057 265.268 510.524 266.231L507.712 258.403C510.549 257.085 513.184 256.173 515.616 255.667C518.048 255.16 520.404 254.907 522.684 254.907C526.585 254.907 529.726 255.565 532.108 256.883C534.489 258.2 536.212 259.973 537.276 262.203C538.39 264.432 538.948 266.889 538.948 269.575V270.639C538.948 273.02 538.34 275.123 537.124 276.947C535.958 278.72 534.413 280.139 532.488 281.203C534.565 282.317 536.212 283.812 537.428 285.687C538.694 287.511 539.328 289.689 539.328 292.223V293.287ZM577.858 307.347H546.546V300.127C546.546 296.479 547.027 293.439 547.99 291.007C548.953 288.524 550.245 286.497 551.866 284.927C553.487 283.305 555.261 282.013 557.186 281.051L562.354 278.467C564.33 277.453 565.926 276.389 567.142 275.275C568.409 274.109 569.042 272.615 569.042 270.791V269.423C569.042 267.548 568.383 266.079 567.066 265.015C565.799 263.9 563.747 263.343 560.91 263.343C559.187 263.343 557.439 263.596 555.666 264.103C553.943 264.609 551.841 265.319 549.358 266.231L546.546 258.403C549.383 257.136 551.967 256.249 554.298 255.743C556.679 255.185 558.985 254.907 561.214 254.907C565.318 254.907 568.586 255.565 571.018 256.883C573.501 258.2 575.274 259.973 576.338 262.203C577.453 264.381 578.01 266.788 578.01 269.423V270.791C578.01 273.527 577.453 275.857 576.338 277.783C575.274 279.708 573.855 281.329 572.082 282.647C570.309 283.964 568.383 285.129 566.306 286.143L561.138 288.727C559.263 289.639 557.87 290.905 556.958 292.527C556.097 294.148 555.615 296.225 555.514 298.759H577.858V307.347ZM635.776 293.287C635.776 296.073 635.117 298.581 633.8 300.811C632.533 303.04 630.582 304.813 627.948 306.131C625.313 307.448 621.969 308.107 617.916 308.107C613.913 308.107 610.67 307.499 608.188 306.283C605.705 305.016 603.881 303.369 602.716 301.343C601.55 299.316 600.968 297.061 600.968 294.579C600.968 292.096 601.55 289.816 602.716 287.739C603.881 285.611 605.806 283.66 608.492 281.887C606.364 280.468 604.717 278.72 603.552 276.643C602.437 274.565 601.88 272.133 601.88 269.347C601.88 266.661 602.513 264.229 603.78 262.051C605.046 259.872 606.896 258.149 609.328 256.883C611.76 255.565 614.673 254.907 618.068 254.907C621.716 254.907 624.781 255.515 627.264 256.731C629.746 257.947 631.596 259.593 632.812 261.671C634.078 263.697 634.712 265.977 634.712 268.511C634.712 270.74 634.18 272.843 633.116 274.819C632.102 276.744 630.38 278.543 627.948 280.215C633.166 283.153 635.776 287.511 635.776 293.287ZM617.384 276.339L621.108 277.479C622.83 276.009 624.021 274.667 624.68 273.451C625.389 272.184 625.744 270.892 625.744 269.575C625.744 267.548 625.085 265.952 623.768 264.787C622.501 263.571 620.677 262.963 618.296 262.963C615.914 262.963 614.065 263.545 612.748 264.711C611.481 265.876 610.848 267.472 610.848 269.499C610.848 272.691 613.026 274.971 617.384 276.339ZM609.936 293.287C609.936 295.313 610.67 296.96 612.14 298.227C613.609 299.443 615.686 300.051 618.372 300.051C621.006 300.051 623.058 299.443 624.528 298.227C626.048 297.011 626.808 295.389 626.808 293.363C626.808 291.843 626.25 290.475 625.136 289.259C624.072 287.992 622.222 286.953 619.588 286.143L615.484 284.851C613.609 286.371 612.216 287.789 611.304 289.107C610.392 290.424 609.936 291.817 609.936 293.287ZM677.923 286.979C677.923 294.072 676.251 299.367 672.907 302.863C669.563 306.359 664.851 308.107 658.771 308.107C656.643 308.107 654.439 307.853 652.159 307.347C649.879 306.84 647.32 305.928 644.483 304.611L647.751 296.783C650.031 297.847 652.032 298.607 653.755 299.063C655.528 299.468 657.124 299.671 658.543 299.671C661.735 299.671 664.294 298.708 666.219 296.783C668.195 294.857 669.183 291.589 669.183 286.979V284.243C667.46 285.813 665.636 286.979 663.711 287.739C661.836 288.499 659.936 288.879 658.011 288.879C655.022 288.879 652.387 288.195 650.107 286.827C647.878 285.459 646.155 283.559 644.939 281.127C643.723 278.695 643.115 275.883 643.115 272.691V271.171C643.115 268.333 643.799 265.673 645.167 263.191C646.535 260.708 648.486 258.707 651.019 257.187C653.552 255.667 656.567 254.907 660.063 254.907C665.687 254.907 670.07 256.807 673.211 260.607C676.352 264.407 677.923 269.625 677.923 276.263V286.979ZM652.007 272.691C652.007 275.021 652.64 276.947 653.907 278.467C655.224 279.936 657.048 280.671 659.379 280.671C662.976 280.671 666.244 279.303 669.183 276.567V276.263C669.183 271.905 668.372 268.663 666.751 266.535C665.18 264.407 662.9 263.343 659.911 263.343C657.428 263.343 655.478 264.153 654.059 265.775C652.691 267.396 652.007 269.195 652.007 271.171V272.691ZM724.309 276.035V286.903C724.309 293.489 722.763 298.683 719.673 302.483C716.582 306.232 712.047 308.107 706.069 308.107C700.09 308.107 695.555 306.232 692.465 302.483C689.374 298.683 687.829 293.489 687.829 286.903V276.035C687.829 269.448 689.374 264.28 692.465 260.531C695.555 256.781 700.09 254.907 706.069 254.907C712.047 254.907 716.582 256.781 719.673 260.531C722.763 264.28 724.309 269.448 724.309 276.035ZM715.113 276.035C715.113 267.573 712.098 263.343 706.069 263.343C702.978 263.343 700.698 264.407 699.229 266.535C697.759 268.663 697.025 271.829 697.025 276.035V286.903C697.025 291.108 697.759 294.3 699.229 296.479C700.698 298.607 702.978 299.671 706.069 299.671C712.098 299.671 715.113 295.415 715.113 286.903V276.035ZM763.171 293.287C763.171 295.972 762.614 298.455 761.499 300.735C760.385 302.964 758.586 304.763 756.103 306.131C753.671 307.448 750.403 308.107 746.299 308.107C743.969 308.107 741.537 307.828 739.003 307.271C736.521 306.713 733.785 305.776 730.795 304.459L733.607 296.631C736.293 297.593 738.547 298.353 740.371 298.911C742.246 299.417 744.121 299.671 745.995 299.671C748.681 299.671 750.707 299.139 752.075 298.075C753.494 296.96 754.203 295.237 754.203 292.907V291.843C754.203 289.917 753.595 288.372 752.379 287.207C751.214 285.991 749.39 285.383 746.907 285.383H738.851V277.175H746.907C749.289 277.175 751.037 276.617 752.151 275.503C753.266 274.337 753.823 272.843 753.823 271.019V269.955C753.823 267.624 753.165 265.952 751.847 264.939C750.581 263.875 748.706 263.343 746.223 263.343C744.45 263.343 742.651 263.596 740.827 264.103C739.054 264.559 736.901 265.268 734.367 266.231L731.555 258.403C734.393 257.085 737.027 256.173 739.459 255.667C741.891 255.16 744.247 254.907 746.527 254.907C750.429 254.907 753.57 255.565 755.951 256.883C758.333 258.2 760.055 259.973 761.119 262.203C762.234 264.432 762.791 266.889 762.791 269.575V270.639C762.791 273.02 762.183 275.123 760.967 276.947C759.802 278.72 758.257 280.139 756.331 281.203C758.409 282.317 760.055 283.812 761.271 285.687C762.538 287.511 763.171 289.689 763.171 292.223V293.287Z" fill="white"/>
<path d="M78.0176 446.85C78.0176 448.115 78.295 449.155 78.8496 449.97C79.4043 450.767 80.3143 451.166 81.5796 451.166C82.0996 451.166 82.637 451.096 83.1916 450.958C83.7636 450.819 84.4656 450.585 85.2976 450.256L86.2596 452.96C85.3236 453.376 84.457 453.67 83.6596 453.844C82.8796 454.017 82.1256 454.104 81.3976 454.104C79.9416 454.104 78.7196 453.792 77.7316 453.168C76.761 452.544 76.033 451.686 75.5476 450.594C75.0623 449.502 74.8196 448.254 74.8196 446.85V443.132C74.8196 441.728 75.0623 440.48 75.5476 439.388C76.033 438.296 76.761 437.446 77.7316 436.84C78.7196 436.216 79.9416 435.904 81.3976 435.904C82.1083 435.904 82.845 435.99 83.6076 436.164C84.3703 436.32 85.2023 436.597 86.1036 436.996L85.1416 439.752C84.3443 439.422 83.677 439.188 83.1396 439.05C82.6023 438.911 82.0823 438.842 81.5796 438.842C80.3143 438.842 79.4043 439.24 78.8496 440.038C78.295 440.835 78.0176 441.866 78.0176 443.132V446.85ZM96.4685 453.844V452.102C95.6712 452.795 94.9258 453.306 94.2325 453.636C93.5392 453.948 92.8372 454.104 92.1265 454.104C90.9478 454.104 90.0378 453.705 89.3965 452.908C88.7552 452.093 88.4345 450.958 88.4345 449.502V440.662H91.4245V449.138C91.4245 450.594 91.9618 451.322 93.0365 451.322C93.4698 451.322 93.9378 451.218 94.4405 451.01C94.9605 450.802 95.5845 450.403 96.3125 449.814V440.662H99.3025V453.844H96.4685ZM110.855 443.392C110.041 443.392 109.261 443.522 108.515 443.782C107.787 444.024 107.085 444.423 106.409 444.978V453.844H103.419V440.662H106.253V442.69C107.137 441.858 107.926 441.268 108.619 440.922C109.313 440.575 110.058 440.402 110.855 440.402V443.392ZM120.91 443.392C120.095 443.392 119.315 443.522 118.57 443.782C117.842 444.024 117.14 444.423 116.464 444.978V453.844H113.474V440.662H116.308V442.69C117.192 441.858 117.981 441.268 118.674 440.922C119.367 440.575 120.113 440.402 120.91 440.402V443.392ZM133.539 453.09C132.637 453.454 131.788 453.714 130.991 453.87C130.193 454.026 129.439 454.104 128.729 454.104C126.77 454.104 125.288 453.549 124.283 452.44C123.277 451.33 122.775 449.857 122.775 448.02V446.46C122.775 445.229 123 444.163 123.451 443.262C123.901 442.36 124.543 441.658 125.375 441.156C126.207 440.653 127.186 440.402 128.313 440.402C129.231 440.402 130.089 440.592 130.887 440.974C131.701 441.338 132.36 441.918 132.863 442.716C133.383 443.496 133.643 444.501 133.643 445.732C133.643 446.096 133.617 446.486 133.565 446.902C133.513 447.3 133.426 447.725 133.305 448.176H125.661C125.695 449.25 125.964 450.056 126.467 450.594C126.969 451.131 127.775 451.4 128.885 451.4C129.474 451.4 130.081 451.33 130.705 451.192C131.346 451.053 132.005 450.845 132.681 450.568L133.539 453.09ZM128.313 442.924C127.515 442.924 126.891 443.184 126.441 443.704C126.007 444.206 125.756 444.934 125.687 445.888H130.679C130.696 445.801 130.705 445.723 130.705 445.654C130.705 445.567 130.705 445.489 130.705 445.42C130.705 444.588 130.471 443.964 130.003 443.548C129.535 443.132 128.971 442.924 128.313 442.924ZM143.535 443.184C143.102 443.184 142.608 443.288 142.053 443.496C141.499 443.704 140.84 444.111 140.077 444.718V453.844H137.087V440.662H139.921V442.43C140.736 441.719 141.507 441.208 142.235 440.896C142.963 440.566 143.7 440.402 144.445 440.402C145.711 440.402 146.673 440.809 147.331 441.624C147.99 442.421 148.319 443.548 148.319 445.004V453.844H145.329V445.368C145.329 443.912 144.731 443.184 143.535 443.184ZM160.201 453.402C159.75 453.61 159.23 453.774 158.641 453.896C158.051 454.034 157.453 454.104 156.847 454.104C155.841 454.104 155.035 453.896 154.429 453.48C153.822 453.064 153.38 452.483 153.103 451.738C152.843 450.992 152.713 450.143 152.713 449.19V443.262H150.581V440.662H152.713V437.23H155.703V440.662H159.811V443.262H155.703V449.19C155.703 449.987 155.85 450.542 156.145 450.854C156.457 451.148 156.899 451.296 157.471 451.296C157.748 451.296 158.043 451.27 158.355 451.218C158.684 451.148 159.048 451.036 159.447 450.88L160.201 453.402ZM178.912 447.942C178.912 449.831 178.444 451.33 177.508 452.44C176.572 453.549 175.203 454.104 173.4 454.104C171.528 454.104 169.63 453.584 167.706 452.544V434.604H170.696V442.404C171.493 441.606 172.178 441.078 172.75 440.818C173.322 440.54 173.911 440.402 174.518 440.402C175.905 440.402 176.979 440.939 177.742 442.014C178.522 443.088 178.912 444.596 178.912 446.538V447.942ZM173.712 443.184C173.296 443.184 172.854 443.305 172.386 443.548C171.935 443.79 171.372 444.267 170.696 444.978V450.88C171.164 451.07 171.589 451.209 171.97 451.296C172.369 451.382 172.759 451.426 173.14 451.426C174.111 451.426 174.804 451.114 175.22 450.49C175.636 449.866 175.844 449.016 175.844 447.942V446.538C175.844 445.376 175.653 444.527 175.272 443.99C174.908 443.452 174.388 443.184 173.712 443.184ZM192.343 453.974C191.459 453.974 190.748 453.792 190.211 453.428C189.691 453.064 189.309 452.613 189.067 452.076C188.321 452.769 187.602 453.28 186.909 453.61C186.215 453.939 185.47 454.104 184.673 454.104C183.511 454.104 182.653 453.731 182.099 452.986C181.561 452.24 181.293 451.296 181.293 450.152C181.293 449.389 181.431 448.722 181.709 448.15C182.003 447.56 182.48 447.101 183.139 446.772C183.797 446.442 184.699 446.278 185.843 446.278C186.293 446.278 186.761 446.312 187.247 446.382C187.732 446.434 188.217 446.503 188.703 446.59V445.056C188.703 444.328 188.503 443.834 188.105 443.574C187.706 443.296 187.169 443.158 186.493 443.158C185.973 443.158 185.401 443.227 184.777 443.366C184.17 443.504 183.511 443.721 182.801 444.016L181.943 441.468C183.693 440.757 185.279 440.402 186.701 440.402C187.983 440.402 188.971 440.618 189.665 441.052C190.375 441.485 190.869 442.057 191.147 442.768C191.424 443.478 191.563 444.241 191.563 445.056V450.126C191.563 450.386 191.632 450.637 191.771 450.88C191.927 451.105 192.221 451.218 192.655 451.218H192.941V453.974H192.343ZM184.179 450.1C184.179 450.568 184.283 450.94 184.491 451.218C184.699 451.478 185.002 451.608 185.401 451.608C185.799 451.608 186.25 451.504 186.753 451.296C187.255 451.088 187.905 450.602 188.703 449.84V448.722C187.801 448.566 186.917 448.488 186.051 448.488C185.375 448.488 184.889 448.626 184.595 448.904C184.317 449.181 184.179 449.58 184.179 450.1ZM195.458 450.126V434.604H198.448V450.126C198.448 450.386 198.509 450.637 198.63 450.88C198.769 451.105 199.029 451.218 199.41 451.218H199.826V453.974H199.098C198.11 453.974 197.356 453.783 196.836 453.402C196.316 453.02 195.952 452.535 195.744 451.946C195.554 451.356 195.458 450.75 195.458 450.126ZM212.706 453.974C211.822 453.974 211.111 453.792 210.574 453.428C210.054 453.064 209.673 452.613 209.43 452.076C208.685 452.769 207.965 453.28 207.272 453.61C206.579 453.939 205.833 454.104 205.036 454.104C203.875 454.104 203.017 453.731 202.462 452.986C201.925 452.24 201.656 451.296 201.656 450.152C201.656 449.389 201.795 448.722 202.072 448.15C202.367 447.56 202.843 447.101 203.502 446.772C204.161 446.442 205.062 446.278 206.206 446.278C206.657 446.278 207.125 446.312 207.61 446.382C208.095 446.434 208.581 446.503 209.066 446.59V445.056C209.066 444.328 208.867 443.834 208.468 443.574C208.069 443.296 207.532 443.158 206.856 443.158C206.336 443.158 205.764 443.227 205.14 443.366C204.533 443.504 203.875 443.721 203.164 444.016L202.306 441.468C204.057 440.757 205.643 440.402 207.064 440.402C208.347 440.402 209.335 440.618 210.028 441.052C210.739 441.485 211.233 442.057 211.51 442.768C211.787 443.478 211.926 444.241 211.926 445.056V450.126C211.926 450.386 211.995 450.637 212.134 450.88C212.29 451.105 212.585 451.218 213.018 451.218H213.304V453.974H212.706ZM204.542 450.1C204.542 450.568 204.646 450.94 204.854 451.218C205.062 451.478 205.365 451.608 205.764 451.608C206.163 451.608 206.613 451.504 207.116 451.296C207.619 451.088 208.269 450.602 209.066 449.84V448.722C208.165 448.566 207.281 448.488 206.414 448.488C205.738 448.488 205.253 448.626 204.958 448.904C204.681 449.181 204.542 449.58 204.542 450.1ZM222.348 443.184C221.914 443.184 221.42 443.288 220.866 443.496C220.311 443.704 219.652 444.111 218.89 444.718V453.844H215.9V440.662H218.734V442.43C219.548 441.719 220.32 441.208 221.048 440.896C221.776 440.566 222.512 440.402 223.258 440.402C224.523 440.402 225.485 440.809 226.144 441.624C226.802 442.421 227.132 443.548 227.132 445.004V453.844H224.142V445.368C224.142 443.912 223.544 443.184 222.348 443.184ZM233.371 446.486V448.02C233.371 449.129 233.571 449.961 233.969 450.516C234.368 451.07 235.009 451.348 235.893 451.348C236.327 451.348 236.812 451.296 237.349 451.192C237.904 451.07 238.502 450.888 239.143 450.646L240.001 453.168C239.221 453.48 238.485 453.714 237.791 453.87C237.098 454.026 236.413 454.104 235.737 454.104C234.004 454.104 232.678 453.549 231.759 452.44C230.841 451.33 230.381 449.857 230.381 448.02V446.486C230.381 444.631 230.841 443.158 231.759 442.066C232.678 440.956 234.004 440.402 235.737 440.402C236.396 440.402 237.063 440.48 237.739 440.636C238.415 440.792 239.126 441.017 239.871 441.312L239.013 443.886C237.765 443.4 236.725 443.158 235.893 443.158C235.009 443.158 234.368 443.435 233.969 443.99C233.571 444.527 233.371 445.359 233.371 446.486ZM252.748 453.09C251.846 453.454 250.997 453.714 250.2 453.87C249.402 454.026 248.648 454.104 247.938 454.104C245.979 454.104 244.497 453.549 243.492 452.44C242.486 451.33 241.984 449.857 241.984 448.02V446.46C241.984 445.229 242.209 444.163 242.66 443.262C243.11 442.36 243.752 441.658 244.584 441.156C245.416 440.653 246.395 440.402 247.522 440.402C248.44 440.402 249.298 440.592 250.096 440.974C250.91 441.338 251.569 441.918 252.072 442.716C252.592 443.496 252.852 444.501 252.852 445.732C252.852 446.096 252.826 446.486 252.774 446.902C252.722 447.3 252.635 447.725 252.514 448.176H244.87C244.904 449.25 245.173 450.056 245.676 450.594C246.178 451.131 246.984 451.4 248.094 451.4C248.683 451.4 249.29 451.33 249.914 451.192C250.555 451.053 251.214 450.845 251.89 450.568L252.748 453.09ZM247.522 442.924C246.724 442.924 246.1 443.184 245.65 443.704C245.216 444.206 244.965 444.934 244.896 445.888H249.888C249.905 445.801 249.914 445.723 249.914 445.654C249.914 445.567 249.914 445.489 249.914 445.42C249.914 444.588 249.68 443.964 249.212 443.548C248.744 443.132 248.18 442.924 247.522 442.924Z" fill="white" fill-opacity="0.6"/>
<path d="M88.5416 509.031C88.5416 510.652 88.1043 512.017 87.2296 513.127C86.355 514.236 85.0003 514.951 83.1656 515.271V519.783H79.6456V515.399C78.8136 515.313 77.9496 515.153 77.0536 514.919C76.179 514.663 75.2296 514.3 74.2056 513.831L75.3896 510.535C76.5843 511.047 77.5976 511.409 78.4296 511.623C79.283 511.815 80.115 511.911 80.9256 511.911C83.4003 511.911 84.6376 510.993 84.6376 509.159C84.6376 508.412 84.4456 507.825 84.0616 507.399C83.699 506.972 83.0163 506.599 82.0136 506.279L79.3896 505.415C76.2536 504.391 74.6856 502.332 74.6856 499.239C74.6856 497.724 75.091 496.423 75.9016 495.335C76.7123 494.247 77.9603 493.543 79.6456 493.223V488.743H83.1656V493.159C83.9123 493.244 84.659 493.393 85.4056 493.607C86.1523 493.82 86.931 494.108 87.7416 494.471L86.5576 497.767C85.5336 497.361 84.659 497.073 83.9336 496.903C83.2296 496.711 82.5043 496.615 81.7576 496.615C80.7763 496.615 79.9976 496.796 79.4216 497.159C78.867 497.5 78.5896 498.129 78.5896 499.047C78.5896 499.729 78.7816 500.295 79.1656 500.743C79.571 501.169 80.2323 501.532 81.1496 501.831L83.7736 502.695C85.3523 503.228 86.5363 504.007 87.3256 505.031C88.1363 506.033 88.5416 507.367 88.5416 509.031Z" fill="white"/>
<path d="M95.6036 512.678L96.9236 490.964H119.892V498.422H103.92L103.326 508.322C104.866 507.926 106.516 507.728 108.276 507.728C112.632 507.728 116.042 508.872 118.506 511.16C120.97 513.404 122.202 516.726 122.202 521.126V522.908C122.202 525.372 121.696 527.638 120.684 529.706C119.672 531.774 118.044 533.424 115.8 534.656C113.6 535.888 110.674 536.504 107.022 536.504C104.998 536.504 102.886 536.262 100.686 535.778C98.5296 535.294 96.1536 534.48 93.5576 533.336L95.9996 526.538C98.3316 527.462 100.29 528.144 101.874 528.584C103.502 528.98 105.13 529.178 106.758 529.178C109.222 529.178 111.07 528.672 112.302 527.66C113.578 526.648 114.216 525.064 114.216 522.908V521.126C114.216 519.19 113.644 517.65 112.5 516.506C111.4 515.362 109.618 514.79 107.154 514.79C106.054 514.79 104.91 514.944 103.722 515.252C102.534 515.516 101.258 515.912 99.8936 516.44L95.6036 512.678ZM136.032 527.99V529.244C136.032 532.94 135.614 536.46 134.778 539.804C133.942 543.192 132.336 546.778 129.96 550.562L125.208 547.988C126.176 546.184 126.902 544.336 127.386 542.444C127.87 540.596 128.2 538.506 128.376 536.174C128.552 533.842 128.64 531.114 128.64 527.99H136.032ZM174.654 508.652V518.09C174.654 523.81 173.312 528.32 170.628 531.62C167.944 534.876 164.006 536.504 158.814 536.504C153.622 536.504 149.684 534.876 147 531.62C144.316 528.32 142.974 523.81 142.974 518.09V508.652C142.974 502.932 144.316 498.444 147 495.188C149.684 491.932 153.622 490.304 158.814 490.304C164.006 490.304 167.944 491.932 170.628 495.188C173.312 498.444 174.654 502.932 174.654 508.652ZM166.668 508.652C166.668 501.304 164.05 497.63 158.814 497.63C156.13 497.63 154.15 498.554 152.874 500.402C151.598 502.25 150.96 505 150.96 508.652V518.09C150.96 521.742 151.598 524.514 152.874 526.406C154.15 528.254 156.13 529.178 158.814 529.178C164.05 529.178 166.668 525.482 166.668 518.09V508.652ZM214.937 508.652V518.09C214.937 523.81 213.595 528.32 210.911 531.62C208.227 534.876 204.289 536.504 199.097 536.504C193.905 536.504 189.967 534.876 187.283 531.62C184.599 528.32 183.257 523.81 183.257 518.09V508.652C183.257 502.932 184.599 498.444 187.283 495.188C189.967 491.932 193.905 490.304 199.097 490.304C204.289 490.304 208.227 491.932 210.911 495.188C213.595 498.444 214.937 502.932 214.937 508.652ZM206.951 508.652C206.951 501.304 204.333 497.63 199.097 497.63C196.413 497.63 194.433 498.554 193.157 500.402C191.881 502.25 191.243 505 191.243 508.652V518.09C191.243 521.742 191.881 524.514 193.157 526.406C194.433 528.254 196.413 529.178 199.097 529.178C204.333 529.178 206.951 525.482 206.951 518.09V508.652ZM255.22 508.652V518.09C255.22 523.81 253.878 528.32 251.194 531.62C248.51 534.876 244.572 536.504 239.38 536.504C234.188 536.504 230.25 534.876 227.566 531.62C224.882 528.32 223.54 523.81 223.54 518.09V508.652C223.54 502.932 224.882 498.444 227.566 495.188C230.25 491.932 234.188 490.304 239.38 490.304C244.572 490.304 248.51 491.932 251.194 495.188C253.878 498.444 255.22 502.932 255.22 508.652ZM247.234 508.652C247.234 501.304 244.616 497.63 239.38 497.63C236.696 497.63 234.716 498.554 233.44 500.402C232.164 502.25 231.526 505 231.526 508.652V518.09C231.526 521.742 232.164 524.514 233.44 526.406C234.716 528.254 236.696 529.178 239.38 529.178C244.616 529.178 247.234 525.482 247.234 518.09V508.652ZM269.845 535.844H261.859V527.99H269.845V535.844ZM273.211 512.524L280.131 508.644H284.131V535.844H279.411V513.924L275.331 516.164L273.211 512.524ZM308.089 529.684H305.249V535.844H300.609V529.684H288.929V525.804C290.129 523.937 291.315 522.044 292.489 520.124C293.689 518.177 294.809 516.244 295.849 514.324C296.889 512.377 297.742 510.484 298.409 508.644H303.649C302.662 511.364 301.329 514.164 299.649 517.044C297.969 519.897 296.235 522.684 294.449 525.404H300.609V521.284H305.249V525.404H308.089V529.684Z" fill="white"/>
<path d="M877.66 450.354V453.344H867.416V435.664H877.4V438.654H870.536V442.892H876.62V445.882H870.536V450.354H877.66ZM887.933 453.344L885.203 448.924L882.525 453.344H879.405L883.669 446.584L879.691 440.162H882.915L885.359 444.088L887.725 440.162H890.845L886.867 446.454L891.157 453.344H887.933ZM899.353 453.604C898.92 453.604 898.478 453.56 898.027 453.474C897.594 453.387 897.152 453.266 896.701 453.11V458.882H893.711V440.162H896.545V441.956C897.36 441.141 898.053 440.595 898.625 440.318C899.197 440.04 899.795 439.902 900.419 439.902C901.858 439.902 902.967 440.439 903.747 441.514C904.527 442.588 904.917 444.096 904.917 446.038V447.442C904.917 449.331 904.441 450.83 903.487 451.94C902.534 453.049 901.156 453.604 899.353 453.604ZM899.613 442.684C899.215 442.684 898.79 442.805 898.339 443.048C897.906 443.273 897.36 443.715 896.701 444.374V450.406C897.551 450.752 898.331 450.926 899.041 450.926C900.047 450.926 900.766 450.614 901.199 449.99C901.633 449.366 901.849 448.516 901.849 447.442V446.038C901.849 444.876 901.65 444.027 901.251 443.49C900.87 442.952 900.324 442.684 899.613 442.684ZM911.455 437.666H908.309V434.572H911.455V437.666ZM911.377 453.344H908.387V440.162H911.377V453.344ZM922.932 442.892C922.118 442.892 921.338 443.022 920.592 443.282C919.864 443.524 919.162 443.923 918.486 444.478V453.344H915.496V440.162H918.33V442.19C919.214 441.358 920.003 440.768 920.696 440.422C921.39 440.075 922.135 439.902 922.932 439.902V442.892ZM930.881 454.644C930.309 456.238 929.581 457.382 928.697 458.076C927.813 458.786 926.6 459.142 925.057 459.142V456.152C925.976 456.117 926.695 455.909 927.215 455.528C927.752 455.164 928.151 454.652 928.411 453.994L928.645 453.396L923.939 440.162H926.903L929.165 446.74L930.049 449.522L930.907 446.74L933.065 440.162H936.029L930.881 454.644Z" fill="white" fill-opacity="0.6"/>
<path d="M841.392 501.858L848.658 497.784H852.858V526.344H847.902V503.328L843.618 505.68L841.392 501.858ZM875.788 526.344H858.484V522.354C858.484 520.338 858.75 518.658 859.282 517.314C859.814 515.942 860.528 514.822 861.424 513.954C862.32 513.058 863.3 512.344 864.364 511.812L867.22 510.384C868.312 509.824 869.194 509.236 869.866 508.62C870.566 507.976 870.916 507.15 870.916 506.142V505.386C870.916 504.35 870.552 503.538 869.824 502.95C869.124 502.334 867.99 502.026 866.422 502.026C865.47 502.026 864.504 502.166 863.524 502.446C862.572 502.726 861.41 503.118 860.038 503.622L858.484 499.296C860.052 498.596 861.48 498.106 862.768 497.826C864.084 497.518 865.358 497.364 866.59 497.364C868.858 497.364 870.664 497.728 872.008 498.456C873.38 499.184 874.36 500.164 874.948 501.396C875.564 502.6 875.872 503.93 875.872 505.386V506.142C875.872 507.654 875.564 508.942 874.948 510.006C874.36 511.07 873.576 511.966 872.596 512.694C871.616 513.422 870.552 514.066 869.404 514.626L866.548 516.054C865.512 516.558 864.742 517.258 864.238 518.154C863.762 519.05 863.496 520.198 863.44 521.598H875.788V526.344ZM889.979 495.264H894.935L881.327 532.35H876.371L889.979 495.264ZM913.522 526.344H896.218V522.354C896.218 520.338 896.484 518.658 897.016 517.314C897.548 515.942 898.262 514.822 899.158 513.954C900.054 513.058 901.034 512.344 902.098 511.812L904.954 510.384C906.046 509.824 906.928 509.236 907.6 508.62C908.3 507.976 908.65 507.15 908.65 506.142V505.386C908.65 504.35 908.286 503.538 907.558 502.95C906.858 502.334 905.724 502.026 904.156 502.026C903.204 502.026 902.238 502.166 901.258 502.446C900.306 502.726 899.144 503.118 897.772 503.622L896.218 499.296C897.786 498.596 899.214 498.106 900.502 497.826C901.818 497.518 903.092 497.364 904.324 497.364C906.592 497.364 908.398 497.728 909.742 498.456C911.114 499.184 912.094 500.164 912.682 501.396C913.298 502.6 913.606 503.93 913.606 505.386V506.142C913.606 507.654 913.298 508.942 912.682 510.006C912.094 511.07 911.31 511.966 910.33 512.694C909.35 513.422 908.286 514.066 907.138 514.626L904.282 516.054C903.246 516.558 902.476 517.258 901.972 518.154C901.496 519.05 901.23 520.198 901.174 521.598H913.522V526.344ZM934.727 526.344H917.423V522.354C917.423 520.338 917.689 518.658 918.221 517.314C918.753 515.942 919.467 514.822 920.363 513.954C921.259 513.058 922.239 512.344 923.303 511.812L926.159 510.384C927.251 509.824 928.133 509.236 928.805 508.62C929.505 507.976 929.855 507.15 929.855 506.142V505.386C929.855 504.35 929.491 503.538 928.763 502.95C928.063 502.334 926.929 502.026 925.361 502.026C924.409 502.026 923.443 502.166 922.463 502.446C921.511 502.726 920.349 503.118 918.977 503.622L917.423 499.296C918.991 498.596 920.419 498.106 921.707 497.826C923.023 497.518 924.297 497.364 925.529 497.364C927.797 497.364 929.603 497.728 930.947 498.456C932.319 499.184 933.299 500.164 933.887 501.396C934.503 502.6 934.811 503.93 934.811 505.386V506.142C934.811 507.654 934.503 508.942 933.887 510.006C933.299 511.07 932.515 511.966 931.535 512.694C930.555 513.422 929.491 514.066 928.343 514.626L925.487 516.054C924.451 516.558 923.681 517.258 923.177 518.154C922.701 519.05 922.435 520.198 922.379 521.598H934.727V526.344Z" fill="white"/>
<path d="M843.23 134.457H829.389L838.046 80.9844H851.887L843.23 134.457Z" fill="white"/>
<path d="M893.402 82.2922C890.672 81.2102 886.342 80.0156 880.987 80.0156C867.318 80.0156 857.692 87.2967 857.633 97.7063C857.52 105.387 864.525 109.652 869.764 112.213C875.12 114.83 876.94 116.538 876.94 118.87C876.885 122.453 872.613 124.104 868.628 124.104C863.101 124.104 860.14 123.253 855.64 121.26L853.818 120.405L851.881 132.409C855.127 133.886 861.108 135.197 867.318 135.255C881.842 135.255 891.297 128.086 891.409 116.993C891.464 110.906 887.765 106.242 879.791 102.43C874.949 99.9836 871.984 98.3339 871.984 95.8305C872.041 93.5547 874.492 91.2237 879.957 91.2237C884.457 91.1096 887.763 92.19 890.268 93.2712L891.52 93.839L893.402 82.2922Z" fill="white"/>
<path d="M911.806 115.514C912.946 112.442 917.332 100.552 917.332 100.552C917.275 100.667 918.47 97.4238 919.153 95.433L920.121 100.041C920.121 100.041 922.742 112.84 923.311 115.514C921.148 115.514 914.54 115.514 911.806 115.514ZM928.892 80.9844H918.185C914.884 80.9844 912.375 81.9506 910.951 85.421L890.391 134.456H904.914C904.914 134.456 907.305 127.857 907.819 126.435C909.413 126.435 923.541 126.435 925.591 126.435C925.988 128.313 927.242 134.456 927.242 134.456H940.059L928.892 80.9844V80.9844Z" fill="white"/>
<path d="M817.825 80.9844L804.27 117.448L802.788 110.053C800.282 101.519 792.422 92.2484 783.651 87.6386L796.068 134.401H810.705L832.462 80.9844H817.825V80.9844Z" fill="white"/>
<path d="M791.682 80.9844H769.412L769.185 82.0649C786.556 86.5029 798.062 97.2003 802.788 110.058L797.947 85.4798C797.15 82.0642 794.701 81.097 791.682 80.9844Z" fill="#FAA61A"/>
</g>
<defs>
<clipPath id="clip0_495_593">
<rect width="1012" height="638" rx="50" fill="white"/>
</clipPath>
</defs>
</svg>
