<svg width="39" height="24" viewBox="0 0 39 24" fill="none" xmlns="http://www.w3.org/2000/svg">
<rect width="39" height="24" rx="4" fill="white"/>
<path d="M21.4742 20.9999C26.4543 21.0234 31 16.9875 31 12.0779C31 6.7093 26.4543 2.998 21.4742 3H17.188C12.1485 2.998 8 6.7103 8 12.0779C8 16.9885 12.1485 21.0234 17.188 20.9999H21.4742Z" fill="#0079BE"/>
<path d="M17.2085 3.74396C12.603 3.74546 8.87156 7.43271 8.87003 11.9837C8.87156 16.5341 12.603 20.2214 17.2085 20.2229C21.8145 20.2214 25.5475 16.5341 25.548 11.9837C25.5475 7.43271 21.815 3.74546 17.2085 3.74396ZM11.9233 11.9837C11.9224 10.9314 12.2457 9.90341 12.851 9.03393C13.4564 8.16444 14.3156 7.49395 15.3164 7.11008V16.8567C14.3155 16.4731 13.4562 15.8028 12.8508 14.9333C12.2454 14.0639 11.9222 13.0359 11.9233 11.9837ZM19.1 16.8587V7.10958C20.1016 7.4929 20.9616 8.16334 21.5674 9.03311C22.1732 9.90289 22.4966 10.9315 22.4952 11.9842C22.4964 13.0368 22.1729 14.0653 21.5671 14.935C20.9613 15.8048 20.1015 16.4753 19.1 16.8587Z" fill="white"/>
<path d="M21.4742 20.9999C26.4543 21.0234 31 16.9875 31 12.0779C31 6.7093 26.4543 2.998 21.4742 3H17.188C12.1485 2.998 8 6.7103 8 12.0779C8 16.9885 12.1485 21.0234 17.188 20.9999H21.4742Z" fill="#0079BE"/>
<path d="M17.2085 3.74396C12.603 3.74546 8.87156 7.43271 8.87003 11.9837C8.87156 16.5341 12.603 20.2214 17.2085 20.2229C21.8145 20.2214 25.5475 16.5341 25.548 11.9837C25.5475 7.43271 21.815 3.74546 17.2085 3.74396ZM11.9233 11.9837C11.9224 10.9314 12.2457 9.90341 12.851 9.03393C13.4564 8.16444 14.3156 7.49395 15.3164 7.11008V16.8567C14.3155 16.4731 13.4562 15.8028 12.8508 14.9333C12.2454 14.0639 11.9222 13.0359 11.9233 11.9837ZM19.1 16.8587V7.10958C20.1016 7.4929 20.9616 8.16334 21.5674 9.03311C22.1732 9.90289 22.4966 10.9315 22.4952 11.9842C22.4964 13.0368 22.1729 14.0653 21.5671 14.935C20.9613 15.8048 20.1015 16.4753 19.1 16.8587Z" fill="white"/>
</svg>
