<svg width="141" height="50" viewBox="0 0 141 50" fill="none" xmlns="http://www.w3.org/2000/svg">
<path d="M141 3.48619L138.538 0H138.534L135.889 3.26946L119.072 23.4122L128.893 35.0802H121.657L115.584 27.6696L100.551 46.7282L115.584 32.7938L119.634 37.6226H135.549L123.101 23.4122L139.197 3.48619H141Z" fill="white"/>
<path d="M103.578 14.3065H110.813L116.887 21.7174L131.92 2.65849L116.887 16.5928L112.838 11.7643H96.9219L109.35 25.9745L92.7727 46.4917H90.929L93.4146 50L96.0402 46.7283H96.0607L113.4 25.9745L103.578 14.3065Z" fill="white"/>
<path d="M38.2543 32.1H26.9859C22.479 32.1 20.2297 30.6805 20.2297 27.8422V27.1202C20.2297 24.3354 22.4801 22.945 26.9859 22.945H30.744C32.2457 22.945 32.9945 22.4509 32.9945 21.4578C32.9945 20.5082 32.2457 20.0384 30.744 20.0384H20.2287V17.2H31.4919C36.0085 17.2 38.2543 18.7356 38.2543 21.811V32.1ZM33.3385 25.7015L26.2066 25.7158C24.7039 25.7592 23.9501 26.234 23.9501 27.1344V27.8415C23.9501 28.7862 24.7039 29.2609 26.2066 29.2609H33.3385V25.7008V25.7015Z" fill="white"/>
<path d="M80.9148 21.458C80.9148 18.6196 82.9236 17.2 86.9234 17.2H92.1782C96.6846 17.2 98.9403 18.6196 98.9403 21.458V22.1651C98.9403 25.0035 96.6817 26.4231 92.1782 26.4231H88.4261C86.9234 26.4231 86.1694 26.8979 86.1694 27.842C86.1694 28.7867 86.9234 29.2615 88.4261 29.2615H98.9403V32.1H87.6714C83.1654 32.1 80.9148 30.5644 80.9148 27.4888V21.458ZM86.1694 23.6573C86.642 23.6088 87.1436 23.5845 87.6714 23.5845H91.4296C92.9314 23.5845 93.6802 23.1147 93.6802 22.1651V21.458C93.6802 20.5084 92.9314 20.0385 91.4296 20.0385H88.4252C86.9225 20.0385 86.1686 20.5184 86.1686 21.4866V23.6565L86.1694 23.6573Z" fill="white"/>
<path d="M65.941 32.1H60.6861V17.2H72.703C76.7072 17.2 78.7116 19.0888 78.7116 22.8772V32.1L73.4513 32.0857V22.8772C73.4513 20.9833 72.2004 20.0386 69.6988 20.0386H65.941V32.1Z" fill="white"/>
<path d="M12.017 12.3C16.0227 12.3 18.0256 14.1857 18.0256 17.9571C18.0256 21.7286 16.0227 23.6143 12.017 23.6143H5.25746V32.1H0.0150213L0 12.3H12.017ZM5.25746 20.7857H9.01278C11.5163 20.7857 12.7681 19.8429 12.7681 17.9571C12.7681 16.0714 11.5163 15.1286 9.01278 15.1286H5.25746V20.7857Z" fill="white"/>
<path d="M53.2255 17.2H58.483V32.1172C58.483 35.9057 56.4801 37.8 52.4744 37.8H43.4616V34.9586H49.4702C51.9737 34.9586 53.2255 34.0115 53.2255 32.1172H46.4659C42.4602 32.1172 40.4574 30.223 40.4574 26.4345V17.2142L45.7148 17.2284V26.4345C45.7148 28.3287 46.9666 29.2759 49.4702 29.2759H53.2255V17.2Z" fill="white"/>
</svg>
