<svg width="39" height="24" viewBox="0 0 39 24" fill="none" xmlns="http://www.w3.org/2000/svg">
<g clip-path="url(#clip0_250_2586)">
<path d="M7.63766 0.00133778H17.372C18.7308 0.00133778 19.576 1.09087 19.259 2.43201L14.7269 21.5731C14.4071 22.9095 13.0466 24 11.6869 24H1.95347C0.596548 24 -0.250492 22.9095 0.0664955 21.5731L4.60042 2.43201C4.91741 1.09087 6.27718 0.00133778 7.63766 0.00133778Z" fill="#E21836"/>
<path d="M16.5614 0H27.7557C29.1143 0 28.5016 1.08953 28.182 2.43068L23.6507 21.5717C23.3328 22.9082 23.432 23.9987 22.0705 23.9987H10.8763C9.51486 23.9987 8.67233 22.9082 8.99217 21.5717L13.5232 2.43068C13.845 1.08953 15.2019 0 16.5614 0Z" fill="#00447C"/>
<path d="M27.3119 0H37.0462C38.4069 0 39.252 1.08953 38.9324 2.43068L34.4011 21.5717C34.0813 22.9082 32.7199 23.9987 31.3594 23.9987H21.6296C20.2681 23.9987 19.4237 22.9082 19.7426 21.5717L24.2746 2.43068C24.5916 1.08953 25.9504 0 27.3119 0Z" fill="#007B84"/>
<path d="M10.1795 6.13412C9.17843 6.14415 8.88279 6.13412 8.78836 6.11218C8.75206 6.28186 8.07656 9.34716 8.07466 9.34973C7.92922 9.96989 7.8234 10.412 7.46394 10.6974C7.25989 10.8634 7.02167 10.9434 6.7455 10.9434C6.30157 10.9434 6.04295 10.7266 5.99953 10.3153L5.99123 10.1741C5.99123 10.1741 6.12647 9.34343 6.12647 9.33876C6.12647 9.33876 6.83542 6.54537 6.96236 6.17613C6.969 6.15512 6.9709 6.14415 6.97256 6.13412C5.59262 6.14602 5.348 6.13412 5.33115 6.11218C5.3219 6.14228 5.28773 6.31547 5.28773 6.31547L4.56383 9.46387L4.50167 9.73088L4.38138 10.6043C4.38138 10.8634 4.4331 11.0748 4.53607 11.2536C4.86587 11.8206 5.80663 11.9055 6.33882 11.9055C7.02452 11.9055 7.66775 11.7622 8.10242 11.5006C8.85693 11.062 9.05434 10.3765 9.23039 9.76729L9.31201 9.45476C9.31201 9.45476 10.0423 6.55354 10.1664 6.17613C10.1711 6.15512 10.173 6.14415 10.1795 6.13412ZM12.6643 8.47456C12.4882 8.47456 12.1665 8.51657 11.8775 8.65591C11.7726 8.7089 11.6734 8.77005 11.5688 8.83097L11.6632 8.49556L11.6115 8.43908C10.9987 8.56115 10.8615 8.57749 10.2954 8.65591L10.248 8.68696C10.1822 9.22309 10.1239 9.62618 9.88019 10.68C9.78742 11.0684 9.69109 11.4605 9.59452 11.848L9.62062 11.8972C10.2007 11.8671 10.3768 11.8671 10.881 11.8753L10.9218 11.8316C10.9858 11.5088 10.9942 11.4332 11.136 10.7794C11.2027 10.4695 11.3417 9.78839 11.4103 9.54588C11.5363 9.48847 11.6606 9.43198 11.7793 9.43198C12.0619 9.43198 12.0274 9.67449 12.0165 9.77112C12.0044 9.93334 11.9015 10.4632 11.7959 10.9181L11.7254 11.2117C11.6763 11.4285 11.6224 11.6393 11.5733 11.8543L11.5947 11.8972C12.1665 11.8671 12.3409 11.8671 12.8292 11.8753L12.8866 11.8316C12.9749 11.3275 13.0007 11.1926 13.1573 10.4585L13.2361 10.1212C13.3891 9.46116 13.466 9.12646 13.3502 8.85384C13.2278 8.54831 12.934 8.47456 12.6643 8.47456ZM15.4401 9.16564C15.1362 9.22306 14.9423 9.26134 14.7497 9.28608C14.5587 9.31619 14.3724 9.3435 14.0787 9.38364L14.0554 9.40442L14.0341 9.42099C14.0034 9.63619 13.9821 9.82221 13.9415 10.0409C13.9071 10.2671 13.8542 10.5241 13.7681 10.8933C13.7014 11.176 13.667 11.2745 13.629 11.3739C13.592 11.4733 13.5512 11.5699 13.4762 11.8479L13.4938 11.8736L13.5085 11.8972C13.783 11.8843 13.9626 11.8752 14.1472 11.8736C14.3316 11.8671 14.5226 11.8736 14.8182 11.8752L14.8441 11.8545L14.8718 11.8316C14.9146 11.5809 14.921 11.5135 14.9471 11.3912C14.9729 11.26 15.0175 11.0784 15.1269 10.5934C15.1786 10.3656 15.2363 10.1385 15.2899 9.906C15.3457 9.67447 15.404 9.44643 15.4596 9.21863L15.4512 9.19109L15.4401 9.16564ZM15.4466 8.23385C15.1704 8.0735 14.6857 8.12438 14.3594 8.34588C14.0341 8.56295 13.9971 8.87104 14.2723 9.03349C14.5438 9.18941 15.0304 9.14296 15.3538 8.91959C15.6784 8.69786 15.719 8.39256 15.4466 8.23385ZM17.1168 11.9474C17.6756 11.9474 18.2483 11.796 18.6794 11.3464C19.0111 10.9818 19.1632 10.4394 19.2159 10.216C19.3874 9.47568 19.2539 9.13 19.0861 8.91947C18.8313 8.59854 18.381 8.49561 17.9138 8.49561C17.6329 8.49561 16.9638 8.52292 16.4411 8.99696C16.0657 9.3389 15.8923 9.80291 15.7876 10.2478C15.6821 10.701 15.5606 11.517 16.3234 11.8207C16.5588 11.9201 16.8981 11.9474 17.1168 11.9474ZM17.0732 10.2816C17.202 9.72098 17.3541 9.25044 17.7422 9.25044C18.0464 9.25044 18.0685 9.60055 17.9332 10.1631C17.909 10.2879 17.798 10.7522 17.6478 10.9499C17.5429 11.0957 17.4189 11.1842 17.2817 11.1842C17.2409 11.1842 16.9982 11.1842 16.9944 10.8297C16.9925 10.6546 17.0288 10.4758 17.0732 10.2816ZM20.6127 11.8753L20.6563 11.8317C20.7183 11.5089 20.7285 11.433 20.8656 10.7795C20.9342 10.4695 21.0761 9.78846 21.1427 9.54595C21.269 9.4883 21.3912 9.43182 21.5136 9.43182C21.7943 9.43182 21.7601 9.67433 21.749 9.77096C21.7388 9.93341 21.6358 10.463 21.5283 10.9179L21.4616 11.2115C21.4106 11.4286 21.3551 11.6391 21.306 11.8543L21.3273 11.8973C21.901 11.8672 22.0688 11.8672 22.5599 11.8753L22.6193 11.8317C22.7054 11.3273 22.7286 11.1924 22.89 10.4586L22.9669 10.1211C23.1206 9.46099 23.1984 9.12653 23.0845 8.85391C22.9585 8.54838 22.6629 8.47463 22.3969 8.47463C22.2206 8.47463 21.8973 8.51641 21.6099 8.65598C21.5072 8.70896 21.4042 8.76988 21.3031 8.83104L21.3912 8.49563L21.3439 8.43892C20.7313 8.56122 20.5913 8.57756 20.0259 8.65598L19.9825 8.68703C19.9139 9.22316 19.8582 9.62601 19.6145 10.6801C19.5217 11.0685 19.4254 11.4606 19.3291 11.848L19.3549 11.8973C19.936 11.8672 20.1095 11.8672 20.6127 11.8753ZM24.8278 11.8972C24.8639 11.724 25.0782 10.6975 25.0801 10.6975C25.0801 10.6975 25.2625 9.94426 25.2737 9.91695C25.2737 9.91695 25.3311 9.83853 25.3885 9.80748H25.473C26.27 9.80748 27.1699 9.80748 27.8753 9.29703C28.3553 8.94692 28.6834 8.42993 28.8298 7.8016C28.8678 7.64756 28.8958 7.46434 28.8958 7.28111C28.8958 7.04047 28.8467 6.8024 28.7048 6.61638C28.3451 6.12133 27.6288 6.11222 26.8019 6.10849C26.7993 6.10849 26.3943 6.11222 26.3943 6.11222C25.3358 6.12506 24.9114 6.12133 24.737 6.10032C24.7223 6.17618 24.6945 6.31108 24.6945 6.31108C24.6945 6.31108 24.3153 8.03968 24.3153 8.04248C24.3153 8.04248 23.408 11.7177 23.3653 11.8909C24.2895 11.8799 24.6684 11.8799 24.8278 11.8972ZM25.5304 8.82648C25.5304 8.82648 25.9335 7.10139 25.9316 7.10793L25.9447 7.01947L25.9504 6.95201L26.1115 6.96835C26.1115 6.96835 26.9428 7.03861 26.9623 7.04047C27.2904 7.16534 27.4257 7.48721 27.3312 7.90734C27.2451 8.29129 26.992 8.61409 26.6667 8.77C26.3988 8.90211 26.0706 8.91308 25.7325 8.91308H25.5138L25.5304 8.82648ZM28.0403 10.3136C27.9338 10.7603 27.8113 11.5763 28.5703 11.8671C28.8124 11.9684 29.0292 11.9985 29.2496 11.9876C29.4824 11.9752 29.6981 11.8603 29.8978 11.6951C29.8798 11.763 29.8618 11.8309 29.8438 11.8991L29.8782 11.9427C30.4241 11.9201 30.5935 11.9201 31.185 11.9245L31.2386 11.8844C31.325 11.3849 31.4064 10.8999 31.6308 9.94433C31.7402 9.48662 31.8494 9.03335 31.9616 8.57751L31.944 8.52733C31.3333 8.63866 31.1701 8.66247 30.5826 8.7444L30.538 8.78011C30.5321 8.82656 30.5259 8.87113 30.5202 8.91572C30.4289 8.77054 30.2965 8.6466 30.0922 8.56934C29.8309 8.46828 29.2174 8.59852 28.6899 9.07093C28.3193 9.4082 28.1414 9.87034 28.0403 10.3136ZM29.323 10.3409C29.4537 9.79028 29.6039 9.32441 29.993 9.32441C30.239 9.32441 30.3686 9.54778 30.3422 9.92869C30.3214 10.0237 30.2988 10.1238 30.272 10.237C30.2331 10.4006 30.1909 10.5629 30.1498 10.7253C30.1081 10.8364 30.0594 10.9412 30.006 11.011C29.9059 11.1506 29.6677 11.2372 29.5306 11.2372C29.4916 11.2372 29.2515 11.2372 29.2432 10.8889C29.2413 10.7155 29.2776 10.5369 29.323 10.3409ZM36.0211 8.52287L35.9739 8.46989C35.3696 8.59033 35.2602 8.60946 34.705 8.68322L34.6642 8.72337C34.6623 8.7299 34.6606 8.73994 34.6578 8.74904L34.6559 8.73994C34.2425 9.67799 34.2547 9.47563 33.9182 10.2141C33.9163 10.1805 33.9163 10.1595 33.9144 10.1238L33.8302 8.52287L33.7773 8.46989C33.1442 8.59033 33.1293 8.60946 32.5447 8.68322L32.4991 8.72337C32.4927 8.74251 32.4927 8.76351 32.4889 8.78639L32.4927 8.79456C32.5658 9.16193 32.5482 9.08001 32.6215 9.65979C32.6557 9.94431 32.7013 10.2305 32.7354 10.5115C32.7931 10.9818 32.8254 11.2133 32.8958 11.931C32.501 12.572 32.4075 12.8145 32.0274 13.377L32.03 13.3826L31.7624 13.799C31.7318 13.8429 31.704 13.873 31.6651 13.8858C31.6224 13.9066 31.5669 13.9103 31.4898 13.9103H31.3415L31.1211 14.6315L31.8772 14.6444C32.3212 14.6425 32.6002 14.4383 32.7504 14.1638L33.2259 13.3623H33.2183L33.2683 13.3058C33.5882 12.6285 36.0211 8.52287 36.0211 8.52287ZM28.0403 17.995H27.7195L28.9068 14.1319H29.3006L29.4257 13.734L29.4378 14.1765C29.4231 14.4501 29.6418 14.6926 30.2165 14.6524H30.8811L31.1098 13.9086H30.8597C30.7159 13.9086 30.6492 13.8729 30.6576 13.7963L30.6454 13.3461H29.4147V13.3484C29.0169 13.3566 27.8286 13.386 27.588 13.449C27.2969 13.5227 26.9901 13.7398 26.9901 13.7398L27.1107 13.3414H25.9594L25.7196 14.1319L24.5164 18.0541H24.2829L24.054 18.7926H26.3469L26.27 19.0388H27.3999L27.4749 18.7926H27.7918L28.0403 17.995ZM27.0995 14.9169C26.9151 14.9671 26.5721 15.1192 26.5721 15.1192L26.8772 14.1319H27.7918L27.5712 14.8513C27.5712 14.8513 27.2886 14.8676 27.0995 14.9169ZM27.1171 16.3273C27.1171 16.3273 26.8297 16.3628 26.6406 16.4048C26.4544 16.4604 26.1051 16.6354 26.1051 16.6354L26.4202 15.608H27.3396L27.1171 16.3273ZM26.6046 18.0041H25.6871L25.953 17.137H26.8677L26.6046 18.0041ZM28.8141 15.608H30.1367L29.9466 16.2134H28.6065L28.4053 16.8754H29.5779L28.69 18.1052C28.6279 18.1955 28.5721 18.2275 28.5102 18.2529C28.448 18.284 28.3664 18.3204 28.272 18.3204H27.9467L27.7232 19.0453H28.574C29.0163 19.0453 29.2775 18.8474 29.4704 18.5876L30.0792 17.7679L30.21 18.6002C30.2377 18.7561 30.3516 18.8474 30.4287 18.8829C30.5139 18.9249 30.6019 18.997 30.7263 19.0078C30.8596 19.0134 30.9559 19.0178 31.02 19.0178H31.4381L31.6891 18.2065H31.5242C31.4295 18.2065 31.2665 18.1908 31.2388 18.1617C31.211 18.1262 31.211 18.0716 31.1961 17.9885L31.0634 17.1543H30.5203L30.7585 16.8754H32.096L32.3017 16.2134H31.0634L31.2563 15.608H32.4908L32.7198 14.8613H29.0393L28.8141 15.608ZM17.6441 18.1727L17.9527 17.1625H19.2214L19.4532 16.4112H18.1834L18.3772 15.7894H19.6181L19.848 15.0619H16.7432L16.518 15.7894H17.2234L17.0352 16.4112H16.3279L16.0935 17.1754H16.7987L16.3873 18.5118C16.3317 18.6888 16.4134 18.7562 16.4651 18.8384C16.518 18.9184 16.5716 18.9714 16.6922 19.0015C16.8165 19.0288 16.9017 19.0452 17.0174 19.0452H18.4477L18.7025 18.2129L18.0685 18.2985C17.9461 18.2985 17.607 18.284 17.6441 18.1727ZM17.7896 13.3368L17.4681 13.9084C17.3993 14.0333 17.3373 14.1108 17.2816 14.1465C17.2325 14.1766 17.1352 14.1892 16.9943 14.1892H16.8265L16.6023 14.9205H17.1594C17.4273 14.9205 17.633 14.8239 17.7312 14.7755C17.8368 14.72 17.8646 14.7517 17.9462 14.6742L18.1343 14.5139H19.874L20.1048 13.7525H18.8314L19.0537 13.3368H17.7896ZM20.3578 18.1874C20.3282 18.1454 20.3495 18.0714 20.3949 17.9173L20.8703 16.3692H22.5618C22.8083 16.3657 22.9863 16.3629 23.1021 16.3547C23.2264 16.3419 23.3616 16.2982 23.509 16.2198C23.6611 16.1376 23.7389 16.051 23.8046 15.9516C23.8779 15.8524 23.9956 15.6353 24.0967 15.3006L24.6944 13.3414L22.9391 13.3515C22.9391 13.3515 22.3986 13.4299 22.1606 13.5165C21.9205 13.6131 21.5774 13.8829 21.5774 13.8829L21.7359 13.3459H20.6516L19.1336 18.2985C19.0797 18.4908 19.0436 18.6304 19.0353 18.7142C19.0325 18.8045 19.1511 18.8939 19.228 18.9614C19.3189 19.0288 19.4531 19.0178 19.582 19.0288C19.7175 19.0388 19.9101 19.0451 20.1761 19.0451H21.0094L21.2652 18.1956L20.5192 18.2649C20.4395 18.2649 20.3818 18.2229 20.3578 18.1874ZM21.1771 15.3235H22.9538L22.8408 15.6718C22.8249 15.6799 22.787 15.6545 22.6062 15.6755H21.0677L21.1771 15.3235ZM21.533 14.1556H23.3246L23.1958 14.575C23.1958 14.575 22.3514 14.5668 22.2161 14.5913C21.621 14.6926 21.2735 15.0054 21.2735 15.0054L21.533 14.1556ZM22.8806 16.8379C22.8659 16.89 22.8426 16.9217 22.8101 16.9455C22.7741 16.9684 22.7157 16.9766 22.6286 16.9766H22.3755L22.3904 16.5525H21.3374L21.2947 18.6258C21.2931 18.7754 21.3078 18.862 21.419 18.9313C21.5303 19.0179 21.8732 19.0289 22.3347 19.0289H22.9945L23.2327 18.2528L22.6583 18.2839L22.4673 18.2948C22.4412 18.2839 22.4163 18.2738 22.3885 18.2465C22.3643 18.2229 22.3235 18.2374 22.3301 18.0878L22.3347 17.5563L22.9371 17.5318C23.2624 17.5318 23.4014 17.4277 23.52 17.3285C23.6332 17.2335 23.6702 17.1243 23.7129 16.9766L23.814 16.506H22.9862L22.8806 16.8379Z" fill="#FEFEFE"/>
</g>
<defs>
<clipPath id="clip0_250_2586">
<rect width="39" height="24" fill="white"/>
</clipPath>
</defs>
</svg>
