<svg width="1012" height="638" viewBox="0 0 1012 638" fill="none" xmlns="http://www.w3.org/2000/svg">
<rect width="1012" height="638" rx="50" fill="white"/>
<g clip-path="url(#clip0_495_707)">
<rect width="1012" height="638" rx="50" fill="#007B84" fill-opacity="0.4"/>
<rect x="-150.482" y="-163.055" width="719.431" height="466.929" rx="137.095" transform="rotate(-19.5232 -150.482 -163.055)" fill="#007B84"/>
<rect x="440.401" y="460.344" width="577.245" height="374.646" rx="110" transform="rotate(-10.0066 440.401 460.344)" fill="#007B84"/>
<g clip-path="url(#clip1_495_707)">
<path d="M827.727 65.0047H861.835C866.596 65.0047 869.558 68.8635 868.447 73.6134L852.567 141.405C851.446 146.138 846.679 150 841.915 150H807.81C803.055 150 800.087 146.138 801.198 141.405L817.084 73.6134C818.195 68.8635 822.96 65.0047 827.727 65.0047Z" fill="#E21836"/>
<path d="M858.995 65H898.219C902.979 65 900.833 68.8588 899.713 73.6086L883.835 141.4C882.721 146.133 883.069 149.995 878.298 149.995H839.075C834.304 149.995 831.352 146.133 832.473 141.4L848.349 73.6086C849.477 68.8588 854.231 65 858.995 65Z" fill="#00447C"/>
<path d="M896.664 65H930.772C935.54 65 938.501 68.8588 937.381 73.6086L921.504 141.4C920.383 146.133 915.613 149.995 910.846 149.995H876.753C871.983 149.995 869.024 146.133 870.141 141.4L886.021 73.6086C887.132 68.8588 891.893 65 896.664 65Z" fill="#007B84"/>
<path d="M836.633 86.725C833.125 86.7605 832.09 86.725 831.759 86.6473C831.631 87.2483 829.265 98.1045 829.258 98.1136C828.748 100.31 828.377 101.876 827.118 102.887C826.403 103.474 825.568 103.758 824.601 103.758C823.045 103.758 822.139 102.99 821.987 101.533L821.958 101.033C821.958 101.033 822.432 98.0913 822.432 98.0748C822.432 98.0748 824.916 88.1815 825.36 86.8738C825.384 86.7994 825.39 86.7605 825.396 86.725C820.561 86.7672 819.704 86.725 819.645 86.6473C819.612 86.7539 819.493 87.3673 819.493 87.3673L816.956 98.5179L816.738 99.4635L816.317 102.557C816.317 103.474 816.498 104.223 816.859 104.857C818.015 106.864 821.311 107.165 823.176 107.165C825.578 107.165 827.832 106.658 829.355 105.731C831.999 104.178 832.691 101.75 833.307 99.5925L833.593 98.4856C833.593 98.4856 836.152 88.2105 836.587 86.8738C836.604 86.7994 836.611 86.7605 836.633 86.725ZM845.34 95.0141C844.723 95.0141 843.595 95.1629 842.583 95.6564C842.215 95.844 841.868 96.0606 841.501 96.2763L841.832 95.0885L841.651 94.8884C839.503 95.3207 839.023 95.3786 837.039 95.6564L836.873 95.7663C836.643 97.6651 836.438 99.0927 835.584 102.825C835.259 104.201 834.922 105.589 834.583 106.962L834.675 107.136C836.708 107.029 837.324 107.029 839.091 107.058L839.234 106.904C839.459 105.76 839.488 105.493 839.985 103.177C840.218 102.079 840.706 99.6672 840.946 98.8083C841.387 98.605 841.823 98.4049 842.239 98.4049C843.229 98.4049 843.108 99.2638 843.07 99.6061C843.028 100.181 842.667 102.057 842.297 103.668L842.05 104.708C841.878 105.476 841.689 106.222 841.517 106.984L841.592 107.136C843.595 107.029 844.206 107.029 845.917 107.058L846.119 106.904C846.428 105.118 846.518 104.64 847.067 102.041L847.343 100.846C847.879 98.5083 848.149 97.3229 847.743 96.3573C847.314 95.2753 846.285 95.0141 845.34 95.0141ZM855.066 97.4617C854.001 97.665 853.322 97.8006 852.647 97.8882C851.977 97.9948 851.325 98.0916 850.296 98.2337L850.214 98.3073L850.139 98.366C850.032 99.1282 849.957 99.787 849.815 100.562C849.694 101.363 849.509 102.273 849.207 103.58C848.974 104.582 848.853 104.93 848.72 105.283C848.59 105.635 848.447 105.977 848.185 106.961L848.246 107.052L848.298 107.136C849.26 107.09 849.889 107.058 850.536 107.052C851.182 107.029 851.851 107.052 852.887 107.058L852.978 106.985L853.075 106.904C853.224 106.016 853.247 105.777 853.338 105.344C853.429 104.879 853.585 104.236 853.968 102.518C854.15 101.711 854.352 100.907 854.54 100.084C854.735 99.2637 854.94 98.4561 855.134 97.6493L855.105 97.5518L855.066 97.4617ZM855.089 94.1615C854.121 93.5936 852.422 93.7738 851.279 94.5583C850.139 95.3271 850.01 96.4183 850.974 96.9936C851.925 97.5458 853.63 97.3813 854.764 96.5902C855.901 95.8049 856.043 94.7237 855.089 94.1615ZM860.941 107.314C862.899 107.314 864.906 106.777 866.416 105.185C867.579 103.894 868.111 101.973 868.296 101.182C868.897 98.5597 868.429 97.3354 867.841 96.5898C866.948 95.4532 865.37 95.0886 863.734 95.0886C862.749 95.0886 860.405 95.1853 858.573 96.8642C857.258 98.0753 856.65 99.7186 856.284 101.294C855.914 102.9 855.488 105.789 858.161 106.865C858.986 107.217 860.174 107.314 860.941 107.314ZM860.788 101.414C861.239 99.4285 861.772 97.762 863.132 97.762C864.198 97.762 864.276 99.0019 863.802 100.994C863.717 101.436 863.328 103.081 862.802 103.781C862.434 104.297 861.999 104.611 861.519 104.611C861.376 104.611 860.525 104.611 860.512 103.355C860.505 102.735 860.633 102.102 860.788 101.414ZM873.19 107.058L873.343 106.904C873.56 105.761 873.596 105.492 874.077 103.177C874.317 102.08 874.814 99.6675 875.048 98.8086C875.49 98.6044 875.918 98.4044 876.347 98.4044C877.33 98.4044 877.211 99.2632 877.172 99.6055C877.136 100.181 876.775 102.056 876.399 103.668L876.165 104.708C875.986 105.476 875.792 106.222 875.62 106.984L875.694 107.136C877.705 107.03 878.292 107.03 880.013 107.058L880.221 106.904C880.523 105.118 880.604 104.64 881.17 102.041L881.439 100.845C881.978 98.5077 882.251 97.3231 881.851 96.3576C881.41 95.2755 880.374 95.0143 879.442 95.0143C878.824 95.0143 877.691 95.1623 876.685 95.6566C876.325 95.8443 875.964 96.06 875.61 96.2766L875.918 95.0887L875.753 94.8878C873.606 95.321 873.115 95.3789 871.134 95.6566L870.982 95.7665C870.742 97.6653 870.547 99.0921 869.693 102.825C869.368 104.201 869.03 105.59 868.693 106.962L868.783 107.136C870.819 107.03 871.427 107.03 873.19 107.058ZM887.96 107.136C888.086 106.522 888.837 102.887 888.844 102.887C888.844 102.887 889.483 100.219 889.522 100.123C889.522 100.123 889.723 99.8448 889.924 99.7348H890.22C893.013 99.7348 896.166 99.7348 898.638 97.927C900.32 96.687 901.47 94.856 901.983 92.6307C902.116 92.0851 902.214 91.4362 902.214 90.7873C902.214 89.935 902.042 89.0918 901.544 88.433C900.284 86.6797 897.774 86.6475 894.877 86.6342C894.868 86.6342 893.449 86.6475 893.449 86.6475C889.74 86.6929 888.253 86.6797 887.642 86.6053C887.59 86.874 887.493 87.3518 887.493 87.3518C887.493 87.3518 886.164 93.4739 886.164 93.4838C886.164 93.4838 882.985 106.5 882.835 107.113C886.074 107.075 887.401 107.075 887.96 107.136ZM890.422 96.2605C890.422 96.2605 891.834 90.1508 891.827 90.1739L891.873 89.8606L891.893 89.6217L892.458 89.6796C892.458 89.6796 895.371 89.9284 895.439 89.935C896.589 90.3773 897.063 91.5172 896.732 93.0052C896.43 94.365 895.543 95.5082 894.403 96.0604C893.464 96.5283 892.315 96.5672 891.13 96.5672H890.363L890.422 96.2605ZM899.216 101.527C898.843 103.109 898.414 105.999 901.073 107.029C901.921 107.388 902.681 107.495 903.454 107.456C904.269 107.412 905.025 107.005 905.725 106.42C905.662 106.661 905.598 106.901 905.535 107.143L905.656 107.297C907.569 107.217 908.162 107.217 910.235 107.233L910.423 107.091C910.726 105.322 911.011 103.604 911.797 100.219C912.18 98.5985 912.563 96.9931 912.956 95.3787L912.895 95.201C910.755 95.5953 910.183 95.6796 908.124 95.9697L907.968 96.0962C907.947 96.2607 907.925 96.4186 907.906 96.5765C907.585 96.0623 907.122 95.6234 906.406 95.3498C905.49 94.9918 903.341 95.4531 901.492 97.1262C900.194 98.3207 899.57 99.9575 899.216 101.527ZM903.71 101.624C904.169 99.6739 904.695 98.0239 906.058 98.0239C906.92 98.0239 907.374 98.815 907.282 100.164C907.209 100.501 907.13 100.855 907.036 101.256C906.9 101.836 906.752 102.41 906.608 102.985C906.461 103.379 906.291 103.75 906.104 103.997C905.753 104.492 904.918 104.798 904.438 104.798C904.302 104.798 903.46 104.798 903.431 103.565C903.424 102.951 903.552 102.318 903.71 101.624ZM927.18 95.1852L927.015 94.9975C924.897 95.4241 924.514 95.4919 922.569 95.7531L922.426 95.8953C922.419 95.9184 922.413 95.9539 922.403 95.9862L922.397 95.9539C920.948 99.2762 920.991 98.5595 919.812 101.175C919.805 101.056 919.805 100.982 919.799 100.855L919.503 95.1852L919.318 94.9975C917.1 95.4241 917.048 95.4919 914.999 95.7531L914.84 95.8953C914.817 95.963 914.817 96.0374 914.804 96.1184L914.817 96.1474C915.073 97.4485 915.012 97.1584 915.269 99.2117C915.388 100.219 915.548 101.233 915.668 102.228C915.87 103.894 915.983 104.714 916.23 107.256C914.846 109.526 914.519 110.385 913.187 112.377L913.196 112.397L912.258 113.871C912.151 114.027 912.054 114.133 911.917 114.179C911.768 114.252 911.573 114.266 911.303 114.266H910.783L910.011 116.82L912.661 116.865C914.216 116.859 915.194 116.136 915.72 115.163L917.386 112.325H917.359L917.535 112.125C918.655 109.726 927.18 95.1852 927.18 95.1852ZM899.216 128.732H898.092L902.252 115.051H903.632L904.07 113.641L904.113 115.208C904.061 116.177 904.828 117.036 906.841 116.894H909.17L909.971 114.26H909.095C908.591 114.26 908.358 114.133 908.387 113.862L908.344 112.267H904.032V112.276C902.638 112.304 898.474 112.409 897.631 112.632C896.611 112.893 895.536 113.662 895.536 113.662L895.959 112.251H891.925L891.084 115.051L886.869 128.941H886.051L885.248 131.557H893.283L893.013 132.429H896.972L897.235 131.557H898.346L899.216 128.732ZM895.92 117.831C895.274 118.008 894.072 118.547 894.072 118.547L895.141 115.051H898.346L897.572 117.598C897.572 117.598 896.582 117.656 895.92 117.831ZM895.981 122.826C895.981 122.826 894.974 122.952 894.312 123.1C893.659 123.297 892.435 123.917 892.435 123.917L893.539 120.278H896.761L895.981 122.826ZM894.185 128.765H890.971L891.902 125.694H895.107L894.185 128.765ZM901.928 120.278H906.562L905.896 122.423H901.2L900.495 124.767H904.604L901.493 129.123C901.275 129.442 901.08 129.556 900.863 129.646C900.645 129.756 900.359 129.885 900.028 129.885H898.888L898.105 132.452H901.086C902.636 132.452 903.551 131.751 904.227 130.831L906.36 127.928L906.819 130.876C906.916 131.428 907.315 131.751 907.585 131.877C907.884 132.026 908.192 132.281 908.628 132.319C909.095 132.339 909.432 132.355 909.657 132.355H911.122L912.001 129.481H911.423C911.092 129.481 910.521 129.426 910.423 129.323C910.326 129.197 910.326 129.003 910.274 128.709L909.809 125.755H907.906L908.741 124.767H913.427L914.148 122.423H909.809L910.485 120.278H914.81L915.613 117.634H902.717L901.928 120.278ZM862.788 129.362L863.87 125.784H868.315L869.128 123.123H864.678L865.357 120.921H869.705L870.511 118.344H859.632L858.843 120.921H861.314L860.655 123.123H858.177L857.355 125.829H859.826L858.385 130.563C858.19 131.189 858.476 131.428 858.657 131.719C858.843 132.003 859.031 132.19 859.453 132.297C859.889 132.394 860.187 132.452 860.593 132.452H865.604L866.497 129.504L864.276 129.807C863.847 129.807 862.659 129.756 862.788 129.362ZM863.298 112.235L862.172 114.259C861.931 114.701 861.714 114.976 861.518 115.102C861.346 115.209 861.005 115.254 860.512 115.254H859.924L859.138 117.843H861.09C862.029 117.843 862.75 117.501 863.094 117.33C863.464 117.133 863.561 117.246 863.847 116.971L864.506 116.403H870.602L871.411 113.707H866.949L867.728 112.235H863.298ZM872.297 129.414C872.193 129.265 872.268 129.003 872.427 128.457L874.093 122.974H880.02C880.884 122.962 881.507 122.952 881.913 122.923C882.349 122.877 882.822 122.723 883.339 122.445C883.872 122.154 884.144 121.847 884.375 121.495C884.631 121.144 885.044 120.375 885.398 119.19L887.492 112.251L881.342 112.286C881.342 112.286 879.448 112.564 878.614 112.871C877.773 113.213 876.571 114.169 876.571 114.169L877.126 112.267H873.327L868.007 129.807C867.819 130.488 867.692 130.983 867.663 131.279C867.653 131.599 868.069 131.916 868.338 132.155C868.657 132.394 869.127 132.355 869.579 132.394C870.053 132.429 870.729 132.452 871.661 132.452H874.58L875.476 129.443L872.863 129.688C872.583 129.688 872.381 129.539 872.297 129.414ZM875.168 119.271H881.393L880.998 120.504C880.942 120.533 880.809 120.443 880.175 120.517H874.785L875.168 119.271ZM876.415 115.134H882.693L882.241 116.62C882.241 116.62 879.282 116.591 878.809 116.678C876.724 117.036 875.506 118.144 875.506 118.144L876.415 115.134ZM881.137 124.634C881.085 124.819 881.004 124.931 880.89 125.015C880.764 125.096 880.559 125.125 880.254 125.125H879.367L879.419 123.623H875.73L875.58 130.966C875.574 131.496 875.626 131.803 876.016 132.048C876.406 132.355 877.607 132.394 879.224 132.394H881.536L882.371 129.645L880.358 129.755L879.689 129.794C879.597 129.755 879.51 129.72 879.413 129.623C879.328 129.54 879.185 129.591 879.208 129.061L879.224 127.179L881.335 127.092C882.475 127.092 882.962 126.723 883.377 126.372C883.774 126.035 883.904 125.649 884.053 125.125L884.407 123.459H881.507L881.137 124.634Z" fill="#FEFEFE"/>
</g>
<path d="M112.93 291.843C112.93 294.933 112.246 297.72 110.878 300.203C109.51 302.635 107.559 304.56 105.026 305.979C102.543 307.397 99.5283 308.107 95.9816 308.107C90.3576 308.107 85.975 306.207 82.8336 302.407C79.6923 298.607 78.1216 293.388 78.1216 286.751V276.035C78.1216 268.941 79.7936 263.647 83.1376 260.151C86.4816 256.655 91.1936 254.907 97.2736 254.907C99.4016 254.907 101.606 255.16 103.886 255.667C106.216 256.173 108.775 257.085 111.562 258.403L108.294 266.231C106.014 265.167 104.012 264.432 102.29 264.027C100.567 263.571 98.971 263.343 97.5016 263.343C94.3096 263.343 91.7256 264.305 89.7496 266.231C87.8243 268.105 86.8616 271.373 86.8616 276.035V278.771C88.635 277.2 90.459 276.035 92.3336 275.275C94.259 274.515 96.159 274.135 98.0336 274.135C101.074 274.135 103.708 274.819 105.938 276.187C108.167 277.555 109.89 279.455 111.106 281.887C112.322 284.319 112.93 287.131 112.93 290.323V291.843ZM86.8616 286.751C86.8616 291.108 87.6723 294.351 89.2936 296.479C90.915 298.607 93.195 299.671 96.1336 299.671C98.667 299.671 100.618 298.961 101.986 297.543C103.354 296.073 104.038 294.173 104.038 291.843V290.323C104.038 287.941 103.404 286.016 102.138 284.547C100.871 283.077 99.047 282.343 96.6656 282.343C93.0683 282.343 89.8003 283.711 86.8616 286.447V286.751ZM149.967 263.495C146.522 270.791 143.583 278.112 141.151 285.459C138.77 292.755 136.87 300.051 135.451 307.347H125.875C127.294 300.152 129.169 292.957 131.499 285.763C133.83 278.568 136.693 271.399 140.087 264.255H117.895V255.667H149.967V263.495ZM190.389 293.287C190.389 296.073 189.73 298.581 188.413 300.811C187.146 303.04 185.196 304.813 182.561 306.131C179.926 307.448 176.582 308.107 172.529 308.107C168.526 308.107 165.284 307.499 162.801 306.283C160.318 305.016 158.494 303.369 157.329 301.343C156.164 299.316 155.581 297.061 155.581 294.579C155.581 292.096 156.164 289.816 157.329 287.739C158.494 285.611 160.42 283.66 163.105 281.887C160.977 280.468 159.33 278.72 158.165 276.643C157.05 274.565 156.493 272.133 156.493 269.347C156.493 266.661 157.126 264.229 158.393 262.051C159.66 259.872 161.509 258.149 163.941 256.883C166.373 255.565 169.286 254.907 172.681 254.907C176.329 254.907 179.394 255.515 181.877 256.731C184.36 257.947 186.209 259.593 187.425 261.671C188.692 263.697 189.325 265.977 189.325 268.511C189.325 270.74 188.793 272.843 187.729 274.819C186.716 276.744 184.993 278.543 182.561 280.215C187.78 283.153 190.389 287.511 190.389 293.287ZM171.997 276.339L175.721 277.479C177.444 276.009 178.634 274.667 179.293 273.451C180.002 272.184 180.357 270.892 180.357 269.575C180.357 267.548 179.698 265.952 178.381 264.787C177.114 263.571 175.29 262.963 172.909 262.963C170.528 262.963 168.678 263.545 167.361 264.711C166.094 265.876 165.461 267.472 165.461 269.499C165.461 272.691 167.64 274.971 171.997 276.339ZM164.549 293.287C164.549 295.313 165.284 296.96 166.753 298.227C168.222 299.443 170.3 300.051 172.985 300.051C175.62 300.051 177.672 299.443 179.141 298.227C180.661 297.011 181.421 295.389 181.421 293.363C181.421 291.843 180.864 290.475 179.749 289.259C178.685 287.992 176.836 286.953 174.201 286.143L170.097 284.851C168.222 286.371 166.829 287.789 165.917 289.107C165.005 290.424 164.549 291.817 164.549 293.287ZM232.536 286.979C232.536 294.072 230.864 299.367 227.52 302.863C224.176 306.359 219.464 308.107 213.384 308.107C211.256 308.107 209.052 307.853 206.772 307.347C204.492 306.84 201.934 305.928 199.096 304.611L202.364 296.783C204.644 297.847 206.646 298.607 208.368 299.063C210.142 299.468 211.738 299.671 213.156 299.671C216.348 299.671 218.907 298.708 220.832 296.783C222.808 294.857 223.796 291.589 223.796 286.979V284.243C222.074 285.813 220.25 286.979 218.324 287.739C216.45 288.499 214.55 288.879 212.624 288.879C209.635 288.879 207 288.195 204.72 286.827C202.491 285.459 200.768 283.559 199.552 281.127C198.336 278.695 197.728 275.883 197.728 272.691V271.171C197.728 268.333 198.412 265.673 199.78 263.191C201.148 260.708 203.099 258.707 205.632 257.187C208.166 255.667 211.18 254.907 214.676 254.907C220.3 254.907 224.683 256.807 227.824 260.607C230.966 264.407 232.536 269.625 232.536 276.263V286.979ZM206.62 272.691C206.62 275.021 207.254 276.947 208.52 278.467C209.838 279.936 211.662 280.671 213.992 280.671C217.59 280.671 220.858 279.303 223.796 276.567V276.263C223.796 271.905 222.986 268.663 221.364 266.535C219.794 264.407 217.514 263.343 214.524 263.343C212.042 263.343 210.091 264.153 208.672 265.775C207.304 267.396 206.62 269.195 206.62 271.171V272.691ZM291.097 295.643H285.701V307.347H276.885V295.643H254.693V288.271C256.973 284.724 259.227 281.127 261.457 277.479C263.737 273.78 265.865 270.107 267.841 266.459C269.817 262.76 271.438 259.163 272.705 255.667H282.661C280.786 260.835 278.253 266.155 275.061 271.627C271.869 277.048 268.575 282.343 265.181 287.511H276.885V279.683H285.701V287.511H291.097V295.643ZM297.887 280.671L299.407 255.667H325.855V264.255H307.463L306.779 275.655C308.552 275.199 310.452 274.971 312.479 274.971C317.495 274.971 321.422 276.288 324.259 278.923C327.096 281.507 328.515 285.332 328.515 290.399V292.451C328.515 295.288 327.932 297.897 326.767 300.279C325.602 302.66 323.727 304.56 321.143 305.979C318.61 307.397 315.24 308.107 311.035 308.107C308.704 308.107 306.272 307.828 303.739 307.271C301.256 306.713 298.52 305.776 295.531 304.459L298.343 296.631C301.028 297.695 303.283 298.48 305.107 298.987C306.982 299.443 308.856 299.671 310.731 299.671C313.568 299.671 315.696 299.088 317.115 297.923C318.584 296.757 319.319 294.933 319.319 292.451V290.399C319.319 288.169 318.66 286.396 317.343 285.079C316.076 283.761 314.024 283.103 311.187 283.103C309.92 283.103 308.603 283.28 307.235 283.635C305.867 283.939 304.398 284.395 302.827 285.003L297.887 280.671ZM371.953 291.843C371.953 294.933 371.269 297.72 369.901 300.203C368.533 302.635 366.582 304.56 364.049 305.979C361.566 307.397 358.552 308.107 355.005 308.107C349.381 308.107 344.998 306.207 341.857 302.407C338.716 298.607 337.145 293.388 337.145 286.751V276.035C337.145 268.941 338.817 263.647 342.161 260.151C345.505 256.655 350.217 254.907 356.297 254.907C358.425 254.907 360.629 255.16 362.909 255.667C365.24 256.173 367.798 257.085 370.585 258.403L367.317 266.231C365.037 265.167 363.036 264.432 361.313 264.027C359.59 263.571 357.994 263.343 356.525 263.343C353.333 263.343 350.749 264.305 348.773 266.231C346.848 268.105 345.885 271.373 345.885 276.035V278.771C347.658 277.2 349.482 276.035 351.357 275.275C353.282 274.515 355.182 274.135 357.057 274.135C360.097 274.135 362.732 274.819 364.961 276.187C367.19 277.555 368.913 279.455 370.129 281.887C371.345 284.319 371.953 287.131 371.953 290.323V291.843ZM345.885 286.751C345.885 291.108 346.696 294.351 348.317 296.479C349.938 298.607 352.218 299.671 355.157 299.671C357.69 299.671 359.641 298.961 361.009 297.543C362.377 296.073 363.061 294.173 363.061 291.843V290.323C363.061 287.941 362.428 286.016 361.161 284.547C359.894 283.077 358.07 282.343 355.689 282.343C352.092 282.343 348.824 283.711 345.885 286.447V286.751ZM408.991 263.495C405.545 270.791 402.607 278.112 400.175 285.459C397.793 292.755 395.893 300.051 394.475 307.347H384.899C386.317 300.152 388.192 292.957 390.523 285.763C392.853 278.568 395.716 271.399 399.111 264.255H376.919V255.667H408.991V263.495ZM431.035 280.671L432.555 255.667H459.003V264.255H440.611L439.927 275.655C441.701 275.199 443.601 274.971 445.627 274.971C450.643 274.971 454.57 276.288 457.407 278.923C460.245 281.507 461.663 285.332 461.663 290.399V292.451C461.663 295.288 461.081 297.897 459.915 300.279C458.75 302.66 456.875 304.56 454.291 305.979C451.758 307.397 448.389 308.107 444.183 308.107C441.853 308.107 439.421 307.828 436.887 307.271C434.405 306.713 431.669 305.776 428.679 304.459L431.491 296.631C434.177 297.695 436.431 298.48 438.255 298.987C440.13 299.443 442.005 299.671 443.879 299.671C446.717 299.671 448.845 299.088 450.263 297.923C451.733 296.757 452.467 294.933 452.467 292.451V290.399C452.467 288.169 451.809 286.396 450.491 285.079C449.225 283.761 447.173 283.103 444.335 283.103C443.069 283.103 441.751 283.28 440.383 283.635C439.015 283.939 437.546 284.395 435.975 285.003L431.035 280.671ZM503.734 295.643H498.338V307.347H489.522V295.643H467.33V288.271C469.61 284.724 471.864 281.127 474.094 277.479C476.374 273.78 478.502 270.107 480.478 266.459C482.454 262.76 484.075 259.163 485.342 255.667H495.298C493.423 260.835 490.89 266.155 487.698 271.627C484.506 277.048 481.212 282.343 477.818 287.511H489.522V279.683H498.338V287.511H503.734V295.643ZM539.328 293.287C539.328 295.972 538.77 298.455 537.656 300.735C536.541 302.964 534.742 304.763 532.26 306.131C529.828 307.448 526.56 308.107 522.456 308.107C520.125 308.107 517.693 307.828 515.16 307.271C512.677 306.713 509.941 305.776 506.952 304.459L509.764 296.631C512.449 297.593 514.704 298.353 516.528 298.911C518.402 299.417 520.277 299.671 522.152 299.671C524.837 299.671 526.864 299.139 528.232 298.075C529.65 296.96 530.36 295.237 530.36 292.907V291.843C530.36 289.917 529.752 288.372 528.536 287.207C527.37 285.991 525.546 285.383 523.064 285.383H515.008V277.175H523.064C525.445 277.175 527.193 276.617 528.308 275.503C529.422 274.337 529.98 272.843 529.98 271.019V269.955C529.98 267.624 529.321 265.952 528.004 264.939C526.737 263.875 524.862 263.343 522.38 263.343C520.606 263.343 518.808 263.596 516.984 264.103C515.21 264.559 513.057 265.268 510.524 266.231L507.712 258.403C510.549 257.085 513.184 256.173 515.616 255.667C518.048 255.16 520.404 254.907 522.684 254.907C526.585 254.907 529.726 255.565 532.108 256.883C534.489 258.2 536.212 259.973 537.276 262.203C538.39 264.432 538.948 266.889 538.948 269.575V270.639C538.948 273.02 538.34 275.123 537.124 276.947C535.958 278.72 534.413 280.139 532.488 281.203C534.565 282.317 536.212 283.812 537.428 285.687C538.694 287.511 539.328 289.689 539.328 292.223V293.287ZM577.858 307.347H546.546V300.127C546.546 296.479 547.027 293.439 547.99 291.007C548.953 288.524 550.245 286.497 551.866 284.927C553.487 283.305 555.261 282.013 557.186 281.051L562.354 278.467C564.33 277.453 565.926 276.389 567.142 275.275C568.409 274.109 569.042 272.615 569.042 270.791V269.423C569.042 267.548 568.383 266.079 567.066 265.015C565.799 263.9 563.747 263.343 560.91 263.343C559.187 263.343 557.439 263.596 555.666 264.103C553.943 264.609 551.841 265.319 549.358 266.231L546.546 258.403C549.383 257.136 551.967 256.249 554.298 255.743C556.679 255.185 558.985 254.907 561.214 254.907C565.318 254.907 568.586 255.565 571.018 256.883C573.501 258.2 575.274 259.973 576.338 262.203C577.453 264.381 578.01 266.788 578.01 269.423V270.791C578.01 273.527 577.453 275.857 576.338 277.783C575.274 279.708 573.855 281.329 572.082 282.647C570.309 283.964 568.383 285.129 566.306 286.143L561.138 288.727C559.263 289.639 557.87 290.905 556.958 292.527C556.097 294.148 555.615 296.225 555.514 298.759H577.858V307.347ZM635.776 293.287C635.776 296.073 635.117 298.581 633.8 300.811C632.533 303.04 630.582 304.813 627.948 306.131C625.313 307.448 621.969 308.107 617.916 308.107C613.913 308.107 610.67 307.499 608.188 306.283C605.705 305.016 603.881 303.369 602.716 301.343C601.55 299.316 600.968 297.061 600.968 294.579C600.968 292.096 601.55 289.816 602.716 287.739C603.881 285.611 605.806 283.66 608.492 281.887C606.364 280.468 604.717 278.72 603.552 276.643C602.437 274.565 601.88 272.133 601.88 269.347C601.88 266.661 602.513 264.229 603.78 262.051C605.046 259.872 606.896 258.149 609.328 256.883C611.76 255.565 614.673 254.907 618.068 254.907C621.716 254.907 624.781 255.515 627.264 256.731C629.746 257.947 631.596 259.593 632.812 261.671C634.078 263.697 634.712 265.977 634.712 268.511C634.712 270.74 634.18 272.843 633.116 274.819C632.102 276.744 630.38 278.543 627.948 280.215C633.166 283.153 635.776 287.511 635.776 293.287ZM617.384 276.339L621.108 277.479C622.83 276.009 624.021 274.667 624.68 273.451C625.389 272.184 625.744 270.892 625.744 269.575C625.744 267.548 625.085 265.952 623.768 264.787C622.501 263.571 620.677 262.963 618.296 262.963C615.914 262.963 614.065 263.545 612.748 264.711C611.481 265.876 610.848 267.472 610.848 269.499C610.848 272.691 613.026 274.971 617.384 276.339ZM609.936 293.287C609.936 295.313 610.67 296.96 612.14 298.227C613.609 299.443 615.686 300.051 618.372 300.051C621.006 300.051 623.058 299.443 624.528 298.227C626.048 297.011 626.808 295.389 626.808 293.363C626.808 291.843 626.25 290.475 625.136 289.259C624.072 287.992 622.222 286.953 619.588 286.143L615.484 284.851C613.609 286.371 612.216 287.789 611.304 289.107C610.392 290.424 609.936 291.817 609.936 293.287ZM677.923 286.979C677.923 294.072 676.251 299.367 672.907 302.863C669.563 306.359 664.851 308.107 658.771 308.107C656.643 308.107 654.439 307.853 652.159 307.347C649.879 306.84 647.32 305.928 644.483 304.611L647.751 296.783C650.031 297.847 652.032 298.607 653.755 299.063C655.528 299.468 657.124 299.671 658.543 299.671C661.735 299.671 664.294 298.708 666.219 296.783C668.195 294.857 669.183 291.589 669.183 286.979V284.243C667.46 285.813 665.636 286.979 663.711 287.739C661.836 288.499 659.936 288.879 658.011 288.879C655.022 288.879 652.387 288.195 650.107 286.827C647.878 285.459 646.155 283.559 644.939 281.127C643.723 278.695 643.115 275.883 643.115 272.691V271.171C643.115 268.333 643.799 265.673 645.167 263.191C646.535 260.708 648.486 258.707 651.019 257.187C653.552 255.667 656.567 254.907 660.063 254.907C665.687 254.907 670.07 256.807 673.211 260.607C676.352 264.407 677.923 269.625 677.923 276.263V286.979ZM652.007 272.691C652.007 275.021 652.64 276.947 653.907 278.467C655.224 279.936 657.048 280.671 659.379 280.671C662.976 280.671 666.244 279.303 669.183 276.567V276.263C669.183 271.905 668.372 268.663 666.751 266.535C665.18 264.407 662.9 263.343 659.911 263.343C657.428 263.343 655.478 264.153 654.059 265.775C652.691 267.396 652.007 269.195 652.007 271.171V272.691ZM724.309 276.035V286.903C724.309 293.489 722.763 298.683 719.673 302.483C716.582 306.232 712.047 308.107 706.069 308.107C700.09 308.107 695.555 306.232 692.465 302.483C689.374 298.683 687.829 293.489 687.829 286.903V276.035C687.829 269.448 689.374 264.28 692.465 260.531C695.555 256.781 700.09 254.907 706.069 254.907C712.047 254.907 716.582 256.781 719.673 260.531C722.763 264.28 724.309 269.448 724.309 276.035ZM715.113 276.035C715.113 267.573 712.098 263.343 706.069 263.343C702.978 263.343 700.698 264.407 699.229 266.535C697.759 268.663 697.025 271.829 697.025 276.035V286.903C697.025 291.108 697.759 294.3 699.229 296.479C700.698 298.607 702.978 299.671 706.069 299.671C712.098 299.671 715.113 295.415 715.113 286.903V276.035ZM763.171 293.287C763.171 295.972 762.614 298.455 761.499 300.735C760.385 302.964 758.586 304.763 756.103 306.131C753.671 307.448 750.403 308.107 746.299 308.107C743.969 308.107 741.537 307.828 739.003 307.271C736.521 306.713 733.785 305.776 730.795 304.459L733.607 296.631C736.293 297.593 738.547 298.353 740.371 298.911C742.246 299.417 744.121 299.671 745.995 299.671C748.681 299.671 750.707 299.139 752.075 298.075C753.494 296.96 754.203 295.237 754.203 292.907V291.843C754.203 289.917 753.595 288.372 752.379 287.207C751.214 285.991 749.39 285.383 746.907 285.383H738.851V277.175H746.907C749.289 277.175 751.037 276.617 752.151 275.503C753.266 274.337 753.823 272.843 753.823 271.019V269.955C753.823 267.624 753.165 265.952 751.847 264.939C750.581 263.875 748.706 263.343 746.223 263.343C744.45 263.343 742.651 263.596 740.827 264.103C739.054 264.559 736.901 265.268 734.367 266.231L731.555 258.403C734.393 257.085 737.027 256.173 739.459 255.667C741.891 255.16 744.247 254.907 746.527 254.907C750.429 254.907 753.57 255.565 755.951 256.883C758.333 258.2 760.055 259.973 761.119 262.203C762.234 264.432 762.791 266.889 762.791 269.575V270.639C762.791 273.02 762.183 275.123 760.967 276.947C759.802 278.72 758.257 280.139 756.331 281.203C758.409 282.317 760.055 283.812 761.271 285.687C762.538 287.511 763.171 289.689 763.171 292.223V293.287Z" fill="white"/>
<path d="M78.0176 448.506C78.0176 449.771 78.295 450.811 78.8496 451.626C79.4043 452.423 80.3143 452.822 81.5796 452.822C82.0996 452.822 82.637 452.753 83.1916 452.614C83.7636 452.475 84.4656 452.241 85.2976 451.912L86.2596 454.616C85.3236 455.032 84.457 455.327 83.6596 455.5C82.8796 455.673 82.1256 455.76 81.3976 455.76C79.9416 455.76 78.7196 455.448 77.7316 454.824C76.761 454.2 76.033 453.342 75.5476 452.25C75.0623 451.158 74.8196 449.91 74.8196 448.506V444.788C74.8196 443.384 75.0623 442.136 75.5476 441.044C76.033 439.952 76.761 439.103 77.7316 438.496C78.7196 437.872 79.9416 437.56 81.3976 437.56C82.1083 437.56 82.845 437.647 83.6076 437.82C84.3703 437.976 85.2023 438.253 86.1036 438.652L85.1416 441.408C84.3443 441.079 83.677 440.845 83.1396 440.706C82.6023 440.567 82.0823 440.498 81.5796 440.498C80.3143 440.498 79.4043 440.897 78.8496 441.694C78.295 442.491 78.0176 443.523 78.0176 444.788V448.506ZM96.4685 455.5V453.758C95.6712 454.451 94.9258 454.963 94.2325 455.292C93.5392 455.604 92.8372 455.76 92.1265 455.76C90.9478 455.76 90.0378 455.361 89.3965 454.564C88.7552 453.749 88.4345 452.614 88.4345 451.158V442.318H91.4245V450.794C91.4245 452.25 91.9618 452.978 93.0365 452.978C93.4698 452.978 93.9378 452.874 94.4405 452.666C94.9605 452.458 95.5845 452.059 96.3125 451.47V442.318H99.3025V455.5H96.4685ZM110.855 445.048C110.041 445.048 109.261 445.178 108.515 445.438C107.787 445.681 107.085 446.079 106.409 446.634V455.5H103.419V442.318H106.253V444.346C107.137 443.514 107.926 442.925 108.619 442.578C109.313 442.231 110.058 442.058 110.855 442.058V445.048ZM120.91 445.048C120.095 445.048 119.315 445.178 118.57 445.438C117.842 445.681 117.14 446.079 116.464 446.634V455.5H113.474V442.318H116.308V444.346C117.192 443.514 117.981 442.925 118.674 442.578C119.367 442.231 120.113 442.058 120.91 442.058V445.048ZM133.539 454.746C132.637 455.11 131.788 455.37 130.991 455.526C130.193 455.682 129.439 455.76 128.729 455.76C126.77 455.76 125.288 455.205 124.283 454.096C123.277 452.987 122.775 451.513 122.775 449.676V448.116C122.775 446.885 123 445.819 123.451 444.918C123.901 444.017 124.543 443.315 125.375 442.812C126.207 442.309 127.186 442.058 128.313 442.058C129.231 442.058 130.089 442.249 130.887 442.63C131.701 442.994 132.36 443.575 132.863 444.372C133.383 445.152 133.643 446.157 133.643 447.388C133.643 447.752 133.617 448.142 133.565 448.558C133.513 448.957 133.426 449.381 133.305 449.832H125.661C125.695 450.907 125.964 451.713 126.467 452.25C126.969 452.787 127.775 453.056 128.885 453.056C129.474 453.056 130.081 452.987 130.705 452.848C131.346 452.709 132.005 452.501 132.681 452.224L133.539 454.746ZM128.313 444.58C127.515 444.58 126.891 444.84 126.441 445.36C126.007 445.863 125.756 446.591 125.687 447.544H130.679C130.696 447.457 130.705 447.379 130.705 447.31C130.705 447.223 130.705 447.145 130.705 447.076C130.705 446.244 130.471 445.62 130.003 445.204C129.535 444.788 128.971 444.58 128.313 444.58ZM143.535 444.84C143.102 444.84 142.608 444.944 142.053 445.152C141.499 445.36 140.84 445.767 140.077 446.374V455.5H137.087V442.318H139.921V444.086C140.736 443.375 141.507 442.864 142.235 442.552C142.963 442.223 143.7 442.058 144.445 442.058C145.711 442.058 146.673 442.465 147.331 443.28C147.99 444.077 148.319 445.204 148.319 446.66V455.5H145.329V447.024C145.329 445.568 144.731 444.84 143.535 444.84ZM160.201 455.058C159.75 455.266 159.23 455.431 158.641 455.552C158.051 455.691 157.453 455.76 156.847 455.76C155.841 455.76 155.035 455.552 154.429 455.136C153.822 454.72 153.38 454.139 153.103 453.394C152.843 452.649 152.713 451.799 152.713 450.846V444.918H150.581V442.318H152.713V438.886H155.703V442.318H159.811V444.918H155.703V450.846C155.703 451.643 155.85 452.198 156.145 452.51C156.457 452.805 156.899 452.952 157.471 452.952C157.748 452.952 158.043 452.926 158.355 452.874C158.684 452.805 159.048 452.692 159.447 452.536L160.201 455.058ZM178.912 449.598C178.912 451.487 178.444 452.987 177.508 454.096C176.572 455.205 175.203 455.76 173.4 455.76C171.528 455.76 169.63 455.24 167.706 454.2V436.26H170.696V444.06C171.493 443.263 172.178 442.734 172.75 442.474C173.322 442.197 173.911 442.058 174.518 442.058C175.905 442.058 176.979 442.595 177.742 443.67C178.522 444.745 178.912 446.253 178.912 448.194V449.598ZM173.712 444.84C173.296 444.84 172.854 444.961 172.386 445.204C171.935 445.447 171.372 445.923 170.696 446.634V452.536C171.164 452.727 171.589 452.865 171.97 452.952C172.369 453.039 172.759 453.082 173.14 453.082C174.111 453.082 174.804 452.77 175.22 452.146C175.636 451.522 175.844 450.673 175.844 449.598V448.194C175.844 447.033 175.653 446.183 175.272 445.646C174.908 445.109 174.388 444.84 173.712 444.84ZM192.343 455.63C191.459 455.63 190.748 455.448 190.211 455.084C189.691 454.72 189.309 454.269 189.067 453.732C188.321 454.425 187.602 454.937 186.909 455.266C186.215 455.595 185.47 455.76 184.673 455.76C183.511 455.76 182.653 455.387 182.099 454.642C181.561 453.897 181.293 452.952 181.293 451.808C181.293 451.045 181.431 450.378 181.709 449.806C182.003 449.217 182.48 448.757 183.139 448.428C183.797 448.099 184.699 447.934 185.843 447.934C186.293 447.934 186.761 447.969 187.247 448.038C187.732 448.09 188.217 448.159 188.703 448.246V446.712C188.703 445.984 188.503 445.49 188.105 445.23C187.706 444.953 187.169 444.814 186.493 444.814C185.973 444.814 185.401 444.883 184.777 445.022C184.17 445.161 183.511 445.377 182.801 445.672L181.943 443.124C183.693 442.413 185.279 442.058 186.701 442.058C187.983 442.058 188.971 442.275 189.665 442.708C190.375 443.141 190.869 443.713 191.147 444.424C191.424 445.135 191.563 445.897 191.563 446.712V451.782C191.563 452.042 191.632 452.293 191.771 452.536C191.927 452.761 192.221 452.874 192.655 452.874H192.941V455.63H192.343ZM184.179 451.756C184.179 452.224 184.283 452.597 184.491 452.874C184.699 453.134 185.002 453.264 185.401 453.264C185.799 453.264 186.25 453.16 186.753 452.952C187.255 452.744 187.905 452.259 188.703 451.496V450.378C187.801 450.222 186.917 450.144 186.051 450.144C185.375 450.144 184.889 450.283 184.595 450.56C184.317 450.837 184.179 451.236 184.179 451.756ZM195.458 451.782V436.26H198.448V451.782C198.448 452.042 198.509 452.293 198.63 452.536C198.769 452.761 199.029 452.874 199.41 452.874H199.826V455.63H199.098C198.11 455.63 197.356 455.439 196.836 455.058C196.316 454.677 195.952 454.191 195.744 453.602C195.554 453.013 195.458 452.406 195.458 451.782ZM212.706 455.63C211.822 455.63 211.111 455.448 210.574 455.084C210.054 454.72 209.673 454.269 209.43 453.732C208.685 454.425 207.965 454.937 207.272 455.266C206.579 455.595 205.833 455.76 205.036 455.76C203.875 455.76 203.017 455.387 202.462 454.642C201.925 453.897 201.656 452.952 201.656 451.808C201.656 451.045 201.795 450.378 202.072 449.806C202.367 449.217 202.843 448.757 203.502 448.428C204.161 448.099 205.062 447.934 206.206 447.934C206.657 447.934 207.125 447.969 207.61 448.038C208.095 448.09 208.581 448.159 209.066 448.246V446.712C209.066 445.984 208.867 445.49 208.468 445.23C208.069 444.953 207.532 444.814 206.856 444.814C206.336 444.814 205.764 444.883 205.14 445.022C204.533 445.161 203.875 445.377 203.164 445.672L202.306 443.124C204.057 442.413 205.643 442.058 207.064 442.058C208.347 442.058 209.335 442.275 210.028 442.708C210.739 443.141 211.233 443.713 211.51 444.424C211.787 445.135 211.926 445.897 211.926 446.712V451.782C211.926 452.042 211.995 452.293 212.134 452.536C212.29 452.761 212.585 452.874 213.018 452.874H213.304V455.63H212.706ZM204.542 451.756C204.542 452.224 204.646 452.597 204.854 452.874C205.062 453.134 205.365 453.264 205.764 453.264C206.163 453.264 206.613 453.16 207.116 452.952C207.619 452.744 208.269 452.259 209.066 451.496V450.378C208.165 450.222 207.281 450.144 206.414 450.144C205.738 450.144 205.253 450.283 204.958 450.56C204.681 450.837 204.542 451.236 204.542 451.756ZM222.348 444.84C221.914 444.84 221.42 444.944 220.866 445.152C220.311 445.36 219.652 445.767 218.89 446.374V455.5H215.9V442.318H218.734V444.086C219.548 443.375 220.32 442.864 221.048 442.552C221.776 442.223 222.512 442.058 223.258 442.058C224.523 442.058 225.485 442.465 226.144 443.28C226.802 444.077 227.132 445.204 227.132 446.66V455.5H224.142V447.024C224.142 445.568 223.544 444.84 222.348 444.84ZM233.371 448.142V449.676C233.371 450.785 233.571 451.617 233.969 452.172C234.368 452.727 235.009 453.004 235.893 453.004C236.327 453.004 236.812 452.952 237.349 452.848C237.904 452.727 238.502 452.545 239.143 452.302L240.001 454.824C239.221 455.136 238.485 455.37 237.791 455.526C237.098 455.682 236.413 455.76 235.737 455.76C234.004 455.76 232.678 455.205 231.759 454.096C230.841 452.987 230.381 451.513 230.381 449.676V448.142C230.381 446.287 230.841 444.814 231.759 443.722C232.678 442.613 234.004 442.058 235.737 442.058C236.396 442.058 237.063 442.136 237.739 442.292C238.415 442.448 239.126 442.673 239.871 442.968L239.013 445.542C237.765 445.057 236.725 444.814 235.893 444.814C235.009 444.814 234.368 445.091 233.969 445.646C233.571 446.183 233.371 447.015 233.371 448.142ZM252.748 454.746C251.846 455.11 250.997 455.37 250.2 455.526C249.402 455.682 248.648 455.76 247.938 455.76C245.979 455.76 244.497 455.205 243.492 454.096C242.486 452.987 241.984 451.513 241.984 449.676V448.116C241.984 446.885 242.209 445.819 242.66 444.918C243.11 444.017 243.752 443.315 244.584 442.812C245.416 442.309 246.395 442.058 247.522 442.058C248.44 442.058 249.298 442.249 250.096 442.63C250.91 442.994 251.569 443.575 252.072 444.372C252.592 445.152 252.852 446.157 252.852 447.388C252.852 447.752 252.826 448.142 252.774 448.558C252.722 448.957 252.635 449.381 252.514 449.832H244.87C244.904 450.907 245.173 451.713 245.676 452.25C246.178 452.787 246.984 453.056 248.094 453.056C248.683 453.056 249.29 452.987 249.914 452.848C250.555 452.709 251.214 452.501 251.89 452.224L252.748 454.746ZM247.522 444.58C246.724 444.58 246.1 444.84 245.65 445.36C245.216 445.863 244.965 446.591 244.896 447.544H249.888C249.905 447.457 249.914 447.379 249.914 447.31C249.914 447.223 249.914 447.145 249.914 447.076C249.914 446.244 249.68 445.62 249.212 445.204C248.744 444.788 248.18 444.58 247.522 444.58Z" fill="white" fill-opacity="0.6"/>
<path d="M88.5416 510.687C88.5416 512.308 88.1043 513.673 87.2296 514.783C86.355 515.892 85.0003 516.607 83.1656 516.927V521.439H79.6456V517.055C78.8136 516.969 77.9496 516.809 77.0536 516.575C76.179 516.319 75.2296 515.956 74.2056 515.487L75.3896 512.191C76.5843 512.703 77.5976 513.065 78.4296 513.279C79.283 513.471 80.115 513.567 80.9256 513.567C83.4003 513.567 84.6376 512.649 84.6376 510.815C84.6376 510.068 84.4456 509.481 84.0616 509.055C83.699 508.628 83.0163 508.255 82.0136 507.935L79.3896 507.071C76.2536 506.047 74.6856 503.988 74.6856 500.895C74.6856 499.38 75.091 498.079 75.9016 496.991C76.7123 495.903 77.9603 495.199 79.6456 494.879V490.399H83.1656V494.815C83.9123 494.9 84.659 495.049 85.4056 495.263C86.1523 495.476 86.931 495.764 87.7416 496.127L86.5576 499.423C85.5336 499.017 84.659 498.729 83.9336 498.559C83.2296 498.367 82.5043 498.271 81.7576 498.271C80.7763 498.271 79.9976 498.452 79.4216 498.815C78.867 499.156 78.5896 499.785 78.5896 500.703C78.5896 501.385 78.7816 501.951 79.1656 502.399C79.571 502.825 80.2323 503.188 81.1496 503.487L83.7736 504.351C85.3523 504.884 86.5363 505.663 87.3256 506.687C88.1363 507.689 88.5416 509.023 88.5416 510.687Z" fill="white"/>
<path d="M95.6036 514.334L96.9236 492.62H119.892V500.078H103.92L103.326 509.978C104.866 509.582 106.516 509.384 108.276 509.384C112.632 509.384 116.042 510.528 118.506 512.816C120.97 515.06 122.202 518.382 122.202 522.782V524.564C122.202 527.028 121.696 529.294 120.684 531.362C119.672 533.43 118.044 535.08 115.8 536.312C113.6 537.544 110.674 538.16 107.022 538.16C104.998 538.16 102.886 537.918 100.686 537.434C98.5296 536.95 96.1536 536.136 93.5576 534.992L95.9996 528.194C98.3316 529.118 100.29 529.8 101.874 530.24C103.502 530.636 105.13 530.834 106.758 530.834C109.222 530.834 111.07 530.328 112.302 529.316C113.578 528.304 114.216 526.72 114.216 524.564V522.782C114.216 520.846 113.644 519.306 112.5 518.162C111.4 517.018 109.618 516.446 107.154 516.446C106.054 516.446 104.91 516.6 103.722 516.908C102.534 517.172 101.258 517.568 99.8936 518.096L95.6036 514.334ZM136.032 529.646V530.9C136.032 534.596 135.614 538.116 134.778 541.46C133.942 544.848 132.336 548.434 129.96 552.218L125.208 549.644C126.176 547.84 126.902 545.992 127.386 544.1C127.87 542.252 128.2 540.162 128.376 537.83C128.552 535.498 128.64 532.77 128.64 529.646H136.032ZM174.654 510.308V519.746C174.654 525.466 173.312 529.976 170.628 533.276C167.944 536.532 164.006 538.16 158.814 538.16C153.622 538.16 149.684 536.532 147 533.276C144.316 529.976 142.974 525.466 142.974 519.746V510.308C142.974 504.588 144.316 500.1 147 496.844C149.684 493.588 153.622 491.96 158.814 491.96C164.006 491.96 167.944 493.588 170.628 496.844C173.312 500.1 174.654 504.588 174.654 510.308ZM166.668 510.308C166.668 502.96 164.05 499.286 158.814 499.286C156.13 499.286 154.15 500.21 152.874 502.058C151.598 503.906 150.96 506.656 150.96 510.308V519.746C150.96 523.398 151.598 526.17 152.874 528.062C154.15 529.91 156.13 530.834 158.814 530.834C164.05 530.834 166.668 527.138 166.668 519.746V510.308ZM214.937 510.308V519.746C214.937 525.466 213.595 529.976 210.911 533.276C208.227 536.532 204.289 538.16 199.097 538.16C193.905 538.16 189.967 536.532 187.283 533.276C184.599 529.976 183.257 525.466 183.257 519.746V510.308C183.257 504.588 184.599 500.1 187.283 496.844C189.967 493.588 193.905 491.96 199.097 491.96C204.289 491.96 208.227 493.588 210.911 496.844C213.595 500.1 214.937 504.588 214.937 510.308ZM206.951 510.308C206.951 502.96 204.333 499.286 199.097 499.286C196.413 499.286 194.433 500.21 193.157 502.058C191.881 503.906 191.243 506.656 191.243 510.308V519.746C191.243 523.398 191.881 526.17 193.157 528.062C194.433 529.91 196.413 530.834 199.097 530.834C204.333 530.834 206.951 527.138 206.951 519.746V510.308ZM255.22 510.308V519.746C255.22 525.466 253.878 529.976 251.194 533.276C248.51 536.532 244.572 538.16 239.38 538.16C234.188 538.16 230.25 536.532 227.566 533.276C224.882 529.976 223.54 525.466 223.54 519.746V510.308C223.54 504.588 224.882 500.1 227.566 496.844C230.25 493.588 234.188 491.96 239.38 491.96C244.572 491.96 248.51 493.588 251.194 496.844C253.878 500.1 255.22 504.588 255.22 510.308ZM247.234 510.308C247.234 502.96 244.616 499.286 239.38 499.286C236.696 499.286 234.716 500.21 233.44 502.058C232.164 503.906 231.526 506.656 231.526 510.308V519.746C231.526 523.398 232.164 526.17 233.44 528.062C234.716 529.91 236.696 530.834 239.38 530.834C244.616 530.834 247.234 527.138 247.234 519.746V510.308ZM269.845 537.5H261.859V529.646H269.845V537.5ZM273.211 514.18L280.131 510.3H284.131V537.5H279.411V515.58L275.331 517.82L273.211 514.18ZM308.089 531.34H305.249V537.5H300.609V531.34H288.929V527.46C290.129 525.593 291.315 523.7 292.489 521.78C293.689 519.833 294.809 517.9 295.849 515.98C296.889 514.033 297.742 512.14 298.409 510.3H303.649C302.662 513.02 301.329 515.82 299.649 518.7C297.969 521.553 296.235 524.34 294.449 527.06H300.609V522.94H305.249V527.06H308.089V531.34Z" fill="white"/>
<path d="M877.66 452.01V455H867.416V437.32H877.4V440.31H870.536V444.548H876.62V447.538H870.536V452.01H877.66ZM887.933 455L885.203 450.58L882.525 455H879.405L883.669 448.24L879.691 441.818H882.915L885.359 445.744L887.725 441.818H890.845L886.867 448.11L891.157 455H887.933ZM899.353 455.26C898.92 455.26 898.478 455.217 898.027 455.13C897.594 455.043 897.152 454.922 896.701 454.766V460.538H893.711V441.818H896.545V443.612C897.36 442.797 898.053 442.251 898.625 441.974C899.197 441.697 899.795 441.558 900.419 441.558C901.858 441.558 902.967 442.095 903.747 443.17C904.527 444.245 904.917 445.753 904.917 447.694V449.098C904.917 450.987 904.441 452.487 903.487 453.596C902.534 454.705 901.156 455.26 899.353 455.26ZM899.613 444.34C899.215 444.34 898.79 444.461 898.339 444.704C897.906 444.929 897.36 445.371 896.701 446.03V452.062C897.551 452.409 898.331 452.582 899.041 452.582C900.047 452.582 900.766 452.27 901.199 451.646C901.633 451.022 901.849 450.173 901.849 449.098V447.694C901.849 446.533 901.65 445.683 901.251 445.146C900.87 444.609 900.324 444.34 899.613 444.34ZM911.455 439.322H908.309V436.228H911.455V439.322ZM911.377 455H908.387V441.818H911.377V455ZM922.932 444.548C922.118 444.548 921.338 444.678 920.592 444.938C919.864 445.181 919.162 445.579 918.486 446.134V455H915.496V441.818H918.33V443.846C919.214 443.014 920.003 442.425 920.696 442.078C921.39 441.731 922.135 441.558 922.932 441.558V444.548ZM930.881 456.3C930.309 457.895 929.581 459.039 928.697 459.732C927.813 460.443 926.6 460.798 925.057 460.798V457.808C925.976 457.773 926.695 457.565 927.215 457.184C927.752 456.82 928.151 456.309 928.411 455.65L928.645 455.052L923.939 441.818H926.903L929.165 448.396L930.049 451.178L930.907 448.396L933.065 441.818H936.029L930.881 456.3Z" fill="white" fill-opacity="0.6"/>
<path d="M841.392 503.514L848.658 499.44H852.858V528H847.902V504.984L843.618 507.336L841.392 503.514ZM875.788 528H858.484V524.01C858.484 521.994 858.75 520.314 859.282 518.97C859.814 517.598 860.528 516.478 861.424 515.61C862.32 514.714 863.3 514 864.364 513.468L867.22 512.04C868.312 511.48 869.194 510.892 869.866 510.276C870.566 509.632 870.916 508.806 870.916 507.798V507.042C870.916 506.006 870.552 505.194 869.824 504.606C869.124 503.99 867.99 503.682 866.422 503.682C865.47 503.682 864.504 503.822 863.524 504.102C862.572 504.382 861.41 504.774 860.038 505.278L858.484 500.952C860.052 500.252 861.48 499.762 862.768 499.482C864.084 499.174 865.358 499.02 866.59 499.02C868.858 499.02 870.664 499.384 872.008 500.112C873.38 500.84 874.36 501.82 874.948 503.052C875.564 504.256 875.872 505.586 875.872 507.042V507.798C875.872 509.31 875.564 510.598 874.948 511.662C874.36 512.726 873.576 513.622 872.596 514.35C871.616 515.078 870.552 515.722 869.404 516.282L866.548 517.71C865.512 518.214 864.742 518.914 864.238 519.81C863.762 520.706 863.496 521.854 863.44 523.254H875.788V528ZM889.979 496.92H894.935L881.327 534.006H876.371L889.979 496.92ZM913.522 528H896.218V524.01C896.218 521.994 896.484 520.314 897.016 518.97C897.548 517.598 898.262 516.478 899.158 515.61C900.054 514.714 901.034 514 902.098 513.468L904.954 512.04C906.046 511.48 906.928 510.892 907.6 510.276C908.3 509.632 908.65 508.806 908.65 507.798V507.042C908.65 506.006 908.286 505.194 907.558 504.606C906.858 503.99 905.724 503.682 904.156 503.682C903.204 503.682 902.238 503.822 901.258 504.102C900.306 504.382 899.144 504.774 897.772 505.278L896.218 500.952C897.786 500.252 899.214 499.762 900.502 499.482C901.818 499.174 903.092 499.02 904.324 499.02C906.592 499.02 908.398 499.384 909.742 500.112C911.114 500.84 912.094 501.82 912.682 503.052C913.298 504.256 913.606 505.586 913.606 507.042V507.798C913.606 509.31 913.298 510.598 912.682 511.662C912.094 512.726 911.31 513.622 910.33 514.35C909.35 515.078 908.286 515.722 907.138 516.282L904.282 517.71C903.246 518.214 902.476 518.914 901.972 519.81C901.496 520.706 901.23 521.854 901.174 523.254H913.522V528ZM934.727 528H917.423V524.01C917.423 521.994 917.689 520.314 918.221 518.97C918.753 517.598 919.467 516.478 920.363 515.61C921.259 514.714 922.239 514 923.303 513.468L926.159 512.04C927.251 511.48 928.133 510.892 928.805 510.276C929.505 509.632 929.855 508.806 929.855 507.798V507.042C929.855 506.006 929.491 505.194 928.763 504.606C928.063 503.99 926.929 503.682 925.361 503.682C924.409 503.682 923.443 503.822 922.463 504.102C921.511 504.382 920.349 504.774 918.977 505.278L917.423 500.952C918.991 500.252 920.419 499.762 921.707 499.482C923.023 499.174 924.297 499.02 925.529 499.02C927.797 499.02 929.603 499.384 930.947 500.112C932.319 500.84 933.299 501.82 933.887 503.052C934.503 504.256 934.811 505.586 934.811 507.042V507.798C934.811 509.31 934.503 510.598 933.887 511.662C933.299 512.726 932.515 513.622 931.535 514.35C930.555 515.078 929.491 515.722 928.343 516.282L925.487 517.71C924.451 518.214 923.681 518.914 923.177 519.81C922.701 520.706 922.435 521.854 922.379 523.254H934.727V528Z" fill="white"/>
</g>
<defs>
<clipPath id="clip0_495_707">
<rect width="1012" height="638" rx="50" fill="white"/>
</clipPath>
<clipPath id="clip1_495_707">
<rect width="137.136" height="85" fill="white" transform="translate(800.965 65)"/>
</clipPath>
</defs>
</svg>
