<svg width="48" height="48" viewBox="0 0 48 48" fill="none" xmlns="http://www.w3.org/2000/svg">
<path d="M19.001 29L29.001 19M4.00098 18C5.59228 18 7.1184 18.6321 8.24362 19.7574C9.36884 20.8826 10.001 22.4087 10.001 24C10.001 25.5913 9.36884 27.1174 8.24362 28.2426C7.1184 29.3679 5.59228 30 4.00098 30V34C4.00098 35.0609 4.4224 36.0783 5.17255 36.8284C5.9227 37.5786 6.94011 38 8.00098 38H40.001C41.0619 38 42.0793 37.5786 42.8294 36.8284C43.5796 36.0783 44.001 35.0609 44.001 34V30C42.4097 30 40.8836 29.3679 39.7584 28.2426C38.6331 27.1174 38.001 25.5913 38.001 24C38.001 22.4087 38.6331 20.8826 39.7584 19.7574C40.8836 18.6321 42.4097 18 44.001 18V14C44.001 12.9391 43.5796 11.9217 42.8294 11.1716C42.0793 10.4214 41.0619 10 40.001 10H8.00098C6.94011 10 5.9227 10.4214 5.17255 11.1716C4.4224 11.9217 4.00098 12.9391 4.00098 14V18Z" stroke="#272729" stroke-width="3" stroke-linecap="round" stroke-linejoin="round"/>
</svg>
