<svg width="1012" height="638" viewBox="0 0 1012 638" fill="none" xmlns="http://www.w3.org/2000/svg">
<g clip-path="url(#clip0_495_612)">
<rect width="1012" height="638" rx="50" fill="#1F72CD"/>
<g clip-path="url(#clip1_495_612)">
<rect width="1012" height="638" rx="50" fill="#1F72CD" fill-opacity="0.3"/>
<rect opacity="0.2" x="-150.482" y="-163.055" width="719.431" height="466.929" rx="137.095" transform="rotate(-19.5232 -150.482 -163.055)" fill="white"/>
<rect opacity="0.2" x="440.401" y="460.344" width="577.245" height="374.646" rx="110" transform="rotate(-10.0066 440.401 460.344)" fill="white"/>
<path d="M112.93 291.843C112.93 294.933 112.246 297.72 110.878 300.203C109.51 302.635 107.559 304.56 105.026 305.979C102.543 307.397 99.5283 308.107 95.9816 308.107C90.3576 308.107 85.975 306.207 82.8336 302.407C79.6923 298.607 78.1216 293.388 78.1216 286.751V276.035C78.1216 268.941 79.7936 263.647 83.1376 260.151C86.4816 256.655 91.1936 254.907 97.2736 254.907C99.4016 254.907 101.606 255.16 103.886 255.667C106.216 256.173 108.775 257.085 111.562 258.403L108.294 266.231C106.014 265.167 104.012 264.432 102.29 264.027C100.567 263.571 98.971 263.343 97.5016 263.343C94.3096 263.343 91.7256 264.305 89.7496 266.231C87.8243 268.105 86.8616 271.373 86.8616 276.035V278.771C88.635 277.2 90.459 276.035 92.3336 275.275C94.259 274.515 96.159 274.135 98.0336 274.135C101.074 274.135 103.708 274.819 105.938 276.187C108.167 277.555 109.89 279.455 111.106 281.887C112.322 284.319 112.93 287.131 112.93 290.323V291.843ZM86.8616 286.751C86.8616 291.108 87.6723 294.351 89.2936 296.479C90.915 298.607 93.195 299.671 96.1336 299.671C98.667 299.671 100.618 298.961 101.986 297.543C103.354 296.073 104.038 294.173 104.038 291.843V290.323C104.038 287.941 103.404 286.016 102.138 284.547C100.871 283.077 99.047 282.343 96.6656 282.343C93.0683 282.343 89.8003 283.711 86.8616 286.447V286.751ZM149.967 263.495C146.522 270.791 143.583 278.112 141.151 285.459C138.77 292.755 136.87 300.051 135.451 307.347H125.875C127.294 300.152 129.169 292.957 131.499 285.763C133.83 278.568 136.693 271.399 140.087 264.255H117.895V255.667H149.967V263.495ZM190.389 293.287C190.389 296.073 189.73 298.581 188.413 300.811C187.146 303.04 185.196 304.813 182.561 306.131C179.926 307.448 176.582 308.107 172.529 308.107C168.526 308.107 165.284 307.499 162.801 306.283C160.318 305.016 158.494 303.369 157.329 301.343C156.164 299.316 155.581 297.061 155.581 294.579C155.581 292.096 156.164 289.816 157.329 287.739C158.494 285.611 160.42 283.66 163.105 281.887C160.977 280.468 159.33 278.72 158.165 276.643C157.05 274.565 156.493 272.133 156.493 269.347C156.493 266.661 157.126 264.229 158.393 262.051C159.66 259.872 161.509 258.149 163.941 256.883C166.373 255.565 169.286 254.907 172.681 254.907C176.329 254.907 179.394 255.515 181.877 256.731C184.36 257.947 186.209 259.593 187.425 261.671C188.692 263.697 189.325 265.977 189.325 268.511C189.325 270.74 188.793 272.843 187.729 274.819C186.716 276.744 184.993 278.543 182.561 280.215C187.78 283.153 190.389 287.511 190.389 293.287ZM171.997 276.339L175.721 277.479C177.444 276.009 178.634 274.667 179.293 273.451C180.002 272.184 180.357 270.892 180.357 269.575C180.357 267.548 179.698 265.952 178.381 264.787C177.114 263.571 175.29 262.963 172.909 262.963C170.528 262.963 168.678 263.545 167.361 264.711C166.094 265.876 165.461 267.472 165.461 269.499C165.461 272.691 167.64 274.971 171.997 276.339ZM164.549 293.287C164.549 295.313 165.284 296.96 166.753 298.227C168.222 299.443 170.3 300.051 172.985 300.051C175.62 300.051 177.672 299.443 179.141 298.227C180.661 297.011 181.421 295.389 181.421 293.363C181.421 291.843 180.864 290.475 179.749 289.259C178.685 287.992 176.836 286.953 174.201 286.143L170.097 284.851C168.222 286.371 166.829 287.789 165.917 289.107C165.005 290.424 164.549 291.817 164.549 293.287ZM232.536 286.979C232.536 294.072 230.864 299.367 227.52 302.863C224.176 306.359 219.464 308.107 213.384 308.107C211.256 308.107 209.052 307.853 206.772 307.347C204.492 306.84 201.934 305.928 199.096 304.611L202.364 296.783C204.644 297.847 206.646 298.607 208.368 299.063C210.142 299.468 211.738 299.671 213.156 299.671C216.348 299.671 218.907 298.708 220.832 296.783C222.808 294.857 223.796 291.589 223.796 286.979V284.243C222.074 285.813 220.25 286.979 218.324 287.739C216.45 288.499 214.55 288.879 212.624 288.879C209.635 288.879 207 288.195 204.72 286.827C202.491 285.459 200.768 283.559 199.552 281.127C198.336 278.695 197.728 275.883 197.728 272.691V271.171C197.728 268.333 198.412 265.673 199.78 263.191C201.148 260.708 203.099 258.707 205.632 257.187C208.166 255.667 211.18 254.907 214.676 254.907C220.3 254.907 224.683 256.807 227.824 260.607C230.966 264.407 232.536 269.625 232.536 276.263V286.979ZM206.62 272.691C206.62 275.021 207.254 276.947 208.52 278.467C209.838 279.936 211.662 280.671 213.992 280.671C217.59 280.671 220.858 279.303 223.796 276.567V276.263C223.796 271.905 222.986 268.663 221.364 266.535C219.794 264.407 217.514 263.343 214.524 263.343C212.042 263.343 210.091 264.153 208.672 265.775C207.304 267.396 206.62 269.195 206.62 271.171V272.691ZM291.097 295.643H285.701V307.347H276.885V295.643H254.693V288.271C256.973 284.724 259.227 281.127 261.457 277.479C263.737 273.78 265.865 270.107 267.841 266.459C269.817 262.76 271.438 259.163 272.705 255.667H282.661C280.786 260.835 278.253 266.155 275.061 271.627C271.869 277.048 268.575 282.343 265.181 287.511H276.885V279.683H285.701V287.511H291.097V295.643ZM297.887 280.671L299.407 255.667H325.855V264.255H307.463L306.779 275.655C308.552 275.199 310.452 274.971 312.479 274.971C317.495 274.971 321.422 276.288 324.259 278.923C327.096 281.507 328.515 285.332 328.515 290.399V292.451C328.515 295.288 327.932 297.897 326.767 300.279C325.602 302.66 323.727 304.56 321.143 305.979C318.61 307.397 315.24 308.107 311.035 308.107C308.704 308.107 306.272 307.828 303.739 307.271C301.256 306.713 298.52 305.776 295.531 304.459L298.343 296.631C301.028 297.695 303.283 298.48 305.107 298.987C306.982 299.443 308.856 299.671 310.731 299.671C313.568 299.671 315.696 299.088 317.115 297.923C318.584 296.757 319.319 294.933 319.319 292.451V290.399C319.319 288.169 318.66 286.396 317.343 285.079C316.076 283.761 314.024 283.103 311.187 283.103C309.92 283.103 308.603 283.28 307.235 283.635C305.867 283.939 304.398 284.395 302.827 285.003L297.887 280.671ZM371.953 291.843C371.953 294.933 371.269 297.72 369.901 300.203C368.533 302.635 366.582 304.56 364.049 305.979C361.566 307.397 358.552 308.107 355.005 308.107C349.381 308.107 344.998 306.207 341.857 302.407C338.716 298.607 337.145 293.388 337.145 286.751V276.035C337.145 268.941 338.817 263.647 342.161 260.151C345.505 256.655 350.217 254.907 356.297 254.907C358.425 254.907 360.629 255.16 362.909 255.667C365.24 256.173 367.798 257.085 370.585 258.403L367.317 266.231C365.037 265.167 363.036 264.432 361.313 264.027C359.59 263.571 357.994 263.343 356.525 263.343C353.333 263.343 350.749 264.305 348.773 266.231C346.848 268.105 345.885 271.373 345.885 276.035V278.771C347.658 277.2 349.482 276.035 351.357 275.275C353.282 274.515 355.182 274.135 357.057 274.135C360.097 274.135 362.732 274.819 364.961 276.187C367.19 277.555 368.913 279.455 370.129 281.887C371.345 284.319 371.953 287.131 371.953 290.323V291.843ZM345.885 286.751C345.885 291.108 346.696 294.351 348.317 296.479C349.938 298.607 352.218 299.671 355.157 299.671C357.69 299.671 359.641 298.961 361.009 297.543C362.377 296.073 363.061 294.173 363.061 291.843V290.323C363.061 287.941 362.428 286.016 361.161 284.547C359.894 283.077 358.07 282.343 355.689 282.343C352.092 282.343 348.824 283.711 345.885 286.447V286.751ZM408.991 263.495C405.545 270.791 402.607 278.112 400.175 285.459C397.793 292.755 395.893 300.051 394.475 307.347H384.899C386.317 300.152 388.192 292.957 390.523 285.763C392.853 278.568 395.716 271.399 399.111 264.255H376.919V255.667H408.991V263.495ZM431.035 280.671L432.555 255.667H459.003V264.255H440.611L439.927 275.655C441.701 275.199 443.601 274.971 445.627 274.971C450.643 274.971 454.57 276.288 457.407 278.923C460.245 281.507 461.663 285.332 461.663 290.399V292.451C461.663 295.288 461.081 297.897 459.915 300.279C458.75 302.66 456.875 304.56 454.291 305.979C451.758 307.397 448.389 308.107 444.183 308.107C441.853 308.107 439.421 307.828 436.887 307.271C434.405 306.713 431.669 305.776 428.679 304.459L431.491 296.631C434.177 297.695 436.431 298.48 438.255 298.987C440.13 299.443 442.005 299.671 443.879 299.671C446.717 299.671 448.845 299.088 450.263 297.923C451.733 296.757 452.467 294.933 452.467 292.451V290.399C452.467 288.169 451.809 286.396 450.491 285.079C449.225 283.761 447.173 283.103 444.335 283.103C443.069 283.103 441.751 283.28 440.383 283.635C439.015 283.939 437.546 284.395 435.975 285.003L431.035 280.671ZM503.734 295.643H498.338V307.347H489.522V295.643H467.33V288.271C469.61 284.724 471.864 281.127 474.094 277.479C476.374 273.78 478.502 270.107 480.478 266.459C482.454 262.76 484.075 259.163 485.342 255.667H495.298C493.423 260.835 490.89 266.155 487.698 271.627C484.506 277.048 481.212 282.343 477.818 287.511H489.522V279.683H498.338V287.511H503.734V295.643ZM539.328 293.287C539.328 295.972 538.77 298.455 537.656 300.735C536.541 302.964 534.742 304.763 532.26 306.131C529.828 307.448 526.56 308.107 522.456 308.107C520.125 308.107 517.693 307.828 515.16 307.271C512.677 306.713 509.941 305.776 506.952 304.459L509.764 296.631C512.449 297.593 514.704 298.353 516.528 298.911C518.402 299.417 520.277 299.671 522.152 299.671C524.837 299.671 526.864 299.139 528.232 298.075C529.65 296.96 530.36 295.237 530.36 292.907V291.843C530.36 289.917 529.752 288.372 528.536 287.207C527.37 285.991 525.546 285.383 523.064 285.383H515.008V277.175H523.064C525.445 277.175 527.193 276.617 528.308 275.503C529.422 274.337 529.98 272.843 529.98 271.019V269.955C529.98 267.624 529.321 265.952 528.004 264.939C526.737 263.875 524.862 263.343 522.38 263.343C520.606 263.343 518.808 263.596 516.984 264.103C515.21 264.559 513.057 265.268 510.524 266.231L507.712 258.403C510.549 257.085 513.184 256.173 515.616 255.667C518.048 255.16 520.404 254.907 522.684 254.907C526.585 254.907 529.726 255.565 532.108 256.883C534.489 258.2 536.212 259.973 537.276 262.203C538.39 264.432 538.948 266.889 538.948 269.575V270.639C538.948 273.02 538.34 275.123 537.124 276.947C535.958 278.72 534.413 280.139 532.488 281.203C534.565 282.317 536.212 283.812 537.428 285.687C538.694 287.511 539.328 289.689 539.328 292.223V293.287ZM577.858 307.347H546.546V300.127C546.546 296.479 547.027 293.439 547.99 291.007C548.953 288.524 550.245 286.497 551.866 284.927C553.487 283.305 555.261 282.013 557.186 281.051L562.354 278.467C564.33 277.453 565.926 276.389 567.142 275.275C568.409 274.109 569.042 272.615 569.042 270.791V269.423C569.042 267.548 568.383 266.079 567.066 265.015C565.799 263.9 563.747 263.343 560.91 263.343C559.187 263.343 557.439 263.596 555.666 264.103C553.943 264.609 551.841 265.319 549.358 266.231L546.546 258.403C549.383 257.136 551.967 256.249 554.298 255.743C556.679 255.185 558.985 254.907 561.214 254.907C565.318 254.907 568.586 255.565 571.018 256.883C573.501 258.2 575.274 259.973 576.338 262.203C577.453 264.381 578.01 266.788 578.01 269.423V270.791C578.01 273.527 577.453 275.857 576.338 277.783C575.274 279.708 573.855 281.329 572.082 282.647C570.309 283.964 568.383 285.129 566.306 286.143L561.138 288.727C559.263 289.639 557.87 290.905 556.958 292.527C556.097 294.148 555.615 296.225 555.514 298.759H577.858V307.347ZM635.776 293.287C635.776 296.073 635.117 298.581 633.8 300.811C632.533 303.04 630.582 304.813 627.948 306.131C625.313 307.448 621.969 308.107 617.916 308.107C613.913 308.107 610.67 307.499 608.188 306.283C605.705 305.016 603.881 303.369 602.716 301.343C601.55 299.316 600.968 297.061 600.968 294.579C600.968 292.096 601.55 289.816 602.716 287.739C603.881 285.611 605.806 283.66 608.492 281.887C606.364 280.468 604.717 278.72 603.552 276.643C602.437 274.565 601.88 272.133 601.88 269.347C601.88 266.661 602.513 264.229 603.78 262.051C605.046 259.872 606.896 258.149 609.328 256.883C611.76 255.565 614.673 254.907 618.068 254.907C621.716 254.907 624.781 255.515 627.264 256.731C629.746 257.947 631.596 259.593 632.812 261.671C634.078 263.697 634.712 265.977 634.712 268.511C634.712 270.74 634.18 272.843 633.116 274.819C632.102 276.744 630.38 278.543 627.948 280.215C633.166 283.153 635.776 287.511 635.776 293.287ZM617.384 276.339L621.108 277.479C622.83 276.009 624.021 274.667 624.68 273.451C625.389 272.184 625.744 270.892 625.744 269.575C625.744 267.548 625.085 265.952 623.768 264.787C622.501 263.571 620.677 262.963 618.296 262.963C615.914 262.963 614.065 263.545 612.748 264.711C611.481 265.876 610.848 267.472 610.848 269.499C610.848 272.691 613.026 274.971 617.384 276.339ZM609.936 293.287C609.936 295.313 610.67 296.96 612.14 298.227C613.609 299.443 615.686 300.051 618.372 300.051C621.006 300.051 623.058 299.443 624.528 298.227C626.048 297.011 626.808 295.389 626.808 293.363C626.808 291.843 626.25 290.475 625.136 289.259C624.072 287.992 622.222 286.953 619.588 286.143L615.484 284.851C613.609 286.371 612.216 287.789 611.304 289.107C610.392 290.424 609.936 291.817 609.936 293.287ZM677.923 286.979C677.923 294.072 676.251 299.367 672.907 302.863C669.563 306.359 664.851 308.107 658.771 308.107C656.643 308.107 654.439 307.853 652.159 307.347C649.879 306.84 647.32 305.928 644.483 304.611L647.751 296.783C650.031 297.847 652.032 298.607 653.755 299.063C655.528 299.468 657.124 299.671 658.543 299.671C661.735 299.671 664.294 298.708 666.219 296.783C668.195 294.857 669.183 291.589 669.183 286.979V284.243C667.46 285.813 665.636 286.979 663.711 287.739C661.836 288.499 659.936 288.879 658.011 288.879C655.022 288.879 652.387 288.195 650.107 286.827C647.878 285.459 646.155 283.559 644.939 281.127C643.723 278.695 643.115 275.883 643.115 272.691V271.171C643.115 268.333 643.799 265.673 645.167 263.191C646.535 260.708 648.486 258.707 651.019 257.187C653.552 255.667 656.567 254.907 660.063 254.907C665.687 254.907 670.07 256.807 673.211 260.607C676.352 264.407 677.923 269.625 677.923 276.263V286.979ZM652.007 272.691C652.007 275.021 652.64 276.947 653.907 278.467C655.224 279.936 657.048 280.671 659.379 280.671C662.976 280.671 666.244 279.303 669.183 276.567V276.263C669.183 271.905 668.372 268.663 666.751 266.535C665.18 264.407 662.9 263.343 659.911 263.343C657.428 263.343 655.478 264.153 654.059 265.775C652.691 267.396 652.007 269.195 652.007 271.171V272.691ZM724.309 276.035V286.903C724.309 293.489 722.763 298.683 719.673 302.483C716.582 306.232 712.047 308.107 706.069 308.107C700.09 308.107 695.555 306.232 692.465 302.483C689.374 298.683 687.829 293.489 687.829 286.903V276.035C687.829 269.448 689.374 264.28 692.465 260.531C695.555 256.781 700.09 254.907 706.069 254.907C712.047 254.907 716.582 256.781 719.673 260.531C722.763 264.28 724.309 269.448 724.309 276.035ZM715.113 276.035C715.113 267.573 712.098 263.343 706.069 263.343C702.978 263.343 700.698 264.407 699.229 266.535C697.759 268.663 697.025 271.829 697.025 276.035V286.903C697.025 291.108 697.759 294.3 699.229 296.479C700.698 298.607 702.978 299.671 706.069 299.671C712.098 299.671 715.113 295.415 715.113 286.903V276.035ZM763.171 293.287C763.171 295.972 762.614 298.455 761.499 300.735C760.385 302.964 758.586 304.763 756.103 306.131C753.671 307.448 750.403 308.107 746.299 308.107C743.969 308.107 741.537 307.828 739.003 307.271C736.521 306.713 733.785 305.776 730.795 304.459L733.607 296.631C736.293 297.593 738.547 298.353 740.371 298.911C742.246 299.417 744.121 299.671 745.995 299.671C748.681 299.671 750.707 299.139 752.075 298.075C753.494 296.96 754.203 295.237 754.203 292.907V291.843C754.203 289.917 753.595 288.372 752.379 287.207C751.214 285.991 749.39 285.383 746.907 285.383H738.851V277.175H746.907C749.289 277.175 751.037 276.617 752.151 275.503C753.266 274.337 753.823 272.843 753.823 271.019V269.955C753.823 267.624 753.165 265.952 751.847 264.939C750.581 263.875 748.706 263.343 746.223 263.343C744.45 263.343 742.651 263.596 740.827 264.103C739.054 264.559 736.901 265.268 734.367 266.231L731.555 258.403C734.393 257.085 737.027 256.173 739.459 255.667C741.891 255.16 744.247 254.907 746.527 254.907C750.429 254.907 753.57 255.565 755.951 256.883C758.333 258.2 760.055 259.973 761.119 262.203C762.234 264.432 762.791 266.889 762.791 269.575V270.639C762.791 273.02 762.183 275.123 760.967 276.947C759.802 278.72 758.257 280.139 756.331 281.203C758.409 282.317 760.055 283.812 761.271 285.687C762.538 287.511 763.171 289.689 763.171 292.223V293.287Z" fill="white"/>
<path d="M78.0176 448.305C78.0176 449.57 78.295 450.61 78.8496 451.425C79.4043 452.222 80.3143 452.621 81.5796 452.621C82.0996 452.621 82.637 452.551 83.1916 452.413C83.7636 452.274 84.4656 452.04 85.2976 451.711L86.2596 454.415C85.3236 454.831 84.457 455.125 83.6596 455.299C82.8796 455.472 82.1256 455.559 81.3976 455.559C79.9416 455.559 78.7196 455.247 77.7316 454.623C76.761 453.999 76.033 453.141 75.5476 452.049C75.0623 450.957 74.8196 449.709 74.8196 448.305V444.587C74.8196 443.183 75.0623 441.935 75.5476 440.843C76.033 439.751 76.761 438.901 77.7316 438.295C78.7196 437.671 79.9416 437.359 81.3976 437.359C82.1083 437.359 82.845 437.445 83.6076 437.619C84.3703 437.775 85.2023 438.052 86.1036 438.451L85.1416 441.207C84.3443 440.877 83.677 440.643 83.1396 440.505C82.6023 440.366 82.0823 440.297 81.5796 440.297C80.3143 440.297 79.4043 440.695 78.8496 441.493C78.295 442.29 78.0176 443.321 78.0176 444.587V448.305ZM96.4685 455.299V453.557C95.6712 454.25 94.9258 454.761 94.2325 455.091C93.5392 455.403 92.8372 455.559 92.1265 455.559C90.9478 455.559 90.0378 455.16 89.3965 454.363C88.7552 453.548 88.4345 452.413 88.4345 450.957V442.117H91.4245V450.593C91.4245 452.049 91.9618 452.777 93.0365 452.777C93.4698 452.777 93.9378 452.673 94.4405 452.465C94.9605 452.257 95.5845 451.858 96.3125 451.269V442.117H99.3025V455.299H96.4685ZM110.855 444.847C110.041 444.847 109.261 444.977 108.515 445.237C107.787 445.479 107.085 445.878 106.409 446.433V455.299H103.419V442.117H106.253V444.145C107.137 443.313 107.926 442.723 108.619 442.377C109.313 442.03 110.058 441.857 110.855 441.857V444.847ZM120.91 444.847C120.095 444.847 119.315 444.977 118.57 445.237C117.842 445.479 117.14 445.878 116.464 446.433V455.299H113.474V442.117H116.308V444.145C117.192 443.313 117.981 442.723 118.674 442.377C119.367 442.03 120.113 441.857 120.91 441.857V444.847ZM133.539 454.545C132.637 454.909 131.788 455.169 130.991 455.325C130.193 455.481 129.439 455.559 128.729 455.559C126.77 455.559 125.288 455.004 124.283 453.895C123.277 452.785 122.775 451.312 122.775 449.475V447.915C122.775 446.684 123 445.618 123.451 444.717C123.901 443.815 124.543 443.113 125.375 442.611C126.207 442.108 127.186 441.857 128.313 441.857C129.231 441.857 130.089 442.047 130.887 442.429C131.701 442.793 132.36 443.373 132.863 444.171C133.383 444.951 133.643 445.956 133.643 447.187C133.643 447.551 133.617 447.941 133.565 448.357C133.513 448.755 133.426 449.18 133.305 449.631H125.661C125.695 450.705 125.964 451.511 126.467 452.049C126.969 452.586 127.775 452.855 128.885 452.855C129.474 452.855 130.081 452.785 130.705 452.647C131.346 452.508 132.005 452.3 132.681 452.023L133.539 454.545ZM128.313 444.379C127.515 444.379 126.891 444.639 126.441 445.159C126.007 445.661 125.756 446.389 125.687 447.343H130.679C130.696 447.256 130.705 447.178 130.705 447.109C130.705 447.022 130.705 446.944 130.705 446.875C130.705 446.043 130.471 445.419 130.003 445.003C129.535 444.587 128.971 444.379 128.313 444.379ZM143.535 444.639C143.102 444.639 142.608 444.743 142.053 444.951C141.499 445.159 140.84 445.566 140.077 446.173V455.299H137.087V442.117H139.921V443.885C140.736 443.174 141.507 442.663 142.235 442.351C142.963 442.021 143.7 441.857 144.445 441.857C145.711 441.857 146.673 442.264 147.331 443.079C147.99 443.876 148.319 445.003 148.319 446.459V455.299H145.329V446.823C145.329 445.367 144.731 444.639 143.535 444.639ZM160.201 454.857C159.75 455.065 159.23 455.229 158.641 455.351C158.051 455.489 157.453 455.559 156.847 455.559C155.841 455.559 155.035 455.351 154.429 454.935C153.822 454.519 153.38 453.938 153.103 453.193C152.843 452.447 152.713 451.598 152.713 450.645V444.717H150.581V442.117H152.713V438.685H155.703V442.117H159.811V444.717H155.703V450.645C155.703 451.442 155.85 451.997 156.145 452.309C156.457 452.603 156.899 452.751 157.471 452.751C157.748 452.751 158.043 452.725 158.355 452.673C158.684 452.603 159.048 452.491 159.447 452.335L160.201 454.857ZM178.912 449.397C178.912 451.286 178.444 452.785 177.508 453.895C176.572 455.004 175.203 455.559 173.4 455.559C171.528 455.559 169.63 455.039 167.706 453.999V436.059H170.696V443.859C171.493 443.061 172.178 442.533 172.75 442.273C173.322 441.995 173.911 441.857 174.518 441.857C175.905 441.857 176.979 442.394 177.742 443.469C178.522 444.543 178.912 446.051 178.912 447.993V449.397ZM173.712 444.639C173.296 444.639 172.854 444.76 172.386 445.003C171.935 445.245 171.372 445.722 170.696 446.433V452.335C171.164 452.525 171.589 452.664 171.97 452.751C172.369 452.837 172.759 452.881 173.14 452.881C174.111 452.881 174.804 452.569 175.22 451.945C175.636 451.321 175.844 450.471 175.844 449.397V447.993C175.844 446.831 175.653 445.982 175.272 445.445C174.908 444.907 174.388 444.639 173.712 444.639ZM192.343 455.429C191.459 455.429 190.748 455.247 190.211 454.883C189.691 454.519 189.309 454.068 189.067 453.531C188.321 454.224 187.602 454.735 186.909 455.065C186.215 455.394 185.47 455.559 184.673 455.559C183.511 455.559 182.653 455.186 182.099 454.441C181.561 453.695 181.293 452.751 181.293 451.607C181.293 450.844 181.431 450.177 181.709 449.605C182.003 449.015 182.48 448.556 183.139 448.227C183.797 447.897 184.699 447.733 185.843 447.733C186.293 447.733 186.761 447.767 187.247 447.837C187.732 447.889 188.217 447.958 188.703 448.045V446.511C188.703 445.783 188.503 445.289 188.105 445.029C187.706 444.751 187.169 444.613 186.493 444.613C185.973 444.613 185.401 444.682 184.777 444.821C184.17 444.959 183.511 445.176 182.801 445.471L181.943 442.923C183.693 442.212 185.279 441.857 186.701 441.857C187.983 441.857 188.971 442.073 189.665 442.507C190.375 442.94 190.869 443.512 191.147 444.223C191.424 444.933 191.563 445.696 191.563 446.511V451.581C191.563 451.841 191.632 452.092 191.771 452.335C191.927 452.56 192.221 452.673 192.655 452.673H192.941V455.429H192.343ZM184.179 451.555C184.179 452.023 184.283 452.395 184.491 452.673C184.699 452.933 185.002 453.063 185.401 453.063C185.799 453.063 186.25 452.959 186.753 452.751C187.255 452.543 187.905 452.057 188.703 451.295V450.177C187.801 450.021 186.917 449.943 186.051 449.943C185.375 449.943 184.889 450.081 184.595 450.359C184.317 450.636 184.179 451.035 184.179 451.555ZM195.458 451.581V436.059H198.448V451.581C198.448 451.841 198.509 452.092 198.63 452.335C198.769 452.56 199.029 452.673 199.41 452.673H199.826V455.429H199.098C198.11 455.429 197.356 455.238 196.836 454.857C196.316 454.475 195.952 453.99 195.744 453.401C195.554 452.811 195.458 452.205 195.458 451.581ZM212.706 455.429C211.822 455.429 211.111 455.247 210.574 454.883C210.054 454.519 209.673 454.068 209.43 453.531C208.685 454.224 207.965 454.735 207.272 455.065C206.579 455.394 205.833 455.559 205.036 455.559C203.875 455.559 203.017 455.186 202.462 454.441C201.925 453.695 201.656 452.751 201.656 451.607C201.656 450.844 201.795 450.177 202.072 449.605C202.367 449.015 202.843 448.556 203.502 448.227C204.161 447.897 205.062 447.733 206.206 447.733C206.657 447.733 207.125 447.767 207.61 447.837C208.095 447.889 208.581 447.958 209.066 448.045V446.511C209.066 445.783 208.867 445.289 208.468 445.029C208.069 444.751 207.532 444.613 206.856 444.613C206.336 444.613 205.764 444.682 205.14 444.821C204.533 444.959 203.875 445.176 203.164 445.471L202.306 442.923C204.057 442.212 205.643 441.857 207.064 441.857C208.347 441.857 209.335 442.073 210.028 442.507C210.739 442.94 211.233 443.512 211.51 444.223C211.787 444.933 211.926 445.696 211.926 446.511V451.581C211.926 451.841 211.995 452.092 212.134 452.335C212.29 452.56 212.585 452.673 213.018 452.673H213.304V455.429H212.706ZM204.542 451.555C204.542 452.023 204.646 452.395 204.854 452.673C205.062 452.933 205.365 453.063 205.764 453.063C206.163 453.063 206.613 452.959 207.116 452.751C207.619 452.543 208.269 452.057 209.066 451.295V450.177C208.165 450.021 207.281 449.943 206.414 449.943C205.738 449.943 205.253 450.081 204.958 450.359C204.681 450.636 204.542 451.035 204.542 451.555ZM222.348 444.639C221.914 444.639 221.42 444.743 220.866 444.951C220.311 445.159 219.652 445.566 218.89 446.173V455.299H215.9V442.117H218.734V443.885C219.548 443.174 220.32 442.663 221.048 442.351C221.776 442.021 222.512 441.857 223.258 441.857C224.523 441.857 225.485 442.264 226.144 443.079C226.802 443.876 227.132 445.003 227.132 446.459V455.299H224.142V446.823C224.142 445.367 223.544 444.639 222.348 444.639ZM233.371 447.941V449.475C233.371 450.584 233.571 451.416 233.969 451.971C234.368 452.525 235.009 452.803 235.893 452.803C236.327 452.803 236.812 452.751 237.349 452.647C237.904 452.525 238.502 452.343 239.143 452.101L240.001 454.623C239.221 454.935 238.485 455.169 237.791 455.325C237.098 455.481 236.413 455.559 235.737 455.559C234.004 455.559 232.678 455.004 231.759 453.895C230.841 452.785 230.381 451.312 230.381 449.475V447.941C230.381 446.086 230.841 444.613 231.759 443.521C232.678 442.411 234.004 441.857 235.737 441.857C236.396 441.857 237.063 441.935 237.739 442.091C238.415 442.247 239.126 442.472 239.871 442.767L239.013 445.341C237.765 444.855 236.725 444.613 235.893 444.613C235.009 444.613 234.368 444.89 233.969 445.445C233.571 445.982 233.371 446.814 233.371 447.941ZM252.748 454.545C251.846 454.909 250.997 455.169 250.2 455.325C249.402 455.481 248.648 455.559 247.938 455.559C245.979 455.559 244.497 455.004 243.492 453.895C242.486 452.785 241.984 451.312 241.984 449.475V447.915C241.984 446.684 242.209 445.618 242.66 444.717C243.11 443.815 243.752 443.113 244.584 442.611C245.416 442.108 246.395 441.857 247.522 441.857C248.44 441.857 249.298 442.047 250.096 442.429C250.91 442.793 251.569 443.373 252.072 444.171C252.592 444.951 252.852 445.956 252.852 447.187C252.852 447.551 252.826 447.941 252.774 448.357C252.722 448.755 252.635 449.18 252.514 449.631H244.87C244.904 450.705 245.173 451.511 245.676 452.049C246.178 452.586 246.984 452.855 248.094 452.855C248.683 452.855 249.29 452.785 249.914 452.647C250.555 452.508 251.214 452.3 251.89 452.023L252.748 454.545ZM247.522 444.379C246.724 444.379 246.1 444.639 245.65 445.159C245.216 445.661 244.965 446.389 244.896 447.343H249.888C249.905 447.256 249.914 447.178 249.914 447.109C249.914 447.022 249.914 446.944 249.914 446.875C249.914 446.043 249.68 445.419 249.212 445.003C248.744 444.587 248.18 444.379 247.522 444.379Z" fill="white" fill-opacity="0.6"/>
<path d="M88.5416 510.486C88.5416 512.107 88.1043 513.472 87.2296 514.582C86.355 515.691 85.0003 516.406 83.1656 516.726V521.238H79.6456V516.854C78.8136 516.768 77.9496 516.608 77.0536 516.374C76.179 516.118 75.2296 515.755 74.2056 515.286L75.3896 511.99C76.5843 512.502 77.5976 512.864 78.4296 513.078C79.283 513.27 80.115 513.366 80.9256 513.366C83.4003 513.366 84.6376 512.448 84.6376 510.614C84.6376 509.867 84.4456 509.28 84.0616 508.854C83.699 508.427 83.0163 508.054 82.0136 507.734L79.3896 506.87C76.2536 505.846 74.6856 503.787 74.6856 500.694C74.6856 499.179 75.091 497.878 75.9016 496.79C76.7123 495.702 77.9603 494.998 79.6456 494.678V490.198H83.1656V494.614C83.9123 494.699 84.659 494.848 85.4056 495.062C86.1523 495.275 86.931 495.563 87.7416 495.926L86.5576 499.222C85.5336 498.816 84.659 498.528 83.9336 498.358C83.2296 498.166 82.5043 498.07 81.7576 498.07C80.7763 498.07 79.9976 498.251 79.4216 498.614C78.867 498.955 78.5896 499.584 78.5896 500.502C78.5896 501.184 78.7816 501.75 79.1656 502.198C79.571 502.624 80.2323 502.987 81.1496 503.286L83.7736 504.15C85.3523 504.683 86.5363 505.462 87.3256 506.486C88.1363 507.488 88.5416 508.822 88.5416 510.486Z" fill="white"/>
<path d="M95.6036 514.133L96.9236 492.419H119.892V499.877H103.92L103.326 509.777C104.866 509.381 106.516 509.183 108.276 509.183C112.632 509.183 116.042 510.327 118.506 512.615C120.97 514.859 122.202 518.181 122.202 522.581V524.363C122.202 526.827 121.696 529.093 120.684 531.161C119.672 533.229 118.044 534.879 115.8 536.111C113.6 537.343 110.674 537.959 107.022 537.959C104.998 537.959 102.886 537.717 100.686 537.233C98.5296 536.749 96.1536 535.935 93.5576 534.791L95.9996 527.993C98.3316 528.917 100.29 529.599 101.874 530.039C103.502 530.435 105.13 530.633 106.758 530.633C109.222 530.633 111.07 530.127 112.302 529.115C113.578 528.103 114.216 526.519 114.216 524.363V522.581C114.216 520.645 113.644 519.105 112.5 517.961C111.4 516.817 109.618 516.245 107.154 516.245C106.054 516.245 104.91 516.399 103.722 516.707C102.534 516.971 101.258 517.367 99.8936 517.895L95.6036 514.133ZM136.032 529.445V530.699C136.032 534.395 135.614 537.915 134.778 541.259C133.942 544.647 132.336 548.233 129.96 552.017L125.208 549.443C126.176 547.639 126.902 545.791 127.386 543.899C127.87 542.051 128.2 539.961 128.376 537.629C128.552 535.297 128.64 532.569 128.64 529.445H136.032ZM174.654 510.107V519.545C174.654 525.265 173.312 529.775 170.628 533.075C167.944 536.331 164.006 537.959 158.814 537.959C153.622 537.959 149.684 536.331 147 533.075C144.316 529.775 142.974 525.265 142.974 519.545V510.107C142.974 504.387 144.316 499.899 147 496.643C149.684 493.387 153.622 491.759 158.814 491.759C164.006 491.759 167.944 493.387 170.628 496.643C173.312 499.899 174.654 504.387 174.654 510.107ZM166.668 510.107C166.668 502.759 164.05 499.085 158.814 499.085C156.13 499.085 154.15 500.009 152.874 501.857C151.598 503.705 150.96 506.455 150.96 510.107V519.545C150.96 523.197 151.598 525.969 152.874 527.861C154.15 529.709 156.13 530.633 158.814 530.633C164.05 530.633 166.668 526.937 166.668 519.545V510.107ZM214.937 510.107V519.545C214.937 525.265 213.595 529.775 210.911 533.075C208.227 536.331 204.289 537.959 199.097 537.959C193.905 537.959 189.967 536.331 187.283 533.075C184.599 529.775 183.257 525.265 183.257 519.545V510.107C183.257 504.387 184.599 499.899 187.283 496.643C189.967 493.387 193.905 491.759 199.097 491.759C204.289 491.759 208.227 493.387 210.911 496.643C213.595 499.899 214.937 504.387 214.937 510.107ZM206.951 510.107C206.951 502.759 204.333 499.085 199.097 499.085C196.413 499.085 194.433 500.009 193.157 501.857C191.881 503.705 191.243 506.455 191.243 510.107V519.545C191.243 523.197 191.881 525.969 193.157 527.861C194.433 529.709 196.413 530.633 199.097 530.633C204.333 530.633 206.951 526.937 206.951 519.545V510.107ZM255.22 510.107V519.545C255.22 525.265 253.878 529.775 251.194 533.075C248.51 536.331 244.572 537.959 239.38 537.959C234.188 537.959 230.25 536.331 227.566 533.075C224.882 529.775 223.54 525.265 223.54 519.545V510.107C223.54 504.387 224.882 499.899 227.566 496.643C230.25 493.387 234.188 491.759 239.38 491.759C244.572 491.759 248.51 493.387 251.194 496.643C253.878 499.899 255.22 504.387 255.22 510.107ZM247.234 510.107C247.234 502.759 244.616 499.085 239.38 499.085C236.696 499.085 234.716 500.009 233.44 501.857C232.164 503.705 231.526 506.455 231.526 510.107V519.545C231.526 523.197 232.164 525.969 233.44 527.861C234.716 529.709 236.696 530.633 239.38 530.633C244.616 530.633 247.234 526.937 247.234 519.545V510.107ZM269.845 537.299H261.859V529.445H269.845V537.299ZM273.211 513.979L280.131 510.099H284.131V537.299H279.411V515.379L275.331 517.619L273.211 513.979ZM308.089 531.139H305.249V537.299H300.609V531.139H288.929V527.259C290.129 525.392 291.315 523.499 292.489 521.579C293.689 519.632 294.809 517.699 295.849 515.779C296.889 513.832 297.742 511.939 298.409 510.099H303.649C302.662 512.819 301.329 515.619 299.649 518.499C297.969 521.352 296.235 524.139 294.449 526.859H300.609V522.739H305.249V526.859H308.089V531.139Z" fill="white"/>
<path d="M879.775 452.309V455.299H869.531V437.619H879.515V440.609H872.651V444.847H878.735V447.837H872.651V452.309H879.775ZM890.048 455.299L887.318 450.879L884.64 455.299H881.52L885.784 448.539L881.806 442.117H885.03L887.474 446.043L889.84 442.117H892.96L888.982 448.409L893.272 455.299H890.048ZM901.468 455.559C901.035 455.559 900.593 455.515 900.142 455.429C899.709 455.342 899.267 455.221 898.816 455.065V460.837H895.826V442.117H898.66V443.911C899.475 443.096 900.168 442.55 900.74 442.273C901.312 441.995 901.91 441.857 902.534 441.857C903.973 441.857 905.082 442.394 905.862 443.469C906.642 444.543 907.032 446.051 907.032 447.993V449.397C907.032 451.286 906.556 452.785 905.602 453.895C904.649 455.004 903.271 455.559 901.468 455.559ZM901.728 444.639C901.33 444.639 900.905 444.76 900.454 445.003C900.021 445.228 899.475 445.67 898.816 446.329V452.361C899.666 452.707 900.446 452.881 901.156 452.881C902.162 452.881 902.881 452.569 903.314 451.945C903.748 451.321 903.964 450.471 903.964 449.397V447.993C903.964 446.831 903.765 445.982 903.366 445.445C902.985 444.907 902.439 444.639 901.728 444.639ZM913.57 439.621H910.424V436.527H913.57V439.621ZM913.492 455.299H910.502V442.117H913.492V455.299ZM925.048 444.847C924.233 444.847 923.453 444.977 922.708 445.237C921.98 445.479 921.278 445.878 920.602 446.433V455.299H917.612V442.117H920.446V444.145C921.33 443.313 922.118 442.723 922.812 442.377C923.505 442.03 924.25 441.857 925.048 441.857V444.847ZM932.996 456.599C932.424 458.193 931.696 459.337 930.812 460.031C929.928 460.741 928.715 461.097 927.172 461.097V458.107C928.091 458.072 928.81 457.864 929.33 457.483C929.868 457.119 930.266 456.607 930.526 455.949L930.76 455.351L926.054 442.117H929.018L931.28 448.695L932.164 451.477L933.022 448.695L935.18 442.117H938.144L932.996 456.599Z" fill="white" fill-opacity="0.6"/>
<path d="M843.507 503.813L850.773 499.739H854.973V528.299H850.017V505.283L845.733 507.635L843.507 503.813ZM877.903 528.299H860.599V524.309C860.599 522.293 860.865 520.613 861.397 519.269C861.929 517.897 862.643 516.777 863.539 515.909C864.435 515.013 865.415 514.299 866.479 513.767L869.335 512.339C870.427 511.779 871.309 511.191 871.981 510.575C872.681 509.931 873.031 509.105 873.031 508.097V507.341C873.031 506.305 872.667 505.493 871.939 504.905C871.239 504.289 870.105 503.981 868.537 503.981C867.585 503.981 866.619 504.121 865.639 504.401C864.687 504.681 863.525 505.073 862.153 505.577L860.599 501.251C862.167 500.551 863.595 500.061 864.883 499.781C866.199 499.473 867.473 499.319 868.705 499.319C870.973 499.319 872.779 499.683 874.123 500.411C875.495 501.139 876.475 502.119 877.063 503.351C877.679 504.555 877.987 505.885 877.987 507.341V508.097C877.987 509.609 877.679 510.897 877.063 511.961C876.475 513.025 875.691 513.921 874.711 514.649C873.731 515.377 872.667 516.021 871.519 516.581L868.663 518.009C867.627 518.513 866.857 519.213 866.353 520.109C865.877 521.005 865.611 522.153 865.555 523.553H877.903V528.299ZM892.094 497.219H897.05L883.442 534.305H878.486L892.094 497.219ZM915.637 528.299H898.333V524.309C898.333 522.293 898.599 520.613 899.131 519.269C899.663 517.897 900.377 516.777 901.273 515.909C902.169 515.013 903.149 514.299 904.213 513.767L907.069 512.339C908.161 511.779 909.043 511.191 909.715 510.575C910.415 509.931 910.765 509.105 910.765 508.097V507.341C910.765 506.305 910.401 505.493 909.673 504.905C908.973 504.289 907.839 503.981 906.271 503.981C905.319 503.981 904.353 504.121 903.373 504.401C902.421 504.681 901.259 505.073 899.887 505.577L898.333 501.251C899.901 500.551 901.329 500.061 902.617 499.781C903.933 499.473 905.207 499.319 906.439 499.319C908.707 499.319 910.513 499.683 911.857 500.411C913.229 501.139 914.209 502.119 914.797 503.351C915.413 504.555 915.721 505.885 915.721 507.341V508.097C915.721 509.609 915.413 510.897 914.797 511.961C914.209 513.025 913.425 513.921 912.445 514.649C911.465 515.377 910.401 516.021 909.253 516.581L906.397 518.009C905.361 518.513 904.591 519.213 904.087 520.109C903.611 521.005 903.345 522.153 903.289 523.553H915.637V528.299ZM936.842 528.299H919.538V524.309C919.538 522.293 919.804 520.613 920.336 519.269C920.868 517.897 921.582 516.777 922.478 515.909C923.374 515.013 924.354 514.299 925.418 513.767L928.274 512.339C929.366 511.779 930.248 511.191 930.92 510.575C931.62 509.931 931.97 509.105 931.97 508.097V507.341C931.97 506.305 931.606 505.493 930.878 504.905C930.178 504.289 929.044 503.981 927.476 503.981C926.524 503.981 925.558 504.121 924.578 504.401C923.626 504.681 922.464 505.073 921.092 505.577L919.538 501.251C921.106 500.551 922.534 500.061 923.822 499.781C925.138 499.473 926.412 499.319 927.644 499.319C929.912 499.319 931.718 499.683 933.062 500.411C934.434 501.139 935.414 502.119 936.002 503.351C936.618 504.555 936.926 505.885 936.926 507.341V508.097C936.926 509.609 936.618 510.897 936.002 511.961C935.414 513.025 934.63 513.921 933.65 514.649C932.67 515.377 931.606 516.021 930.458 516.581L927.602 518.009C926.566 518.513 925.796 519.213 925.292 520.109C924.816 521.005 924.55 522.153 924.494 523.553H936.842V528.299Z" fill="white"/>
<path fill-rule="evenodd" clip-rule="evenodd" d="M762.406 77.2988L739.818 127.235H766.859L770.211 119.273H777.873L781.225 127.235H810.989V121.158L813.641 127.235H829.038L831.69 121.029V127.235H893.59L901.117 119.48L908.165 127.235L939.958 127.299L917.299 102.406L939.958 77.2988H908.658L901.331 84.9106L894.505 77.2988H827.165L821.383 90.1877L815.465 77.2988H788.481V83.1688L785.479 77.2988H762.406ZM854.842 84.3899H890.388L901.26 96.122L912.482 84.3899H923.354L906.835 102.399L923.354 120.201H911.989L901.117 108.333L889.838 120.201H854.842V84.3899ZM863.62 98.3494V91.8083V91.802H885.8L895.478 102.263L885.371 112.781H863.62V105.64H883.012V98.3494H863.62ZM767.638 84.3899H780.819L795.801 118.252V84.3899H810.24L821.812 108.669L832.477 84.3899H846.843V120.222H838.102L838.03 92.1442L825.285 120.222H817.465L804.649 92.1442V120.222H786.665L783.256 112.189H764.836L761.434 120.215H751.798L767.638 84.3899ZM767.981 104.762L774.05 90.4519L780.111 104.762H767.981Z" fill="white"/>
</g>
</g>
<defs>
<clipPath id="clip0_495_612">
<rect width="1012" height="638" rx="50" fill="white"/>
</clipPath>
<clipPath id="clip1_495_612">
<rect width="1012" height="638" rx="50" fill="white"/>
</clipPath>
</defs>
</svg>
