<svg width="39" height="24" viewBox="0 0 39 24" fill="none" xmlns="http://www.w3.org/2000/svg">
<rect width="39" height="24" rx="4" fill="#0971CE"/>
<g clip-path="url(#clip0_250_2522)">
<path d="M7.46973 0.000183105H31.4697V12.9561L30.2818 14.8122L31.4697 16.4642V24.0002H7.46973V11.7867L8.21219 10.9329L7.46973 10.1162V0.000183105Z" fill="#016FD0"/>
<path d="M12.1289 16.7239V12.9559H16.1185L16.5465 13.5139L16.9887 12.9559H31.47V16.4641C31.47 16.4641 31.0913 16.7201 30.6533 16.7239H22.6347L22.1521 16.1299V16.7239H20.5707V15.71C20.5707 15.71 20.3546 15.8515 19.8876 15.8515H19.3493V16.7239H16.9549L16.5275 16.1539L16.0935 16.7239H12.1289Z" fill="#F1F1F3"/>
<path d="M7.46973 10.116L8.3694 8.01855H9.92528L10.4359 9.19346V8.01855H12.37L12.6739 8.86774L12.9686 8.01855H21.6507V8.44547C21.6507 8.44547 22.1071 8.01855 22.8572 8.01855L25.6742 8.0284L26.176 9.18793V8.01855H27.7946L28.24 8.68461V8.01855H29.8734V11.7865H28.24L27.8131 11.1183V11.7865H25.4351L25.1959 11.1926H24.5567L24.3214 11.7865H22.7087C22.0633 11.7865 21.6507 11.3683 21.6507 11.3683V11.7865H19.2191L18.7365 11.1926V11.7865H9.69478L9.45581 11.1926H8.81855L8.58126 11.7865H7.46973V10.116Z" fill="#F1F1F3"/>
<path d="M8.68807 8.48309L7.47461 11.3044H8.26463L8.48853 10.7395H9.79015L10.0129 11.3044H10.8203L9.60802 8.48309H8.68807ZM9.13702 9.13971L9.53377 10.1269H8.73911L9.13702 9.13971Z" fill="#016FD0"/>
<path d="M10.9033 11.304V8.4826L12.026 8.48678L12.679 10.3058L13.3163 8.4826H14.43V11.304H13.7247V9.22506L12.977 11.304H12.3584L11.6087 9.22506V11.304H10.9033Z" fill="#016FD0"/>
<path d="M14.9131 11.304V8.4826H17.2147V9.1137H15.6258V9.59629H17.1776V10.1903H15.6258V10.6914H17.2147V11.304H14.9131Z" fill="#016FD0"/>
<path d="M17.623 8.48309V11.3044H18.3284V10.3021H18.6254L19.4711 11.3044H20.333L19.4049 10.265C19.7858 10.2329 20.1787 9.90595 20.1787 9.39841C20.1787 8.8047 19.7127 8.48309 19.1927 8.48309H17.623ZM18.3284 9.11418H19.1346C19.3281 9.11418 19.4688 9.26548 19.4688 9.41117C19.4688 9.5986 19.2865 9.70815 19.1451 9.70815H18.3284V9.11418Z" fill="#016FD0"/>
<path d="M21.187 11.304H20.4668V8.4826H21.187V11.304Z" fill="#016FD0"/>
<path d="M22.8945 11.304H22.7391C21.9869 11.304 21.5303 10.7114 21.5303 9.90488C21.5303 9.07846 21.9818 8.4826 22.9317 8.4826H23.7112V9.15082H22.9032C22.5176 9.15082 22.2449 9.45173 22.2449 9.91184C22.2449 10.4582 22.5567 10.6877 23.0059 10.6877H23.1915L22.8945 11.304Z" fill="#016FD0"/>
<path d="M24.4293 8.48309L23.2158 11.3044H24.0058L24.2297 10.7395H25.5314L25.7541 11.3044H26.5615L25.3492 8.48309H24.4293ZM24.8782 9.13971L25.275 10.1269H24.4803L24.8782 9.13971Z" fill="#016FD0"/>
<path d="M26.6436 11.304V8.4826H27.5403L28.6853 10.2552V8.4826H29.3907V11.304H28.5229L27.3489 9.48493V11.304H26.6436Z" fill="#016FD0"/>
<path d="M12.6113 16.2413V13.42H14.913V14.0511H13.3241V14.5337H14.8758V15.1276H13.3241V15.6288H14.913V16.2413H12.6113Z" fill="#016FD0"/>
<path d="M23.8896 16.2413V13.42H26.1913V14.0511H24.6024V14.5337H26.1467V15.1276H24.6024V15.6288H26.1913V16.2413H23.8896Z" fill="#016FD0"/>
<path d="M15.0023 16.2413L16.1229 14.8481L14.9756 13.42H15.8642L16.5475 14.3028L17.2331 13.42H18.087L16.9547 14.8307L18.0774 16.2413H17.1889L16.5255 15.3724L15.8781 16.2413H15.0023Z" fill="#016FD0"/>
<path d="M18.1611 13.4204V16.2418H18.885V15.3508H19.6275C20.2557 15.3508 20.7319 15.0175 20.7319 14.3694C20.7319 13.8324 20.3584 13.4204 19.7191 13.4204H18.1611ZM18.885 14.0585H19.6669C19.8699 14.0585 20.015 14.1829 20.015 14.3833C20.015 14.5716 19.8706 14.7081 19.6646 14.7081H18.885V14.0585Z" fill="#016FD0"/>
<path d="M21.0381 13.42V16.2413H21.7434V15.239H22.0404L22.8861 16.2413H23.7481L22.82 15.2019C23.2009 15.1697 23.5938 14.8428 23.5938 14.3353C23.5938 13.7416 23.1278 13.42 22.6077 13.42H21.0381ZM21.7434 14.0511H22.5497C22.7431 14.0511 22.8838 14.2024 22.8838 14.3481C22.8838 14.5355 22.7015 14.645 22.5601 14.645H21.7434V14.0511Z" fill="#016FD0"/>
<path d="M26.5173 16.2413V15.6288H27.9289C28.1378 15.6288 28.2282 15.5159 28.2282 15.3921C28.2282 15.2735 28.138 15.1536 27.9289 15.1536H27.291C26.7365 15.1536 26.4277 14.8158 26.4277 14.3086C26.4277 13.8562 26.7105 13.42 27.5345 13.42H28.908L28.611 14.0548H27.4231C27.196 14.0548 27.1261 14.1739 27.1261 14.2877C27.1261 14.4047 27.2125 14.5337 27.386 14.5337H28.0542C28.6723 14.5337 28.9405 14.8843 28.9405 15.3434C28.9405 15.837 28.6416 16.2413 28.0205 16.2413H26.5173Z" fill="#016FD0"/>
<path d="M29.1062 16.2413V15.6288H30.5178C30.7266 15.6288 30.8171 15.5159 30.8171 15.3921C30.8171 15.2735 30.7269 15.1536 30.5178 15.1536H29.8799C29.3254 15.1536 29.0166 14.8158 29.0166 14.3086C29.0166 13.8562 29.2994 13.42 30.1233 13.42H31.4969L31.1999 14.0548H30.012C29.7849 14.0548 29.715 14.1739 29.715 14.2877C29.715 14.4047 29.8014 14.5337 29.9748 14.5337H30.6431C31.2612 14.5337 31.5294 14.8843 31.5294 15.3434C31.5294 15.837 31.2305 16.2413 30.6094 16.2413H29.1062Z" fill="#016FD0"/>
</g>
<defs>
<clipPath id="clip0_250_2522">
<rect width="24.0597" height="24" fill="white" transform="translate(7.46973)"/>
</clipPath>
</defs>
</svg>
