<svg width="39" height="24" viewBox="0 0 39 24" fill="none" xmlns="http://www.w3.org/2000/svg">
<g clip-path="url(#clip0_250_2574)">
<rect width="39" height="24" rx="4" fill="#F1F1F3"/>
<path fill-rule="evenodd" clip-rule="evenodd" d="M35.7563 2.42752e-07C33.8438 4.23947e-07 13.5953 -3.84764e-07 2.2875 2.42752e-07C1.33125 2.95818e-07 0.375 0.96 0.375 1.92C0.375 7.69172 0.375 19.2 0.375 21.12C0.375 23.04 1.33125 24 3.24375 24C13.9115 24 33.8438 24 35.7563 24C37.6688 24 38.625 23.04 38.625 21.12C38.625 19.2 38.625 9.25727 38.625 2.88C38.625 0.960001 37.6688 2.42752e-07 35.7563 2.42752e-07Z" fill="white"/>
<path fill-rule="evenodd" clip-rule="evenodd" d="M25.4927 12.363H27.2244L27.2292 12.3632C27.238 12.3634 27.2477 12.3638 27.2579 12.3643C27.2671 12.3648 27.2767 12.3655 27.2866 12.3662C27.296 12.3669 27.3056 12.3677 27.3153 12.3686C27.3249 12.3695 27.3346 12.3705 27.344 12.3715C27.3538 12.3726 27.3635 12.3738 27.3727 12.375C27.3829 12.3764 27.3926 12.3779 27.4014 12.3794C27.4077 12.3804 27.4135 12.3815 27.4187 12.3827L27.43 12.3852C27.4397 12.3875 27.4492 12.3899 27.4587 12.3926C27.4684 12.3953 27.4779 12.3981 27.4874 12.4011C27.4971 12.4042 27.5066 12.4075 27.5161 12.411C27.5258 12.4145 27.5353 12.4182 27.5448 12.4221C27.5545 12.426 27.564 12.4302 27.5735 12.4346C27.5832 12.439 27.5927 12.4436 27.6022 12.4485C27.6119 12.4534 27.6214 12.4585 27.6309 12.4639C27.6406 12.4694 27.6502 12.4751 27.6596 12.481C27.6693 12.4871 27.6789 12.4933 27.6883 12.4998C27.698 12.5065 27.7076 12.5134 27.717 12.5205C27.7267 12.5279 27.7363 12.5355 27.7457 12.5434C27.7554 12.5515 27.765 12.56 27.7744 12.5686C27.7842 12.5777 27.7938 12.5869 27.8031 12.5965C27.8129 12.6065 27.8225 12.6169 27.8318 12.6276C27.8416 12.6389 27.8512 12.6505 27.8605 12.6624C27.8704 12.6752 27.88 12.6884 27.8892 12.7019C27.8992 12.7167 27.9088 12.7319 27.9179 12.7475C27.9281 12.7651 27.9376 12.7832 27.9465 12.8018C27.9571 12.8238 27.9667 12.8465 27.9753 12.8699C27.9867 12.9013 27.9964 12.9338 28.0039 12.9673C28.0171 13.0255 28.0241 13.0868 28.0241 13.1508C28.0241 13.2151 28.0171 13.2766 28.0039 13.335C27.9964 13.3687 27.9867 13.4013 27.9753 13.4327C27.9667 13.4561 27.9571 13.4788 27.9465 13.5009C27.9376 13.5195 27.9281 13.5377 27.9179 13.5553C27.9088 13.5709 27.8992 13.5861 27.8892 13.6009C27.88 13.6144 27.8704 13.6276 27.8605 13.6404C27.8512 13.6524 27.8416 13.664 27.8318 13.6753C27.8225 13.6859 27.8129 13.6963 27.8031 13.7063C27.7938 13.7159 27.7842 13.7251 27.7744 13.7341C27.765 13.7428 27.7554 13.7511 27.7457 13.7593C27.7363 13.7671 27.7267 13.7747 27.717 13.7821C27.7076 13.7892 27.698 13.7961 27.6883 13.8027C27.6789 13.8092 27.6693 13.8154 27.6596 13.8215C27.6502 13.8273 27.6406 13.833 27.6309 13.8385C27.6215 13.8438 27.6119 13.8489 27.6022 13.8538C27.5927 13.8586 27.5832 13.8632 27.5735 13.8676C27.564 13.872 27.5545 13.8761 27.5448 13.88C27.5353 13.8839 27.5258 13.8876 27.5161 13.891C27.5066 13.8944 27.4971 13.8977 27.4874 13.9007C27.4779 13.9037 27.4684 13.9065 27.4587 13.9091C27.4492 13.9117 27.4397 13.9141 27.43 13.9164L27.4187 13.9189C27.4135 13.9201 27.4077 13.9213 27.4014 13.9224C27.3926 13.924 27.3829 13.9254 27.3727 13.9268C27.3635 13.9281 27.3538 13.9293 27.344 13.9304C27.3346 13.9314 27.3249 13.9324 27.3153 13.9332C27.3056 13.9341 27.296 13.9349 27.2866 13.9356C27.2767 13.9363 27.2671 13.9369 27.2579 13.9374C27.2477 13.9379 27.238 13.9383 27.2292 13.9385L27.2138 13.9387H25.4927V12.363ZM27.8032 10.5797C27.8147 10.6326 27.8209 10.6886 27.8209 10.7476C27.8209 10.8065 27.8147 10.8625 27.8032 10.9153C27.7958 10.9493 27.7861 10.9819 27.7745 11.0132C27.766 11.0361 27.7564 11.0582 27.7458 11.0795C27.7369 11.0974 27.7273 11.1148 27.7171 11.1316C27.708 11.1464 27.6984 11.1609 27.6884 11.1749C27.6792 11.1876 27.6696 11.2 27.6597 11.212C27.6505 11.2232 27.6409 11.234 27.631 11.2446C27.6217 11.2545 27.6122 11.2641 27.6023 11.2734C27.593 11.2822 27.5834 11.2908 27.5736 11.2991C27.5643 11.307 27.5547 11.3147 27.5449 11.3221C27.5355 11.3293 27.526 11.3362 27.5163 11.3429C27.5068 11.3493 27.4972 11.3555 27.4875 11.3615C27.4781 11.3673 27.4685 11.373 27.4589 11.3783C27.4494 11.3836 27.4398 11.3887 27.4302 11.3935C27.4207 11.3982 27.4111 11.4027 27.4015 11.4071C27.392 11.4113 27.3824 11.4153 27.3728 11.4191C27.3633 11.4229 27.3537 11.4264 27.3441 11.4298C27.3346 11.4331 27.325 11.4363 27.3154 11.4392C27.3059 11.4421 27.2963 11.4448 27.2867 11.4473C27.2772 11.4498 27.2676 11.4521 27.258 11.4542C27.2485 11.4563 27.2389 11.4581 27.2293 11.4599L27.2224 11.4611C27.2168 11.4621 27.2093 11.4632 27.2006 11.4643C27.1921 11.4654 27.1824 11.4665 27.1719 11.4676C27.1628 11.4685 27.1532 11.4694 27.1432 11.4702C27.1338 11.471 27.1242 11.4717 27.1145 11.4723C27.1049 11.473 27.0952 11.4735 27.0858 11.4739C27.0759 11.4743 27.0662 11.4745 27.0572 11.4746L27.0526 11.4746H25.4927V10.0206H27.0692L27.0858 10.0211C27.0952 10.0215 27.1049 10.0221 27.1145 10.0227C27.1242 10.0233 27.1338 10.024 27.1432 10.0248C27.1532 10.0256 27.1628 10.0265 27.1719 10.0274C27.1824 10.0284 27.1921 10.0295 27.2006 10.0304C27.2093 10.0314 27.2168 10.0324 27.2224 10.0332L27.2293 10.0344C27.2389 10.0362 27.2485 10.0381 27.258 10.0403C27.2676 10.0424 27.2772 10.0447 27.2867 10.0472C27.2963 10.0498 27.3059 10.0525 27.3154 10.0554C27.325 10.0583 27.3346 10.0615 27.3441 10.0648C27.3537 10.0682 27.3633 10.0718 27.3728 10.0756C27.3824 10.0794 27.392 10.0835 27.4015 10.0877C27.4111 10.0921 27.4207 10.0966 27.4302 10.1013C27.4398 10.1062 27.4494 10.1112 27.4589 10.1164C27.4685 10.1218 27.4781 10.1275 27.4875 10.1333C27.4972 10.1393 27.5068 10.1455 27.5163 10.152C27.526 10.1587 27.5355 10.1656 27.5449 10.1728C27.5547 10.1802 27.5643 10.1879 27.5736 10.1958C27.5834 10.2042 27.593 10.2127 27.6023 10.2216C27.6122 10.2309 27.6217 10.2405 27.631 10.2503C27.6409 10.2609 27.6505 10.2717 27.6597 10.2829C27.6696 10.2949 27.6792 10.3073 27.6884 10.3201C27.6984 10.3341 27.708 10.3485 27.7171 10.3634C27.7273 10.3802 27.7369 10.3975 27.7458 10.4154C27.7564 10.4368 27.766 10.4589 27.7745 10.4818C27.7861 10.5131 27.7958 10.5457 27.8032 10.5797ZM31.3734 3.04L31.3734 17.9734C31.3734 18.0626 31.3693 18.1508 31.3617 18.2381C31.355 18.3148 31.3453 18.3908 31.333 18.4658C31.3246 18.5161 31.3151 18.5661 31.3043 18.6156C31.2955 18.6558 31.2859 18.6958 31.2756 18.7355C31.2666 18.7697 31.257 18.8036 31.2469 18.8374C31.2377 18.8678 31.2282 18.8982 31.2182 18.9283C31.209 18.9555 31.1994 18.9826 31.1895 19.0095C31.1802 19.0346 31.1706 19.0595 31.1608 19.0842C31.1515 19.1075 31.1419 19.1305 31.1321 19.1535C31.1228 19.1752 31.1132 19.1969 31.1034 19.2183C31.094 19.2388 31.0845 19.2592 31.0747 19.2793C31.0653 19.2987 31.0557 19.318 31.046 19.3371C31.0366 19.3554 31.027 19.3737 31.0173 19.3918C31.0079 19.4092 30.9983 19.4264 30.9886 19.4436C30.9792 19.4603 30.9696 19.4768 30.9599 19.4932C30.9504 19.5092 30.9409 19.5252 30.9312 19.541C30.9217 19.5564 30.9122 19.5717 30.9025 19.5869C30.8931 19.6017 30.8834 19.6163 30.8738 19.6308C30.8643 19.645 30.8547 19.6589 30.8451 19.673C30.8356 19.6867 30.826 19.7004 30.8164 19.714C30.8069 19.7272 30.7974 19.7404 30.7877 19.7535C30.7782 19.7662 30.7686 19.7788 30.759 19.7914C30.7495 19.8038 30.7399 19.8162 30.7303 19.8284C30.7208 19.8404 30.7113 19.8524 30.7016 19.8642C30.6921 19.8758 30.6825 19.8873 30.6729 19.8987C30.6633 19.9101 30.6539 19.9214 30.6442 19.9326C30.6347 19.9435 30.6251 19.9543 30.6155 19.9651C30.606 19.9757 30.5964 19.9863 30.5868 19.9968C30.5773 20.0072 30.5678 20.0176 30.5581 20.0278C30.5486 20.0378 30.539 20.0477 30.5294 20.0576C30.5198 20.0674 30.5104 20.0773 30.5007 20.087C30.4912 20.0965 30.4816 20.1058 30.472 20.1152C30.4625 20.1245 30.4529 20.1338 30.4433 20.143C30.4338 20.152 30.4242 20.1609 30.4146 20.1698C30.4051 20.1786 30.3955 20.1874 30.3859 20.196C30.3764 20.2046 30.3668 20.2131 30.3572 20.2216C30.3477 20.23 30.3381 20.2382 30.3285 20.2465C30.319 20.2546 30.3094 20.2628 30.2998 20.2708C30.2903 20.2788 30.2807 20.2866 30.2711 20.2944C30.2616 20.3022 30.252 20.3099 30.2424 20.3176C30.2329 20.3251 30.2233 20.3325 30.2137 20.34C30.2042 20.3473 30.1946 20.3547 30.185 20.362C30.1755 20.3692 30.1659 20.3762 30.1563 20.3833C30.1467 20.3903 30.1372 20.3974 30.1276 20.4044C30.1181 20.4112 30.1085 20.4178 30.0989 20.4245C30.0893 20.4312 30.0798 20.438 30.0702 20.4445C30.0607 20.451 30.0511 20.4574 30.0415 20.4638C30.032 20.4701 30.0224 20.4765 30.0128 20.4828C30.0033 20.489 29.9937 20.495 29.9841 20.5011C29.9746 20.5071 29.965 20.5132 29.9554 20.5191C29.9459 20.525 29.9363 20.5308 29.9267 20.5366L29.898 20.5536C29.8885 20.5592 29.8789 20.5648 29.8693 20.5703C29.8598 20.5758 29.8502 20.5811 29.8406 20.5864C29.8311 20.5918 29.8215 20.5971 29.8119 20.6024C29.8024 20.6075 29.7928 20.6125 29.7832 20.6176C29.7736 20.6226 29.7641 20.6278 29.7545 20.6328C29.745 20.6377 29.7354 20.6423 29.7258 20.6471C29.7163 20.652 29.7067 20.6568 29.6971 20.6615C29.6876 20.6661 29.678 20.6706 29.6684 20.6752L29.6397 20.6887L29.611 20.7017C29.6015 20.706 29.5919 20.7102 29.5823 20.7143C29.5728 20.7185 29.5632 20.7228 29.5536 20.7268C29.5441 20.7309 29.5345 20.7347 29.5249 20.7386C29.5154 20.7425 29.5058 20.7466 29.4962 20.7504C29.4867 20.7542 29.4771 20.7578 29.4675 20.7615C29.458 20.7652 29.4484 20.7689 29.4388 20.7724L29.4101 20.7831C29.4006 20.7865 29.391 20.7899 29.3814 20.7932C29.3719 20.7966 29.3624 20.8001 29.3527 20.8034C29.3432 20.8066 29.3336 20.8096 29.324 20.8127L29.2953 20.8221C29.2858 20.8251 29.2762 20.828 29.2666 20.831L29.2379 20.8395C29.2284 20.8424 29.2188 20.8452 29.2092 20.848C29.1997 20.8507 29.1901 20.8532 29.1805 20.8558C29.171 20.8584 29.1614 20.8611 29.1518 20.8636L29.1231 20.8708L29.0944 20.8779L29.0658 20.8847C29.0562 20.8869 29.0466 20.8889 29.037 20.891C29.0275 20.8931 29.0179 20.8953 29.0083 20.8973L28.9796 20.9031L28.9509 20.9086C28.9414 20.9104 28.9318 20.9123 28.9223 20.914C28.9127 20.9157 28.9031 20.9172 28.8935 20.9188L28.8649 20.9236L28.8361 20.9279L28.8075 20.9319C28.7979 20.9332 28.7884 20.9347 28.7787 20.936C28.7692 20.9372 28.7596 20.9381 28.7501 20.9393C28.7405 20.9404 28.7309 20.9415 28.7214 20.9426C28.7118 20.9436 28.7023 20.9446 28.6927 20.9456C28.6831 20.9465 28.6735 20.9473 28.664 20.9481C28.6544 20.949 28.6448 20.9499 28.6352 20.9507C28.6257 20.9514 28.6161 20.952 28.6066 20.9527L28.5779 20.9545C28.5683 20.9551 28.5588 20.9558 28.5492 20.9562C28.5396 20.9567 28.53 20.957 28.5205 20.9573L28.4918 20.9584L28.4631 20.9592C28.4535 20.9594 28.4439 20.9594 28.4344 20.9596L28.3997 20.96H24.0389V14.8712H28.6505L28.6927 14.8708L28.7214 14.8702C28.7309 14.87 28.7405 14.8698 28.7501 14.8695C28.7597 14.8691 28.7692 14.8687 28.7787 14.8683L28.8075 14.8669L28.8361 14.8652L28.8649 14.8632L28.8935 14.861L28.9223 14.8583C28.9318 14.8574 28.9414 14.8565 28.9509 14.8555C28.9605 14.8545 28.9701 14.8534 28.9796 14.8522L29.0083 14.8487C29.0179 14.8475 29.0275 14.8463 29.037 14.8449C29.0467 14.8436 29.0562 14.8421 29.0658 14.8407C29.0753 14.8392 29.0849 14.8378 29.0944 14.8362L29.1231 14.8314L29.1518 14.8262C29.1614 14.8244 29.171 14.8227 29.1805 14.8208C29.1902 14.8189 29.1997 14.8168 29.2092 14.8148L29.2379 14.8086C29.2475 14.8064 29.2571 14.8043 29.2666 14.802C29.2763 14.7998 29.2858 14.7973 29.2953 14.795C29.3049 14.7926 29.3145 14.7901 29.324 14.7876C29.3336 14.7851 29.3432 14.7825 29.3527 14.7799C29.3623 14.7772 29.3719 14.7745 29.3814 14.7717C29.391 14.7689 29.4006 14.766 29.4101 14.7631L29.4388 14.7541C29.4485 14.751 29.458 14.7478 29.4675 14.7446C29.4771 14.7413 29.4867 14.7381 29.4962 14.7347C29.5058 14.7313 29.5154 14.7279 29.5249 14.7244C29.5346 14.7208 29.5441 14.7171 29.5536 14.7134C29.5632 14.7097 29.5728 14.7059 29.5823 14.7021C29.5919 14.6982 29.6015 14.6943 29.611 14.6903C29.6207 14.6862 29.6302 14.6821 29.6397 14.6779C29.6493 14.6736 29.6589 14.6693 29.6684 14.6649C29.678 14.6604 29.6876 14.656 29.6971 14.6514C29.7067 14.6468 29.7163 14.6421 29.7258 14.6374C29.7355 14.6325 29.745 14.6276 29.7545 14.6226C29.7641 14.6176 29.7737 14.6124 29.7832 14.6072C29.7929 14.6019 29.8024 14.5966 29.8119 14.5912C29.8216 14.5857 29.8311 14.5801 29.8406 14.5744C29.8502 14.5687 29.8599 14.5629 29.8693 14.557C29.879 14.551 29.8885 14.5449 29.898 14.5387C29.9077 14.5324 29.9172 14.526 29.9267 14.5195C29.9364 14.5129 29.9459 14.5062 29.9554 14.4995C29.9651 14.4926 29.9746 14.4856 29.9841 14.4785C29.9938 14.4713 30.0034 14.464 30.0128 14.4566C30.0225 14.449 30.0321 14.4413 30.0415 14.4336C30.0512 14.4256 30.0608 14.4176 30.0702 14.4094C30.0799 14.401 30.0895 14.3925 30.0989 14.384C30.1086 14.3751 30.1182 14.3662 30.1276 14.3572C30.1373 14.3478 30.1469 14.3384 30.1563 14.3288C30.1661 14.3189 30.1756 14.309 30.185 14.2988C30.1947 14.2884 30.2043 14.2777 30.2137 14.267C30.2234 14.2558 30.233 14.2445 30.2424 14.2331C30.2522 14.2212 30.2617 14.2091 30.2711 14.1969C30.2809 14.1841 30.2905 14.1712 30.2998 14.1581C30.3097 14.1442 30.3192 14.13 30.3285 14.1157C30.3384 14.1006 30.3479 14.0852 30.3572 14.0697C30.3671 14.053 30.3767 14.0361 30.3859 14.0189C30.3959 14.0002 30.4055 13.9814 30.4146 13.9622C30.4248 13.9408 30.4343 13.919 30.4433 13.8969C30.4536 13.8716 30.4632 13.8459 30.472 13.8198C30.4828 13.7876 30.4923 13.7547 30.5007 13.7213C30.5129 13.6724 30.5225 13.6223 30.5294 13.5709C30.5377 13.5086 30.5421 13.4445 30.5421 13.3787C30.5421 13.3146 30.5378 13.2523 30.5294 13.1918C30.5225 13.1422 30.5129 13.0937 30.5007 13.0466C30.4923 13.0145 30.4827 12.9829 30.472 12.952C30.4632 12.9267 30.4536 12.9017 30.4433 12.8772C30.4343 12.8559 30.4247 12.835 30.4146 12.8144C30.4055 12.7959 30.3959 12.7776 30.3859 12.7596C30.3767 12.743 30.3671 12.7266 30.3572 12.7105C30.348 12.6955 30.3384 12.6807 30.3285 12.6662C30.3192 12.6524 30.3096 12.6387 30.2998 12.6253C30.2905 12.6127 30.2809 12.6002 30.2711 12.5879C30.2617 12.5761 30.2522 12.5644 30.2424 12.5529C30.233 12.5419 30.2235 12.5309 30.2137 12.5202C30.2043 12.5098 30.1948 12.4995 30.185 12.4894C30.1756 12.4797 30.166 12.4701 30.1563 12.4606C30.1469 12.4514 30.1373 12.4423 30.1276 12.4333C30.1182 12.4245 30.1086 12.4159 30.0989 12.4074C30.0895 12.3992 30.0799 12.391 30.0702 12.3829C30.0608 12.375 30.0512 12.3672 30.0415 12.3595C30.032 12.352 30.0225 12.3446 30.0128 12.3373C30.0033 12.3301 29.9938 12.3231 29.9841 12.3161C29.9746 12.3092 29.9651 12.3025 29.9554 12.2958C29.9459 12.2893 29.9364 12.2828 29.9267 12.2764C29.9172 12.2702 29.9077 12.264 29.898 12.2579C29.8885 12.2519 29.879 12.246 29.8693 12.2401C29.8599 12.2344 29.8503 12.2288 29.8406 12.2232C29.8311 12.2178 29.8216 12.2124 29.8119 12.207C29.8024 12.2018 29.7929 12.1966 29.7832 12.1915C29.7737 12.1865 29.7641 12.1815 29.7545 12.1766C29.745 12.1718 29.7355 12.167 29.7258 12.1623C29.7163 12.1576 29.7068 12.153 29.6971 12.1485C29.6876 12.144 29.678 12.1397 29.6684 12.1354C29.6589 12.1312 29.6493 12.127 29.6397 12.1229C29.6302 12.1188 29.6206 12.1148 29.611 12.1108C29.6015 12.1069 29.592 12.103 29.5823 12.0992C29.5728 12.0954 29.5632 12.0917 29.5536 12.0881C29.5441 12.0845 29.5345 12.081 29.5249 12.0775C29.5154 12.0741 29.5058 12.0707 29.4962 12.0674C29.4867 12.0641 29.4772 12.0608 29.4675 12.0576C29.458 12.0545 29.4484 12.0514 29.4388 12.0484C29.4293 12.0453 29.4197 12.0424 29.4101 12.0395L29.3814 12.0311C29.3719 12.0283 29.3623 12.0256 29.3527 12.023C29.3432 12.0204 29.3336 12.0178 29.324 12.0154C29.3145 12.0129 29.3049 12.0105 29.2953 12.0081C29.2858 12.0057 29.2762 12.0034 29.2666 12.0011C29.2571 11.9989 29.2475 11.9967 29.2379 11.9946C29.2284 11.9925 29.2188 11.9904 29.2092 11.9884C29.1997 11.9864 29.1902 11.9844 29.1805 11.9825L29.1518 11.977L29.1231 11.9719C29.1136 11.9702 29.104 11.9685 29.0944 11.967L29.0658 11.9624C29.0562 11.961 29.0466 11.9596 29.037 11.9583L29.0083 11.9543L28.9796 11.9507L28.9509 11.9475L28.9223 11.9444L28.8935 11.9417L28.8649 11.9393L28.8384 11.9373L28.8383 11.9027L28.8649 11.8986L28.8935 11.8938C28.9031 11.8922 28.9127 11.8905 28.9223 11.8888L28.9509 11.8833C28.9606 11.8813 28.9701 11.8794 28.9796 11.8773L29.0083 11.871C29.0179 11.8689 29.0276 11.8667 29.037 11.8644C29.0467 11.862 29.0562 11.8596 29.0658 11.8572C29.0754 11.8547 29.0849 11.8521 29.0944 11.8495C29.104 11.8469 29.1136 11.8442 29.1231 11.8415C29.1328 11.8387 29.1423 11.8359 29.1518 11.833C29.1614 11.8301 29.1711 11.8271 29.1805 11.8241C29.1902 11.8209 29.1997 11.8177 29.2092 11.8145C29.2189 11.8112 29.2284 11.8079 29.2379 11.8045C29.2476 11.801 29.2571 11.7976 29.2666 11.794C29.2763 11.7903 29.2858 11.7867 29.2953 11.7829C29.305 11.7791 29.3145 11.7752 29.324 11.7713C29.3337 11.7673 29.3432 11.7632 29.3527 11.759C29.3624 11.7548 29.3719 11.7505 29.3814 11.7461C29.3911 11.7417 29.4006 11.7372 29.4101 11.7326C29.4198 11.7279 29.4293 11.7232 29.4388 11.7184C29.4485 11.7135 29.4581 11.7085 29.4675 11.7035C29.4772 11.6983 29.4868 11.6931 29.4962 11.6878C29.5059 11.6824 29.5155 11.6769 29.5249 11.6714C29.5346 11.6657 29.5442 11.66 29.5536 11.6542C29.5633 11.6482 29.5728 11.6422 29.5823 11.6361C29.592 11.6298 29.6016 11.6235 29.611 11.617C29.6207 11.6105 29.6303 11.6038 29.6397 11.597C29.6494 11.5901 29.659 11.5831 29.6684 11.576C29.6781 11.5687 29.6877 11.5614 29.6971 11.5539C29.7068 11.5462 29.7164 11.5384 29.7258 11.5306C29.7355 11.5224 29.7451 11.5142 29.7545 11.5059C29.7643 11.4973 29.7738 11.4885 29.7832 11.4797C29.7929 11.4706 29.8025 11.4614 29.8119 11.4521C29.8217 11.4424 29.8312 11.4327 29.8406 11.4228C29.8504 11.4125 29.8599 11.4021 29.8693 11.3915C29.8791 11.3805 29.8887 11.3694 29.898 11.3581C29.9078 11.3463 29.9174 11.3344 29.9267 11.3223C29.9365 11.3096 29.9461 11.2967 29.9554 11.2836C29.9653 11.2698 29.9748 11.2558 29.9841 11.2416C29.994 11.2265 30.0036 11.2113 30.0128 11.1958C30.0228 11.1791 30.0324 11.1622 30.0415 11.145C30.0516 11.1262 30.0611 11.1071 30.0702 11.0878C30.0804 11.0661 30.09 11.0441 30.0989 11.0219C30.1093 10.996 30.1189 10.9697 30.1276 10.9432C30.1385 10.9097 30.1481 10.8758 30.1563 10.8414C30.1695 10.7855 30.1791 10.7286 30.185 10.6706C30.1897 10.6249 30.1921 10.5785 30.1921 10.5317C30.1921 10.4823 30.1896 10.4341 30.185 10.3871C30.1791 10.327 30.1695 10.269 30.1563 10.213C30.1481 10.178 30.1385 10.1438 30.1276 10.1105C30.1189 10.0838 30.1093 10.0576 30.0989 10.032C30.0899 10.0099 30.0804 9.98814 30.0702 9.96683C30.0611 9.94781 30.0515 9.9291 30.0415 9.91071C30.0323 9.89386 30.0227 9.87728 30.0128 9.86094C30.0035 9.84577 29.994 9.83081 29.9841 9.81609C29.9748 9.80231 29.9653 9.78874 29.9554 9.77536C29.9461 9.76269 29.9365 9.7502 29.9267 9.73789C29.9173 9.72614 29.9078 9.7145 29.898 9.70306C29.8887 9.69219 29.8791 9.68151 29.8693 9.67092C29.8599 9.66074 29.8504 9.65071 29.8406 9.64079C29.8312 9.63124 29.8217 9.62182 29.8119 9.61253C29.8025 9.60352 29.7929 9.59461 29.7832 9.58587C29.7738 9.57738 29.7642 9.569 29.7545 9.56073C29.7451 9.5527 29.7355 9.54477 29.7258 9.53696C29.7164 9.52936 29.7068 9.52183 29.6971 9.51445C29.6877 9.50723 29.6781 9.50014 29.6684 9.49314C29.659 9.48628 29.6494 9.47954 29.6397 9.47288C29.6302 9.46638 29.6207 9.45997 29.611 9.45364C29.6016 9.44743 29.592 9.44131 29.5823 9.43529C29.5728 9.42939 29.5633 9.42358 29.5536 9.41785C29.5441 9.41221 29.5346 9.40667 29.5249 9.4012C29.5155 9.39582 29.5059 9.39052 29.4962 9.38531C29.4867 9.38017 29.4772 9.37515 29.4675 9.37016C29.458 9.36526 29.4485 9.36044 29.4388 9.35568C29.4293 9.351 29.4198 9.34634 29.4101 9.34183C29.4006 9.33736 29.3911 9.33294 29.3814 9.32864C29.3719 9.32438 29.3624 9.32027 29.3527 9.31614C29.3432 9.31208 29.3336 9.30809 29.324 9.30415C29.3145 9.30028 29.3049 9.29645 29.2953 9.2927C29.2858 9.289 29.2763 9.28532 29.2666 9.28173C29.2571 9.2782 29.2476 9.27473 29.2379 9.27132C29.2284 9.26795 29.2189 9.26468 29.2092 9.26143C29.1997 9.25822 29.1902 9.25509 29.1805 9.25201C29.171 9.24895 29.1615 9.24594 29.1518 9.24301C29.1423 9.24009 29.1328 9.23717 29.1231 9.23438C29.1136 9.23163 29.104 9.22898 29.0944 9.22635C29.0849 9.22372 29.0754 9.22119 29.0658 9.21868L29.037 9.21135C29.0275 9.20898 29.018 9.20667 29.0083 9.20442C28.9988 9.2022 28.9893 9.20005 28.9796 9.19794L28.9509 9.1918C28.9414 9.18982 28.9319 9.18781 28.9223 9.18595C28.9127 9.18409 28.9031 9.18237 28.8935 9.1806L28.8649 9.17553C28.8553 9.17391 28.8458 9.17226 28.8361 9.17073L28.8075 9.16636L28.7787 9.1623L28.7501 9.15847L28.7214 9.15506L28.6927 9.15195L28.664 9.14906L28.6352 9.14653L28.6066 9.1443L28.5779 9.14225L28.5378 9.13996L28.5205 9.13888L28.4918 9.13718L28.4631 9.13558L28.4344 9.13408L28.4057 9.13269L28.377 9.13145L28.3483 9.1304L28.3196 9.12951L28.2909 9.12887L28.2622 9.12849L28.2463 9.12844H24.0389V6.02691C24.0389 5.81826 24.0603 5.61465 24.1008 5.41806C24.1095 5.37596 24.1191 5.33422 24.1295 5.29281C24.1385 5.25738 24.1481 5.22221 24.1582 5.1873C24.1673 5.15612 24.1769 5.12516 24.1869 5.09441C24.1961 5.06631 24.2056 5.03836 24.2156 5.01064C24.2249 4.98493 24.2344 4.95937 24.2443 4.93399C24.2536 4.91029 24.2632 4.88671 24.273 4.86332C24.2824 4.84124 24.2919 4.81926 24.3017 4.79745C24.311 4.77673 24.3207 4.75616 24.3304 4.73571C24.3398 4.71619 24.3494 4.69681 24.3591 4.67753C24.3685 4.65899 24.3781 4.64059 24.3878 4.62227C24.3972 4.60461 24.4068 4.58707 24.4165 4.56963C24.4259 4.55271 24.4355 4.53594 24.4452 4.51924C24.4547 4.50304 24.4642 4.48691 24.4739 4.47093C24.4834 4.45542 24.4929 4.44004 24.5026 4.42472C24.512 4.40988 24.5216 4.39519 24.5313 4.38054C24.5408 4.36621 24.5503 4.35192 24.56 4.33775C24.5695 4.32387 24.579 4.30999 24.5887 4.29627C24.5981 4.28299 24.6078 4.26987 24.6174 4.25676C24.6269 4.24385 24.6365 4.23105 24.6461 4.21831C24.6556 4.20577 24.6651 4.19318 24.6748 4.1808C24.6842 4.16876 24.6939 4.15691 24.7035 4.14501C24.713 4.13328 24.7225 4.12164 24.7322 4.11008C24.7417 4.09866 24.7512 4.08724 24.7609 4.07596C24.7704 4.06497 24.78 4.05417 24.7896 4.04332C24.7991 4.03257 24.8086 4.0218 24.8183 4.01119C24.8278 4.00079 24.8374 3.9905 24.847 3.98022C24.8565 3.97009 24.8661 3.96003 24.8757 3.95002C24.8852 3.94016 24.8947 3.93029 24.9044 3.92054C24.9139 3.91096 24.9235 3.90152 24.9331 3.89208C24.9426 3.88269 24.9521 3.87321 24.9618 3.86396C24.9713 3.85491 24.9809 3.84607 24.9905 3.83713C25 3.82824 25.0095 3.81933 25.0192 3.81056C25.0287 3.80194 25.0383 3.79348 25.0479 3.785C25.0574 3.77656 25.067 3.76813 25.0766 3.75981C25.0861 3.75162 25.0957 3.74354 25.1053 3.73547C25.1148 3.72746 25.1244 3.71948 25.134 3.7116C25.1435 3.70378 25.1531 3.69607 25.1627 3.6884L25.1914 3.66572L25.2201 3.64365C25.2296 3.63641 25.2392 3.62922 25.2488 3.6221C25.2583 3.61505 25.2679 3.60802 25.2775 3.60107L25.3062 3.5806C25.3157 3.57388 25.3253 3.56721 25.3349 3.56062L25.3636 3.5411L25.3923 3.52211C25.4018 3.51587 25.4114 3.50966 25.421 3.50354L25.4497 3.48553C25.4593 3.47958 25.4688 3.47363 25.4784 3.4678C25.4879 3.46202 25.4975 3.4564 25.5071 3.45074C25.5166 3.44508 25.5261 3.43937 25.5358 3.43382C25.5453 3.42835 25.5549 3.42307 25.5645 3.41769C25.574 3.41232 25.5835 3.40685 25.5932 3.40159C25.6027 3.39641 25.6123 3.39139 25.6219 3.3863C25.6314 3.38121 25.641 3.3761 25.6506 3.3711C25.6601 3.36616 25.6697 3.36136 25.6793 3.35653C25.6888 3.35173 25.6984 3.3469 25.708 3.34219L25.7367 3.32826C25.7462 3.3237 25.7558 3.31926 25.7654 3.31479C25.7749 3.31034 25.7845 3.30583 25.7941 3.30148C25.8036 3.29718 25.8132 3.29307 25.8228 3.28887C25.8323 3.28466 25.8419 3.28038 25.8515 3.27627C25.861 3.27221 25.8706 3.26834 25.8802 3.26438C25.8897 3.26043 25.8992 3.25644 25.9089 3.2526L25.9376 3.24125L25.9663 3.23028C25.9758 3.22665 25.9853 3.22297 25.995 3.21946C26.0045 3.21597 26.0141 3.2127 26.0236 3.2093C26.0332 3.20591 26.0427 3.20245 26.0524 3.19915C26.0619 3.19588 26.0715 3.19279 26.081 3.18962L26.1098 3.18027C26.1193 3.17722 26.1289 3.17413 26.1385 3.17117C26.148 3.16823 26.1576 3.16546 26.1671 3.16262C26.1767 3.15975 26.1862 3.15679 26.1959 3.15404C26.2054 3.15132 26.215 3.14878 26.2245 3.14615C26.2341 3.14353 26.2436 3.14087 26.2533 3.13834L26.2819 3.13089C26.2915 3.12847 26.3011 3.12618 26.3106 3.12386C26.3202 3.12155 26.3297 3.11906 26.3393 3.11684C26.3489 3.11464 26.3585 3.11263 26.368 3.11051L26.3967 3.10422L26.4254 3.09827C26.435 3.09636 26.4446 3.09457 26.4541 3.09275C26.4637 3.09091 26.4732 3.08896 26.4828 3.08721C26.4924 3.08547 26.502 3.08399 26.5115 3.08236L26.5402 3.07758C26.5498 3.07605 26.5594 3.07448 26.5689 3.07304C26.5785 3.07161 26.5881 3.07034 26.5976 3.06901C26.6072 3.06767 26.6167 3.06621 26.6263 3.06497C26.6359 3.06373 26.6455 3.06263 26.655 3.06148L26.6837 3.05818C26.6933 3.05713 26.7028 3.05596 26.7124 3.055C26.722 3.05405 26.7316 3.05331 26.7411 3.05245L26.7698 3.04989L26.7985 3.04772C26.8081 3.04702 26.8177 3.04648 26.8272 3.04588C26.8368 3.0453 26.8463 3.04456 26.8559 3.04406C26.8655 3.04356 26.8751 3.04327 26.8846 3.04287L26.9133 3.04179C26.9229 3.04148 26.9324 3.04107 26.942 3.04086C26.9516 3.04065 26.9612 3.04062 26.9707 3.04048C26.9803 3.04033 26.9898 3.04017 26.9994 3.04012L27.0066 3.04002L31.3734 3.04Z" fill="#479951"/>
<path fill-rule="evenodd" clip-rule="evenodd" d="M7.6881 13.4326C7.66757 13.4228 7.64707 13.413 7.62656 13.403V6.02689C7.62656 5.81883 7.64778 5.61575 7.6881 5.41968C7.69676 5.37758 7.70637 5.33587 7.71676 5.29444C7.72566 5.25896 7.73524 5.22376 7.7454 5.18881C7.75446 5.15765 7.76402 5.12673 7.77404 5.09601C7.78322 5.06789 7.79271 5.03989 7.8027 5.01212C7.81195 4.98644 7.82142 4.9609 7.83134 4.93555C7.84059 4.91184 7.85015 4.88822 7.86 4.8648C7.8693 4.84272 7.87884 4.82079 7.88864 4.799C7.89796 4.77828 7.90752 4.75774 7.91728 4.73729C7.9266 4.71774 7.93621 4.69834 7.94594 4.67903C7.95529 4.66049 7.96485 4.6421 7.97458 4.6238C7.98395 4.60614 7.99351 4.5886 8.00322 4.57116C8.01261 4.55427 8.02215 4.53747 8.03188 4.52079C8.0413 4.50459 8.05079 4.48844 8.06052 4.47243C8.06994 4.45695 8.0795 4.44159 8.08918 4.4263C8.09855 4.41148 8.10818 4.39677 8.11782 4.38212C8.12726 4.36779 8.13678 4.3535 8.14646 4.33933C8.15597 4.32542 8.16539 4.31154 8.17512 4.2978C8.18451 4.28454 8.19415 4.27145 8.20376 4.25833C8.21322 4.24543 8.22276 4.23262 8.23242 4.21989C8.24191 4.20737 8.25138 4.19476 8.26106 4.18238C8.27048 4.17036 8.28011 4.15853 8.2897 4.14666C8.29916 4.13493 8.3087 4.12324 8.31836 4.11166C8.32785 4.10026 8.33734 4.08889 8.347 4.07763C8.35644 4.06662 8.36605 4.0558 8.37566 4.04492C8.38515 4.03415 8.39464 4.0234 8.4043 4.01279C8.41374 4.0024 8.42335 3.99215 8.43294 3.9819C8.44243 3.97174 8.45197 3.96168 8.4616 3.95167C8.47109 3.9418 8.4806 3.93194 8.49024 3.92219C8.4997 3.91261 8.50931 3.90317 8.5189 3.89373C8.52844 3.88434 8.53788 3.87488 8.54754 3.86563C8.55698 3.85658 8.56662 3.84774 8.57618 3.8388C8.58572 3.82989 8.59518 3.82095 8.60484 3.81219C8.61431 3.80358 8.62392 3.79515 8.63348 3.78667C8.64302 3.77823 8.65251 3.76978 8.66214 3.76146C8.67163 3.75327 8.68119 3.74521 8.69078 3.73714C8.70027 3.72914 8.70981 3.72113 8.71942 3.71325C8.72891 3.70546 8.73849 3.69774 8.74808 3.69005C8.75759 3.68243 8.76711 3.67488 8.77672 3.66737C8.78621 3.65994 8.79579 3.65261 8.80538 3.6453C8.81489 3.63806 8.82443 3.63084 8.83402 3.62372L8.86266 3.60274C8.87217 3.59584 8.88171 3.58898 8.89132 3.5822C8.90081 3.57548 8.91037 3.56884 8.91996 3.56225C8.92947 3.55567 8.93901 3.54915 8.9486 3.5427C8.95811 3.53632 8.96767 3.53004 8.97726 3.52375C8.98677 3.51752 8.99629 3.51123 9.0059 3.50509C9.01539 3.49903 9.02497 3.4931 9.03456 3.48713C9.0441 3.48118 9.05359 3.47516 9.0632 3.46933C9.07266 3.46357 9.08228 3.45798 9.09184 3.45232C9.1014 3.44665 9.11087 3.44089 9.1205 3.43533C9.12997 3.42986 9.1396 3.42462 9.14914 3.41925C9.1587 3.41387 9.16819 3.40842 9.1778 3.40314C9.18729 3.39794 9.19688 3.39292 9.20644 3.38783C9.21598 3.38274 9.22549 3.37763 9.23508 3.37263C9.24459 3.36769 9.25415 3.36284 9.26374 3.35799L9.29238 3.3437C9.30192 3.33899 9.31145 3.33429 9.32104 3.3297C9.33055 3.32513 9.34012 3.32071 9.34968 3.31625C9.35924 3.31178 9.36871 3.30722 9.37832 3.30287C9.38781 3.29854 9.39742 3.29448 9.40698 3.29028C9.41652 3.28607 9.42603 3.28179 9.43562 3.27768C9.44513 3.27362 9.45472 3.2697 9.46428 3.26574L9.49292 3.25398L9.52156 3.24256L9.55022 3.23162C9.55978 3.22799 9.56925 3.22424 9.57886 3.2207C9.58835 3.21721 9.59798 3.21396 9.60752 3.21057C9.61706 3.20718 9.62657 3.20374 9.63616 3.20044L9.6648 3.19081L9.69346 3.18147C9.703 3.17841 9.71251 3.17528 9.7221 3.17232C9.73159 3.16938 9.7412 3.16658 9.75074 3.16374C9.7603 3.16087 9.76981 3.15796 9.7794 3.15519C9.78891 3.15244 9.79848 3.14988 9.80804 3.14723L9.8367 3.13942C9.84624 3.13688 9.85575 3.1343 9.86534 3.13187C9.87485 3.12943 9.88444 3.12721 9.89398 3.12487C9.90352 3.12253 9.91305 3.12009 9.92264 3.11784C9.93215 3.11562 9.94174 3.11354 9.95128 3.11141L9.97994 3.10516C9.98948 3.1031 9.99899 3.10102 10.0086 3.09909C10.0181 3.09718 10.0277 3.09541 10.0372 3.09357C10.0468 3.09173 10.0563 3.08982 10.0659 3.08807C10.0754 3.08633 10.085 3.08475 10.0945 3.0831L10.1232 3.07832C10.1327 3.07679 10.1422 3.07515 10.1518 3.07369C10.1613 3.07223 10.1709 3.07101 10.1805 3.06965C10.19 3.06831 10.1995 3.06688 10.2091 3.06561L10.2378 3.06201L10.2664 3.05873C10.276 3.05766 10.2855 3.05641 10.2951 3.05543C10.3046 3.05446 10.3142 3.05374 10.3237 3.05285L10.3524 3.05032C10.3619 3.04951 10.3714 3.04872 10.381 3.04803C10.3905 3.04734 10.4001 3.04679 10.4097 3.04619C10.4192 3.04559 10.4287 3.0449 10.4383 3.04437C10.4478 3.04385 10.4574 3.04349 10.4669 3.04306L10.4956 3.04196C10.5051 3.04163 10.5147 3.04112 10.5242 3.04088C10.5338 3.04065 10.5433 3.04067 10.5529 3.04053C10.5624 3.04038 10.572 3.04022 10.5815 3.04017L10.5943 3.04H14.9603V17.9734C14.9603 18.1033 14.952 18.2312 14.936 18.3568C14.9283 18.4172 14.9186 18.477 14.9074 18.5363C14.8988 18.5813 14.8893 18.626 14.8787 18.6704C14.8698 18.7077 14.8603 18.7448 14.8501 18.7816C14.841 18.8139 14.8315 18.8459 14.8214 18.8777C14.8123 18.9065 14.8027 18.9351 14.7928 18.9636C14.7836 18.9899 14.774 19.016 14.7641 19.042C14.7549 19.0662 14.7453 19.0903 14.7355 19.1143C14.7262 19.1368 14.7166 19.1592 14.7068 19.1815C14.6975 19.2026 14.688 19.2236 14.6782 19.2445C14.6689 19.2644 14.6593 19.2841 14.6495 19.3038C14.6402 19.3227 14.6306 19.3414 14.6209 19.3601C14.6115 19.378 14.602 19.3958 14.5922 19.4136C14.5828 19.4307 14.5734 19.4478 14.5636 19.4648C14.5542 19.4811 14.5446 19.4973 14.5349 19.5135C14.5256 19.5291 14.516 19.5446 14.5063 19.56C14.4969 19.5751 14.4873 19.5901 14.4776 19.605C14.4682 19.6195 14.4587 19.634 14.449 19.6484C14.4396 19.6623 14.43 19.6762 14.4204 19.6899C14.4109 19.7034 14.4014 19.7167 14.3917 19.73C14.3822 19.7431 14.3727 19.7561 14.3631 19.769C14.3536 19.7816 14.3441 19.7941 14.3344 19.8066C14.325 19.8187 14.3154 19.8308 14.3058 19.8428C14.2963 19.8547 14.2868 19.8666 14.2771 19.8783C14.2677 19.8897 14.2581 19.901 14.2485 19.9123C14.239 19.9234 14.2295 19.9345 14.2198 19.9455C14.2103 19.9563 14.2008 19.9672 14.1912 19.9779C14.1817 19.9884 14.1721 19.9987 14.1625 20.009C14.153 20.0193 14.1435 20.0295 14.1339 20.0396C14.1244 20.0495 14.1148 20.0593 14.1052 20.0691C14.0957 20.0788 14.0862 20.0884 14.0766 20.098C14.0671 20.1074 14.0576 20.1168 14.0479 20.1261C14.0385 20.1352 14.0289 20.1443 14.0193 20.1533C14.0098 20.1622 14.0003 20.1712 13.9906 20.1801C13.9812 20.1887 13.9716 20.1973 13.962 20.2058C13.9524 20.2143 13.943 20.2229 13.9333 20.2313C13.9239 20.2395 13.9142 20.2475 13.9047 20.2557C13.8952 20.2638 13.8857 20.2719 13.876 20.2799C13.8666 20.2878 13.857 20.2954 13.8474 20.3031C13.8379 20.3108 13.8284 20.3186 13.8187 20.3262C13.8093 20.3336 13.7997 20.3409 13.7901 20.3482C13.7806 20.3555 13.7711 20.3629 13.7615 20.3701C13.752 20.3772 13.7424 20.3841 13.7328 20.3911C13.7233 20.398 13.7138 20.405 13.7042 20.4119C13.6947 20.4186 13.6851 20.4252 13.6755 20.4319C13.666 20.4385 13.6565 20.4452 13.6469 20.4517C13.6374 20.4581 13.6278 20.4644 13.6182 20.4707C13.6087 20.477 13.5992 20.4834 13.5896 20.4896C13.5801 20.4957 13.5705 20.5016 13.5609 20.5076C13.5514 20.5136 13.5419 20.5197 13.5323 20.5255C13.5228 20.5313 13.5132 20.537 13.5036 20.5427C13.4941 20.5484 13.4846 20.5541 13.475 20.5597C13.4655 20.5652 13.4559 20.5706 13.4463 20.576C13.4368 20.5814 13.4273 20.5868 13.4177 20.5921C13.4082 20.5974 13.3986 20.6026 13.389 20.6077L13.3604 20.6229C13.3508 20.6279 13.3413 20.6329 13.3317 20.6378C13.3222 20.6426 13.3127 20.6473 13.3031 20.6521C13.2935 20.6568 13.284 20.6617 13.2744 20.6663C13.2649 20.6709 13.2553 20.6753 13.2458 20.6798C13.2362 20.6843 13.2267 20.6888 13.2171 20.6932C13.2076 20.6976 13.198 20.7017 13.1885 20.706L13.1598 20.7186L13.1312 20.7308C13.1217 20.7348 13.1121 20.7387 13.1025 20.7426C13.093 20.7464 13.0835 20.7504 13.0739 20.7542C13.0644 20.758 13.0548 20.7615 13.0453 20.7651C13.0357 20.7688 13.0262 20.7725 13.0166 20.7761C13.0071 20.7796 12.9975 20.783 12.988 20.7864L12.9593 20.7966L12.9307 20.8064C12.9211 20.8096 12.9116 20.8127 12.902 20.8158C12.8925 20.8189 12.883 20.8221 12.8734 20.8251C12.8639 20.8281 12.8543 20.8308 12.8447 20.8337L12.8161 20.8423L12.7874 20.8505C12.7779 20.8532 12.7683 20.8557 12.7588 20.8583C12.7492 20.8608 12.7397 20.8636 12.7301 20.866C12.7206 20.8685 12.711 20.8707 12.7015 20.8731C12.6919 20.8754 12.6824 20.8778 12.6728 20.8801L12.6442 20.8867L12.6155 20.893C12.606 20.8951 12.5965 20.8973 12.5869 20.8993C12.5774 20.9012 12.5678 20.9029 12.5582 20.9048C12.5487 20.9066 12.5392 20.9085 12.5296 20.9103L12.5009 20.9155C12.4914 20.9171 12.4819 20.9186 12.4723 20.9202C12.4627 20.9218 12.4532 20.9235 12.4437 20.925C12.4341 20.9265 12.4246 20.9277 12.415 20.9291L12.3864 20.9331C12.3768 20.9344 12.3673 20.9357 12.3577 20.9369C12.3482 20.9381 12.3386 20.9391 12.3291 20.9402C12.3195 20.9413 12.31 20.9425 12.3004 20.9435C12.2909 20.9445 12.2813 20.9454 12.2718 20.9463L12.2431 20.9489C12.2336 20.9497 12.224 20.9507 12.2145 20.9514C12.2049 20.9521 12.1954 20.9526 12.1858 20.9532L12.1572 20.955L12.1285 20.9566C12.119 20.957 12.1094 20.9573 12.0999 20.9577C12.0903 20.958 12.0808 20.9585 12.0712 20.9588C12.0617 20.959 12.0521 20.9591 12.0426 20.9593L12.0139 20.9597C12.0051 20.9597 11.9963 20.96 11.9874 20.96H7.62656V14.6657C7.62656 14.6657 7.64773 14.6716 7.6881 14.6818L7.71676 14.689L7.7454 14.696L7.77404 14.7029L7.8027 14.7098L7.83134 14.7164L7.86 14.723L7.88864 14.7295L7.91728 14.7359L7.94594 14.7423L7.97458 14.7485L8.00322 14.7546L8.03188 14.7607L8.06052 14.7667L8.08918 14.7726L8.11782 14.7784L8.14646 14.7842L8.17512 14.7898L8.23242 14.801L8.26106 14.8065L8.2897 14.8119L8.31836 14.8172L8.347 14.8224L8.37566 14.8276L8.4043 14.8328L8.43294 14.8378L8.4616 14.8428L8.49024 14.8477L8.5189 14.8525L8.54754 14.8573L8.57618 14.8621L8.60484 14.8667L8.63348 14.8713L8.66214 14.8758L8.69078 14.8803L8.71942 14.8847L8.74808 14.889L8.77672 14.8933L8.80538 14.8975L8.83402 14.9017L8.86266 14.9058L8.89132 14.9098L8.9486 14.9177L8.97726 14.9215L9.0059 14.9253L9.03456 14.929L9.09184 14.9362L9.14914 14.9432L9.20644 14.95L9.26374 14.9565L9.29238 14.9596L9.34968 14.9658L9.40698 14.9716L9.46428 14.9773L9.49292 14.98L9.55022 14.9853L9.60752 14.9903L9.63616 14.9927L9.69346 14.9973L9.75074 15.0017L9.7794 15.0038L9.8367 15.0078L9.89398 15.0115L9.92264 15.0133L9.97994 15.0167L10.0372 15.0198L10.0659 15.0213L10.1232 15.024L10.1518 15.0253L10.2091 15.0277L10.2664 15.0297L10.2951 15.0306L10.3524 15.0323L10.381 15.0331L10.4383 15.0344L10.4956 15.0353L10.5242 15.0357L10.5815 15.0363L10.6102 15.0366L10.6675 15.0367L10.6785 15.0368L10.6961 15.0367L10.8107 15.036L10.9253 15.0339L10.954 15.0332L11.0399 15.0305L11.0686 15.0295L11.1831 15.0244L11.2118 15.0228L11.2977 15.0179L11.3264 15.0159L11.4123 15.0097L11.441 15.0074L11.5269 15L11.5556 14.9973L11.6415 14.9885L11.6702 14.9853L11.7561 14.9751L11.7847 14.9714L11.842 14.9637L11.8707 14.9598C11.8804 14.9584 11.8898 14.9569 11.8993 14.9554L11.9566 14.9468L11.9853 14.9422C11.9949 14.9407 12.0044 14.939 12.0139 14.9374L12.0426 14.9325C12.0521 14.9309 12.0618 14.9294 12.0712 14.9277C12.0809 14.926 12.0903 14.9241 12.0999 14.9224L12.1572 14.9116L12.1858 14.906C12.1955 14.9041 12.2049 14.902 12.2145 14.9L12.2431 14.8941L12.2718 14.8881C12.2814 14.886 12.2908 14.8838 12.3004 14.8816L12.3291 14.8751C12.3386 14.8729 12.3483 14.8709 12.3577 14.8686C12.3674 14.8664 12.3768 14.8639 12.3864 14.8616L12.415 14.8545C12.4245 14.8522 12.4342 14.8499 12.4437 14.8475C12.4533 14.845 12.4628 14.8424 12.4723 14.8399L12.5009 14.8322C12.5105 14.8296 12.5202 14.8271 12.5296 14.8245C12.5392 14.8218 12.5487 14.8191 12.5582 14.8163L12.5869 14.808C12.5964 14.8052 12.6061 14.8025 12.6155 14.7996L12.6442 14.7908L12.6728 14.7818C12.6824 14.7788 12.6921 14.7758 12.7015 14.7728L12.7301 14.7632L12.7588 14.7534C12.7683 14.7502 12.778 14.747 12.7874 14.7437C12.7971 14.7403 12.8065 14.7367 12.8161 14.7332L12.8447 14.7228C12.8543 14.7192 12.8639 14.7157 12.8734 14.7121C12.883 14.7084 12.8925 14.7046 12.902 14.7008C12.9116 14.6971 12.9212 14.6934 12.9307 14.6896L12.9593 14.6779L12.988 14.6658C12.9975 14.6617 13.0072 14.6578 13.0166 14.6537C13.0263 14.6495 13.0357 14.6451 13.0453 14.6408L13.0739 14.6278L13.1025 14.6145C13.1122 14.6099 13.1217 14.6052 13.1312 14.6006C13.1407 14.596 13.1504 14.5914 13.1598 14.5867C13.1695 14.5818 13.1789 14.5768 13.1885 14.5719C13.1981 14.5669 13.2077 14.5621 13.2171 14.5571C13.2268 14.5519 13.2363 14.5467 13.2458 14.5415C13.2554 14.5363 13.265 14.531 13.2744 14.5257C13.2841 14.5203 13.2936 14.5149 13.3031 14.5094C13.3127 14.5038 13.3222 14.4982 13.3317 14.4925C13.3413 14.4868 13.3509 14.4811 13.3604 14.4753C13.3701 14.4694 13.3795 14.4633 13.389 14.4573C13.3986 14.4513 13.4083 14.4452 13.4177 14.4391C13.4274 14.4328 13.4368 14.4263 13.4463 14.4199C13.4559 14.4134 13.4656 14.407 13.475 14.4005C13.4847 14.3937 13.4941 14.3869 13.5036 14.38C13.5132 14.3732 13.5229 14.3663 13.5323 14.3593C13.542 14.3521 13.5514 14.3448 13.5609 14.3375C13.5706 14.3301 13.5801 14.3227 13.5896 14.3152C13.5992 14.3076 13.6088 14.2998 13.6182 14.292C13.6279 14.284 13.6374 14.276 13.6469 14.2679C13.6565 14.2597 13.6661 14.2515 13.6755 14.2432C13.6853 14.2346 13.6947 14.2258 13.7042 14.2171C13.7138 14.2083 13.7234 14.1995 13.7328 14.1905C13.7425 14.1812 13.752 14.1718 13.7615 14.1624C13.7711 14.1528 13.7807 14.143 13.7901 14.1332C13.7997 14.1232 13.8094 14.1133 13.8187 14.1032C13.8285 14.0926 13.8379 14.0819 13.8474 14.0712C13.8571 14.0601 13.8666 14.049 13.876 14.0379C13.8857 14.0264 13.8954 14.0149 13.9047 14.0032C13.9144 13.9911 13.924 13.979 13.9333 13.9667C13.9431 13.9539 13.9526 13.9409 13.962 13.9279C13.9718 13.9144 13.9813 13.9008 13.9906 13.8871C14.0004 13.8728 14.01 13.8584 14.0193 13.8439C14.0291 13.8287 14.0386 13.8134 14.0479 13.7979C14.0577 13.7816 14.0673 13.7653 14.0766 13.7488C14.0864 13.7312 14.096 13.7136 14.1052 13.6958C14.1151 13.6768 14.1247 13.6577 14.1339 13.6384C14.1438 13.6177 14.1533 13.5967 14.1625 13.5757C14.1725 13.5528 14.1821 13.5297 14.1912 13.5065C14.2012 13.4809 14.2108 13.455 14.2198 13.4289C14.23 13.3994 14.2395 13.3695 14.2485 13.3393C14.2589 13.3041 14.2684 13.2686 14.2771 13.2326C14.2879 13.1881 14.2975 13.143 14.3058 13.0975C14.318 13.0296 14.3275 12.9607 14.3344 12.8909C14.344 12.7935 14.3487 12.6944 14.3487 12.5938V9.12846H11.7917V12.5938C11.7917 12.648 11.7893 12.7014 11.7847 12.7537C11.7789 12.8204 11.7693 12.8854 11.7561 12.9487C11.7479 12.9877 11.7384 13.026 11.7275 13.0636C11.7188 13.0936 11.7092 13.1231 11.6988 13.1521C11.6899 13.1767 11.6803 13.201 11.6702 13.225C11.6611 13.2463 11.6516 13.2673 11.6415 13.2881C11.6323 13.307 11.6228 13.3256 11.6129 13.3439C11.6037 13.3608 11.5941 13.3773 11.5842 13.3937C11.575 13.4091 11.5654 13.4244 11.5556 13.4393C11.5463 13.4534 11.5367 13.4672 11.5269 13.4809C11.5176 13.4939 11.5081 13.5069 11.4983 13.5195C11.489 13.5316 11.4794 13.5434 11.4696 13.5551C11.4603 13.5663 11.4507 13.5773 11.441 13.5883C11.4316 13.5988 11.4221 13.6092 11.4123 13.6194C11.4029 13.6292 11.3934 13.639 11.3837 13.6485C11.3743 13.6578 11.3647 13.667 11.355 13.6759C11.3456 13.6846 11.3361 13.6932 11.3264 13.7016C11.317 13.7098 11.3074 13.7179 11.2977 13.7259C11.2883 13.7336 11.2787 13.7412 11.2691 13.7488C11.2597 13.7561 11.2501 13.7633 11.2404 13.7704C11.231 13.7773 11.2215 13.7842 11.2118 13.7909C11.2024 13.7975 11.1928 13.8039 11.1831 13.8103C11.1737 13.8165 11.1642 13.8226 11.1545 13.8286C11.1451 13.8345 11.1355 13.8403 11.1258 13.846C11.1164 13.8516 11.1068 13.857 11.0972 13.8624C11.0878 13.8677 11.0782 13.8728 11.0686 13.8779C11.0591 13.883 11.0496 13.8879 11.0399 13.8927C11.0304 13.8974 11.0209 13.9021 11.0113 13.9067C11.0018 13.9111 10.9923 13.9156 10.9826 13.9199C10.9731 13.9242 10.9636 13.9284 10.954 13.9325C10.9445 13.9365 10.9349 13.9404 10.9253 13.9442C10.9159 13.948 10.9063 13.9517 10.8967 13.9553C10.8872 13.9589 10.8777 13.9624 10.868 13.9659C10.8585 13.9693 10.849 13.9726 10.8394 13.9759C10.8299 13.9791 10.8203 13.9822 10.8107 13.9852C10.8013 13.9882 10.7917 13.991 10.7821 13.9939C10.7726 13.9967 10.763 13.9995 10.7534 14.0021C10.7439 14.0048 10.7344 14.0074 10.7248 14.0099C10.7153 14.0124 10.7057 14.0147 10.6961 14.017C10.6867 14.0193 10.6771 14.0215 10.6675 14.0237C10.658 14.0258 10.6484 14.0279 10.6388 14.0299C10.6293 14.0319 10.6198 14.0338 10.6102 14.0357C10.6007 14.0375 10.5911 14.0392 10.5815 14.0409C10.572 14.0426 10.5625 14.0442 10.5529 14.0458L10.5242 14.0502C10.5147 14.0516 10.5052 14.0528 10.4956 14.0541C10.4861 14.0554 10.4766 14.0566 10.4669 14.0577L10.4383 14.0609C10.4288 14.0619 10.4192 14.0628 10.4097 14.0637C10.4001 14.0645 10.3906 14.0654 10.381 14.0661C10.3715 14.0669 10.3619 14.0675 10.3524 14.0681C10.3428 14.0688 10.3333 14.0693 10.3237 14.0698C10.3142 14.0703 10.3047 14.0708 10.2951 14.0712C10.2856 14.0716 10.276 14.0718 10.2664 14.0721L10.2378 14.0727C10.2283 14.0729 10.2187 14.0729 10.2091 14.073L10.1983 14.0731L10.1805 14.073L10.1518 14.0729L10.1232 14.0724L10.0945 14.0718L10.0659 14.0711L10.0372 14.0702L10.0086 14.069L9.97994 14.0676L9.95128 14.0662L9.92264 14.0645L9.89398 14.0626L9.86534 14.0606L9.8367 14.0583L9.80804 14.0559L9.7794 14.0533L9.75074 14.0506L9.7221 14.0476L9.69346 14.0445L9.6648 14.0412L9.63616 14.0378L9.60752 14.0341L9.57886 14.0303L9.55022 14.0263L9.52156 14.0221L9.49292 14.0178L9.46428 14.0133L9.43562 14.0087L9.40698 14.0038L9.37832 13.9988L9.34968 13.9936L9.32104 13.9883L9.29238 13.9828L9.26374 13.9771L9.23508 13.9713L9.20644 13.9653L9.1778 13.9591L9.14914 13.9528L9.1205 13.9463L9.09184 13.9397L9.0632 13.9329L9.03456 13.9259L9.0059 13.9188L8.97726 13.9116L8.9486 13.9041L8.91996 13.8965L8.89132 13.8887L8.86266 13.8808L8.83402 13.8728L8.80538 13.8646L8.77672 13.8562L8.74808 13.8477L8.71942 13.839L8.69078 13.8302L8.66214 13.8212L8.63348 13.8121L8.60484 13.8028L8.57618 13.7935L8.54754 13.7839L8.5189 13.7742L8.49024 13.7643L8.4616 13.7543L8.43294 13.7442L8.4043 13.7339L8.37566 13.7235L8.347 13.7129L8.31836 13.7022L8.2897 13.6914L8.26106 13.6804L8.23242 13.6693L8.20376 13.658L8.17512 13.6466L8.14646 13.6351L8.11782 13.6234L8.08918 13.6116L8.06052 13.5997L8.03188 13.5876L8.00322 13.5754L7.97458 13.5631L7.94594 13.5506L7.91728 13.538L7.88864 13.5253L7.86 13.5124L7.83134 13.4995L7.8027 13.4863L7.77404 13.4731L7.7454 13.4597L7.71676 13.4462L7.6881 13.4326Z" fill="#265797"/>
<path fill-rule="evenodd" clip-rule="evenodd" d="M16.0131 9.88564C15.9923 9.90261 15.9717 9.91972 15.9516 9.93704V6.02689C15.9516 5.81895 15.9729 5.61598 16.0131 5.41999C16.0218 5.37792 16.0314 5.33623 16.0418 5.29482C16.0507 5.25929 16.0603 5.22405 16.0704 5.18905C16.0795 5.15787 16.0891 5.1269 16.0991 5.09615C16.1083 5.06805 16.1178 5.0401 16.1277 5.01238C16.137 4.9867 16.1465 4.96113 16.1564 4.93578C16.1657 4.91208 16.1752 4.8885 16.185 4.86509C16.1943 4.84301 16.2039 4.82108 16.2137 4.79926C16.223 4.77855 16.2326 4.75798 16.2423 4.73752C16.2517 4.71798 16.2613 4.69863 16.271 4.67932C16.2803 4.66078 16.2899 4.64238 16.2996 4.62406C16.309 4.6064 16.3186 4.58886 16.3283 4.57142C16.3377 4.55453 16.3472 4.53771 16.3569 4.52103C16.3664 4.50483 16.3759 4.48871 16.3856 4.4727C16.395 4.45724 16.4045 4.44188 16.4142 4.42661C16.4236 4.41175 16.4332 4.39705 16.4429 4.38238C16.4523 4.36802 16.4618 4.35376 16.4715 4.33959C16.481 4.32569 16.4905 4.31178 16.5002 4.29807C16.5096 4.28478 16.5192 4.27171 16.5288 4.25862C16.5383 4.24572 16.5478 4.23289 16.5575 4.22015C16.567 4.20761 16.5764 4.19504 16.5861 4.18267C16.5955 4.17065 16.6052 4.1588 16.6148 4.14692C16.6243 4.13519 16.6338 4.12351 16.6434 4.11194C16.6529 4.10052 16.6624 4.08915 16.6721 4.0779C16.6815 4.06691 16.6911 4.05606 16.7007 4.04521C16.7102 4.03446 16.7197 4.02366 16.7294 4.01303C16.7388 4.00263 16.7484 3.99236 16.758 3.98211C16.7675 3.97198 16.777 3.96192 16.7866 3.95191C16.7962 3.94204 16.8057 3.93217 16.8153 3.92243C16.8248 3.91287 16.8344 3.90343 16.8439 3.89399C16.8535 3.8846 16.8629 3.87514 16.8726 3.86587C16.882 3.85682 16.8917 3.84798 16.9012 3.83904C16.9108 3.83013 16.9202 3.82119 16.9299 3.81243C16.9394 3.80382 16.949 3.79537 16.9585 3.78688C16.9681 3.77843 16.9776 3.76999 16.9872 3.76168C16.9967 3.75348 17.0063 3.74543 17.0158 3.73735C17.0254 3.72935 17.0349 3.72135 17.0445 3.71344C17.054 3.70565 17.0636 3.69793 17.0731 3.69026C17.0827 3.68264 17.0922 3.67507 17.1018 3.66756C17.1113 3.66016 17.1209 3.65282 17.1304 3.64551C17.14 3.63827 17.1495 3.63106 17.1591 3.62394C17.1686 3.61686 17.1782 3.60989 17.1877 3.60293C17.1973 3.59605 17.2068 3.58917 17.2164 3.58239C17.2259 3.57567 17.2355 3.56905 17.245 3.56244C17.2546 3.55587 17.2641 3.54932 17.2737 3.54287C17.2832 3.53649 17.2928 3.53021 17.3023 3.52392C17.3119 3.51766 17.3214 3.5114 17.331 3.50526C17.3405 3.49919 17.3501 3.49327 17.3596 3.48729C17.3692 3.48134 17.3787 3.47532 17.3883 3.46949C17.3978 3.46371 17.4074 3.45812 17.417 3.45246C17.4265 3.4468 17.436 3.44101 17.4456 3.43547C17.4551 3.43 17.4647 3.42474 17.4743 3.41937C17.4838 3.41399 17.4933 3.40857 17.5029 3.40331C17.5124 3.3981 17.522 3.39309 17.5315 3.38797C17.5411 3.38288 17.5506 3.37777 17.5602 3.37278L17.5888 3.35813L17.6175 3.34382C17.627 3.33914 17.6365 3.3344 17.6461 3.32982C17.6556 3.32525 17.6652 3.32083 17.6748 3.31637C17.6844 3.31192 17.6938 3.30733 17.7034 3.30299C17.7129 3.29866 17.7225 3.2946 17.7321 3.29039C17.7416 3.28619 17.7511 3.28191 17.7607 3.2778C17.7702 3.27374 17.7798 3.2698 17.7894 3.26583L17.818 3.25408C17.8276 3.25023 17.8371 3.24638 17.8467 3.24263C17.8562 3.23891 17.8658 3.23532 17.8753 3.23169C17.8849 3.22806 17.8944 3.22431 17.904 3.22077C17.9135 3.21728 17.9231 3.21403 17.9326 3.21064C17.9422 3.20725 17.9517 3.20381 17.9613 3.20051C17.9708 3.19721 17.9804 3.19406 17.9899 3.19088L18.0186 3.18154C18.0281 3.17848 18.0377 3.17535 18.0472 3.17237C18.0567 3.16943 18.0663 3.16666 18.0759 3.16381C18.0854 3.16094 18.0949 3.15801 18.1045 3.15523C18.114 3.15249 18.1236 3.14993 18.1332 3.14728L18.1618 3.13947C18.1714 3.13693 18.1809 3.13435 18.1905 3.13192C18.2 3.1295 18.2096 3.12723 18.2191 3.12489C18.2287 3.12255 18.2382 3.12011 18.2478 3.11787C18.2573 3.11564 18.2669 3.11357 18.2764 3.11144L18.3051 3.10518C18.3146 3.10315 18.3241 3.10105 18.3337 3.09911C18.3432 3.09718 18.3528 3.09543 18.3624 3.09359C18.3719 3.09175 18.3814 3.08982 18.391 3.08807L18.4197 3.0831L18.4483 3.07835C18.4579 3.07679 18.4674 3.07515 18.477 3.07369C18.4865 3.07223 18.4961 3.07101 18.5056 3.06965C18.5152 3.06831 18.5247 3.0669 18.5343 3.06564L18.5629 3.06203L18.5916 3.05873C18.6011 3.05766 18.6106 3.05641 18.6202 3.05543C18.6297 3.05446 18.6393 3.05374 18.6489 3.05285L18.6775 3.05032C18.6871 3.04951 18.6966 3.04872 18.7062 3.04803C18.7157 3.04734 18.7253 3.04679 18.7348 3.04619C18.7444 3.04559 18.7539 3.0449 18.7635 3.04437C18.773 3.04385 18.7826 3.04349 18.7921 3.04306L18.8208 3.04196C18.8303 3.04163 18.8398 3.04112 18.8494 3.04088C18.8589 3.04065 18.8685 3.04067 18.8781 3.04053C18.8876 3.04038 18.8972 3.04022 18.9067 3.04017L18.9194 3.04H23.2857V17.9734C23.2857 18.1032 23.2774 18.2311 23.2614 18.3566C23.2537 18.417 23.244 18.4768 23.2328 18.536C23.2242 18.5811 23.2147 18.6258 23.2041 18.6702C23.1952 18.7075 23.1857 18.7446 23.1755 18.7814C23.1664 18.8137 23.1569 18.8457 23.1468 18.8776C23.1377 18.9064 23.1281 18.935 23.1182 18.9634C23.109 18.9897 23.0994 19.0159 23.0895 19.0418C23.0803 19.0661 23.0708 19.0901 23.0609 19.1141C23.0516 19.1366 23.042 19.159 23.0322 19.1813C23.0229 19.2024 23.0134 19.2234 23.0036 19.2442C22.9942 19.2642 22.9847 19.284 22.9749 19.3036C22.9656 19.3225 22.956 19.3413 22.9463 19.3599C22.9369 19.3779 22.9274 19.3957 22.9176 19.4135C22.9082 19.4306 22.8987 19.4477 22.889 19.4646C22.8796 19.481 22.87 19.4972 22.8603 19.5133C22.8509 19.5289 22.8414 19.5444 22.8317 19.5599C22.8223 19.5749 22.8127 19.5899 22.803 19.6048C22.7936 19.6193 22.7841 19.6339 22.7744 19.6482C22.765 19.6622 22.7554 19.676 22.7457 19.6897C22.7363 19.7032 22.7267 19.7165 22.7171 19.7298C22.7076 19.7429 22.6981 19.756 22.6884 19.7689C22.679 19.7814 22.6694 19.7939 22.6598 19.8064C22.6504 19.8186 22.6407 19.8306 22.6311 19.8426C22.6216 19.8545 22.6122 19.8664 22.6025 19.8781C22.5931 19.8895 22.5834 19.9008 22.5738 19.9122C22.5644 19.9233 22.5548 19.9343 22.5452 19.9453C22.5357 19.9562 22.5262 19.967 22.5165 19.9777C22.5071 19.9882 22.4975 19.9985 22.4879 20.0088C22.4784 20.0191 22.4689 20.0294 22.4592 20.0395C22.4498 20.0494 22.4402 20.0592 22.4306 20.0689C22.4211 20.0786 22.4116 20.0882 22.402 20.0978C22.3925 20.1072 22.3829 20.1166 22.3733 20.1259C22.3638 20.1351 22.3542 20.1441 22.3447 20.1531C22.3351 20.1621 22.3256 20.1711 22.316 20.18C22.3065 20.1886 22.2969 20.1971 22.2873 20.2057C22.2778 20.2142 22.2683 20.2228 22.2587 20.2312C22.2492 20.2394 22.2396 20.2475 22.23 20.2556C22.2205 20.2637 22.211 20.2718 22.2014 20.2798C22.1919 20.2876 22.1823 20.2953 22.1728 20.303C22.1632 20.3107 22.1537 20.3184 22.1441 20.326C22.1346 20.3335 22.125 20.3407 22.1155 20.3481C22.1059 20.3554 22.0964 20.3627 22.0868 20.3699C22.0773 20.377 22.0677 20.384 22.0582 20.3909C22.0486 20.3979 22.0391 20.405 22.0295 20.4118C22.02 20.4185 22.0104 20.4251 22.0009 20.4317C21.9913 20.4384 21.9818 20.4451 21.9722 20.4516C21.9627 20.458 21.9531 20.4643 21.9436 20.4706C21.934 20.4769 21.9245 20.4833 21.9149 20.4895C21.9054 20.4956 21.8958 20.5015 21.8862 20.5075C21.8767 20.5135 21.8672 20.5195 21.8576 20.5254C21.8481 20.5312 21.8385 20.5368 21.8289 20.5425C21.8194 20.5482 21.8099 20.554 21.8003 20.5596C21.7908 20.5651 21.7812 20.5705 21.7716 20.5759L21.743 20.592L21.7143 20.6076L21.6857 20.6228C21.6762 20.6278 21.6667 20.6328 21.6571 20.6377C21.6476 20.6425 21.638 20.6472 21.6284 20.652C21.6189 20.6568 21.6094 20.6616 21.5998 20.6662C21.5903 20.6708 21.5806 20.6752 21.5711 20.6797C21.5616 20.6842 21.5521 20.6888 21.5425 20.6931C21.533 20.6975 21.5233 20.7017 21.5138 20.7059L21.4852 20.7185L21.4565 20.7307L21.4279 20.7425C21.4183 20.7464 21.4088 20.7503 21.3992 20.7541C21.3897 20.7579 21.3801 20.7614 21.3706 20.7651C21.361 20.7687 21.3515 20.7724 21.3419 20.776C21.3324 20.7795 21.3228 20.7829 21.3133 20.7863L21.2846 20.7965L21.256 20.8063C21.2465 20.8095 21.2369 20.8126 21.2273 20.8157C21.2177 20.8188 21.2082 20.822 21.1987 20.825C21.1892 20.828 21.1796 20.8308 21.17 20.8337L21.1414 20.8422L21.1127 20.8504C21.1032 20.8531 21.0936 20.8556 21.0841 20.8582C21.0745 20.8608 21.065 20.8635 21.0554 20.866C21.0459 20.8684 21.0363 20.8706 21.0268 20.873C21.0172 20.8754 21.0077 20.8778 20.9981 20.88L20.9695 20.8867L20.9408 20.8929C20.9313 20.895 20.9218 20.8972 20.9122 20.8992C20.9027 20.9012 20.8931 20.9029 20.8835 20.9047L20.8549 20.9102L20.8262 20.9154C20.8167 20.9171 20.8071 20.9186 20.7976 20.9202C20.788 20.9218 20.7785 20.9235 20.7689 20.9249C20.7594 20.9264 20.7498 20.9277 20.7403 20.9291L20.7116 20.9331C20.7021 20.9344 20.6925 20.9357 20.683 20.9369C20.6735 20.9381 20.6639 20.9391 20.6543 20.9402C20.6448 20.9413 20.6353 20.9425 20.6257 20.9435C20.6162 20.9445 20.6066 20.9454 20.597 20.9463L20.5684 20.9489C20.5588 20.9497 20.5493 20.9507 20.5397 20.9514C20.5302 20.9521 20.5206 20.9526 20.5111 20.9532L20.4824 20.955L20.4538 20.9566C20.4443 20.957 20.4347 20.9573 20.4251 20.9576C20.4156 20.958 20.406 20.9584 20.3965 20.9587C20.387 20.959 20.3774 20.9591 20.3678 20.9593L20.3392 20.9597C20.3303 20.9597 20.3214 20.96 20.3124 20.96H15.9516V14.0642C15.9717 14.0815 15.9923 14.0985 16.0131 14.1155C16.0226 14.1232 16.0322 14.1308 16.0418 14.1384C16.0513 14.1459 16.0608 14.1534 16.0704 14.1608C16.08 14.1682 16.0894 14.1755 16.0991 14.1827C16.1085 14.1898 16.1182 14.1968 16.1277 14.2039C16.1372 14.2108 16.1468 14.2177 16.1564 14.2245C16.1659 14.2313 16.1754 14.2381 16.185 14.2448L16.2137 14.2645C16.2231 14.2709 16.2327 14.2773 16.2423 14.2837L16.271 14.3024C16.2805 14.3086 16.29 14.3147 16.2996 14.3208C16.3091 14.3268 16.3187 14.3327 16.3283 14.3387L16.3569 14.3562C16.3665 14.3619 16.376 14.3676 16.3856 14.3733C16.3951 14.3789 16.4046 14.3844 16.4142 14.3899L16.4429 14.4063L16.4715 14.4222L16.5002 14.4378C16.5097 14.4429 16.5192 14.4481 16.5288 14.4531C16.5383 14.4581 16.5479 14.463 16.5575 14.4679L16.5861 14.4826L16.6148 14.4969L16.6434 14.5108C16.653 14.5154 16.6625 14.52 16.6721 14.5245L16.7007 14.5378L16.7294 14.551L16.758 14.5637L16.7866 14.5763L16.8153 14.5886L16.8439 14.6006L16.8726 14.6124L16.9012 14.6238L16.9299 14.6352L16.9585 14.6462C16.9681 14.6498 16.9776 14.6535 16.9872 14.6571L17.0158 14.6675C17.0254 14.671 17.0349 14.6746 17.0445 14.678C17.054 14.6814 17.0636 14.6847 17.0731 14.688L17.1018 14.6981L17.1304 14.7077C17.14 14.7109 17.1495 14.7142 17.1591 14.7173C17.1686 14.7205 17.1782 14.7235 17.1877 14.7266L17.2164 14.7358L17.2737 14.7534L17.3023 14.7619L17.331 14.7703L17.3596 14.7785L17.3883 14.7866L17.417 14.7944L17.4456 14.8021L17.4743 14.8096L17.5029 14.8169L17.5315 14.8242L17.5888 14.8381L17.6175 14.8448L17.6461 14.8513L17.6748 14.8577L17.7034 14.864L17.7321 14.8702L17.7894 14.8821L17.8467 14.8933L17.8753 14.8988L17.904 14.9041L17.9326 14.9094L17.9899 14.9193L18.0186 14.9241L18.0472 14.9288L18.0759 14.9334L18.1332 14.9422L18.1618 14.9464L18.2191 14.9546L18.2764 14.9622L18.3051 14.9658L18.3624 14.9729L18.391 14.9762L18.4483 14.9826L18.5056 14.9886L18.5343 14.9914L18.5916 14.9968L18.6202 14.9994L18.6775 15.0042L18.7062 15.0065L18.7635 15.0108L18.8494 15.0166L18.9354 15.0216L19.0213 15.0259L19.0786 15.0282L19.1073 15.0294L19.1932 15.0322L19.2791 15.0344L19.3651 15.0358L19.451 15.0367L19.4797 15.0368L19.537 15.0369L19.5656 15.0368L19.6229 15.0365L19.6516 15.0362L19.7376 15.0351L19.8235 15.0333L19.8522 15.0326L19.9095 15.031L19.9381 15.0301L20.024 15.0271L20.11 15.0235L20.124 15.0229L20.1673 15.0208L20.1959 15.0193L20.2246 15.0177L20.2819 15.0142L20.3392 15.0103L20.3965 15.0061L20.4251 15.0038L20.4538 15.0014L20.4824 14.999L20.5111 14.9964L20.5397 14.9938L20.597 14.9883L20.6543 14.9826L20.7116 14.9764L20.7403 14.9732L20.7689 14.97L20.7976 14.9667L20.8262 14.9633L20.8549 14.9598L20.8835 14.9563L20.9122 14.9527L20.9695 14.9453L21.0268 14.9376L21.0554 14.9336L21.0841 14.9296L21.1127 14.9256L21.17 14.9172L21.2273 14.9086L21.256 14.9042L21.2846 14.8998L21.3133 14.8952L21.3706 14.886L21.3992 14.8814L21.4565 14.8718L21.4852 14.8669L21.5138 14.862L21.5425 14.857L21.5711 14.8519L21.5998 14.8468L21.6284 14.8417L21.6571 14.8365L21.6857 14.8312L21.7143 14.8259L21.743 14.8205L21.7716 14.815L21.8003 14.8095L21.8289 14.804L21.8576 14.7984L21.8862 14.7927L21.9149 14.787L21.9436 14.7812L21.9722 14.7754L22.0009 14.7695L22.0582 14.7575L22.0868 14.7515L22.1441 14.7391L22.1728 14.7329L22.2014 14.7266L22.23 14.7202L22.2587 14.7138L22.2873 14.7073L22.316 14.7007L22.3447 14.694L22.3733 14.6872L22.402 14.6804L22.4306 14.6735L22.4591 14.6664V13.403L22.4306 13.4172L22.402 13.4315L22.3733 13.4455L22.3447 13.4595L22.316 13.4733L22.2873 13.487L22.2587 13.5006L22.23 13.514L22.2014 13.5272L22.1728 13.5404L22.1441 13.5534L22.1155 13.5662L22.0868 13.5789L22.0582 13.5914L22.0295 13.6038L22.0009 13.616L21.9722 13.6281L21.9436 13.6401L21.9149 13.6518L21.8862 13.6634L21.8576 13.6749L21.8289 13.6862L21.8003 13.6973L21.7716 13.7083L21.743 13.7191L21.7143 13.7298L21.6857 13.7403L21.6571 13.7506L21.6284 13.7608L21.5998 13.7708L21.5711 13.7806L21.5425 13.7903L21.5138 13.7998L21.4852 13.8092L21.4565 13.8184L21.4279 13.8274L21.3992 13.8362L21.3706 13.8449L21.3419 13.8535L21.3133 13.8619L21.2846 13.8701L21.256 13.8781L21.2273 13.886L21.1987 13.8937L21.17 13.9012L21.1414 13.9086L21.1127 13.9158L21.0841 13.9229L21.0554 13.9298L21.0268 13.9365L20.9981 13.9431L20.9695 13.9495L20.9408 13.9558L20.9122 13.9619L20.8835 13.9678L20.8549 13.9736L20.8262 13.9792L20.7976 13.9846L20.7689 13.9899L20.7403 13.995L20.7116 14L20.683 14.0048L20.6543 14.0095L20.6257 14.014L20.597 14.0183L20.5684 14.0225L20.5397 14.0266L20.5111 14.0304L20.4824 14.0341L20.4538 14.0377L20.4251 14.0412L20.3965 14.0444L20.3678 14.0475L20.3392 14.0505L20.3105 14.0533L20.2819 14.056L20.2532 14.0585L20.2246 14.0608L20.2072 14.0622L20.1386 14.0668L20.11 14.0684L20.0813 14.0698L20.0527 14.0712L19.9954 14.073L19.9667 14.0737L19.9381 14.0741L19.9095 14.0745C19.8998 14.0745 19.8904 14.0744 19.8808 14.0744L19.8522 14.0743L19.8235 14.0738L19.7949 14.0732L19.7662 14.0725C19.7566 14.0722 19.7471 14.0717 19.7376 14.0713C19.728 14.0709 19.7184 14.0706 19.7089 14.0701L19.6803 14.0685L19.6516 14.0668L19.6229 14.0648L19.5943 14.0625C19.5847 14.0617 19.5751 14.0611 19.5656 14.0602C19.556 14.0593 19.5465 14.0583 19.537 14.0573L19.5083 14.0544L19.4797 14.0511L19.451 14.0476L19.4224 14.0438L19.3937 14.0397C19.3842 14.0383 19.3746 14.0369 19.3651 14.0354C19.3555 14.0339 19.346 14.0323 19.3364 14.0307C19.3269 14.0291 19.3173 14.0276 19.3078 14.0259C19.2982 14.0242 19.2887 14.0223 19.2791 14.0205C19.2696 14.0187 19.26 14.017 19.2505 14.0151C19.2409 14.0132 19.2314 14.0111 19.2219 14.0091C19.2123 14.0071 19.2027 14.0051 19.1932 14.003C19.1836 14.0009 19.1741 13.9986 19.1646 13.9964L19.1359 13.9897C19.1263 13.9873 19.1168 13.9848 19.1073 13.9824C19.0977 13.9799 19.0881 13.9775 19.0786 13.9749C19.069 13.9724 19.0595 13.9697 19.05 13.967C19.0404 13.9643 19.0308 13.9616 19.0213 13.9588C19.0117 13.9559 19.0022 13.953 18.9927 13.95C18.9831 13.9471 18.9735 13.9441 18.964 13.9411C18.9544 13.938 18.9449 13.9348 18.9354 13.9316C18.9258 13.9283 18.9162 13.9251 18.9067 13.9218C18.8971 13.9184 18.8876 13.9149 18.8781 13.9114C18.8685 13.9079 18.8589 13.9044 18.8494 13.9008C18.8398 13.8971 18.8303 13.8933 18.8208 13.8895C18.8112 13.8857 18.8016 13.882 18.7921 13.8781C18.7825 13.8741 18.773 13.8699 18.7635 13.8658C18.7539 13.8617 18.7443 13.8576 18.7348 13.8533C18.7252 13.849 18.7157 13.8445 18.7062 13.8401C18.6966 13.8356 18.687 13.8311 18.6775 13.8265C18.6679 13.8218 18.6583 13.8171 18.6489 13.8123C18.6392 13.8074 18.6297 13.8024 18.6202 13.7974C18.6106 13.7924 18.601 13.7874 18.5916 13.7822C18.5819 13.7769 18.5724 13.7715 18.5629 13.7661C18.5533 13.7606 18.5437 13.7552 18.5343 13.7495C18.5246 13.7438 18.5151 13.738 18.5056 13.7322C18.496 13.7262 18.4865 13.7202 18.477 13.7141C18.4674 13.708 18.4577 13.7018 18.4483 13.6956C18.4386 13.6891 18.4292 13.6824 18.4197 13.6758C18.41 13.6691 18.4005 13.6624 18.391 13.6555C18.3814 13.6485 18.3718 13.6416 18.3624 13.6345C18.3527 13.6272 18.3432 13.6197 18.3337 13.6122C18.3241 13.6046 18.3145 13.597 18.3051 13.5892C18.2955 13.5813 18.2858 13.5734 18.2764 13.5653C18.2667 13.557 18.2572 13.5485 18.2478 13.54C18.2381 13.5314 18.2286 13.5226 18.2191 13.5137C18.2095 13.5046 18.1999 13.4955 18.1905 13.4862C18.1808 13.4768 18.1712 13.4673 18.1618 13.4576C18.1521 13.4477 18.1426 13.4375 18.1332 13.4272C18.1235 13.4167 18.114 13.4061 18.1045 13.3954C18.0948 13.3843 18.0853 13.3732 18.0759 13.3619C18.0662 13.3503 18.0566 13.3386 18.0472 13.3267C18.0375 13.3144 18.0279 13.302 18.0186 13.2894C18.0089 13.2764 17.9993 13.2633 17.9899 13.25C17.9802 13.2362 17.9706 13.2222 17.9613 13.208C17.9515 13.1932 17.942 13.1783 17.9326 13.1631C17.9228 13.1473 17.9133 13.1312 17.904 13.115C17.8941 13.0979 17.8846 13.0805 17.8753 13.063C17.8655 13.0445 17.8559 13.0256 17.8467 13.0066C17.8368 12.9864 17.8272 12.9658 17.818 12.945C17.8081 12.9227 17.7985 12.9002 17.7894 12.8772C17.7793 12.8519 17.7699 12.826 17.7607 12.7999C17.7506 12.771 17.741 12.7417 17.7321 12.7119C17.7217 12.6773 17.7122 12.6422 17.7034 12.6064C17.6926 12.562 17.6831 12.5165 17.6748 12.4703C17.6624 12.4017 17.6528 12.3312 17.6461 12.2588C17.6384 12.1752 17.6345 12.0891 17.6345 12.0005C17.6345 11.9118 17.6384 11.8256 17.6461 11.742C17.6528 11.6695 17.6624 11.599 17.6748 11.5304C17.6831 11.4842 17.6926 11.4387 17.7034 11.3942C17.7122 11.3584 17.7217 11.3233 17.7321 11.2887C17.741 11.2589 17.7506 11.2295 17.7607 11.2006C17.7699 11.1745 17.7793 11.1486 17.7894 11.1233C17.7985 11.1003 17.8081 11.0777 17.818 11.0554C17.8272 11.0346 17.8368 11.0141 17.8467 10.9938C17.8559 10.9748 17.8655 10.9559 17.8753 10.9374C17.8846 10.9198 17.8941 10.9025 17.904 10.8854C17.9133 10.8691 17.9228 10.8531 17.9326 10.8372C17.942 10.822 17.9515 10.8071 17.9613 10.7923C17.9706 10.7781 17.9802 10.7642 17.9899 10.7503C17.9993 10.737 18.0089 10.7239 18.0186 10.7108C18.0279 10.6983 18.0375 10.6859 18.0472 10.6736C18.0566 10.6617 18.0662 10.65 18.0759 10.6384C18.0853 10.6271 18.0948 10.6159 18.1045 10.6049C18.114 10.5941 18.1235 10.5835 18.1332 10.573C18.1426 10.5628 18.1521 10.5525 18.1618 10.5425C18.1712 10.5329 18.1808 10.5234 18.1905 10.5139C18.1999 10.5047 18.2095 10.4956 18.2191 10.4865C18.2286 10.4776 18.2381 10.4688 18.2478 10.4601C18.2572 10.4516 18.2667 10.4431 18.2764 10.4348C18.2858 10.4267 18.2955 10.4189 18.3051 10.4109C18.3145 10.4032 18.3241 10.3955 18.3337 10.3879C18.3432 10.3804 18.3527 10.3729 18.3624 10.3656C18.3718 10.3585 18.3814 10.3516 18.391 10.3446C18.4005 10.3377 18.41 10.331 18.4197 10.3243C18.4292 10.3176 18.4386 10.311 18.4483 10.3045C18.4577 10.2982 18.4674 10.2921 18.477 10.286C18.4865 10.2799 18.496 10.2738 18.5056 10.2679C18.5151 10.262 18.5246 10.2562 18.5343 10.2505C18.5437 10.2449 18.5533 10.2395 18.5629 10.234C18.5724 10.2286 18.5819 10.2231 18.5916 10.2178C18.601 10.2127 18.6106 10.2076 18.6202 10.2026C18.6297 10.1976 18.6392 10.1927 18.6489 10.1878C18.6583 10.183 18.6679 10.1782 18.6775 10.1736C18.687 10.1689 18.6966 10.1644 18.7062 10.16C18.7157 10.1555 18.7252 10.151 18.7348 10.1467C18.7443 10.1424 18.7539 10.1384 18.7635 10.1342C18.773 10.1301 18.7825 10.1259 18.7921 10.1219C18.8016 10.118 18.8112 10.1143 18.8208 10.1105C18.8303 10.1067 18.8398 10.1029 18.8494 10.0992C18.8589 10.0956 18.8685 10.0921 18.8781 10.0886C18.8876 10.0851 18.8971 10.0816 18.9067 10.0782C18.9162 10.0749 18.9258 10.0716 18.9354 10.0684C18.9449 10.0652 18.9544 10.062 18.964 10.0589C18.9735 10.0559 18.9831 10.0529 18.9927 10.0499C19.0022 10.047 19.0117 10.0441 19.0213 10.0412L19.05 10.033C19.0595 10.0303 19.069 10.0276 19.0786 10.025C19.0881 10.0225 19.0977 10.02 19.1073 10.0176C19.1168 10.0151 19.1263 10.0127 19.1359 10.0103L19.1646 10.0036C19.1741 10.0013 19.1836 9.99906 19.1932 9.99694C19.2027 9.99483 19.2123 9.99288 19.2219 9.99087C19.2314 9.98886 19.2409 9.98676 19.2505 9.98485C19.26 9.98296 19.2696 9.98126 19.2791 9.97947C19.2887 9.97768 19.2982 9.97579 19.3078 9.97407C19.3173 9.97237 19.3269 9.97089 19.3364 9.96929C19.346 9.96769 19.3555 9.96604 19.3651 9.96454L19.3937 9.96026L19.4224 9.95615L19.451 9.95235L19.4797 9.94886L19.5083 9.94552L19.537 9.94263C19.5465 9.94167 19.556 9.94062 19.5656 9.93974C19.5751 9.93885 19.5847 9.93818 19.5943 9.9374L19.6229 9.9351L19.6516 9.93312L19.6803 9.9314L19.7089 9.9298C19.7184 9.92932 19.728 9.92901 19.7376 9.92863C19.7471 9.92824 19.7566 9.92777 19.7662 9.92746L19.7949 9.92672L19.8235 9.9261L19.8522 9.92566L19.8808 9.92557C19.8904 9.92555 19.8998 9.92543 19.9095 9.92547L19.9381 9.92583L19.9667 9.92626L19.9954 9.92688L20.0527 9.92875L20.0813 9.93009L20.11 9.93154L20.1386 9.9331L20.2072 9.93771L20.2532 9.94139L20.2819 9.94387L20.3105 9.9465L20.3392 9.94925L20.3678 9.95219L20.3965 9.95527L20.4251 9.95847L20.4538 9.96184L20.4824 9.96537L20.5111 9.96903L20.5397 9.97285L20.5684 9.97687L20.597 9.98098L20.6257 9.98525L20.6543 9.98972L20.683 9.99433L20.7116 9.99906L20.7403 10.004L20.7689 10.0091L20.7976 10.0143L20.8262 10.0197L20.8549 10.0253L20.8835 10.031L20.9122 10.0369L20.9408 10.0429L20.9695 10.0491L20.9981 10.0555L21.0268 10.062L21.0554 10.0687L21.0841 10.0756L21.1127 10.0826L21.1414 10.0898L21.17 10.0971L21.1987 10.1046L21.2273 10.1123L21.256 10.1202L21.2846 10.1282L21.3133 10.1364L21.3419 10.1447L21.3706 10.1533L21.3992 10.162L21.4279 10.1708L21.4565 10.1798L21.4852 10.189L21.5138 10.1984L21.5425 10.2079L21.5711 10.2176L21.5998 10.2275L21.6284 10.2375L21.6571 10.2477L21.6857 10.2581L21.7143 10.2686L21.743 10.2793L21.7716 10.2901L21.8003 10.3012L21.8289 10.3124L21.8576 10.3237L21.8862 10.3352L21.9149 10.3469L21.9436 10.3588L21.9722 10.3708L22.0009 10.3829L22.0295 10.3953L22.0582 10.4077L22.0868 10.4204L22.1155 10.4331L22.1441 10.4461L22.1728 10.4592L22.2014 10.4724L22.23 10.4858L22.2587 10.4994L22.2873 10.513L22.316 10.5268L22.3447 10.5408L22.3733 10.5549L22.402 10.5691L22.4306 10.5835L22.4591 10.5978V9.33353L22.4306 9.32646L22.402 9.31953L22.3733 9.3127L22.3447 9.30594L22.316 9.29927L22.2873 9.2927L22.2587 9.28618L22.23 9.27973L22.1728 9.26704L22.1441 9.2608L22.0868 9.24848L22.0582 9.24243L22.0295 9.23643L22.0009 9.23049L21.9722 9.22458L21.9436 9.21875L21.9149 9.21297L21.8862 9.20726L21.8289 9.19598L21.8003 9.19044L21.7716 9.18495L21.743 9.17952L21.7143 9.17415L21.6857 9.16882L21.6571 9.16356L21.6284 9.15835L21.5998 9.15319L21.5711 9.1481L21.5425 9.14306L21.5138 9.13807L21.4565 9.1283L21.4279 9.1235L21.3992 9.11874L21.3706 9.11406L21.3133 9.10486L21.256 9.0959L21.2273 9.09153L21.1987 9.0872L21.17 9.08292L21.1414 9.07874L21.1127 9.07461L21.0841 9.07055L21.0554 9.06656L21.0268 9.06262L20.9981 9.05874L20.9695 9.05492L20.9122 9.04754L20.8835 9.04393L20.8549 9.0404L20.8262 9.03695L20.7976 9.03359L20.7689 9.03026L20.7403 9.02704L20.7116 9.02386L20.6543 9.01777L20.597 9.01201L20.5684 9.00924L20.5397 9.00654L20.5111 9.00396L20.4824 9.00143L20.4538 8.99899L20.4251 8.99665L20.3965 8.99438L20.3392 8.99013L20.2819 8.98625L20.2246 8.98279L20.1959 8.98121L20.1673 8.97971L20.1386 8.97832L20.124 8.97763L20.024 8.97345L19.9381 8.97046L19.9095 8.9696L19.8522 8.968L19.8235 8.96726L19.7376 8.96549L19.6516 8.96434L19.6229 8.96411L19.5656 8.96379L19.537 8.96372L19.4797 8.96382L19.451 8.96391L19.3651 8.96475L19.2791 8.96623L19.1932 8.96838L19.1073 8.97123L19.0213 8.97476L18.9354 8.97902L18.8494 8.98401L18.7635 8.98979L18.7062 8.99416L18.6775 8.99641L18.6202 9.00126L18.5916 9.00382L18.5343 9.00922L18.5056 9.01208L18.4483 9.01803L18.391 9.02448L18.3624 9.02778L18.3051 9.03483L18.2764 9.03853L18.2191 9.04613L18.1618 9.05428L18.1332 9.05848L18.0759 9.06725L18.0472 9.07189L18.0186 9.07659L17.9899 9.08139L17.9326 9.09136L17.904 9.09661L17.8753 9.10194L17.8467 9.10739L17.7894 9.11864L17.7321 9.13054L17.7034 9.13671L17.6748 9.14299L17.6461 9.14939L17.5888 9.16265L17.5315 9.17661L17.5029 9.18385L17.4743 9.19118L17.4456 9.19873L17.417 9.20643L17.3883 9.21426L17.3596 9.22231L17.331 9.23049L17.3023 9.23892L17.2737 9.2474L17.245 9.25622L17.2164 9.26508L17.1877 9.2743C17.1782 9.27739 17.1686 9.2804 17.1591 9.28353L17.1304 9.29316C17.1209 9.29636 17.1113 9.29951 17.1018 9.30278L17.0445 9.32285C17.0349 9.32629 17.0254 9.32985 17.0158 9.33334C17.0063 9.33683 16.9967 9.34027 16.9872 9.34383L16.9585 9.35475C16.949 9.35841 16.9394 9.36199 16.9299 9.36569L16.9012 9.37707L16.8726 9.38853L16.8439 9.40036L16.8153 9.41236L16.7866 9.42464L16.758 9.4372L16.7294 9.44996L16.7007 9.46313L16.6721 9.47641C16.6625 9.48095 16.653 9.48559 16.6434 9.49017L16.6148 9.5041L16.5861 9.51842L16.5575 9.53304C16.5479 9.53798 16.5383 9.54288 16.5288 9.54787C16.5192 9.55294 16.5097 9.5581 16.5002 9.56324L16.4715 9.57882L16.4429 9.59475C16.4333 9.60017 16.4237 9.60565 16.4142 9.61114C16.4046 9.61666 16.3951 9.62216 16.3856 9.62775C16.376 9.63341 16.3665 9.63914 16.3569 9.64488C16.3473 9.65068 16.3378 9.65654 16.3283 9.66242C16.3187 9.66834 16.3091 9.67427 16.2996 9.68024C16.29 9.68633 16.2805 9.6925 16.271 9.69864L16.2423 9.71744C16.2327 9.72382 16.2231 9.73015 16.2137 9.7366L16.185 9.75634C16.1754 9.76305 16.1659 9.76981 16.1564 9.77658C16.1468 9.78343 16.1372 9.79034 16.1277 9.79729C16.1182 9.80431 16.1085 9.81131 16.0991 9.81841C16.0894 9.82567 16.08 9.83298 16.0704 9.84032C16.0608 9.84775 16.0513 9.85523 16.0418 9.86273C16.0322 9.87033 16.0226 9.87795 16.0131 9.88564Z" fill="#CA4638"/>
</g>
<defs>
<clipPath id="clip0_250_2574">
<rect width="39" height="24" rx="4" fill="white"/>
</clipPath>
</defs>
</svg>
